<?xml version="1.0" encoding="utf-8" standalone="no"?>
<!DOCTYPE svg PUBLIC "-//W3C//DTD SVG 1.1//EN"
  "http://www.w3.org/Graphics/SVG/1.1/DTD/svg11.dtd">
<svg xmlns:xlink="http://www.w3.org/1999/xlink" width="460.8pt" height="306.718125pt" viewBox="0 0 460.8 306.718125" xmlns="http://www.w3.org/2000/svg" version="1.1">
 <metadata>
  <rdf:RDF xmlns:dc="http://purl.org/dc/elements/1.1/" xmlns:cc="http://creativecommons.org/ns#" xmlns:rdf="http://www.w3.org/1999/02/22-rdf-syntax-ns#">
   <cc:Work>
    <dc:type rdf:resource="http://purl.org/dc/dcmitype/StillImage"/>
    <dc:date>2022-11-24T19:11:15.031218</dc:date>
    <dc:format>image/svg+xml</dc:format>
    <dc:creator>
     <cc:Agent>
      <dc:title>Matplotlib v3.6.2, https://matplotlib.org/</dc:title>
     </cc:Agent>
    </dc:creator>
   </cc:Work>
  </rdf:RDF>
 </metadata>
 <defs>
  <style type="text/css">*{stroke-linejoin: round; stroke-linecap: butt}</style>
 </defs>
 <g id="figure_1">
  <g id="patch_1">
   <path d="M 0 306.718125 
L 460.8 306.718125 
L 460.8 0 
L 0 0 
z
" style="fill: #ffffff"/>
  </g>
  <g id="axes_1">
   <g id="patch_2">
    <path d="M 7.2 299.518125 
L 453.6 299.518125 
L 453.6 22.318125 
L 7.2 22.318125 
z
" style="fill: #ffffff"/>
   </g>
   <g id="LineCollection_1">
    <path d="M 61.179407 119.711295 
L 45.93719 87.794823 
" clip-path="url(#pe695e7566a)" style="fill: none; stroke: #808080; stroke-opacity: 0.5; stroke-width: 3"/>
    <path d="M 61.179407 119.711295 
L 94.749245 151.312278 
" clip-path="url(#pe695e7566a)" style="fill: none; stroke: #808080; stroke-opacity: 0.5; stroke-width: 3"/>
    <path d="M 414.86281 214.676177 
L 382.502296 217.451025 
" clip-path="url(#pe695e7566a)" style="fill: none; stroke: #808080; stroke-opacity: 0.5; stroke-width: 3"/>
    <path d="M 382.502296 217.451025 
L 338.440493 221.544437 
" clip-path="url(#pe695e7566a)" style="fill: none; stroke: #808080; stroke-opacity: 0.5; stroke-width: 3"/>
    <path d="M 223.441372 189.913365 
L 234.452236 173.057645 
" clip-path="url(#pe695e7566a)" style="fill: none; stroke: #808080; stroke-opacity: 0.5; stroke-width: 3"/>
    <path d="M 223.441372 189.913365 
L 281.227626 217.358628 
" clip-path="url(#pe695e7566a)" style="fill: none; stroke: #808080; stroke-opacity: 0.5; stroke-width: 3"/>
    <path d="M 223.441372 189.913365 
L 159.919387 162.743429 
" clip-path="url(#pe695e7566a)" style="fill: none; stroke: #808080; stroke-opacity: 0.5; stroke-width: 3"/>
    <path d="M 234.452236 173.057645 
L 210.449305 159.461279 
" clip-path="url(#pe695e7566a)" style="fill: none; stroke: #808080; stroke-opacity: 0.5; stroke-width: 3"/>
    <path d="M 281.227626 217.358628 
L 338.440493 221.544437 
" clip-path="url(#pe695e7566a)" style="fill: none; stroke: #808080; stroke-opacity: 0.5; stroke-width: 3"/>
    <path d="M 281.227626 217.358628 
L 291.908228 250.078214 
" clip-path="url(#pe695e7566a)" style="fill: none; stroke: #808080; stroke-opacity: 0.5; stroke-width: 3"/>
    <path d="M 56.147462 152.876938 
L 94.749245 151.312278 
" clip-path="url(#pe695e7566a)" style="fill: none; stroke: #808080; stroke-opacity: 0.5; stroke-width: 3"/>
    <path d="M 227.725909 97.803177 
L 199.30517 111.474599 
" clip-path="url(#pe695e7566a)" style="fill: none; stroke: #808080; stroke-opacity: 0.5; stroke-width: 3"/>
    <path d="M 134.969285 237.372475 
L 149.638612 214.374933 
" clip-path="url(#pe695e7566a)" style="fill: none; stroke: #808080; stroke-opacity: 0.5; stroke-width: 3"/>
    <path d="M 149.638612 214.374933 
L 164.506478 185.152693 
" clip-path="url(#pe695e7566a)" style="fill: none; stroke: #808080; stroke-opacity: 0.5; stroke-width: 3"/>
    <path d="M 164.506478 185.152693 
L 172.389621 153.735601 
" clip-path="url(#pe695e7566a)" style="fill: none; stroke: #808080; stroke-opacity: 0.5; stroke-width: 3"/>
    <path d="M 364.797282 235.184105 
L 338.440493 221.544437 
" clip-path="url(#pe695e7566a)" style="fill: none; stroke: #808080; stroke-opacity: 0.5; stroke-width: 3"/>
    <path d="M 82.305684 46.37267 
L 53.88773 60.181399 
" clip-path="url(#pe695e7566a)" style="fill: none; stroke: #808080; stroke-opacity: 0.5; stroke-width: 3"/>
    <path d="M 94.749245 151.312278 
L 159.919387 162.743429 
" clip-path="url(#pe695e7566a)" style="fill: none; stroke: #808080; stroke-opacity: 0.5; stroke-width: 3"/>
    <path d="M 94.749245 151.312278 
L 64.366748 167.982527 
" clip-path="url(#pe695e7566a)" style="fill: none; stroke: #808080; stroke-opacity: 0.5; stroke-width: 3"/>
    <path d="M 94.749245 151.312278 
L 129.137494 153.999753 
" clip-path="url(#pe695e7566a)" style="fill: none; stroke: #808080; stroke-opacity: 0.5; stroke-width: 3"/>
    <path d="M 180.074384 125.19415 
L 172.389621 153.735601 
" clip-path="url(#pe695e7566a)" style="fill: none; stroke: #808080; stroke-opacity: 0.5; stroke-width: 3"/>
    <path d="M 101.943966 102.365539 
L 125.926109 116.287119 
" clip-path="url(#pe695e7566a)" style="fill: none; stroke: #808080; stroke-opacity: 0.5; stroke-width: 3"/>
    <path d="M 125.926109 116.287119 
L 161.108216 128.605282 
" clip-path="url(#pe695e7566a)" style="fill: none; stroke: #808080; stroke-opacity: 0.5; stroke-width: 3"/>
    <path d="M 161.108216 128.605282 
L 159.919387 162.743429 
" clip-path="url(#pe695e7566a)" style="fill: none; stroke: #808080; stroke-opacity: 0.5; stroke-width: 3"/>
    <path d="M 161.108216 128.605282 
L 199.30517 111.474599 
" clip-path="url(#pe695e7566a)" style="fill: none; stroke: #808080; stroke-opacity: 0.5; stroke-width: 3"/>
    <path d="M 292.338531 275.46358 
L 291.908228 250.078214 
" clip-path="url(#pe695e7566a)" style="fill: none; stroke: #808080; stroke-opacity: 0.5; stroke-width: 3"/>
    <path d="M 310.983723 263.022898 
L 291.908228 250.078214 
" clip-path="url(#pe695e7566a)" style="fill: none; stroke: #808080; stroke-opacity: 0.5; stroke-width: 3"/>
    <path d="M 210.449305 159.461279 
L 172.389621 153.735601 
" clip-path="url(#pe695e7566a)" style="fill: none; stroke: #808080; stroke-opacity: 0.5; stroke-width: 3"/>
    <path d="M 172.389621 153.735601 
L 129.137494 153.999753 
" clip-path="url(#pe695e7566a)" style="fill: none; stroke: #808080; stroke-opacity: 0.5; stroke-width: 3"/>
    <path d="M 53.88773 60.181399 
L 45.93719 87.794823 
" clip-path="url(#pe695e7566a)" style="fill: none; stroke: #808080; stroke-opacity: 0.5; stroke-width: 3"/>
   </g>
   <g id="text_1">
    <g id="patch_3">
     <path d="M 45.780798 113.519934 
L 61.335798 113.519934 
L 61.335798 93.986184 
L 45.780798 93.986184 
L 45.780798 113.519934 
z
" clip-path="url(#pe695e7566a)" style="fill: none"/>
    </g>
    <g clip-path="url(#pe695e7566a)">
     <!-- 9 -->
     <g style="opacity: 0.9" transform="translate(49.740798 107.064309) scale(0.12 -0.12)">
      <defs>
       <path id="DejaVuSans-39" d="M 703 97 
L 703 672 
Q 941 559 1184 500 
Q 1428 441 1663 441 
Q 2288 441 2617 861 
Q 2947 1281 2994 2138 
Q 2813 1869 2534 1725 
Q 2256 1581 1919 1581 
Q 1219 1581 811 2004 
Q 403 2428 403 3163 
Q 403 3881 828 4315 
Q 1253 4750 1959 4750 
Q 2769 4750 3195 4129 
Q 3622 3509 3622 2328 
Q 3622 1225 3098 567 
Q 2575 -91 1691 -91 
Q 1453 -91 1209 -44 
Q 966 3 703 97 
z
M 1959 2075 
Q 2384 2075 2632 2365 
Q 2881 2656 2881 3163 
Q 2881 3666 2632 3958 
Q 2384 4250 1959 4250 
Q 1534 4250 1286 3958 
Q 1038 3666 1038 3163 
Q 1038 2656 1286 2365 
Q 1534 2075 1959 2075 
z
" transform="scale(0.015625)"/>
      </defs>
      <use xlink:href="#DejaVuSans-39"/>
     </g>
    </g>
   </g>
   <g id="text_2">
    <g id="patch_4">
     <path d="M 66.369326 145.278661 
L 89.559326 145.278661 
L 89.559326 125.744911 
L 66.369326 125.744911 
L 66.369326 145.278661 
z
" clip-path="url(#pe695e7566a)" style="fill: none"/>
    </g>
    <g clip-path="url(#pe695e7566a)">
     <!-- 16 -->
     <g style="opacity: 0.9" transform="translate(70.329326 138.823036) scale(0.12 -0.12)">
      <defs>
       <path id="DejaVuSans-31" d="M 794 531 
L 1825 531 
L 1825 4091 
L 703 3866 
L 703 4441 
L 1819 4666 
L 2450 4666 
L 2450 531 
L 3481 531 
L 3481 0 
L 794 0 
L 794 531 
z
" transform="scale(0.015625)"/>
       <path id="DejaVuSans-36" d="M 2113 2584 
Q 1688 2584 1439 2293 
Q 1191 2003 1191 1497 
Q 1191 994 1439 701 
Q 1688 409 2113 409 
Q 2538 409 2786 701 
Q 3034 994 3034 1497 
Q 3034 2003 2786 2293 
Q 2538 2584 2113 2584 
z
M 3366 4563 
L 3366 3988 
Q 3128 4100 2886 4159 
Q 2644 4219 2406 4219 
Q 1781 4219 1451 3797 
Q 1122 3375 1075 2522 
Q 1259 2794 1537 2939 
Q 1816 3084 2150 3084 
Q 2853 3084 3261 2657 
Q 3669 2231 3669 1497 
Q 3669 778 3244 343 
Q 2819 -91 2113 -91 
Q 1303 -91 875 529 
Q 447 1150 447 2328 
Q 447 3434 972 4092 
Q 1497 4750 2381 4750 
Q 2619 4750 2861 4703 
Q 3103 4656 3366 4563 
z
" transform="scale(0.015625)"/>
      </defs>
      <use xlink:href="#DejaVuSans-31"/>
      <use xlink:href="#DejaVuSans-36" x="63.623047"/>
     </g>
    </g>
   </g>
   <g id="text_3">
    <g id="patch_5">
     <path d="M 387.087553 225.830476 
L 410.277553 225.830476 
L 410.277553 206.296726 
L 387.087553 206.296726 
L 387.087553 225.830476 
z
" clip-path="url(#pe695e7566a)" style="fill: none"/>
    </g>
    <g clip-path="url(#pe695e7566a)">
     <!-- 17 -->
     <g style="opacity: 0.9" transform="translate(391.047553 219.374851) scale(0.12 -0.12)">
      <defs>
       <path id="DejaVuSans-37" d="M 525 4666 
L 3525 4666 
L 3525 4397 
L 1831 0 
L 1172 0 
L 2766 4134 
L 525 4134 
L 525 4666 
z
" transform="scale(0.015625)"/>
      </defs>
      <use xlink:href="#DejaVuSans-31"/>
      <use xlink:href="#DejaVuSans-37" x="63.623047"/>
     </g>
    </g>
   </g>
   <g id="text_4">
    <g id="patch_6">
     <path d="M 352.693894 229.264606 
L 368.248894 229.264606 
L 368.248894 209.730856 
L 352.693894 209.730856 
L 352.693894 229.264606 
z
" clip-path="url(#pe695e7566a)" style="fill: none"/>
    </g>
    <g clip-path="url(#pe695e7566a)">
     <!-- 3 -->
     <g style="opacity: 0.9" transform="translate(356.653894 222.808981) scale(0.12 -0.12)">
      <defs>
       <path id="DejaVuSans-33" d="M 2597 2516 
Q 3050 2419 3304 2112 
Q 3559 1806 3559 1356 
Q 3559 666 3084 287 
Q 2609 -91 1734 -91 
Q 1441 -91 1130 -33 
Q 819 25 488 141 
L 488 750 
Q 750 597 1062 519 
Q 1375 441 1716 441 
Q 2309 441 2620 675 
Q 2931 909 2931 1356 
Q 2931 1769 2642 2001 
Q 2353 2234 1838 2234 
L 1294 2234 
L 1294 2753 
L 1863 2753 
Q 2328 2753 2575 2939 
Q 2822 3125 2822 3475 
Q 2822 3834 2567 4026 
Q 2313 4219 1838 4219 
Q 1578 4219 1281 4162 
Q 984 4106 628 3988 
L 628 4550 
Q 988 4650 1302 4700 
Q 1616 4750 1894 4750 
Q 2613 4750 3031 4423 
Q 3450 4097 3450 3541 
Q 3450 3153 3228 2886 
Q 3006 2619 2597 2516 
z
" transform="scale(0.015625)"/>
      </defs>
      <use xlink:href="#DejaVuSans-33"/>
     </g>
    </g>
   </g>
   <g id="text_5">
    <g id="patch_7">
     <path d="M 221.169304 191.25238 
L 236.724304 191.25238 
L 236.724304 171.71863 
L 221.169304 171.71863 
L 221.169304 191.25238 
z
" clip-path="url(#pe695e7566a)" style="fill: none"/>
    </g>
    <g clip-path="url(#pe695e7566a)">
     <!-- 3 -->
     <g style="opacity: 0.9" transform="translate(225.129304 184.796755) scale(0.12 -0.12)">
      <use xlink:href="#DejaVuSans-33"/>
     </g>
    </g>
   </g>
   <g id="text_6">
    <g id="patch_8">
     <path d="M 240.739499 213.402872 
L 263.929499 213.402872 
L 263.929499 193.869122 
L 240.739499 193.869122 
L 240.739499 213.402872 
z
" clip-path="url(#pe695e7566a)" style="fill: none"/>
    </g>
    <g clip-path="url(#pe695e7566a)">
     <!-- 16 -->
     <g style="opacity: 0.9" transform="translate(244.699499 206.947247) scale(0.12 -0.12)">
      <use xlink:href="#DejaVuSans-31"/>
      <use xlink:href="#DejaVuSans-36" x="63.623047"/>
     </g>
    </g>
   </g>
   <g id="text_7">
    <g id="patch_9">
     <path d="M 183.902879 186.095272 
L 199.457879 186.095272 
L 199.457879 166.561522 
L 183.902879 166.561522 
L 183.902879 186.095272 
z
" clip-path="url(#pe695e7566a)" style="fill: none"/>
    </g>
    <g clip-path="url(#pe695e7566a)">
     <!-- 5 -->
     <g style="opacity: 0.9" transform="translate(187.862879 179.639647) scale(0.12 -0.12)">
      <defs>
       <path id="DejaVuSans-35" d="M 691 4666 
L 3169 4666 
L 3169 4134 
L 1269 4134 
L 1269 2991 
Q 1406 3038 1543 3061 
Q 1681 3084 1819 3084 
Q 2600 3084 3056 2656 
Q 3513 2228 3513 1497 
Q 3513 744 3044 326 
Q 2575 -91 1722 -91 
Q 1428 -91 1123 -41 
Q 819 9 494 109 
L 494 744 
Q 775 591 1075 516 
Q 1375 441 1709 441 
Q 2250 441 2565 725 
Q 2881 1009 2881 1497 
Q 2881 1984 2565 2268 
Q 2250 2553 1709 2553 
Q 1456 2553 1204 2497 
Q 953 2441 691 2322 
L 691 4666 
z
" transform="scale(0.015625)"/>
      </defs>
      <use xlink:href="#DejaVuSans-35"/>
     </g>
    </g>
   </g>
   <g id="text_8">
    <g id="patch_10">
     <path d="M 210.85577 176.026337 
L 234.04577 176.026337 
L 234.04577 156.492587 
L 210.85577 156.492587 
L 210.85577 176.026337 
z
" clip-path="url(#pe695e7566a)" style="fill: none"/>
    </g>
    <g clip-path="url(#pe695e7566a)">
     <!-- 10 -->
     <g style="opacity: 0.9" transform="translate(214.81577 169.570712) scale(0.12 -0.12)">
      <defs>
       <path id="DejaVuSans-30" d="M 2034 4250 
Q 1547 4250 1301 3770 
Q 1056 3291 1056 2328 
Q 1056 1369 1301 889 
Q 1547 409 2034 409 
Q 2525 409 2770 889 
Q 3016 1369 3016 2328 
Q 3016 3291 2770 3770 
Q 2525 4250 2034 4250 
z
M 2034 4750 
Q 2819 4750 3233 4129 
Q 3647 3509 3647 2328 
Q 3647 1150 3233 529 
Q 2819 -91 2034 -91 
Q 1250 -91 836 529 
Q 422 1150 422 2328 
Q 422 3509 836 4129 
Q 1250 4750 2034 4750 
z
" transform="scale(0.015625)"/>
      </defs>
      <use xlink:href="#DejaVuSans-31"/>
      <use xlink:href="#DejaVuSans-30" x="63.623047"/>
     </g>
    </g>
   </g>
   <g id="text_9">
    <g id="patch_11">
     <path d="M 302.056559 229.218408 
L 317.611559 229.218408 
L 317.611559 209.684658 
L 302.056559 209.684658 
L 302.056559 229.218408 
z
" clip-path="url(#pe695e7566a)" style="fill: none"/>
    </g>
    <g clip-path="url(#pe695e7566a)">
     <!-- 3 -->
     <g style="opacity: 0.9" transform="translate(306.016559 222.762783) scale(0.12 -0.12)">
      <use xlink:href="#DejaVuSans-33"/>
     </g>
    </g>
   </g>
   <g id="text_10">
    <g id="patch_12">
     <path d="M 278.790427 243.485296 
L 294.345427 243.485296 
L 294.345427 223.951546 
L 278.790427 223.951546 
L 278.790427 243.485296 
z
" clip-path="url(#pe695e7566a)" style="fill: none"/>
    </g>
    <g clip-path="url(#pe695e7566a)">
     <!-- 5 -->
     <g style="opacity: 0.9" transform="translate(282.750427 237.029671) scale(0.12 -0.12)">
      <use xlink:href="#DejaVuSans-35"/>
     </g>
    </g>
   </g>
   <g id="text_11">
    <g id="patch_13">
     <path d="M 67.670853 161.861483 
L 83.225853 161.861483 
L 83.225853 142.327733 
L 67.670853 142.327733 
L 67.670853 161.861483 
z
" clip-path="url(#pe695e7566a)" style="fill: none"/>
    </g>
    <g clip-path="url(#pe695e7566a)">
     <!-- 5 -->
     <g style="opacity: 0.9" transform="translate(71.630853 155.405858) scale(0.12 -0.12)">
      <use xlink:href="#DejaVuSans-35"/>
     </g>
    </g>
   </g>
   <g id="text_12">
    <g id="patch_14">
     <path d="M 201.920539 114.405763 
L 225.110539 114.405763 
L 225.110539 94.872013 
L 201.920539 94.872013 
L 201.920539 114.405763 
z
" clip-path="url(#pe695e7566a)" style="fill: none"/>
    </g>
    <g clip-path="url(#pe695e7566a)">
     <!-- 18 -->
     <g style="opacity: 0.9" transform="translate(205.880539 107.950138) scale(0.12 -0.12)">
      <defs>
       <path id="DejaVuSans-38" d="M 2034 2216 
Q 1584 2216 1326 1975 
Q 1069 1734 1069 1313 
Q 1069 891 1326 650 
Q 1584 409 2034 409 
Q 2484 409 2743 651 
Q 3003 894 3003 1313 
Q 3003 1734 2745 1975 
Q 2488 2216 2034 2216 
z
M 1403 2484 
Q 997 2584 770 2862 
Q 544 3141 544 3541 
Q 544 4100 942 4425 
Q 1341 4750 2034 4750 
Q 2731 4750 3128 4425 
Q 3525 4100 3525 3541 
Q 3525 3141 3298 2862 
Q 3072 2584 2669 2484 
Q 3125 2378 3379 2068 
Q 3634 1759 3634 1313 
Q 3634 634 3220 271 
Q 2806 -91 2034 -91 
Q 1263 -91 848 271 
Q 434 634 434 1313 
Q 434 1759 690 2068 
Q 947 2378 1403 2484 
z
M 1172 3481 
Q 1172 3119 1398 2916 
Q 1625 2713 2034 2713 
Q 2441 2713 2670 2916 
Q 2900 3119 2900 3481 
Q 2900 3844 2670 4047 
Q 2441 4250 2034 4250 
Q 1625 4250 1398 4047 
Q 1172 3844 1172 3481 
z
" transform="scale(0.015625)"/>
      </defs>
      <use xlink:href="#DejaVuSans-31"/>
      <use xlink:href="#DejaVuSans-38" x="63.623047"/>
     </g>
    </g>
   </g>
   <g id="text_13">
    <g id="patch_15">
     <path d="M 130.708949 235.640579 
L 153.898949 235.640579 
L 153.898949 216.106829 
L 130.708949 216.106829 
L 130.708949 235.640579 
z
" clip-path="url(#pe695e7566a)" style="fill: none"/>
    </g>
    <g clip-path="url(#pe695e7566a)">
     <!-- 16 -->
     <g style="opacity: 0.9" transform="translate(134.668949 229.184954) scale(0.12 -0.12)">
      <use xlink:href="#DejaVuSans-31"/>
      <use xlink:href="#DejaVuSans-36" x="63.623047"/>
     </g>
    </g>
   </g>
   <g id="text_14">
    <g id="patch_16">
     <path d="M 149.295045 209.530688 
L 164.850045 209.530688 
L 164.850045 189.996938 
L 149.295045 189.996938 
L 149.295045 209.530688 
z
" clip-path="url(#pe695e7566a)" style="fill: none"/>
    </g>
    <g clip-path="url(#pe695e7566a)">
     <!-- 8 -->
     <g style="opacity: 0.9" transform="translate(153.255045 203.075063) scale(0.12 -0.12)">
      <use xlink:href="#DejaVuSans-38"/>
     </g>
    </g>
   </g>
   <g id="text_15">
    <g id="patch_17">
     <path d="M 156.85305 179.211022 
L 180.04305 179.211022 
L 180.04305 159.677272 
L 156.85305 159.677272 
L 156.85305 179.211022 
z
" clip-path="url(#pe695e7566a)" style="fill: none"/>
    </g>
    <g clip-path="url(#pe695e7566a)">
     <!-- 17 -->
     <g style="opacity: 0.9" transform="translate(160.81305 172.755397) scale(0.12 -0.12)">
      <use xlink:href="#DejaVuSans-31"/>
      <use xlink:href="#DejaVuSans-37" x="63.623047"/>
     </g>
    </g>
   </g>
   <g id="text_16">
    <g id="patch_18">
     <path d="M 343.841387 238.131146 
L 359.396387 238.131146 
L 359.396387 218.597396 
L 343.841387 218.597396 
L 343.841387 238.131146 
z
" clip-path="url(#pe695e7566a)" style="fill: none"/>
    </g>
    <g clip-path="url(#pe695e7566a)">
     <!-- 3 -->
     <g style="opacity: 0.9" transform="translate(347.801387 231.675521) scale(0.12 -0.12)">
      <use xlink:href="#DejaVuSans-33"/>
     </g>
    </g>
   </g>
   <g id="text_17">
    <g id="patch_19">
     <path d="M 56.501707 63.04391 
L 79.691707 63.04391 
L 79.691707 43.51016 
L 56.501707 43.51016 
L 56.501707 63.04391 
z
" clip-path="url(#pe695e7566a)" style="fill: none"/>
    </g>
    <g clip-path="url(#pe695e7566a)">
     <!-- 15 -->
     <g style="opacity: 0.9" transform="translate(60.461707 56.588285) scale(0.12 -0.12)">
      <use xlink:href="#DejaVuSans-31"/>
      <use xlink:href="#DejaVuSans-35" x="63.623047"/>
     </g>
    </g>
   </g>
   <g id="text_18">
    <g id="patch_20">
     <path d="M 119.556816 166.794728 
L 135.111816 166.794728 
L 135.111816 147.260978 
L 119.556816 147.260978 
L 119.556816 166.794728 
z
" clip-path="url(#pe695e7566a)" style="fill: none"/>
    </g>
    <g clip-path="url(#pe695e7566a)">
     <!-- 8 -->
     <g style="opacity: 0.9" transform="translate(123.516816 160.339103) scale(0.12 -0.12)">
      <use xlink:href="#DejaVuSans-38"/>
     </g>
    </g>
   </g>
   <g id="text_19">
    <g id="patch_21">
     <path d="M 67.962996 169.414277 
L 91.152996 169.414277 
L 91.152996 149.880527 
L 67.962996 149.880527 
L 67.962996 169.414277 
z
" clip-path="url(#pe695e7566a)" style="fill: none"/>
    </g>
    <g clip-path="url(#pe695e7566a)">
     <!-- 14 -->
     <g style="opacity: 0.9" transform="translate(71.922996 162.958652) scale(0.12 -0.12)">
      <defs>
       <path id="DejaVuSans-34" d="M 2419 4116 
L 825 1625 
L 2419 1625 
L 2419 4116 
z
M 2253 4666 
L 3047 4666 
L 3047 1625 
L 3713 1625 
L 3713 1100 
L 3047 1100 
L 3047 0 
L 2419 0 
L 2419 1100 
L 313 1100 
L 313 1709 
L 2253 4666 
z
" transform="scale(0.015625)"/>
      </defs>
      <use xlink:href="#DejaVuSans-31"/>
      <use xlink:href="#DejaVuSans-34" x="63.623047"/>
     </g>
    </g>
   </g>
   <g id="text_20">
    <g id="patch_22">
     <path d="M 100.348369 162.42289 
L 123.538369 162.42289 
L 123.538369 142.88914 
L 100.348369 142.88914 
L 100.348369 162.42289 
z
" clip-path="url(#pe695e7566a)" style="fill: none"/>
    </g>
    <g clip-path="url(#pe695e7566a)">
     <!-- 18 -->
     <g style="opacity: 0.9" transform="translate(104.308369 155.967265) scale(0.12 -0.12)">
      <use xlink:href="#DejaVuSans-31"/>
      <use xlink:href="#DejaVuSans-38" x="63.623047"/>
     </g>
    </g>
   </g>
   <g id="text_21">
    <g id="patch_23">
     <path d="M 168.454503 149.231751 
L 184.009503 149.231751 
L 184.009503 129.698001 
L 168.454503 129.698001 
L 168.454503 149.231751 
z
" clip-path="url(#pe695e7566a)" style="fill: none"/>
    </g>
    <g clip-path="url(#pe695e7566a)">
     <!-- 5 -->
     <g style="opacity: 0.9" transform="translate(172.414503 142.776126) scale(0.12 -0.12)">
      <use xlink:href="#DejaVuSans-35"/>
     </g>
    </g>
   </g>
   <g id="text_22">
    <g id="patch_24">
     <path d="M 102.340038 119.093204 
L 125.530038 119.093204 
L 125.530038 99.559454 
L 102.340038 99.559454 
L 102.340038 119.093204 
z
" clip-path="url(#pe695e7566a)" style="fill: none"/>
    </g>
    <g clip-path="url(#pe695e7566a)">
     <!-- 14 -->
     <g style="opacity: 0.9" transform="translate(106.300038 112.637579) scale(0.12 -0.12)">
      <use xlink:href="#DejaVuSans-31"/>
      <use xlink:href="#DejaVuSans-34" x="63.623047"/>
     </g>
    </g>
   </g>
   <g id="text_23">
    <g id="patch_25">
     <path d="M 131.922163 132.213075 
L 155.112163 132.213075 
L 155.112163 112.679325 
L 131.922163 112.679325 
L 131.922163 132.213075 
z
" clip-path="url(#pe695e7566a)" style="fill: none"/>
    </g>
    <g clip-path="url(#pe695e7566a)">
     <!-- 13 -->
     <g style="opacity: 0.9" transform="translate(135.882163 125.75745) scale(0.12 -0.12)">
      <use xlink:href="#DejaVuSans-31"/>
      <use xlink:href="#DejaVuSans-33" x="63.623047"/>
     </g>
    </g>
   </g>
   <g id="text_24">
    <g id="patch_26">
     <path d="M 148.918801 155.44123 
L 172.108801 155.44123 
L 172.108801 135.90748 
L 148.918801 135.90748 
L 148.918801 155.44123 
z
" clip-path="url(#pe695e7566a)" style="fill: none"/>
    </g>
    <g clip-path="url(#pe695e7566a)">
     <!-- 16 -->
     <g style="opacity: 0.9" transform="translate(152.878801 148.985605) scale(0.12 -0.12)">
      <use xlink:href="#DejaVuSans-31"/>
      <use xlink:href="#DejaVuSans-36" x="63.623047"/>
     </g>
    </g>
   </g>
   <g id="text_25">
    <g id="patch_27">
     <path d="M 172.429193 129.806816 
L 187.984193 129.806816 
L 187.984193 110.273066 
L 172.429193 110.273066 
L 172.429193 129.806816 
z
" clip-path="url(#pe695e7566a)" style="fill: none"/>
    </g>
    <g clip-path="url(#pe695e7566a)">
     <!-- 4 -->
     <g style="opacity: 0.9" transform="translate(176.389193 123.351191) scale(0.12 -0.12)">
      <use xlink:href="#DejaVuSans-34"/>
     </g>
    </g>
   </g>
   <g id="text_26">
    <g id="patch_28">
     <path d="M 284.34588 272.537772 
L 299.90088 272.537772 
L 299.90088 253.004022 
L 284.34588 253.004022 
L 284.34588 272.537772 
z
" clip-path="url(#pe695e7566a)" style="fill: none"/>
    </g>
    <g clip-path="url(#pe695e7566a)">
     <!-- 5 -->
     <g style="opacity: 0.9" transform="translate(288.30588 266.082147) scale(0.12 -0.12)">
      <use xlink:href="#DejaVuSans-35"/>
     </g>
    </g>
   </g>
   <g id="text_27">
    <g id="patch_29">
     <path d="M 293.668476 266.317431 
L 309.223476 266.317431 
L 309.223476 246.783681 
L 293.668476 246.783681 
L 293.668476 266.317431 
z
" clip-path="url(#pe695e7566a)" style="fill: none"/>
    </g>
    <g clip-path="url(#pe695e7566a)">
     <!-- 6 -->
     <g style="opacity: 0.9" transform="translate(297.628476 259.861806) scale(0.12 -0.12)">
      <use xlink:href="#DejaVuSans-36"/>
     </g>
    </g>
   </g>
   <g id="text_28">
    <g id="patch_30">
     <path d="M 183.641963 166.365315 
L 199.196963 166.365315 
L 199.196963 146.831565 
L 183.641963 146.831565 
L 183.641963 166.365315 
z
" clip-path="url(#pe695e7566a)" style="fill: none"/>
    </g>
    <g clip-path="url(#pe695e7566a)">
     <!-- 3 -->
     <g style="opacity: 0.9" transform="translate(187.601963 159.90969) scale(0.12 -0.12)">
      <use xlink:href="#DejaVuSans-33"/>
     </g>
    </g>
   </g>
   <g id="text_29">
    <g id="patch_31">
     <path d="M 139.168558 163.634552 
L 162.358558 163.634552 
L 162.358558 144.100802 
L 139.168558 144.100802 
L 139.168558 163.634552 
z
" clip-path="url(#pe695e7566a)" style="fill: none"/>
    </g>
    <g clip-path="url(#pe695e7566a)">
     <!-- 11 -->
     <g style="opacity: 0.9" transform="translate(143.128558 157.178927) scale(0.12 -0.12)">
      <use xlink:href="#DejaVuSans-31"/>
      <use xlink:href="#DejaVuSans-31" x="63.623047"/>
     </g>
    </g>
   </g>
   <g id="text_30">
    <g id="patch_32">
     <path d="M 38.31746 83.754986 
L 61.50746 83.754986 
L 61.50746 64.221236 
L 38.31746 64.221236 
L 38.31746 83.754986 
z
" clip-path="url(#pe695e7566a)" style="fill: none"/>
    </g>
    <g clip-path="url(#pe695e7566a)">
     <!-- 13 -->
     <g style="opacity: 0.9" transform="translate(42.27746 77.299361) scale(0.12 -0.12)">
      <use xlink:href="#DejaVuSans-31"/>
      <use xlink:href="#DejaVuSans-33" x="63.623047"/>
     </g>
    </g>
   </g>
   <g id="matplotlib.axis_1">
    <g id="xtick_1"/>
    <g id="xtick_2"/>
    <g id="xtick_3"/>
    <g id="xtick_4"/>
    <g id="xtick_5"/>
    <g id="xtick_6"/>
    <g id="xtick_7"/>
    <g id="xtick_8"/>
   </g>
   <g id="matplotlib.axis_2">
    <g id="ytick_1"/>
    <g id="ytick_2"/>
    <g id="ytick_3"/>
    <g id="ytick_4"/>
    <g id="ytick_5"/>
    <g id="ytick_6"/>
    <g id="ytick_7"/>
    <g id="ytick_8"/>
    <g id="ytick_9"/>
   </g>
   <g id="PathCollection_1">
    <defs>
     <path id="C0_0_9c297cc82b" d="M 0 12.247449 
C 3.248061 12.247449 6.363528 10.95698 8.660254 8.660254 
C 10.95698 6.363528 12.247449 3.248061 12.247449 -0 
C 12.247449 -3.248061 10.95698 -6.363528 8.660254 -8.660254 
C 6.363528 -10.95698 3.248061 -12.247449 0 -12.247449 
C -3.248061 -12.247449 -6.363528 -10.95698 -8.660254 -8.660254 
C -10.95698 -6.363528 -12.247449 -3.248061 -12.247449 0 
C -12.247449 3.248061 -10.95698 6.363528 -8.660254 8.660254 
C -6.363528 10.95698 -3.248061 12.247449 0 12.247449 
z
"/>
    </defs>
    <g clip-path="url(#pe695e7566a)">
     <use xlink:href="#C0_0_9c297cc82b" x="61.179407" y="119.711295" style="fill-opacity: 0.9; stroke: #000000; stroke-opacity: 0.9"/>
    </g>
    <g clip-path="url(#pe695e7566a)">
     <use xlink:href="#C0_0_9c297cc82b" x="414.86281" y="214.676177" style="fill-opacity: 0.9; stroke: #000000; stroke-opacity: 0.9"/>
    </g>
    <g clip-path="url(#pe695e7566a)">
     <use xlink:href="#C0_0_9c297cc82b" x="382.502296" y="217.451025" style="fill-opacity: 0.9; stroke: #000000; stroke-opacity: 0.9"/>
    </g>
    <g clip-path="url(#pe695e7566a)">
     <use xlink:href="#C0_0_9c297cc82b" x="223.441372" y="189.913365" style="fill-opacity: 0.9; stroke: #000000; stroke-opacity: 0.9"/>
    </g>
    <g clip-path="url(#pe695e7566a)">
     <use xlink:href="#C0_0_9c297cc82b" x="234.452236" y="173.057645" style="fill-opacity: 0.9; stroke: #000000; stroke-opacity: 0.9"/>
    </g>
    <g clip-path="url(#pe695e7566a)">
     <use xlink:href="#C0_0_9c297cc82b" x="281.227626" y="217.358628" style="fill-opacity: 0.9; stroke: #000000; stroke-opacity: 0.9"/>
    </g>
    <g clip-path="url(#pe695e7566a)">
     <use xlink:href="#C0_0_9c297cc82b" x="56.147462" y="152.876938" style="fill-opacity: 0.9; stroke: #000000; stroke-opacity: 0.9"/>
    </g>
    <g clip-path="url(#pe695e7566a)">
     <use xlink:href="#C0_0_9c297cc82b" x="227.725909" y="97.803177" style="fill-opacity: 0.9; stroke: #000000; stroke-opacity: 0.9"/>
    </g>
    <g clip-path="url(#pe695e7566a)">
     <use xlink:href="#C0_0_9c297cc82b" x="134.969285" y="237.372475" style="fill-opacity: 0.9; stroke: #000000; stroke-opacity: 0.9"/>
    </g>
    <g clip-path="url(#pe695e7566a)">
     <use xlink:href="#C0_0_9c297cc82b" x="149.638612" y="214.374933" style="fill-opacity: 0.9; stroke: #000000; stroke-opacity: 0.9"/>
    </g>
    <g clip-path="url(#pe695e7566a)">
     <use xlink:href="#C0_0_9c297cc82b" x="164.506478" y="185.152693" style="fill-opacity: 0.9; stroke: #000000; stroke-opacity: 0.9"/>
    </g>
    <g clip-path="url(#pe695e7566a)">
     <use xlink:href="#C0_0_9c297cc82b" x="364.797282" y="235.184105" style="fill-opacity: 0.9; stroke: #000000; stroke-opacity: 0.9"/>
    </g>
    <g clip-path="url(#pe695e7566a)">
     <use xlink:href="#C0_0_9c297cc82b" x="338.440493" y="221.544437" style="fill-opacity: 0.9; stroke: #000000; stroke-opacity: 0.9"/>
    </g>
    <g clip-path="url(#pe695e7566a)">
     <use xlink:href="#C0_0_9c297cc82b" x="82.305684" y="46.37267" style="fill-opacity: 0.9; stroke: #000000; stroke-opacity: 0.9"/>
    </g>
    <g clip-path="url(#pe695e7566a)">
     <use xlink:href="#C0_0_9c297cc82b" x="94.749245" y="151.312278" style="fill-opacity: 0.9; stroke: #000000; stroke-opacity: 0.9"/>
    </g>
    <g clip-path="url(#pe695e7566a)">
     <use xlink:href="#C0_0_9c297cc82b" x="180.074384" y="125.19415" style="fill-opacity: 0.9; stroke: #000000; stroke-opacity: 0.9"/>
    </g>
    <g clip-path="url(#pe695e7566a)">
     <use xlink:href="#C0_0_9c297cc82b" x="64.366748" y="167.982527" style="fill-opacity: 0.9; stroke: #000000; stroke-opacity: 0.9"/>
    </g>
    <g clip-path="url(#pe695e7566a)">
     <use xlink:href="#C0_0_9c297cc82b" x="101.943966" y="102.365539" style="fill-opacity: 0.9; stroke: #000000; stroke-opacity: 0.9"/>
    </g>
    <g clip-path="url(#pe695e7566a)">
     <use xlink:href="#C0_0_9c297cc82b" x="125.926109" y="116.287119" style="fill-opacity: 0.9; stroke: #000000; stroke-opacity: 0.9"/>
    </g>
    <g clip-path="url(#pe695e7566a)">
     <use xlink:href="#C0_0_9c297cc82b" x="161.108216" y="128.605282" style="fill-opacity: 0.9; stroke: #000000; stroke-opacity: 0.9"/>
    </g>
    <g clip-path="url(#pe695e7566a)">
     <use xlink:href="#C0_0_9c297cc82b" x="159.919387" y="162.743429" style="fill-opacity: 0.9; stroke: #000000; stroke-opacity: 0.9"/>
    </g>
    <g clip-path="url(#pe695e7566a)">
     <use xlink:href="#C0_0_9c297cc82b" x="199.30517" y="111.474599" style="fill-opacity: 0.9; stroke: #000000; stroke-opacity: 0.9"/>
    </g>
    <g clip-path="url(#pe695e7566a)">
     <use xlink:href="#C0_0_9c297cc82b" x="292.338531" y="275.46358" style="fill-opacity: 0.9; stroke: #000000; stroke-opacity: 0.9"/>
    </g>
    <g clip-path="url(#pe695e7566a)">
     <use xlink:href="#C0_0_9c297cc82b" x="310.983723" y="263.022898" style="fill-opacity: 0.9; stroke: #000000; stroke-opacity: 0.9"/>
    </g>
    <g clip-path="url(#pe695e7566a)">
     <use xlink:href="#C0_0_9c297cc82b" x="291.908228" y="250.078214" style="fill-opacity: 0.9; stroke: #000000; stroke-opacity: 0.9"/>
    </g>
    <g clip-path="url(#pe695e7566a)">
     <use xlink:href="#C0_0_9c297cc82b" x="210.449305" y="159.461279" style="fill-opacity: 0.9; stroke: #000000; stroke-opacity: 0.9"/>
    </g>
    <g clip-path="url(#pe695e7566a)">
     <use xlink:href="#C0_0_9c297cc82b" x="172.389621" y="153.735601" style="fill-opacity: 0.9; stroke: #000000; stroke-opacity: 0.9"/>
    </g>
    <g clip-path="url(#pe695e7566a)">
     <use xlink:href="#C0_0_9c297cc82b" x="129.137494" y="153.999753" style="fill-opacity: 0.9; stroke: #000000; stroke-opacity: 0.9"/>
    </g>
    <g clip-path="url(#pe695e7566a)">
     <use xlink:href="#C0_0_9c297cc82b" x="53.88773" y="60.181399" style="fill-opacity: 0.9; stroke: #000000; stroke-opacity: 0.9"/>
    </g>
    <g clip-path="url(#pe695e7566a)">
     <use xlink:href="#C0_0_9c297cc82b" x="45.93719" y="87.794823" style="fill-opacity: 0.9; stroke: #000000; stroke-opacity: 0.9"/>
    </g>
   </g>
   <g id="text_31">
    <g clip-path="url(#pe695e7566a)">
     <!-- 0 -->
     <g style="fill: #ffffff; opacity: 0.9" transform="translate(55.771282 124.402232) scale(0.17 -0.17)">
      <use xlink:href="#DejaVuSans-30"/>
     </g>
    </g>
   </g>
   <g id="text_32">
    <g clip-path="url(#pe695e7566a)">
     <!-- 1 -->
     <g style="fill: #ffffff; opacity: 0.9" transform="translate(409.454685 219.367115) scale(0.17 -0.17)">
      <use xlink:href="#DejaVuSans-31"/>
     </g>
    </g>
   </g>
   <g id="text_33">
    <g clip-path="url(#pe695e7566a)">
     <!-- 2 -->
     <g style="fill: #ffffff; opacity: 0.9" transform="translate(377.094171 222.141963) scale(0.17 -0.17)">
      <defs>
       <path id="DejaVuSans-32" d="M 1228 531 
L 3431 531 
L 3431 0 
L 469 0 
L 469 531 
Q 828 903 1448 1529 
Q 2069 2156 2228 2338 
Q 2531 2678 2651 2914 
Q 2772 3150 2772 3378 
Q 2772 3750 2511 3984 
Q 2250 4219 1831 4219 
Q 1534 4219 1204 4116 
Q 875 4013 500 3803 
L 500 4441 
Q 881 4594 1212 4672 
Q 1544 4750 1819 4750 
Q 2544 4750 2975 4387 
Q 3406 4025 3406 3419 
Q 3406 3131 3298 2873 
Q 3191 2616 2906 2266 
Q 2828 2175 2409 1742 
Q 1991 1309 1228 531 
z
" transform="scale(0.015625)"/>
      </defs>
      <use xlink:href="#DejaVuSans-32"/>
     </g>
    </g>
   </g>
   <g id="text_34">
    <g clip-path="url(#pe695e7566a)">
     <!-- 3 -->
     <g style="fill: #ffffff; opacity: 0.9" transform="translate(218.033247 194.604302) scale(0.17 -0.17)">
      <use xlink:href="#DejaVuSans-33"/>
     </g>
    </g>
   </g>
   <g id="text_35">
    <g clip-path="url(#pe695e7566a)">
     <!-- 4 -->
     <g style="fill: #ffffff; opacity: 0.9" transform="translate(229.044111 177.748582) scale(0.17 -0.17)">
      <use xlink:href="#DejaVuSans-34"/>
     </g>
    </g>
   </g>
   <g id="text_36">
    <g clip-path="url(#pe695e7566a)">
     <!-- 5 -->
     <g style="fill: #ffffff; opacity: 0.9" transform="translate(275.819501 222.049566) scale(0.17 -0.17)">
      <use xlink:href="#DejaVuSans-35"/>
     </g>
    </g>
   </g>
   <g id="text_37">
    <g clip-path="url(#pe695e7566a)">
     <!-- 6 -->
     <g style="fill: #ffffff; opacity: 0.9" transform="translate(50.739337 157.567875) scale(0.17 -0.17)">
      <use xlink:href="#DejaVuSans-36"/>
     </g>
    </g>
   </g>
   <g id="text_38">
    <g clip-path="url(#pe695e7566a)">
     <!-- 7 -->
     <g style="fill: #ffffff; opacity: 0.9" transform="translate(222.317784 102.494114) scale(0.17 -0.17)">
      <use xlink:href="#DejaVuSans-37"/>
     </g>
    </g>
   </g>
   <g id="text_39">
    <g clip-path="url(#pe695e7566a)">
     <!-- 8 -->
     <g style="fill: #ffffff; opacity: 0.9" transform="translate(129.56116 242.063412) scale(0.17 -0.17)">
      <use xlink:href="#DejaVuSans-38"/>
     </g>
    </g>
   </g>
   <g id="text_40">
    <g clip-path="url(#pe695e7566a)">
     <!-- 9 -->
     <g style="fill: #ffffff; opacity: 0.9" transform="translate(144.230487 219.065871) scale(0.17 -0.17)">
      <use xlink:href="#DejaVuSans-39"/>
     </g>
    </g>
   </g>
   <g id="text_41">
    <g clip-path="url(#pe695e7566a)">
     <!-- 10 -->
     <g style="fill: #ffffff; opacity: 0.9" transform="translate(153.690228 189.843631) scale(0.17 -0.17)">
      <use xlink:href="#DejaVuSans-31"/>
      <use xlink:href="#DejaVuSans-30" x="63.623047"/>
     </g>
    </g>
   </g>
   <g id="text_42">
    <g clip-path="url(#pe695e7566a)">
     <!-- 11 -->
     <g style="fill: #ffffff; opacity: 0.9" transform="translate(353.981032 239.875042) scale(0.17 -0.17)">
      <use xlink:href="#DejaVuSans-31"/>
      <use xlink:href="#DejaVuSans-31" x="63.623047"/>
     </g>
    </g>
   </g>
   <g id="text_43">
    <g clip-path="url(#pe695e7566a)">
     <!-- 12 -->
     <g style="fill: #ffffff; opacity: 0.9" transform="translate(327.624243 226.235375) scale(0.17 -0.17)">
      <use xlink:href="#DejaVuSans-31"/>
      <use xlink:href="#DejaVuSans-32" x="63.623047"/>
     </g>
    </g>
   </g>
   <g id="text_44">
    <g clip-path="url(#pe695e7566a)">
     <!-- 13 -->
     <g style="fill: #ffffff; opacity: 0.9" transform="translate(71.489434 51.063608) scale(0.17 -0.17)">
      <use xlink:href="#DejaVuSans-31"/>
      <use xlink:href="#DejaVuSans-33" x="63.623047"/>
     </g>
    </g>
   </g>
   <g id="text_45">
    <g clip-path="url(#pe695e7566a)">
     <!-- 14 -->
     <g style="fill: #ffffff; opacity: 0.9" transform="translate(83.932995 156.003215) scale(0.17 -0.17)">
      <use xlink:href="#DejaVuSans-31"/>
      <use xlink:href="#DejaVuSans-34" x="63.623047"/>
     </g>
    </g>
   </g>
   <g id="text_46">
    <g clip-path="url(#pe695e7566a)">
     <!-- 15 -->
     <g style="fill: #ffffff; opacity: 0.9" transform="translate(169.258134 129.885087) scale(0.17 -0.17)">
      <use xlink:href="#DejaVuSans-31"/>
      <use xlink:href="#DejaVuSans-35" x="63.623047"/>
     </g>
    </g>
   </g>
   <g id="text_47">
    <g clip-path="url(#pe695e7566a)">
     <!-- 16 -->
     <g style="fill: #ffffff; opacity: 0.9" transform="translate(53.550498 172.673464) scale(0.17 -0.17)">
      <use xlink:href="#DejaVuSans-31"/>
      <use xlink:href="#DejaVuSans-36" x="63.623047"/>
     </g>
    </g>
   </g>
   <g id="text_48">
    <g clip-path="url(#pe695e7566a)">
     <!-- 17 -->
     <g style="fill: #ffffff; opacity: 0.9" transform="translate(91.127716 107.056477) scale(0.17 -0.17)">
      <use xlink:href="#DejaVuSans-31"/>
      <use xlink:href="#DejaVuSans-37" x="63.623047"/>
     </g>
    </g>
   </g>
   <g id="text_49">
    <g clip-path="url(#pe695e7566a)">
     <!-- 18 -->
     <g style="fill: #ffffff; opacity: 0.9" transform="translate(115.109859 120.978057) scale(0.17 -0.17)">
      <use xlink:href="#DejaVuSans-31"/>
      <use xlink:href="#DejaVuSans-38" x="63.623047"/>
     </g>
    </g>
   </g>
   <g id="text_50">
    <g clip-path="url(#pe695e7566a)">
     <!-- 19 -->
     <g style="fill: #ffffff; opacity: 0.9" transform="translate(150.291966 133.296219) scale(0.17 -0.17)">
      <use xlink:href="#DejaVuSans-31"/>
      <use xlink:href="#DejaVuSans-39" x="63.623047"/>
     </g>
    </g>
   </g>
   <g id="text_51">
    <g clip-path="url(#pe695e7566a)">
     <!-- 20 -->
     <g style="fill: #ffffff; opacity: 0.9" transform="translate(149.103137 167.434366) scale(0.17 -0.17)">
      <use xlink:href="#DejaVuSans-32"/>
      <use xlink:href="#DejaVuSans-30" x="63.623047"/>
     </g>
    </g>
   </g>
   <g id="text_52">
    <g clip-path="url(#pe695e7566a)">
     <!-- 21 -->
     <g style="fill: #ffffff; opacity: 0.9" transform="translate(188.48892 116.165537) scale(0.17 -0.17)">
      <use xlink:href="#DejaVuSans-32"/>
      <use xlink:href="#DejaVuSans-31" x="63.623047"/>
     </g>
    </g>
   </g>
   <g id="text_53">
    <g clip-path="url(#pe695e7566a)">
     <!-- 22 -->
     <g style="fill: #ffffff; opacity: 0.9" transform="translate(281.522281 280.154517) scale(0.17 -0.17)">
      <use xlink:href="#DejaVuSans-32"/>
      <use xlink:href="#DejaVuSans-32" x="63.623047"/>
     </g>
    </g>
   </g>
   <g id="text_54">
    <g clip-path="url(#pe695e7566a)">
     <!-- 23 -->
     <g style="fill: #ffffff; opacity: 0.9" transform="translate(300.167473 267.713836) scale(0.17 -0.17)">
      <use xlink:href="#DejaVuSans-32"/>
      <use xlink:href="#DejaVuSans-33" x="63.623047"/>
     </g>
    </g>
   </g>
   <g id="text_55">
    <g clip-path="url(#pe695e7566a)">
     <!-- 24 -->
     <g style="fill: #ffffff; opacity: 0.9" transform="translate(281.091978 254.769152) scale(0.17 -0.17)">
      <use xlink:href="#DejaVuSans-32"/>
      <use xlink:href="#DejaVuSans-34" x="63.623047"/>
     </g>
    </g>
   </g>
   <g id="text_56">
    <g clip-path="url(#pe695e7566a)">
     <!-- 25 -->
     <g style="fill: #ffffff; opacity: 0.9" transform="translate(199.633055 164.152217) scale(0.17 -0.17)">
      <use xlink:href="#DejaVuSans-32"/>
      <use xlink:href="#DejaVuSans-35" x="63.623047"/>
     </g>
    </g>
   </g>
   <g id="text_57">
    <g clip-path="url(#pe695e7566a)">
     <!-- 26 -->
     <g style="fill: #ffffff; opacity: 0.9" transform="translate(161.573371 158.426539) scale(0.17 -0.17)">
      <use xlink:href="#DejaVuSans-32"/>
      <use xlink:href="#DejaVuSans-36" x="63.623047"/>
     </g>
    </g>
   </g>
   <g id="text_58">
    <g clip-path="url(#pe695e7566a)">
     <!-- 27 -->
     <g style="fill: #ffffff; opacity: 0.9" transform="translate(118.321244 158.690691) scale(0.17 -0.17)">
      <use xlink:href="#DejaVuSans-32"/>
      <use xlink:href="#DejaVuSans-37" x="63.623047"/>
     </g>
    </g>
   </g>
   <g id="text_59">
    <g clip-path="url(#pe695e7566a)">
     <!-- 28 -->
     <g style="fill: #ffffff; opacity: 0.9" transform="translate(43.07148 64.872337) scale(0.17 -0.17)">
      <use xlink:href="#DejaVuSans-32"/>
      <use xlink:href="#DejaVuSans-38" x="63.623047"/>
     </g>
    </g>
   </g>
   <g id="text_60">
    <g clip-path="url(#pe695e7566a)">
     <!-- 29 -->
     <g style="fill: #ffffff; opacity: 0.9" transform="translate(35.12094 92.48576) scale(0.17 -0.17)">
      <use xlink:href="#DejaVuSans-32"/>
      <use xlink:href="#DejaVuSans-39" x="63.623047"/>
     </g>
    </g>
   </g>
   <g id="text_61">
    <!-- inputgraph(length) -->
    <g transform="translate(173.595937 16.318125) scale(0.12 -0.12)">
     <defs>
      <path id="DejaVuSans-69" d="M 603 3500 
L 1178 3500 
L 1178 0 
L 603 0 
L 603 3500 
z
M 603 4863 
L 1178 4863 
L 1178 4134 
L 603 4134 
L 603 4863 
z
" transform="scale(0.015625)"/>
      <path id="DejaVuSans-6e" d="M 3513 2113 
L 3513 0 
L 2938 0 
L 2938 2094 
Q 2938 2591 2744 2837 
Q 2550 3084 2163 3084 
Q 1697 3084 1428 2787 
Q 1159 2491 1159 1978 
L 1159 0 
L 581 0 
L 581 3500 
L 1159 3500 
L 1159 2956 
Q 1366 3272 1645 3428 
Q 1925 3584 2291 3584 
Q 2894 3584 3203 3211 
Q 3513 2838 3513 2113 
z
" transform="scale(0.015625)"/>
      <path id="DejaVuSans-70" d="M 1159 525 
L 1159 -1331 
L 581 -1331 
L 581 3500 
L 1159 3500 
L 1159 2969 
Q 1341 3281 1617 3432 
Q 1894 3584 2278 3584 
Q 2916 3584 3314 3078 
Q 3713 2572 3713 1747 
Q 3713 922 3314 415 
Q 2916 -91 2278 -91 
Q 1894 -91 1617 61 
Q 1341 213 1159 525 
z
M 3116 1747 
Q 3116 2381 2855 2742 
Q 2594 3103 2138 3103 
Q 1681 3103 1420 2742 
Q 1159 2381 1159 1747 
Q 1159 1113 1420 752 
Q 1681 391 2138 391 
Q 2594 391 2855 752 
Q 3116 1113 3116 1747 
z
" transform="scale(0.015625)"/>
      <path id="DejaVuSans-75" d="M 544 1381 
L 544 3500 
L 1119 3500 
L 1119 1403 
Q 1119 906 1312 657 
Q 1506 409 1894 409 
Q 2359 409 2629 706 
Q 2900 1003 2900 1516 
L 2900 3500 
L 3475 3500 
L 3475 0 
L 2900 0 
L 2900 538 
Q 2691 219 2414 64 
Q 2138 -91 1772 -91 
Q 1169 -91 856 284 
Q 544 659 544 1381 
z
M 1991 3584 
L 1991 3584 
z
" transform="scale(0.015625)"/>
      <path id="DejaVuSans-74" d="M 1172 4494 
L 1172 3500 
L 2356 3500 
L 2356 3053 
L 1172 3053 
L 1172 1153 
Q 1172 725 1289 603 
Q 1406 481 1766 481 
L 2356 481 
L 2356 0 
L 1766 0 
Q 1100 0 847 248 
Q 594 497 594 1153 
L 594 3053 
L 172 3053 
L 172 3500 
L 594 3500 
L 594 4494 
L 1172 4494 
z
" transform="scale(0.015625)"/>
      <path id="DejaVuSans-67" d="M 2906 1791 
Q 2906 2416 2648 2759 
Q 2391 3103 1925 3103 
Q 1463 3103 1205 2759 
Q 947 2416 947 1791 
Q 947 1169 1205 825 
Q 1463 481 1925 481 
Q 2391 481 2648 825 
Q 2906 1169 2906 1791 
z
M 3481 434 
Q 3481 -459 3084 -895 
Q 2688 -1331 1869 -1331 
Q 1566 -1331 1297 -1286 
Q 1028 -1241 775 -1147 
L 775 -588 
Q 1028 -725 1275 -790 
Q 1522 -856 1778 -856 
Q 2344 -856 2625 -561 
Q 2906 -266 2906 331 
L 2906 616 
Q 2728 306 2450 153 
Q 2172 0 1784 0 
Q 1141 0 747 490 
Q 353 981 353 1791 
Q 353 2603 747 3093 
Q 1141 3584 1784 3584 
Q 2172 3584 2450 3431 
Q 2728 3278 2906 2969 
L 2906 3500 
L 3481 3500 
L 3481 434 
z
" transform="scale(0.015625)"/>
      <path id="DejaVuSans-72" d="M 2631 2963 
Q 2534 3019 2420 3045 
Q 2306 3072 2169 3072 
Q 1681 3072 1420 2755 
Q 1159 2438 1159 1844 
L 1159 0 
L 581 0 
L 581 3500 
L 1159 3500 
L 1159 2956 
Q 1341 3275 1631 3429 
Q 1922 3584 2338 3584 
Q 2397 3584 2469 3576 
Q 2541 3569 2628 3553 
L 2631 2963 
z
" transform="scale(0.015625)"/>
      <path id="DejaVuSans-61" d="M 2194 1759 
Q 1497 1759 1228 1600 
Q 959 1441 959 1056 
Q 959 750 1161 570 
Q 1363 391 1709 391 
Q 2188 391 2477 730 
Q 2766 1069 2766 1631 
L 2766 1759 
L 2194 1759 
z
M 3341 1997 
L 3341 0 
L 2766 0 
L 2766 531 
Q 2569 213 2275 61 
Q 1981 -91 1556 -91 
Q 1019 -91 701 211 
Q 384 513 384 1019 
Q 384 1609 779 1909 
Q 1175 2209 1959 2209 
L 2766 2209 
L 2766 2266 
Q 2766 2663 2505 2880 
Q 2244 3097 1772 3097 
Q 1472 3097 1187 3025 
Q 903 2953 641 2809 
L 641 3341 
Q 956 3463 1253 3523 
Q 1550 3584 1831 3584 
Q 2591 3584 2966 3190 
Q 3341 2797 3341 1997 
z
" transform="scale(0.015625)"/>
      <path id="DejaVuSans-68" d="M 3513 2113 
L 3513 0 
L 2938 0 
L 2938 2094 
Q 2938 2591 2744 2837 
Q 2550 3084 2163 3084 
Q 1697 3084 1428 2787 
Q 1159 2491 1159 1978 
L 1159 0 
L 581 0 
L 581 4863 
L 1159 4863 
L 1159 2956 
Q 1366 3272 1645 3428 
Q 1925 3584 2291 3584 
Q 2894 3584 3203 3211 
Q 3513 2838 3513 2113 
z
" transform="scale(0.015625)"/>
      <path id="DejaVuSans-28" d="M 1984 4856 
Q 1566 4138 1362 3434 
Q 1159 2731 1159 2009 
Q 1159 1288 1364 580 
Q 1569 -128 1984 -844 
L 1484 -844 
Q 1016 -109 783 600 
Q 550 1309 550 2009 
Q 550 2706 781 3412 
Q 1013 4119 1484 4856 
L 1984 4856 
z
" transform="scale(0.015625)"/>
      <path id="DejaVuSans-6c" d="M 603 4863 
L 1178 4863 
L 1178 0 
L 603 0 
L 603 4863 
z
" transform="scale(0.015625)"/>
      <path id="DejaVuSans-65" d="M 3597 1894 
L 3597 1613 
L 953 1613 
Q 991 1019 1311 708 
Q 1631 397 2203 397 
Q 2534 397 2845 478 
Q 3156 559 3463 722 
L 3463 178 
Q 3153 47 2828 -22 
Q 2503 -91 2169 -91 
Q 1331 -91 842 396 
Q 353 884 353 1716 
Q 353 2575 817 3079 
Q 1281 3584 2069 3584 
Q 2775 3584 3186 3129 
Q 3597 2675 3597 1894 
z
M 3022 2063 
Q 3016 2534 2758 2815 
Q 2500 3097 2075 3097 
Q 1594 3097 1305 2825 
Q 1016 2553 972 2059 
L 3022 2063 
z
" transform="scale(0.015625)"/>
      <path id="DejaVuSans-29" d="M 513 4856 
L 1013 4856 
Q 1481 4119 1714 3412 
Q 1947 2706 1947 2009 
Q 1947 1309 1714 600 
Q 1481 -109 1013 -844 
L 513 -844 
Q 928 -128 1133 580 
Q 1338 1288 1338 2009 
Q 1338 2731 1133 3434 
Q 928 4138 513 4856 
z
" transform="scale(0.015625)"/>
     </defs>
     <use xlink:href="#DejaVuSans-69"/>
     <use xlink:href="#DejaVuSans-6e" x="27.783203"/>
     <use xlink:href="#DejaVuSans-70" x="91.162109"/>
     <use xlink:href="#DejaVuSans-75" x="154.638672"/>
     <use xlink:href="#DejaVuSans-74" x="218.017578"/>
     <use xlink:href="#DejaVuSans-67" x="257.226562"/>
     <use xlink:href="#DejaVuSans-72" x="320.703125"/>
     <use xlink:href="#DejaVuSans-61" x="361.816406"/>
     <use xlink:href="#DejaVuSans-70" x="423.095703"/>
     <use xlink:href="#DejaVuSans-68" x="486.572266"/>
     <use xlink:href="#DejaVuSans-28" x="549.951172"/>
     <use xlink:href="#DejaVuSans-6c" x="588.964844"/>
     <use xlink:href="#DejaVuSans-65" x="616.748047"/>
     <use xlink:href="#DejaVuSans-6e" x="678.271484"/>
     <use xlink:href="#DejaVuSans-67" x="741.650391"/>
     <use xlink:href="#DejaVuSans-74" x="805.126953"/>
     <use xlink:href="#DejaVuSans-68" x="844.335938"/>
     <use xlink:href="#DejaVuSans-29" x="907.714844"/>
    </g>
   </g>
  </g>
 </g>
 <defs>
  <clipPath id="pe695e7566a">
   <rect x="7.2" y="22.318125" width="446.4" height="277.2"/>
  </clipPath>
 </defs>
</svg>
