<?xml version="1.0" encoding="utf-8" standalone="no"?>
<!DOCTYPE svg PUBLIC "-//W3C//DTD SVG 1.1//EN"
  "http://www.w3.org/Graphics/SVG/1.1/DTD/svg11.dtd">
<svg xmlns:xlink="http://www.w3.org/1999/xlink" width="349.2pt" height="306.718125pt" viewBox="0 0 349.2 306.718125" xmlns="http://www.w3.org/2000/svg" version="1.1">
 <metadata>
  <rdf:RDF xmlns:dc="http://purl.org/dc/elements/1.1/" xmlns:cc="http://creativecommons.org/ns#" xmlns:rdf="http://www.w3.org/1999/02/22-rdf-syntax-ns#">
   <cc:Work>
    <dc:type rdf:resource="http://purl.org/dc/dcmitype/StillImage"/>
    <dc:date>2022-11-22T05:25:06.865179</dc:date>
    <dc:format>image/svg+xml</dc:format>
    <dc:creator>
     <cc:Agent>
      <dc:title>Matplotlib v3.6.1, https://matplotlib.org/</dc:title>
     </cc:Agent>
    </dc:creator>
   </cc:Work>
  </rdf:RDF>
 </metadata>
 <defs>
  <style type="text/css">*{stroke-linejoin: round; stroke-linecap: butt}</style>
 </defs>
 <g id="figure_1">
  <g id="patch_1">
   <path d="M 0 306.718125 
L 349.2 306.718125 
L 349.2 0 
L 0 0 
z
" style="fill: #ffffff"/>
  </g>
  <g id="axes_1">
   <g id="patch_2">
    <path d="M 7.2 299.518125 
L 342 299.518125 
L 342 22.318125 
L 7.2 22.318125 
z
" style="fill: #ffffff"/>
   </g>
   <g id="text_1">
    <g id="patch_3">
     <path d="M 83.752673 183.191989 
L 83.752673 195.916989 
Q 83.752673 198.916989 86.752673 198.916989 
L 96.430798 198.916989 
Q 99.430798 198.916989 99.430798 195.916989 
L 99.430798 183.191989 
Q 99.430798 180.191989 96.430798 180.191989 
L 86.752673 180.191989 
Q 83.752673 180.191989 83.752673 183.191989 
z
" clip-path="url(#p1679445dc5)" style="fill: #ffffff; stroke: #ffffff; stroke-linejoin: miter"/>
    </g>
    <g clip-path="url(#p1679445dc5)">
     <!-- 14 -->
     <g transform="translate(88.832361 183.191989) rotate(-270) scale(0.1 -0.1)">
      <defs>
       <path id="DejaVuSans-31" d="M 794 531 
L 1825 531 
L 1825 4091 
L 703 3866 
L 703 4441 
L 1819 4666 
L 2450 4666 
L 2450 531 
L 3481 531 
L 3481 0 
L 794 0 
L 794 531 
z
" transform="scale(0.015625)"/>
       <path id="DejaVuSans-34" d="M 2419 4116 
L 825 1625 
L 2419 1625 
L 2419 4116 
z
M 2253 4666 
L 3047 4666 
L 3047 1625 
L 3713 1625 
L 3713 1100 
L 3047 1100 
L 3047 0 
L 2419 0 
L 2419 1100 
L 313 1100 
L 313 1709 
L 2253 4666 
z
" transform="scale(0.015625)"/>
      </defs>
      <use xlink:href="#DejaVuSans-31"/>
      <use xlink:href="#DejaVuSans-34" x="63.623047"/>
     </g>
    </g>
   </g>
   <g id="text_2">
    <g id="patch_4">
     <path d="M 112.898657 168.757188 
L 125.623657 168.757188 
Q 128.623657 168.757188 128.623657 165.757188 
L 128.623657 156.079063 
Q 128.623657 153.079063 125.623657 153.079063 
L 112.898657 153.079063 
Q 109.898657 153.079063 109.898657 156.079063 
L 109.898657 165.757188 
Q 109.898657 168.757188 112.898657 168.757188 
z
" clip-path="url(#p1679445dc5)" style="fill: #ffffff; stroke: #ffffff; stroke-linejoin: miter"/>
    </g>
    <g clip-path="url(#p1679445dc5)">
     <!-- 22 -->
     <g transform="translate(112.898657 163.6775) scale(0.1 -0.1)">
      <defs>
       <path id="DejaVuSans-32" d="M 1228 531 
L 3431 531 
L 3431 0 
L 469 0 
L 469 531 
Q 828 903 1448 1529 
Q 2069 2156 2228 2338 
Q 2531 2678 2651 2914 
Q 2772 3150 2772 3378 
Q 2772 3750 2511 3984 
Q 2250 4219 1831 4219 
Q 1534 4219 1204 4116 
Q 875 4013 500 3803 
L 500 4441 
Q 881 4594 1212 4672 
Q 1544 4750 1819 4750 
Q 2544 4750 2975 4387 
Q 3406 4025 3406 3419 
Q 3406 3131 3298 2873 
Q 3191 2616 2906 2266 
Q 2828 2175 2409 1742 
Q 1991 1309 1228 531 
z
" transform="scale(0.015625)"/>
      </defs>
      <use xlink:href="#DejaVuSans-32"/>
      <use xlink:href="#DejaVuSans-32" x="63.623047"/>
     </g>
    </g>
   </g>
   <g id="text_3">
    <g id="patch_5">
     <path d="M 119.359678 142.377434 
L 129.16116 134.262228 
Q 131.471922 132.349016 129.558711 130.038254 
L 123.38661 122.583639 
Q 121.473399 120.272877 119.162636 122.186089 
L 109.361154 130.301295 
Q 107.050392 132.214506 108.963604 134.525269 
L 115.135704 141.979883 
Q 117.048916 144.290645 119.359678 142.377434 
z
" clip-path="url(#p1679445dc5)" style="fill: #ffffff; stroke: #ffffff; stroke-linejoin: miter"/>
    </g>
    <g clip-path="url(#p1679445dc5)">
     <!-- 21 -->
     <g transform="translate(116.120172 138.464784) rotate(-39.623295) scale(0.1 -0.1)">
      <use xlink:href="#DejaVuSans-32"/>
      <use xlink:href="#DejaVuSans-31" x="63.623047"/>
     </g>
    </g>
   </g>
   <g id="text_4">
    <g id="patch_6">
     <path d="M 57.559814 168.757188 
L 70.284814 168.757188 
Q 73.284814 168.757188 73.284814 165.757188 
L 73.284814 156.079063 
Q 73.284814 153.079063 70.284814 153.079063 
L 57.559814 153.079063 
Q 54.559814 153.079063 54.559814 156.079063 
L 54.559814 165.757188 
Q 54.559814 168.757188 57.559814 168.757188 
z
" clip-path="url(#p1679445dc5)" style="fill: #ffffff; stroke: #ffffff; stroke-linejoin: miter"/>
    </g>
    <g clip-path="url(#p1679445dc5)">
     <!-- 27 -->
     <g transform="translate(57.559814 163.6775) scale(0.1 -0.1)">
      <defs>
       <path id="DejaVuSans-37" d="M 525 4666 
L 3525 4666 
L 3525 4397 
L 1831 0 
L 1172 0 
L 2766 4134 
L 525 4134 
L 525 4666 
z
" transform="scale(0.015625)"/>
      </defs>
      <use xlink:href="#DejaVuSans-32"/>
      <use xlink:href="#DejaVuSans-37" x="63.623047"/>
     </g>
    </g>
   </g>
   <g id="text_5">
    <g id="patch_7">
     <path d="M 116.079907 226.029915 
L 122.442407 226.029915 
Q 125.442407 226.029915 125.442407 223.029915 
L 125.442407 213.35179 
Q 125.442407 210.35179 122.442407 210.35179 
L 116.079907 210.35179 
Q 113.079907 210.35179 113.079907 213.35179 
L 113.079907 223.029915 
Q 113.079907 226.029915 116.079907 226.029915 
z
" clip-path="url(#p1679445dc5)" style="fill: #ffffff; stroke: #ffffff; stroke-linejoin: miter"/>
    </g>
    <g clip-path="url(#p1679445dc5)">
     <!-- 9 -->
     <g transform="translate(116.079907 220.950227) scale(0.1 -0.1)">
      <defs>
       <path id="DejaVuSans-39" d="M 703 97 
L 703 672 
Q 941 559 1184 500 
Q 1428 441 1663 441 
Q 2288 441 2617 861 
Q 2947 1281 2994 2138 
Q 2813 1869 2534 1725 
Q 2256 1581 1919 1581 
Q 1219 1581 811 2004 
Q 403 2428 403 3163 
Q 403 3881 828 4315 
Q 1253 4750 1959 4750 
Q 2769 4750 3195 4129 
Q 3622 3509 3622 2328 
Q 3622 1225 3098 567 
Q 2575 -91 1691 -91 
Q 1453 -91 1209 -44 
Q 966 3 703 97 
z
M 1959 2075 
Q 2384 2075 2632 2365 
Q 2881 2656 2881 3163 
Q 2881 3666 2632 3958 
Q 2384 4250 1959 4250 
Q 1534 4250 1286 3958 
Q 1038 3666 1038 3163 
Q 1038 2656 1286 2365 
Q 1534 2075 1959 2075 
z
" transform="scale(0.015625)"/>
      </defs>
      <use xlink:href="#DejaVuSans-39"/>
     </g>
    </g>
   </g>
   <g id="text_6">
    <g id="patch_8">
     <path d="M 54.022311 191.534955 
L 63.823793 199.650161 
Q 66.134556 201.563373 68.047767 199.252611 
L 74.219868 191.797996 
Q 76.133079 189.487234 73.822317 187.574022 
L 64.020835 179.458816 
Q 61.710073 177.545605 59.796861 179.856367 
L 53.624761 187.310981 
Q 51.711549 189.621744 54.022311 191.534955 
z
" clip-path="url(#p1679445dc5)" style="fill: #ffffff; stroke: #ffffff; stroke-linejoin: miter"/>
    </g>
    <g clip-path="url(#p1679445dc5)">
     <!-- 16 -->
     <g transform="translate(57.261817 187.622305) rotate(-320.376705) scale(0.1 -0.1)">
      <defs>
       <path id="DejaVuSans-36" d="M 2113 2584 
Q 1688 2584 1439 2293 
Q 1191 2003 1191 1497 
Q 1191 994 1439 701 
Q 1688 409 2113 409 
Q 2538 409 2786 701 
Q 3034 994 3034 1497 
Q 3034 2003 2786 2293 
Q 2538 2584 2113 2584 
z
M 3366 4563 
L 3366 3988 
Q 3128 4100 2886 4159 
Q 2644 4219 2406 4219 
Q 1781 4219 1451 3797 
Q 1122 3375 1075 2522 
Q 1259 2794 1537 2939 
Q 1816 3084 2150 3084 
Q 2853 3084 3261 2657 
Q 3669 2231 3669 1497 
Q 3669 778 3244 343 
Q 2819 -91 2113 -91 
Q 1303 -91 875 529 
Q 447 1150 447 2328 
Q 447 3434 972 4092 
Q 1497 4750 2381 4750 
Q 2619 4750 2861 4703 
Q 3103 4656 3366 4563 
z
" transform="scale(0.015625)"/>
      </defs>
      <use xlink:href="#DejaVuSans-31"/>
      <use xlink:href="#DejaVuSans-36" x="63.623047"/>
     </g>
    </g>
   </g>
   <g id="text_7">
    <g id="patch_9">
     <path d="M 83.752673 240.464716 
L 83.752673 253.189716 
Q 83.752673 256.189716 86.752673 256.189716 
L 96.430798 256.189716 
Q 99.430798 256.189716 99.430798 253.189716 
L 99.430798 240.464716 
Q 99.430798 237.464716 96.430798 237.464716 
L 86.752673 237.464716 
Q 83.752673 237.464716 83.752673 240.464716 
z
" clip-path="url(#p1679445dc5)" style="fill: #ffffff; stroke: #ffffff; stroke-linejoin: miter"/>
    </g>
    <g clip-path="url(#p1679445dc5)">
     <!-- 27 -->
     <g transform="translate(88.832361 240.464716) rotate(-270) scale(0.1 -0.1)">
      <use xlink:href="#DejaVuSans-32"/>
      <use xlink:href="#DejaVuSans-37" x="63.623047"/>
     </g>
    </g>
   </g>
   <g id="text_8">
    <g id="patch_10">
     <path d="M 111.811525 250.836484 
L 116.712266 254.894087 
Q 119.023028 256.807298 120.93624 254.496536 
L 127.10834 247.041922 
Q 129.021551 244.73116 126.710789 242.817948 
L 121.810048 238.760345 
Q 119.499286 236.847133 117.586075 239.157895 
L 111.413974 246.61251 
Q 109.500763 248.923272 111.811525 250.836484 
z
" clip-path="url(#p1679445dc5)" style="fill: #ffffff; stroke: #ffffff; stroke-linejoin: miter"/>
    </g>
    <g clip-path="url(#p1679445dc5)">
     <!-- 6 -->
     <g transform="translate(115.05103 246.923834) rotate(-320.376705) scale(0.1 -0.1)">
      <use xlink:href="#DejaVuSans-36"/>
     </g>
    </g>
   </g>
   <g id="text_9">
    <g id="patch_11">
     <path d="M 168.2375 168.757188 
L 180.9625 168.757188 
Q 183.9625 168.757188 183.9625 165.757188 
L 183.9625 156.079063 
Q 183.9625 153.079063 180.9625 153.079063 
L 168.2375 153.079063 
Q 165.2375 153.079063 165.2375 156.079063 
L 165.2375 165.757188 
Q 165.2375 168.757188 168.2375 168.757188 
z
" clip-path="url(#p1679445dc5)" style="fill: #ffffff; stroke: #ffffff; stroke-linejoin: miter"/>
    </g>
    <g clip-path="url(#p1679445dc5)">
     <!-- 13 -->
     <g transform="translate(168.2375 163.6775) scale(0.1 -0.1)">
      <defs>
       <path id="DejaVuSans-33" d="M 2597 2516 
Q 3050 2419 3304 2112 
Q 3559 1806 3559 1356 
Q 3559 666 3084 287 
Q 2609 -91 1734 -91 
Q 1441 -91 1130 -33 
Q 819 25 488 141 
L 488 750 
Q 750 597 1062 519 
Q 1375 441 1716 441 
Q 2309 441 2620 675 
Q 2931 909 2931 1356 
Q 2931 1769 2642 2001 
Q 2353 2234 1838 2234 
L 1294 2234 
L 1294 2753 
L 1863 2753 
Q 2328 2753 2575 2939 
Q 2822 3125 2822 3475 
Q 2822 3834 2567 4026 
Q 2313 4219 1838 4219 
Q 1578 4219 1281 4162 
Q 984 4106 628 3988 
L 628 4550 
Q 988 4650 1302 4700 
Q 1616 4750 1894 4750 
Q 2613 4750 3031 4423 
Q 3450 4097 3450 3541 
Q 3450 3153 3228 2886 
Q 3006 2619 2597 2516 
z
" transform="scale(0.015625)"/>
      </defs>
      <use xlink:href="#DejaVuSans-31"/>
      <use xlink:href="#DejaVuSans-33" x="63.623047"/>
     </g>
    </g>
   </g>
   <g id="text_10">
    <g id="patch_12">
     <path d="M 174.698521 199.650161 
L 184.500003 191.534955 
Q 186.810765 189.621744 184.897553 187.310981 
L 178.725453 179.856367 
Q 176.812242 177.545605 174.501479 179.458816 
L 164.699997 187.574022 
Q 162.389235 189.487234 164.302447 191.797996 
L 170.474547 199.252611 
Q 172.387758 201.563373 174.698521 199.650161 
z
" clip-path="url(#p1679445dc5)" style="fill: #ffffff; stroke: #ffffff; stroke-linejoin: miter"/>
    </g>
    <g clip-path="url(#p1679445dc5)">
     <!-- 27 -->
     <g transform="translate(171.459015 195.737511) rotate(-39.623295) scale(0.1 -0.1)">
      <use xlink:href="#DejaVuSans-32"/>
      <use xlink:href="#DejaVuSans-37" x="63.623047"/>
     </g>
    </g>
   </g>
   <g id="text_11">
    <g id="patch_13">
     <path d="M 168.2375 226.029915 
L 180.9625 226.029915 
Q 183.9625 226.029915 183.9625 223.029915 
L 183.9625 213.35179 
Q 183.9625 210.35179 180.9625 210.35179 
L 168.2375 210.35179 
Q 165.2375 210.35179 165.2375 213.35179 
L 165.2375 223.029915 
Q 165.2375 226.029915 168.2375 226.029915 
z
" clip-path="url(#p1679445dc5)" style="fill: #ffffff; stroke: #ffffff; stroke-linejoin: miter"/>
    </g>
    <g clip-path="url(#p1679445dc5)">
     <!-- 18 -->
     <g transform="translate(168.2375 220.950227) scale(0.1 -0.1)">
      <defs>
       <path id="DejaVuSans-38" d="M 2034 2216 
Q 1584 2216 1326 1975 
Q 1069 1734 1069 1313 
Q 1069 891 1326 650 
Q 1584 409 2034 409 
Q 2484 409 2743 651 
Q 3003 894 3003 1313 
Q 3003 1734 2745 1975 
Q 2488 2216 2034 2216 
z
M 1403 2484 
Q 997 2584 770 2862 
Q 544 3141 544 3541 
Q 544 4100 942 4425 
Q 1341 4750 2034 4750 
Q 2731 4750 3128 4425 
Q 3525 4100 3525 3541 
Q 3525 3141 3298 2862 
Q 3072 2584 2669 2484 
Q 3125 2378 3379 2068 
Q 3634 1759 3634 1313 
Q 3634 634 3220 271 
Q 2806 -91 2034 -91 
Q 1263 -91 848 271 
Q 434 634 434 1313 
Q 434 1759 690 2068 
Q 947 2378 1403 2484 
z
M 1172 3481 
Q 1172 3119 1398 2916 
Q 1625 2713 2034 2713 
Q 2441 2713 2670 2916 
Q 2900 3119 2900 3481 
Q 2900 3844 2670 4047 
Q 2441 4250 2034 4250 
Q 1625 4250 1398 4047 
Q 1172 3844 1172 3481 
z
" transform="scale(0.015625)"/>
      </defs>
      <use xlink:href="#DejaVuSans-31"/>
      <use xlink:href="#DejaVuSans-38" x="63.623047"/>
     </g>
    </g>
   </g>
   <g id="text_12">
    <g id="patch_14">
     <path d="M 139.091516 240.464716 
L 139.091516 253.189716 
Q 139.091516 256.189716 142.091516 256.189716 
L 151.769641 256.189716 
Q 154.769641 256.189716 154.769641 253.189716 
L 154.769641 240.464716 
Q 154.769641 237.464716 151.769641 237.464716 
L 142.091516 237.464716 
Q 139.091516 237.464716 139.091516 240.464716 
z
" clip-path="url(#p1679445dc5)" style="fill: #ffffff; stroke: #ffffff; stroke-linejoin: miter"/>
    </g>
    <g clip-path="url(#p1679445dc5)">
     <!-- 18 -->
     <g transform="translate(144.171204 240.464716) rotate(-270) scale(0.1 -0.1)">
      <use xlink:href="#DejaVuSans-31"/>
      <use xlink:href="#DejaVuSans-38" x="63.623047"/>
     </g>
    </g>
   </g>
   <g id="text_13">
    <g id="patch_15">
     <path d="M 164.699997 134.262228 
L 174.501479 142.377434 
Q 176.812242 144.290645 178.725453 141.979883 
L 184.897553 134.525269 
Q 186.810765 132.214506 184.500003 130.301295 
L 174.698521 122.186089 
Q 172.387758 120.272877 170.474547 122.583639 
L 164.302447 130.038254 
Q 162.389235 132.349016 164.699997 134.262228 
z
" clip-path="url(#p1679445dc5)" style="fill: #ffffff; stroke: #ffffff; stroke-linejoin: miter"/>
    </g>
    <g clip-path="url(#p1679445dc5)">
     <!-- 27 -->
     <g transform="translate(167.939503 130.349578) rotate(-320.376705) scale(0.1 -0.1)">
      <use xlink:href="#DejaVuSans-32"/>
      <use xlink:href="#DejaVuSans-37" x="63.623047"/>
     </g>
    </g>
   </g>
   <g id="text_14">
    <g id="patch_16">
     <path d="M 171.41875 111.48446 
L 177.78125 111.48446 
Q 180.78125 111.48446 180.78125 108.48446 
L 180.78125 98.806335 
Q 180.78125 95.806335 177.78125 95.806335 
L 171.41875 95.806335 
Q 168.41875 95.806335 168.41875 98.806335 
L 168.41875 108.48446 
Q 168.41875 111.48446 171.41875 111.48446 
z
" clip-path="url(#p1679445dc5)" style="fill: #ffffff; stroke: #ffffff; stroke-linejoin: miter"/>
    </g>
    <g clip-path="url(#p1679445dc5)">
     <!-- 6 -->
     <g transform="translate(171.41875 106.404773) scale(0.1 -0.1)">
      <use xlink:href="#DejaVuSans-36"/>
     </g>
    </g>
   </g>
   <g id="text_15">
    <g id="patch_17">
     <path d="M 210.108484 135.463011 
L 210.108484 129.100511 
Q 210.108484 126.100511 207.108484 126.100511 
L 197.430359 126.100511 
Q 194.430359 126.100511 194.430359 129.100511 
L 194.430359 135.463011 
Q 194.430359 138.463011 197.430359 138.463011 
L 207.108484 138.463011 
Q 210.108484 138.463011 210.108484 135.463011 
z
" clip-path="url(#p1679445dc5)" style="fill: #ffffff; stroke: #ffffff; stroke-linejoin: miter"/>
    </g>
    <g clip-path="url(#p1679445dc5)">
     <!-- 9 -->
     <g transform="translate(205.028796 135.463011) rotate(-90) scale(0.1 -0.1)">
      <use xlink:href="#DejaVuSans-39"/>
     </g>
    </g>
   </g>
   <g id="text_16">
    <g id="patch_18">
     <path d="M 194.430359 183.191989 
L 194.430359 195.916989 
Q 194.430359 198.916989 197.430359 198.916989 
L 207.108484 198.916989 
Q 210.108484 198.916989 210.108484 195.916989 
L 210.108484 183.191989 
Q 210.108484 180.191989 207.108484 180.191989 
L 197.430359 180.191989 
Q 194.430359 180.191989 194.430359 183.191989 
z
" clip-path="url(#p1679445dc5)" style="fill: #ffffff; stroke: #ffffff; stroke-linejoin: miter"/>
    </g>
    <g clip-path="url(#p1679445dc5)">
     <!-- 14 -->
     <g transform="translate(199.510046 183.191989) rotate(-270) scale(0.1 -0.1)">
      <use xlink:href="#DejaVuSans-31"/>
      <use xlink:href="#DejaVuSans-34" x="63.623047"/>
     </g>
    </g>
   </g>
   <g id="text_17">
    <g id="patch_19">
     <path d="M 230.037364 142.377434 
L 239.838846 134.262228 
Q 242.149608 132.349016 240.236396 130.038254 
L 234.064296 122.583639 
Q 232.151084 120.272877 229.840322 122.186089 
L 220.03884 130.301295 
Q 217.728078 132.214506 219.641289 134.525269 
L 225.81339 141.979883 
Q 227.726601 144.290645 230.037364 142.377434 
z
" clip-path="url(#p1679445dc5)" style="fill: #ffffff; stroke: #ffffff; stroke-linejoin: miter"/>
    </g>
    <g clip-path="url(#p1679445dc5)">
     <!-- 20 -->
     <g transform="translate(226.797858 138.464784) rotate(-39.623295) scale(0.1 -0.1)">
      <defs>
       <path id="DejaVuSans-30" d="M 2034 4250 
Q 1547 4250 1301 3770 
Q 1056 3291 1056 2328 
Q 1056 1369 1301 889 
Q 1547 409 2034 409 
Q 2525 409 2770 889 
Q 3016 1369 3016 2328 
Q 3016 3291 2770 3770 
Q 2525 4250 2034 4250 
z
M 2034 4750 
Q 2819 4750 3233 4129 
Q 3647 3509 3647 2328 
Q 3647 1150 3233 529 
Q 2819 -91 2034 -91 
Q 1250 -91 836 529 
Q 422 1150 422 2328 
Q 422 3509 836 4129 
Q 1250 4750 2034 4750 
z
" transform="scale(0.015625)"/>
      </defs>
      <use xlink:href="#DejaVuSans-32"/>
      <use xlink:href="#DejaVuSans-30" x="63.623047"/>
     </g>
    </g>
   </g>
   <g id="text_18">
    <g id="patch_20">
     <path d="M 223.576343 168.757188 
L 236.301343 168.757188 
Q 239.301343 168.757188 239.301343 165.757188 
L 239.301343 156.079063 
Q 239.301343 153.079063 236.301343 153.079063 
L 223.576343 153.079063 
Q 220.576343 153.079063 220.576343 156.079063 
L 220.576343 165.757188 
Q 220.576343 168.757188 223.576343 168.757188 
z
" clip-path="url(#p1679445dc5)" style="fill: #ffffff; stroke: #ffffff; stroke-linejoin: miter"/>
    </g>
    <g clip-path="url(#p1679445dc5)">
     <!-- 29 -->
     <g transform="translate(223.576343 163.6775) scale(0.1 -0.1)">
      <use xlink:href="#DejaVuSans-32"/>
      <use xlink:href="#DejaVuSans-39" x="63.623047"/>
     </g>
    </g>
   </g>
   <g id="text_19">
    <g id="patch_21">
     <path d="M 230.037364 199.650161 
L 239.838846 191.534955 
Q 242.149608 189.621744 240.236396 187.310981 
L 234.064296 179.856367 
Q 232.151084 177.545605 229.840322 179.458816 
L 220.03884 187.574022 
Q 217.728078 189.487234 219.641289 191.797996 
L 225.81339 199.252611 
Q 227.726601 201.563373 230.037364 199.650161 
z
" clip-path="url(#p1679445dc5)" style="fill: #ffffff; stroke: #ffffff; stroke-linejoin: miter"/>
    </g>
    <g clip-path="url(#p1679445dc5)">
     <!-- 16 -->
     <g transform="translate(226.797858 195.737511) rotate(-39.623295) scale(0.1 -0.1)">
      <use xlink:href="#DejaVuSans-31"/>
      <use xlink:href="#DejaVuSans-36" x="63.623047"/>
     </g>
    </g>
   </g>
   <g id="text_20">
    <g id="patch_22">
     <path d="M 222.489211 250.836484 
L 227.389952 254.894087 
Q 229.700714 256.807298 231.613925 254.496536 
L 237.786026 247.041922 
Q 239.699237 244.73116 237.388475 242.817948 
L 232.487734 238.760345 
Q 230.176972 236.847133 228.26376 239.157895 
L 222.09166 246.61251 
Q 220.178449 248.923272 222.489211 250.836484 
z
" clip-path="url(#p1679445dc5)" style="fill: #ffffff; stroke: #ffffff; stroke-linejoin: miter"/>
    </g>
    <g clip-path="url(#p1679445dc5)">
     <!-- 6 -->
     <g transform="translate(225.728716 246.923834) rotate(-320.376705) scale(0.1 -0.1)">
      <use xlink:href="#DejaVuSans-36"/>
     </g>
    </g>
   </g>
   <g id="text_21">
    <g id="patch_23">
     <path d="M 194.430359 68.646534 
L 194.430359 81.371534 
Q 194.430359 84.371534 197.430359 84.371534 
L 207.108484 84.371534 
Q 210.108484 84.371534 210.108484 81.371534 
L 210.108484 68.646534 
Q 210.108484 65.646534 207.108484 65.646534 
L 197.430359 65.646534 
Q 194.430359 65.646534 194.430359 68.646534 
z
" clip-path="url(#p1679445dc5)" style="fill: #ffffff; stroke: #ffffff; stroke-linejoin: miter"/>
    </g>
    <g clip-path="url(#p1679445dc5)">
     <!-- 25 -->
     <g transform="translate(199.510046 68.646534) rotate(-270) scale(0.1 -0.1)">
      <defs>
       <path id="DejaVuSans-35" d="M 691 4666 
L 3169 4666 
L 3169 4134 
L 1269 4134 
L 1269 2991 
Q 1406 3038 1543 3061 
Q 1681 3084 1819 3084 
Q 2600 3084 3056 2656 
Q 3513 2228 3513 1497 
Q 3513 744 3044 326 
Q 2575 -91 1722 -91 
Q 1428 -91 1123 -41 
Q 819 9 494 109 
L 494 744 
Q 775 591 1075 516 
Q 1375 441 1709 441 
Q 2250 441 2565 725 
Q 2881 1009 2881 1497 
Q 2881 1984 2565 2268 
Q 2250 2553 1709 2553 
Q 1456 2553 1204 2497 
Q 953 2441 691 2322 
L 691 4666 
z
" transform="scale(0.015625)"/>
      </defs>
      <use xlink:href="#DejaVuSans-32"/>
      <use xlink:href="#DejaVuSans-35" x="63.623047"/>
     </g>
    </g>
   </g>
   <g id="text_22">
    <g id="patch_24">
     <path d="M 223.576343 111.48446 
L 236.301343 111.48446 
Q 239.301343 111.48446 239.301343 108.48446 
L 239.301343 98.806335 
Q 239.301343 95.806335 236.301343 95.806335 
L 223.576343 95.806335 
Q 220.576343 95.806335 220.576343 98.806335 
L 220.576343 108.48446 
Q 220.576343 111.48446 223.576343 111.48446 
z
" clip-path="url(#p1679445dc5)" style="fill: #ffffff; stroke: #ffffff; stroke-linejoin: miter"/>
    </g>
    <g clip-path="url(#p1679445dc5)">
     <!-- 10 -->
     <g transform="translate(223.576343 106.404773) scale(0.1 -0.1)">
      <use xlink:href="#DejaVuSans-31"/>
      <use xlink:href="#DejaVuSans-30" x="63.623047"/>
     </g>
    </g>
   </g>
   <g id="text_23">
    <g id="patch_25">
     <path d="M 167.150368 79.018302 
L 172.051109 83.075905 
Q 174.361871 84.989117 176.275083 82.678355 
L 182.447183 75.22374 
Q 184.360394 72.912978 182.049632 70.999766 
L 177.148891 66.942163 
Q 174.838129 65.028952 172.924917 67.339714 
L 166.752817 74.794328 
Q 164.839606 77.10509 167.150368 79.018302 
z
" clip-path="url(#p1679445dc5)" style="fill: #ffffff; stroke: #ffffff; stroke-linejoin: miter"/>
    </g>
    <g clip-path="url(#p1679445dc5)">
     <!-- 9 -->
     <g transform="translate(170.389873 75.105652) rotate(-320.376705) scale(0.1 -0.1)">
      <use xlink:href="#DejaVuSans-39"/>
     </g>
    </g>
   </g>
   <g id="text_24">
    <g id="patch_26">
     <path d="M 230.037364 85.104706 
L 239.838846 76.989501 
Q 242.149608 75.076289 240.236396 72.765527 
L 234.064296 65.310912 
Q 232.151084 63.00015 229.840322 64.913362 
L 220.03884 73.028568 
Q 217.728078 74.941779 219.641289 77.252541 
L 225.81339 84.707156 
Q 227.726601 87.017918 230.037364 85.104706 
z
" clip-path="url(#p1679445dc5)" style="fill: #ffffff; stroke: #ffffff; stroke-linejoin: miter"/>
    </g>
    <g clip-path="url(#p1679445dc5)">
     <!-- 17 -->
     <g transform="translate(226.797858 81.192057) rotate(-39.623295) scale(0.1 -0.1)">
      <use xlink:href="#DejaVuSans-31"/>
      <use xlink:href="#DejaVuSans-37" x="63.623047"/>
     </g>
    </g>
   </g>
   <g id="text_25">
    <g id="patch_27">
     <path d="M 249.769202 125.919261 
L 249.769202 138.644261 
Q 249.769202 141.644261 252.769202 141.644261 
L 262.447327 141.644261 
Q 265.447327 141.644261 265.447327 138.644261 
L 265.447327 125.919261 
Q 265.447327 122.919261 262.447327 122.919261 
L 252.769202 122.919261 
Q 249.769202 122.919261 249.769202 125.919261 
z
" clip-path="url(#p1679445dc5)" style="fill: #ffffff; stroke: #ffffff; stroke-linejoin: miter"/>
    </g>
    <g clip-path="url(#p1679445dc5)">
     <!-- 27 -->
     <g transform="translate(254.848889 125.919261) rotate(-270) scale(0.1 -0.1)">
      <use xlink:href="#DejaVuSans-32"/>
      <use xlink:href="#DejaVuSans-37" x="63.623047"/>
     </g>
    </g>
   </g>
   <g id="text_26">
    <g id="patch_28">
     <path d="M 275.377683 134.262228 
L 285.179165 142.377434 
Q 287.489927 144.290645 289.403139 141.979883 
L 295.575239 134.525269 
Q 297.488451 132.214506 295.177689 130.301295 
L 285.376207 122.186089 
Q 283.065444 120.272877 281.152233 122.583639 
L 274.980132 130.038254 
Q 273.066921 132.349016 275.377683 134.262228 
z
" clip-path="url(#p1679445dc5)" style="fill: #ffffff; stroke: #ffffff; stroke-linejoin: miter"/>
    </g>
    <g clip-path="url(#p1679445dc5)">
     <!-- 29 -->
     <g transform="translate(278.617189 130.349578) rotate(-320.376705) scale(0.1 -0.1)">
      <use xlink:href="#DejaVuSans-32"/>
      <use xlink:href="#DejaVuSans-39" x="63.623047"/>
     </g>
    </g>
   </g>
   <g id="text_27">
    <g id="patch_29">
     <path d="M 249.769202 183.191989 
L 249.769202 195.916989 
Q 249.769202 198.916989 252.769202 198.916989 
L 262.447327 198.916989 
Q 265.447327 198.916989 265.447327 195.916989 
L 265.447327 183.191989 
Q 265.447327 180.191989 262.447327 180.191989 
L 252.769202 180.191989 
Q 249.769202 180.191989 249.769202 183.191989 
z
" clip-path="url(#p1679445dc5)" style="fill: #ffffff; stroke: #ffffff; stroke-linejoin: miter"/>
    </g>
    <g clip-path="url(#p1679445dc5)">
     <!-- 20 -->
     <g transform="translate(254.848889 183.191989) rotate(-270) scale(0.1 -0.1)">
      <use xlink:href="#DejaVuSans-32"/>
      <use xlink:href="#DejaVuSans-30" x="63.623047"/>
     </g>
    </g>
   </g>
   <g id="text_28">
    <g id="patch_30">
     <path d="M 249.769202 240.464716 
L 249.769202 253.189716 
Q 249.769202 256.189716 252.769202 256.189716 
L 262.447327 256.189716 
Q 265.447327 256.189716 265.447327 253.189716 
L 265.447327 240.464716 
Q 265.447327 237.464716 262.447327 237.464716 
L 252.769202 237.464716 
Q 249.769202 237.464716 249.769202 240.464716 
z
" clip-path="url(#p1679445dc5)" style="fill: #ffffff; stroke: #ffffff; stroke-linejoin: miter"/>
    </g>
    <g clip-path="url(#p1679445dc5)">
     <!-- 15 -->
     <g transform="translate(254.848889 240.464716) rotate(-270) scale(0.1 -0.1)">
      <use xlink:href="#DejaVuSans-31"/>
      <use xlink:href="#DejaVuSans-35" x="63.623047"/>
     </g>
    </g>
   </g>
   <g id="text_29">
    <g id="patch_31">
     <path d="M 285.376207 199.650161 
L 295.177689 191.534955 
Q 297.488451 189.621744 295.575239 187.310981 
L 289.403139 179.856367 
Q 287.489927 177.545605 285.179165 179.458816 
L 275.377683 187.574022 
Q 273.066921 189.487234 274.980132 191.797996 
L 281.152233 199.252611 
Q 283.065444 201.563373 285.376207 199.650161 
z
" clip-path="url(#p1679445dc5)" style="fill: #ffffff; stroke: #ffffff; stroke-linejoin: miter"/>
    </g>
    <g clip-path="url(#p1679445dc5)">
     <!-- 27 -->
     <g transform="translate(282.136701 195.737511) rotate(-39.623295) scale(0.1 -0.1)">
      <use xlink:href="#DejaVuSans-32"/>
      <use xlink:href="#DejaVuSans-37" x="63.623047"/>
     </g>
    </g>
   </g>
   <g id="text_30">
    <g id="patch_32">
     <path d="M 28.41383 71.827784 
L 28.41383 78.190284 
Q 28.41383 81.190284 31.41383 81.190284 
L 41.091955 81.190284 
Q 44.091955 81.190284 44.091955 78.190284 
L 44.091955 71.827784 
Q 44.091955 68.827784 41.091955 68.827784 
L 31.41383 68.827784 
Q 28.41383 68.827784 28.41383 71.827784 
z
" clip-path="url(#p1679445dc5)" style="fill: #ffffff; stroke: #ffffff; stroke-linejoin: miter"/>
    </g>
    <g clip-path="url(#p1679445dc5)">
     <!-- 5 -->
     <g transform="translate(33.493518 71.827784) rotate(-270) scale(0.1 -0.1)">
      <use xlink:href="#DejaVuSans-35"/>
     </g>
    </g>
   </g>
   <g id="text_31">
    <g id="patch_33">
     <path d="M 54.022311 76.989501 
L 63.823793 85.104706 
Q 66.134556 87.017918 68.047767 84.707156 
L 74.219868 77.252541 
Q 76.133079 74.941779 73.822317 73.028568 
L 64.020835 64.913362 
Q 61.710073 63.00015 59.796861 65.310912 
L 53.624761 72.765527 
Q 51.711549 75.076289 54.022311 76.989501 
z
" clip-path="url(#p1679445dc5)" style="fill: #ffffff; stroke: #ffffff; stroke-linejoin: miter"/>
    </g>
    <g clip-path="url(#p1679445dc5)">
     <!-- 27 -->
     <g transform="translate(57.261817 73.076851) rotate(-320.376705) scale(0.1 -0.1)">
      <use xlink:href="#DejaVuSans-32"/>
      <use xlink:href="#DejaVuSans-37" x="63.623047"/>
     </g>
    </g>
   </g>
   <g id="text_32">
    <g id="patch_34">
     <path d="M 57.559814 54.211733 
L 70.284814 54.211733 
Q 73.284814 54.211733 73.284814 51.211733 
L 73.284814 41.533608 
Q 73.284814 38.533608 70.284814 38.533608 
L 57.559814 38.533608 
Q 54.559814 38.533608 54.559814 41.533608 
L 54.559814 51.211733 
Q 54.559814 54.211733 57.559814 54.211733 
z
" clip-path="url(#p1679445dc5)" style="fill: #ffffff; stroke: #ffffff; stroke-linejoin: miter"/>
    </g>
    <g clip-path="url(#p1679445dc5)">
     <!-- 13 -->
     <g transform="translate(57.559814 49.132045) scale(0.1 -0.1)">
      <use xlink:href="#DejaVuSans-31"/>
      <use xlink:href="#DejaVuSans-33" x="63.623047"/>
     </g>
    </g>
   </g>
   <g id="text_33">
    <g id="patch_35">
     <path d="M 28.41383 125.919261 
L 28.41383 138.644261 
Q 28.41383 141.644261 31.41383 141.644261 
L 41.091955 141.644261 
Q 44.091955 141.644261 44.091955 138.644261 
L 44.091955 125.919261 
Q 44.091955 122.919261 41.091955 122.919261 
L 31.41383 122.919261 
Q 28.41383 122.919261 28.41383 125.919261 
z
" clip-path="url(#p1679445dc5)" style="fill: #ffffff; stroke: #ffffff; stroke-linejoin: miter"/>
    </g>
    <g clip-path="url(#p1679445dc5)">
     <!-- 15 -->
     <g transform="translate(33.493518 125.919261) rotate(-270) scale(0.1 -0.1)">
      <use xlink:href="#DejaVuSans-31"/>
      <use xlink:href="#DejaVuSans-35" x="63.623047"/>
     </g>
    </g>
   </g>
   <g id="text_34">
    <g id="patch_36">
     <path d="M 64.020835 142.377434 
L 73.822317 134.262228 
Q 76.133079 132.349016 74.219868 130.038254 
L 68.047767 122.583639 
Q 66.134556 120.272877 63.823793 122.186089 
L 54.022311 130.301295 
Q 51.711549 132.214506 53.624761 134.525269 
L 59.796861 141.979883 
Q 61.710073 144.290645 64.020835 142.377434 
z
" clip-path="url(#p1679445dc5)" style="fill: #ffffff; stroke: #ffffff; stroke-linejoin: miter"/>
    </g>
    <g clip-path="url(#p1679445dc5)">
     <!-- 23 -->
     <g transform="translate(60.781329 138.464784) rotate(-39.623295) scale(0.1 -0.1)">
      <use xlink:href="#DejaVuSans-32"/>
      <use xlink:href="#DejaVuSans-33" x="63.623047"/>
     </g>
    </g>
   </g>
   <g id="text_35">
    <g id="patch_37">
     <path d="M 119.359678 85.104706 
L 129.16116 76.989501 
Q 131.471922 75.076289 129.558711 72.765527 
L 123.38661 65.310912 
Q 121.473399 63.00015 119.162636 64.913362 
L 109.361154 73.028568 
Q 107.050392 74.941779 108.963604 77.252541 
L 115.135704 84.707156 
Q 117.048916 87.017918 119.359678 85.104706 
z
" clip-path="url(#p1679445dc5)" style="fill: #ffffff; stroke: #ffffff; stroke-linejoin: miter"/>
    </g>
    <g clip-path="url(#p1679445dc5)">
     <!-- 18 -->
     <g transform="translate(116.120172 81.192057) rotate(-39.623295) scale(0.1 -0.1)">
      <use xlink:href="#DejaVuSans-31"/>
      <use xlink:href="#DejaVuSans-38" x="63.623047"/>
     </g>
    </g>
   </g>
   <g id="text_36">
    <g id="patch_38">
     <path d="M 112.898657 54.211733 
L 125.623657 54.211733 
Q 128.623657 54.211733 128.623657 51.211733 
L 128.623657 41.533608 
Q 128.623657 38.533608 125.623657 38.533608 
L 112.898657 38.533608 
Q 109.898657 38.533608 109.898657 41.533608 
L 109.898657 51.211733 
Q 109.898657 54.211733 112.898657 54.211733 
z
" clip-path="url(#p1679445dc5)" style="fill: #ffffff; stroke: #ffffff; stroke-linejoin: miter"/>
    </g>
    <g clip-path="url(#p1679445dc5)">
     <!-- 21 -->
     <g transform="translate(112.898657 49.132045) scale(0.1 -0.1)">
      <use xlink:href="#DejaVuSans-32"/>
      <use xlink:href="#DejaVuSans-31" x="63.623047"/>
     </g>
    </g>
   </g>
   <g id="text_37">
    <g id="patch_39">
     <path d="M 28.41383 183.191989 
L 28.41383 195.916989 
Q 28.41383 198.916989 31.41383 198.916989 
L 41.091955 198.916989 
Q 44.091955 198.916989 44.091955 195.916989 
L 44.091955 183.191989 
Q 44.091955 180.191989 41.091955 180.191989 
L 31.41383 180.191989 
Q 28.41383 180.191989 28.41383 183.191989 
z
" clip-path="url(#p1679445dc5)" style="fill: #ffffff; stroke: #ffffff; stroke-linejoin: miter"/>
    </g>
    <g clip-path="url(#p1679445dc5)">
     <!-- 25 -->
     <g transform="translate(33.493518 183.191989) rotate(-270) scale(0.1 -0.1)">
      <use xlink:href="#DejaVuSans-32"/>
      <use xlink:href="#DejaVuSans-35" x="63.623047"/>
     </g>
    </g>
   </g>
   <g id="text_38">
    <g id="patch_40">
     <path d="M 28.41383 240.464716 
L 28.41383 253.189716 
Q 28.41383 256.189716 31.41383 256.189716 
L 41.091955 256.189716 
Q 44.091955 256.189716 44.091955 253.189716 
L 44.091955 240.464716 
Q 44.091955 237.464716 41.091955 237.464716 
L 31.41383 237.464716 
Q 28.41383 237.464716 28.41383 240.464716 
z
" clip-path="url(#p1679445dc5)" style="fill: #ffffff; stroke: #ffffff; stroke-linejoin: miter"/>
    </g>
    <g clip-path="url(#p1679445dc5)">
     <!-- 20 -->
     <g transform="translate(33.493518 240.464716) rotate(-270) scale(0.1 -0.1)">
      <use xlink:href="#DejaVuSans-32"/>
      <use xlink:href="#DejaVuSans-30" x="63.623047"/>
     </g>
    </g>
   </g>
   <g id="text_39">
    <g id="patch_41">
     <path d="M 168.2375 283.302642 
L 180.9625 283.302642 
Q 183.9625 283.302642 183.9625 280.302642 
L 183.9625 270.624517 
Q 183.9625 267.624517 180.9625 267.624517 
L 168.2375 267.624517 
Q 165.2375 267.624517 165.2375 270.624517 
L 165.2375 280.302642 
Q 165.2375 283.302642 168.2375 283.302642 
z
" clip-path="url(#p1679445dc5)" style="fill: #ffffff; stroke: #ffffff; stroke-linejoin: miter"/>
    </g>
    <g clip-path="url(#p1679445dc5)">
     <!-- 24 -->
     <g transform="translate(168.2375 278.222955) scale(0.1 -0.1)">
      <use xlink:href="#DejaVuSans-32"/>
      <use xlink:href="#DejaVuSans-34" x="63.623047"/>
     </g>
    </g>
   </g>
   <g id="text_40">
    <g id="patch_42">
     <path d="M 223.576343 283.302642 
L 236.301343 283.302642 
Q 239.301343 283.302642 239.301343 280.302642 
L 239.301343 270.624517 
Q 239.301343 267.624517 236.301343 267.624517 
L 223.576343 267.624517 
Q 220.576343 267.624517 220.576343 270.624517 
L 220.576343 280.302642 
Q 220.576343 283.302642 223.576343 283.302642 
z
" clip-path="url(#p1679445dc5)" style="fill: #ffffff; stroke: #ffffff; stroke-linejoin: miter"/>
    </g>
    <g clip-path="url(#p1679445dc5)">
     <!-- 19 -->
     <g transform="translate(223.576343 278.222955) scale(0.1 -0.1)">
      <use xlink:href="#DejaVuSans-31"/>
      <use xlink:href="#DejaVuSans-39" x="63.623047"/>
     </g>
    </g>
   </g>
   <g id="text_41">
    <g id="patch_43">
     <path d="M 285.376207 256.922888 
L 295.177689 248.807682 
Q 297.488451 246.894471 295.575239 244.583709 
L 289.403139 237.129094 
Q 287.489927 234.818332 285.179165 236.731544 
L 275.377683 244.846749 
Q 273.066921 246.759961 274.980132 249.070723 
L 281.152233 256.525338 
Q 283.065444 258.8361 285.376207 256.922888 
z
" clip-path="url(#p1679445dc5)" style="fill: #ffffff; stroke: #ffffff; stroke-linejoin: miter"/>
    </g>
    <g clip-path="url(#p1679445dc5)">
     <!-- 21 -->
     <g transform="translate(282.136701 253.010239) rotate(-39.623295) scale(0.1 -0.1)">
      <use xlink:href="#DejaVuSans-32"/>
      <use xlink:href="#DejaVuSans-31" x="63.623047"/>
     </g>
    </g>
   </g>
   <g id="text_42">
    <g id="patch_44">
     <path d="M 278.915186 283.302642 
L 291.640186 283.302642 
Q 294.640186 283.302642 294.640186 280.302642 
L 294.640186 270.624517 
Q 294.640186 267.624517 291.640186 267.624517 
L 278.915186 267.624517 
Q 275.915186 267.624517 275.915186 270.624517 
L 275.915186 280.302642 
Q 275.915186 283.302642 278.915186 283.302642 
z
" clip-path="url(#p1679445dc5)" style="fill: #ffffff; stroke: #ffffff; stroke-linejoin: miter"/>
    </g>
    <g clip-path="url(#p1679445dc5)">
     <!-- 14 -->
     <g transform="translate(278.915186 278.222955) scale(0.1 -0.1)">
      <use xlink:href="#DejaVuSans-31"/>
      <use xlink:href="#DejaVuSans-34" x="63.623047"/>
     </g>
    </g>
   </g>
   <g id="text_43">
    <g id="patch_45">
     <path d="M 278.915186 54.211733 
L 291.640186 54.211733 
Q 294.640186 54.211733 294.640186 51.211733 
L 294.640186 41.533608 
Q 294.640186 38.533608 291.640186 38.533608 
L 278.915186 38.533608 
Q 275.915186 38.533608 275.915186 41.533608 
L 275.915186 51.211733 
Q 275.915186 54.211733 278.915186 54.211733 
z
" clip-path="url(#p1679445dc5)" style="fill: #ffffff; stroke: #ffffff; stroke-linejoin: miter"/>
    </g>
    <g clip-path="url(#p1679445dc5)">
     <!-- 21 -->
     <g transform="translate(278.915186 49.132045) scale(0.1 -0.1)">
      <use xlink:href="#DejaVuSans-32"/>
      <use xlink:href="#DejaVuSans-31" x="63.623047"/>
     </g>
    </g>
   </g>
   <g id="text_44">
    <g id="patch_46">
     <path d="M 305.108045 68.646534 
L 305.108045 81.371534 
Q 305.108045 84.371534 308.108045 84.371534 
L 317.78617 84.371534 
Q 320.78617 84.371534 320.78617 81.371534 
L 320.78617 68.646534 
Q 320.78617 65.646534 317.78617 65.646534 
L 308.108045 65.646534 
Q 305.108045 65.646534 305.108045 68.646534 
z
" clip-path="url(#p1679445dc5)" style="fill: #ffffff; stroke: #ffffff; stroke-linejoin: miter"/>
    </g>
    <g clip-path="url(#p1679445dc5)">
     <!-- 22 -->
     <g transform="translate(310.187732 68.646534) rotate(-270) scale(0.1 -0.1)">
      <use xlink:href="#DejaVuSans-32"/>
      <use xlink:href="#DejaVuSans-32" x="63.623047"/>
     </g>
    </g>
   </g>
   <g id="text_45">
    <g id="patch_47">
     <path d="M 320.78617 195.916989 
L 320.78617 183.191989 
Q 320.78617 180.191989 317.78617 180.191989 
L 308.108045 180.191989 
Q 305.108045 180.191989 305.108045 183.191989 
L 305.108045 195.916989 
Q 305.108045 198.916989 308.108045 198.916989 
L 317.78617 198.916989 
Q 320.78617 198.916989 320.78617 195.916989 
z
" clip-path="url(#p1679445dc5)" style="fill: #ffffff; stroke: #ffffff; stroke-linejoin: miter"/>
    </g>
    <g clip-path="url(#p1679445dc5)">
     <!-- 22 -->
     <g transform="translate(315.706482 195.916989) rotate(-90) scale(0.1 -0.1)">
      <use xlink:href="#DejaVuSans-32"/>
      <use xlink:href="#DejaVuSans-32" x="63.623047"/>
     </g>
    </g>
   </g>
   <g id="text_46">
    <g id="patch_48">
     <path d="M 305.108045 240.464716 
L 305.108045 253.189716 
Q 305.108045 256.189716 308.108045 256.189716 
L 317.78617 256.189716 
Q 320.78617 256.189716 320.78617 253.189716 
L 320.78617 240.464716 
Q 320.78617 237.464716 317.78617 237.464716 
L 308.108045 237.464716 
Q 305.108045 237.464716 305.108045 240.464716 
z
" clip-path="url(#p1679445dc5)" style="fill: #ffffff; stroke: #ffffff; stroke-linejoin: miter"/>
    </g>
    <g clip-path="url(#p1679445dc5)">
     <!-- 10 -->
     <g transform="translate(310.187732 240.464716) rotate(-270) scale(0.1 -0.1)">
      <use xlink:href="#DejaVuSans-31"/>
      <use xlink:href="#DejaVuSans-30" x="63.623047"/>
     </g>
    </g>
   </g>
   <g id="text_47">
    <g id="patch_49">
     <path d="M 305.108045 125.919261 
L 305.108045 138.644261 
Q 305.108045 141.644261 308.108045 141.644261 
L 317.78617 141.644261 
Q 320.78617 141.644261 320.78617 138.644261 
L 320.78617 125.919261 
Q 320.78617 122.919261 317.78617 122.919261 
L 308.108045 122.919261 
Q 305.108045 122.919261 305.108045 125.919261 
z
" clip-path="url(#p1679445dc5)" style="fill: #ffffff; stroke: #ffffff; stroke-linejoin: miter"/>
    </g>
    <g clip-path="url(#p1679445dc5)">
     <!-- 14 -->
     <g transform="translate(310.187732 125.919261) rotate(-270) scale(0.1 -0.1)">
      <use xlink:href="#DejaVuSans-31"/>
      <use xlink:href="#DejaVuSans-34" x="63.623047"/>
     </g>
    </g>
   </g>
   <g id="LineCollection_1">
    <path d="M 91.591736 160.918125 
L 91.591736 218.190852 
" clip-path="url(#p1679445dc5)" style="fill: none; stroke: #000000; stroke-opacity: 0.6"/>
    <path d="M 91.591736 160.918125 
L 146.930579 160.918125 
" clip-path="url(#p1679445dc5)" style="fill: none; stroke: #000000; stroke-opacity: 0.6"/>
    <path d="M 91.591736 160.918125 
L 146.930579 103.645398 
" clip-path="url(#p1679445dc5)" style="fill: none; stroke: #000000; stroke-opacity: 0.6"/>
    <path d="M 91.591736 160.918125 
L 36.252893 160.918125 
" clip-path="url(#p1679445dc5)" style="fill: none; stroke: #000000; stroke-opacity: 0.6"/>
    <path d="M 91.591736 218.190852 
L 146.930579 218.190852 
" clip-path="url(#p1679445dc5)" style="fill: none; stroke: #000000; stroke-opacity: 0.6"/>
    <path d="M 91.591736 218.190852 
L 36.252893 160.918125 
" clip-path="url(#p1679445dc5)" style="fill: none; stroke: #000000; stroke-opacity: 0.6"/>
    <path d="M 91.591736 218.190852 
L 91.591736 275.46358 
" clip-path="url(#p1679445dc5)" style="fill: none; stroke: #000000; stroke-opacity: 0.6"/>
    <path d="M 91.591736 218.190852 
L 146.930579 275.46358 
" clip-path="url(#p1679445dc5)" style="fill: none; stroke: #000000; stroke-opacity: 0.6"/>
    <path d="M 146.930579 160.918125 
L 202.269421 160.918125 
" clip-path="url(#p1679445dc5)" style="fill: none; stroke: #000000; stroke-opacity: 0.6"/>
    <path d="M 146.930579 218.190852 
L 202.269421 160.918125 
" clip-path="url(#p1679445dc5)" style="fill: none; stroke: #000000; stroke-opacity: 0.6"/>
    <path d="M 146.930579 218.190852 
L 202.269421 218.190852 
" clip-path="url(#p1679445dc5)" style="fill: none; stroke: #000000; stroke-opacity: 0.6"/>
    <path d="M 146.930579 218.190852 
L 146.930579 275.46358 
" clip-path="url(#p1679445dc5)" style="fill: none; stroke: #000000; stroke-opacity: 0.6"/>
    <path d="M 146.930579 103.645398 
L 202.269421 160.918125 
" clip-path="url(#p1679445dc5)" style="fill: none; stroke: #000000; stroke-opacity: 0.6"/>
    <path d="M 146.930579 103.645398 
L 202.269421 103.645398 
" clip-path="url(#p1679445dc5)" style="fill: none; stroke: #000000; stroke-opacity: 0.6"/>
    <path d="M 202.269421 160.918125 
L 202.269421 103.645398 
" clip-path="url(#p1679445dc5)" style="fill: none; stroke: #000000; stroke-opacity: 0.6"/>
    <path d="M 202.269421 160.918125 
L 202.269421 218.190852 
" clip-path="url(#p1679445dc5)" style="fill: none; stroke: #000000; stroke-opacity: 0.6"/>
    <path d="M 202.269421 160.918125 
L 257.608264 103.645398 
" clip-path="url(#p1679445dc5)" style="fill: none; stroke: #000000; stroke-opacity: 0.6"/>
    <path d="M 202.269421 160.918125 
L 257.608264 160.918125 
" clip-path="url(#p1679445dc5)" style="fill: none; stroke: #000000; stroke-opacity: 0.6"/>
    <path d="M 202.269421 218.190852 
L 257.608264 160.918125 
" clip-path="url(#p1679445dc5)" style="fill: none; stroke: #000000; stroke-opacity: 0.6"/>
    <path d="M 202.269421 218.190852 
L 257.608264 275.46358 
" clip-path="url(#p1679445dc5)" style="fill: none; stroke: #000000; stroke-opacity: 0.6"/>
    <path d="M 202.269421 46.37267 
L 202.269421 103.645398 
" clip-path="url(#p1679445dc5)" style="fill: none; stroke: #000000; stroke-opacity: 0.6"/>
    <path d="M 202.269421 103.645398 
L 257.608264 103.645398 
" clip-path="url(#p1679445dc5)" style="fill: none; stroke: #000000; stroke-opacity: 0.6"/>
    <path d="M 202.269421 103.645398 
L 146.930579 46.37267 
" clip-path="url(#p1679445dc5)" style="fill: none; stroke: #000000; stroke-opacity: 0.6"/>
    <path d="M 202.269421 103.645398 
L 257.608264 46.37267 
" clip-path="url(#p1679445dc5)" style="fill: none; stroke: #000000; stroke-opacity: 0.6"/>
    <path d="M 257.608264 103.645398 
L 257.608264 160.918125 
" clip-path="url(#p1679445dc5)" style="fill: none; stroke: #000000; stroke-opacity: 0.6"/>
    <path d="M 257.608264 103.645398 
L 312.947107 160.918125 
" clip-path="url(#p1679445dc5)" style="fill: none; stroke: #000000; stroke-opacity: 0.6"/>
    <path d="M 257.608264 160.918125 
L 257.608264 218.190852 
" clip-path="url(#p1679445dc5)" style="fill: none; stroke: #000000; stroke-opacity: 0.6"/>
    <path d="M 257.608264 218.190852 
L 257.608264 275.46358 
" clip-path="url(#p1679445dc5)" style="fill: none; stroke: #000000; stroke-opacity: 0.6"/>
    <path d="M 257.608264 218.190852 
L 312.947107 160.918125 
" clip-path="url(#p1679445dc5)" style="fill: none; stroke: #000000; stroke-opacity: 0.6"/>
    <path d="M 36.252893 46.37267 
L 36.252893 103.645398 
" clip-path="url(#p1679445dc5)" style="fill: none; stroke: #000000; stroke-opacity: 0.6"/>
    <path d="M 36.252893 46.37267 
L 91.591736 103.645398 
" clip-path="url(#p1679445dc5)" style="fill: none; stroke: #000000; stroke-opacity: 0.6"/>
    <path d="M 36.252893 46.37267 
L 91.591736 46.37267 
" clip-path="url(#p1679445dc5)" style="fill: none; stroke: #000000; stroke-opacity: 0.6"/>
    <path d="M 36.252893 103.645398 
L 36.252893 160.918125 
" clip-path="url(#p1679445dc5)" style="fill: none; stroke: #000000; stroke-opacity: 0.6"/>
    <path d="M 91.591736 103.645398 
L 36.252893 160.918125 
" clip-path="url(#p1679445dc5)" style="fill: none; stroke: #000000; stroke-opacity: 0.6"/>
    <path d="M 91.591736 103.645398 
L 146.930579 46.37267 
" clip-path="url(#p1679445dc5)" style="fill: none; stroke: #000000; stroke-opacity: 0.6"/>
    <path d="M 91.591736 46.37267 
L 146.930579 46.37267 
" clip-path="url(#p1679445dc5)" style="fill: none; stroke: #000000; stroke-opacity: 0.6"/>
    <path d="M 36.252893 160.918125 
L 36.252893 218.190852 
" clip-path="url(#p1679445dc5)" style="fill: none; stroke: #000000; stroke-opacity: 0.6"/>
    <path d="M 36.252893 218.190852 
L 36.252893 275.46358 
" clip-path="url(#p1679445dc5)" style="fill: none; stroke: #000000; stroke-opacity: 0.6"/>
    <path d="M 146.930579 275.46358 
L 202.269421 275.46358 
" clip-path="url(#p1679445dc5)" style="fill: none; stroke: #000000; stroke-opacity: 0.6"/>
    <path d="M 202.269421 275.46358 
L 257.608264 275.46358 
" clip-path="url(#p1679445dc5)" style="fill: none; stroke: #000000; stroke-opacity: 0.6"/>
    <path d="M 257.608264 275.46358 
L 312.947107 218.190852 
" clip-path="url(#p1679445dc5)" style="fill: none; stroke: #000000; stroke-opacity: 0.6"/>
    <path d="M 257.608264 275.46358 
L 312.947107 275.46358 
" clip-path="url(#p1679445dc5)" style="fill: none; stroke: #000000; stroke-opacity: 0.6"/>
    <path d="M 257.608264 46.37267 
L 312.947107 46.37267 
" clip-path="url(#p1679445dc5)" style="fill: none; stroke: #000000; stroke-opacity: 0.6"/>
    <path d="M 312.947107 46.37267 
L 312.947107 103.645398 
" clip-path="url(#p1679445dc5)" style="fill: none; stroke: #000000; stroke-opacity: 0.6"/>
    <path d="M 312.947107 218.190852 
L 312.947107 160.918125 
" clip-path="url(#p1679445dc5)" style="fill: none; stroke: #000000; stroke-opacity: 0.6"/>
    <path d="M 312.947107 218.190852 
L 312.947107 275.46358 
" clip-path="url(#p1679445dc5)" style="fill: none; stroke: #000000; stroke-opacity: 0.6"/>
    <path d="M 312.947107 103.645398 
L 312.947107 160.918125 
" clip-path="url(#p1679445dc5)" style="fill: none; stroke: #000000; stroke-opacity: 0.6"/>
   </g>
   <g id="matplotlib.axis_1">
    <g id="xtick_1"/>
    <g id="xtick_2"/>
    <g id="xtick_3"/>
    <g id="xtick_4"/>
    <g id="xtick_5"/>
    <g id="xtick_6"/>
   </g>
   <g id="matplotlib.axis_2">
    <g id="ytick_1"/>
    <g id="ytick_2"/>
    <g id="ytick_3"/>
    <g id="ytick_4"/>
    <g id="ytick_5"/>
   </g>
   <g id="PathCollection_1">
    <defs>
     <path id="mef8bdad3d1" d="M 0 11.18034 
C 2.965061 11.18034 5.80908 10.002309 7.905694 7.905694 
C 10.002309 5.80908 11.18034 2.965061 11.18034 0 
C 11.18034 -2.965061 10.002309 -5.80908 7.905694 -7.905694 
C 5.80908 -10.002309 2.965061 -11.18034 0 -11.18034 
C -2.965061 -11.18034 -5.80908 -10.002309 -7.905694 -7.905694 
C -10.002309 -5.80908 -11.18034 -2.965061 -11.18034 0 
C -11.18034 2.965061 -10.002309 5.80908 -7.905694 7.905694 
C -5.80908 10.002309 -2.965061 11.18034 0 11.18034 
z
" style="stroke: #1f78b4"/>
    </defs>
    <g clip-path="url(#p1679445dc5)">
     <use xlink:href="#mef8bdad3d1" x="91.591736" y="160.918125" style="fill: #1f78b4; stroke: #1f78b4"/>
     <use xlink:href="#mef8bdad3d1" x="91.591736" y="218.190852" style="fill: #1f78b4; stroke: #1f78b4"/>
     <use xlink:href="#mef8bdad3d1" x="146.930579" y="160.918125" style="fill: #1f78b4; stroke: #1f78b4"/>
     <use xlink:href="#mef8bdad3d1" x="146.930579" y="218.190852" style="fill: #1f78b4; stroke: #1f78b4"/>
     <use xlink:href="#mef8bdad3d1" x="146.930579" y="103.645398" style="fill: #1f78b4; stroke: #1f78b4"/>
     <use xlink:href="#mef8bdad3d1" x="202.269421" y="160.918125" style="fill: #1f78b4; stroke: #1f78b4"/>
     <use xlink:href="#mef8bdad3d1" x="202.269421" y="218.190852" style="fill: #1f78b4; stroke: #1f78b4"/>
     <use xlink:href="#mef8bdad3d1" x="202.269421" y="46.37267" style="fill: #1f78b4; stroke: #1f78b4"/>
     <use xlink:href="#mef8bdad3d1" x="202.269421" y="103.645398" style="fill: #1f78b4; stroke: #1f78b4"/>
     <use xlink:href="#mef8bdad3d1" x="257.608264" y="103.645398" style="fill: #1f78b4; stroke: #1f78b4"/>
     <use xlink:href="#mef8bdad3d1" x="257.608264" y="160.918125" style="fill: #1f78b4; stroke: #1f78b4"/>
     <use xlink:href="#mef8bdad3d1" x="257.608264" y="218.190852" style="fill: #1f78b4; stroke: #1f78b4"/>
     <use xlink:href="#mef8bdad3d1" x="36.252893" y="46.37267" style="fill: #1f78b4; stroke: #1f78b4"/>
     <use xlink:href="#mef8bdad3d1" x="36.252893" y="103.645398" style="fill: #1f78b4; stroke: #1f78b4"/>
     <use xlink:href="#mef8bdad3d1" x="91.591736" y="103.645398" style="fill: #1f78b4; stroke: #1f78b4"/>
     <use xlink:href="#mef8bdad3d1" x="91.591736" y="46.37267" style="fill: #1f78b4; stroke: #1f78b4"/>
     <use xlink:href="#mef8bdad3d1" x="36.252893" y="160.918125" style="fill: #1f78b4; stroke: #1f78b4"/>
     <use xlink:href="#mef8bdad3d1" x="36.252893" y="218.190852" style="fill: #1f78b4; stroke: #1f78b4"/>
     <use xlink:href="#mef8bdad3d1" x="36.252893" y="275.46358" style="fill: #1f78b4; stroke: #1f78b4"/>
     <use xlink:href="#mef8bdad3d1" x="146.930579" y="46.37267" style="fill: #1f78b4; stroke: #1f78b4"/>
     <use xlink:href="#mef8bdad3d1" x="91.591736" y="275.46358" style="fill: #1f78b4; stroke: #1f78b4"/>
     <use xlink:href="#mef8bdad3d1" x="146.930579" y="275.46358" style="fill: #1f78b4; stroke: #1f78b4"/>
     <use xlink:href="#mef8bdad3d1" x="202.269421" y="275.46358" style="fill: #1f78b4; stroke: #1f78b4"/>
     <use xlink:href="#mef8bdad3d1" x="257.608264" y="275.46358" style="fill: #1f78b4; stroke: #1f78b4"/>
     <use xlink:href="#mef8bdad3d1" x="257.608264" y="46.37267" style="fill: #1f78b4; stroke: #1f78b4"/>
     <use xlink:href="#mef8bdad3d1" x="312.947107" y="46.37267" style="fill: #1f78b4; stroke: #1f78b4"/>
     <use xlink:href="#mef8bdad3d1" x="312.947107" y="218.190852" style="fill: #1f78b4; stroke: #1f78b4"/>
     <use xlink:href="#mef8bdad3d1" x="312.947107" y="275.46358" style="fill: #1f78b4; stroke: #1f78b4"/>
     <use xlink:href="#mef8bdad3d1" x="312.947107" y="103.645398" style="fill: #1f78b4; stroke: #1f78b4"/>
     <use xlink:href="#mef8bdad3d1" x="312.947107" y="160.918125" style="fill: #1f78b4; stroke: #1f78b4"/>
    </g>
   </g>
   <g id="text_48">
    <g clip-path="url(#p1679445dc5)">
     <!-- A -->
     <g transform="translate(87.487361 164.229375) scale(0.12 -0.12)">
      <defs>
       <path id="DejaVuSans-41" d="M 2188 4044 
L 1331 1722 
L 3047 1722 
L 2188 4044 
z
M 1831 4666 
L 2547 4666 
L 4325 0 
L 3669 0 
L 3244 1197 
L 1141 1197 
L 716 0 
L 50 0 
L 1831 4666 
z
" transform="scale(0.015625)"/>
      </defs>
      <use xlink:href="#DejaVuSans-41"/>
     </g>
    </g>
   </g>
   <g id="text_49">
    <g clip-path="url(#p1679445dc5)">
     <!-- B -->
     <g transform="translate(87.475173 221.502102) scale(0.12 -0.12)">
      <defs>
       <path id="DejaVuSans-42" d="M 1259 2228 
L 1259 519 
L 2272 519 
Q 2781 519 3026 730 
Q 3272 941 3272 1375 
Q 3272 1813 3026 2020 
Q 2781 2228 2272 2228 
L 1259 2228 
z
M 1259 4147 
L 1259 2741 
L 2194 2741 
Q 2656 2741 2882 2914 
Q 3109 3088 3109 3444 
Q 3109 3797 2882 3972 
Q 2656 4147 2194 4147 
L 1259 4147 
z
M 628 4666 
L 2241 4666 
Q 2963 4666 3353 4366 
Q 3744 4066 3744 3513 
Q 3744 3084 3544 2831 
Q 3344 2578 2956 2516 
Q 3422 2416 3680 2098 
Q 3938 1781 3938 1306 
Q 3938 681 3513 340 
Q 3088 0 2303 0 
L 628 0 
L 628 4666 
z
" transform="scale(0.015625)"/>
      </defs>
      <use xlink:href="#DejaVuSans-42"/>
     </g>
    </g>
   </g>
   <g id="text_50">
    <g clip-path="url(#p1679445dc5)">
     <!-- D -->
     <g transform="translate(142.310579 164.229375) scale(0.12 -0.12)">
      <defs>
       <path id="DejaVuSans-44" d="M 1259 4147 
L 1259 519 
L 2022 519 
Q 2988 519 3436 956 
Q 3884 1394 3884 2338 
Q 3884 3275 3436 3711 
Q 2988 4147 2022 4147 
L 1259 4147 
z
M 628 4666 
L 1925 4666 
Q 3281 4666 3915 4102 
Q 4550 3538 4550 2338 
Q 4550 1131 3912 565 
Q 3275 0 1925 0 
L 628 0 
L 628 4666 
z
" transform="scale(0.015625)"/>
      </defs>
      <use xlink:href="#DejaVuSans-44"/>
     </g>
    </g>
   </g>
   <g id="text_51">
    <g clip-path="url(#p1679445dc5)">
     <!-- E -->
     <g transform="translate(143.139329 221.502102) scale(0.12 -0.12)">
      <defs>
       <path id="DejaVuSans-45" d="M 628 4666 
L 3578 4666 
L 3578 4134 
L 1259 4134 
L 1259 2753 
L 3481 2753 
L 3481 2222 
L 1259 2222 
L 1259 531 
L 3634 531 
L 3634 0 
L 628 0 
L 628 4666 
z
" transform="scale(0.015625)"/>
      </defs>
      <use xlink:href="#DejaVuSans-45"/>
     </g>
    </g>
   </g>
   <g id="text_52">
    <g clip-path="url(#p1679445dc5)">
     <!-- C -->
     <g transform="translate(142.740891 106.956648) scale(0.12 -0.12)">
      <defs>
       <path id="DejaVuSans-43" d="M 4122 4306 
L 4122 3641 
Q 3803 3938 3442 4084 
Q 3081 4231 2675 4231 
Q 1875 4231 1450 3742 
Q 1025 3253 1025 2328 
Q 1025 1406 1450 917 
Q 1875 428 2675 428 
Q 3081 428 3442 575 
Q 3803 722 4122 1019 
L 4122 359 
Q 3791 134 3420 21 
Q 3050 -91 2638 -91 
Q 1578 -91 968 557 
Q 359 1206 359 2328 
Q 359 3453 968 4101 
Q 1578 4750 2638 4750 
Q 3056 4750 3426 4639 
Q 3797 4528 4122 4306 
z
" transform="scale(0.015625)"/>
      </defs>
      <use xlink:href="#DejaVuSans-43"/>
     </g>
    </g>
   </g>
   <g id="text_53">
    <g clip-path="url(#p1679445dc5)">
     <!-- H -->
     <g transform="translate(197.757234 164.229375) scale(0.12 -0.12)">
      <defs>
       <path id="DejaVuSans-48" d="M 628 4666 
L 1259 4666 
L 1259 2753 
L 3553 2753 
L 3553 4666 
L 4184 4666 
L 4184 0 
L 3553 0 
L 3553 2222 
L 1259 2222 
L 1259 0 
L 628 0 
L 628 4666 
z
" transform="scale(0.015625)"/>
      </defs>
      <use xlink:href="#DejaVuSans-48"/>
     </g>
    </g>
   </g>
   <g id="text_54">
    <g clip-path="url(#p1679445dc5)">
     <!-- I -->
     <g transform="translate(200.499421 221.502102) scale(0.12 -0.12)">
      <defs>
       <path id="DejaVuSans-49" d="M 628 4666 
L 1259 4666 
L 1259 0 
L 628 0 
L 628 4666 
z
" transform="scale(0.015625)"/>
      </defs>
      <use xlink:href="#DejaVuSans-49"/>
     </g>
    </g>
   </g>
   <g id="text_55">
    <g clip-path="url(#p1679445dc5)">
     <!-- F -->
     <g transform="translate(198.818484 49.68392) scale(0.12 -0.12)">
      <defs>
       <path id="DejaVuSans-46" d="M 628 4666 
L 3309 4666 
L 3309 4134 
L 1259 4134 
L 1259 2759 
L 3109 2759 
L 3109 2228 
L 1259 2228 
L 1259 0 
L 628 0 
L 628 4666 
z
" transform="scale(0.015625)"/>
      </defs>
      <use xlink:href="#DejaVuSans-46"/>
     </g>
    </g>
   </g>
   <g id="text_56">
    <g clip-path="url(#p1679445dc5)">
     <!-- G -->
     <g transform="translate(197.620359 106.956648) scale(0.12 -0.12)">
      <defs>
       <path id="DejaVuSans-47" d="M 3809 666 
L 3809 1919 
L 2778 1919 
L 2778 2438 
L 4434 2438 
L 4434 434 
Q 4069 175 3628 42 
Q 3188 -91 2688 -91 
Q 1594 -91 976 548 
Q 359 1188 359 2328 
Q 359 3472 976 4111 
Q 1594 4750 2688 4750 
Q 3144 4750 3555 4637 
Q 3966 4525 4313 4306 
L 4313 3634 
Q 3963 3931 3569 4081 
Q 3175 4231 2741 4231 
Q 1884 4231 1454 3753 
Q 1025 3275 1025 2328 
Q 1025 1384 1454 906 
Q 1884 428 2741 428 
Q 3075 428 3337 486 
Q 3600 544 3809 666 
z
" transform="scale(0.015625)"/>
      </defs>
      <use xlink:href="#DejaVuSans-47"/>
     </g>
    </g>
   </g>
   <g id="text_57">
    <g clip-path="url(#p1679445dc5)">
     <!-- J -->
     <g transform="translate(255.838264 106.956648) scale(0.12 -0.12)">
      <defs>
       <path id="DejaVuSans-4a" d="M 628 4666 
L 1259 4666 
L 1259 325 
Q 1259 -519 939 -900 
Q 619 -1281 -91 -1281 
L -331 -1281 
L -331 -750 
L -134 -750 
Q 284 -750 456 -515 
Q 628 -281 628 325 
L 628 4666 
z
" transform="scale(0.015625)"/>
      </defs>
      <use xlink:href="#DejaVuSans-4a"/>
     </g>
    </g>
   </g>
   <g id="text_58">
    <g clip-path="url(#p1679445dc5)">
     <!-- K -->
     <g transform="translate(253.673577 164.229375) scale(0.12 -0.12)">
      <defs>
       <path id="DejaVuSans-4b" d="M 628 4666 
L 1259 4666 
L 1259 2694 
L 3353 4666 
L 4166 4666 
L 1850 2491 
L 4331 0 
L 3500 0 
L 1259 2247 
L 1259 0 
L 628 0 
L 628 4666 
z
" transform="scale(0.015625)"/>
      </defs>
      <use xlink:href="#DejaVuSans-4b"/>
     </g>
    </g>
   </g>
   <g id="text_59">
    <g clip-path="url(#p1679445dc5)">
     <!-- L -->
     <g transform="translate(254.265139 221.502102) scale(0.12 -0.12)">
      <defs>
       <path id="DejaVuSans-4c" d="M 628 4666 
L 1259 4666 
L 1259 531 
L 3531 531 
L 3531 0 
L 628 0 
L 628 4666 
z
" transform="scale(0.015625)"/>
      </defs>
      <use xlink:href="#DejaVuSans-4c"/>
     </g>
    </g>
   </g>
   <g id="text_60">
    <g clip-path="url(#p1679445dc5)">
     <!-- a -->
     <g transform="translate(32.576018 49.68392) scale(0.12 -0.12)">
      <defs>
       <path id="DejaVuSans-61" d="M 2194 1759 
Q 1497 1759 1228 1600 
Q 959 1441 959 1056 
Q 959 750 1161 570 
Q 1363 391 1709 391 
Q 2188 391 2477 730 
Q 2766 1069 2766 1631 
L 2766 1759 
L 2194 1759 
z
M 3341 1997 
L 3341 0 
L 2766 0 
L 2766 531 
Q 2569 213 2275 61 
Q 1981 -91 1556 -91 
Q 1019 -91 701 211 
Q 384 513 384 1019 
Q 384 1609 779 1909 
Q 1175 2209 1959 2209 
L 2766 2209 
L 2766 2266 
Q 2766 2663 2505 2880 
Q 2244 3097 1772 3097 
Q 1472 3097 1187 3025 
Q 903 2953 641 2809 
L 641 3341 
Q 956 3463 1253 3523 
Q 1550 3584 1831 3584 
Q 2591 3584 2966 3190 
Q 3341 2797 3341 1997 
z
" transform="scale(0.015625)"/>
      </defs>
      <use xlink:href="#DejaVuSans-61"/>
     </g>
    </g>
   </g>
   <g id="text_61">
    <g clip-path="url(#p1679445dc5)">
     <!-- b -->
     <g transform="translate(32.44383 106.956648) scale(0.12 -0.12)">
      <defs>
       <path id="DejaVuSans-62" d="M 3116 1747 
Q 3116 2381 2855 2742 
Q 2594 3103 2138 3103 
Q 1681 3103 1420 2742 
Q 1159 2381 1159 1747 
Q 1159 1113 1420 752 
Q 1681 391 2138 391 
Q 2594 391 2855 752 
Q 3116 1113 3116 1747 
z
M 1159 2969 
Q 1341 3281 1617 3432 
Q 1894 3584 2278 3584 
Q 2916 3584 3314 3078 
Q 3713 2572 3713 1747 
Q 3713 922 3314 415 
Q 2916 -91 2278 -91 
Q 1894 -91 1617 61 
Q 1341 213 1159 525 
L 1159 0 
L 581 0 
L 581 4863 
L 1159 4863 
L 1159 2969 
z
" transform="scale(0.015625)"/>
      </defs>
      <use xlink:href="#DejaVuSans-62"/>
     </g>
    </g>
   </g>
   <g id="text_62">
    <g clip-path="url(#p1679445dc5)">
     <!-- g -->
     <g transform="translate(87.782673 106.956648) scale(0.12 -0.12)">
      <defs>
       <path id="DejaVuSans-67" d="M 2906 1791 
Q 2906 2416 2648 2759 
Q 2391 3103 1925 3103 
Q 1463 3103 1205 2759 
Q 947 2416 947 1791 
Q 947 1169 1205 825 
Q 1463 481 1925 481 
Q 2391 481 2648 825 
Q 2906 1169 2906 1791 
z
M 3481 434 
Q 3481 -459 3084 -895 
Q 2688 -1331 1869 -1331 
Q 1566 -1331 1297 -1286 
Q 1028 -1241 775 -1147 
L 775 -588 
Q 1028 -725 1275 -790 
Q 1522 -856 1778 -856 
Q 2344 -856 2625 -561 
Q 2906 -266 2906 331 
L 2906 616 
Q 2728 306 2450 153 
Q 2172 0 1784 0 
Q 1141 0 747 490 
Q 353 981 353 1791 
Q 353 2603 747 3093 
Q 1141 3584 1784 3584 
Q 2172 3584 2450 3431 
Q 2728 3278 2906 2969 
L 2906 3500 
L 3481 3500 
L 3481 434 
z
" transform="scale(0.015625)"/>
      </defs>
      <use xlink:href="#DejaVuSans-67"/>
     </g>
    </g>
   </g>
   <g id="text_63">
    <g clip-path="url(#p1679445dc5)">
     <!-- f -->
     <g transform="translate(89.479548 49.68392) scale(0.12 -0.12)">
      <defs>
       <path id="DejaVuSans-66" d="M 2375 4863 
L 2375 4384 
L 1825 4384 
Q 1516 4384 1395 4259 
Q 1275 4134 1275 3809 
L 1275 3500 
L 2222 3500 
L 2222 3053 
L 1275 3053 
L 1275 0 
L 697 0 
L 697 3053 
L 147 3053 
L 147 3500 
L 697 3500 
L 697 3744 
Q 697 4328 969 4595 
Q 1241 4863 1831 4863 
L 2375 4863 
z
" transform="scale(0.015625)"/>
      </defs>
      <use xlink:href="#DejaVuSans-66"/>
     </g>
    </g>
   </g>
   <g id="text_64">
    <g clip-path="url(#p1679445dc5)">
     <!-- c -->
     <g transform="translate(32.95383 164.229375) scale(0.12 -0.12)">
      <defs>
       <path id="DejaVuSans-63" d="M 3122 3366 
L 3122 2828 
Q 2878 2963 2633 3030 
Q 2388 3097 2138 3097 
Q 1578 3097 1268 2742 
Q 959 2388 959 1747 
Q 959 1106 1268 751 
Q 1578 397 2138 397 
Q 2388 397 2633 464 
Q 2878 531 3122 666 
L 3122 134 
Q 2881 22 2623 -34 
Q 2366 -91 2075 -91 
Q 1284 -91 818 406 
Q 353 903 353 1747 
Q 353 2603 823 3093 
Q 1294 3584 2113 3584 
Q 2378 3584 2631 3529 
Q 2884 3475 3122 3366 
z
" transform="scale(0.015625)"/>
      </defs>
      <use xlink:href="#DejaVuSans-63"/>
     </g>
    </g>
   </g>
   <g id="text_65">
    <g clip-path="url(#p1679445dc5)">
     <!-- d -->
     <g transform="translate(32.44383 221.502102) scale(0.12 -0.12)">
      <defs>
       <path id="DejaVuSans-64" d="M 2906 2969 
L 2906 4863 
L 3481 4863 
L 3481 0 
L 2906 0 
L 2906 525 
Q 2725 213 2448 61 
Q 2172 -91 1784 -91 
Q 1150 -91 751 415 
Q 353 922 353 1747 
Q 353 2572 751 3078 
Q 1150 3584 1784 3584 
Q 2172 3584 2448 3432 
Q 2725 3281 2906 2969 
z
M 947 1747 
Q 947 1113 1208 752 
Q 1469 391 1925 391 
Q 2381 391 2643 752 
Q 2906 1113 2906 1747 
Q 2906 2381 2643 2742 
Q 2381 3103 1925 3103 
Q 1469 3103 1208 2742 
Q 947 2381 947 1747 
z
" transform="scale(0.015625)"/>
      </defs>
      <use xlink:href="#DejaVuSans-64"/>
     </g>
    </g>
   </g>
   <g id="text_66">
    <g clip-path="url(#p1679445dc5)">
     <!-- e -->
     <g transform="translate(32.561018 278.77483) scale(0.12 -0.12)">
      <defs>
       <path id="DejaVuSans-65" d="M 3597 1894 
L 3597 1613 
L 953 1613 
Q 991 1019 1311 708 
Q 1631 397 2203 397 
Q 2534 397 2845 478 
Q 3156 559 3463 722 
L 3463 178 
Q 3153 47 2828 -22 
Q 2503 -91 2169 -91 
Q 1331 -91 842 396 
Q 353 884 353 1716 
Q 353 2575 817 3079 
Q 1281 3584 2069 3584 
Q 2775 3584 3186 3129 
Q 3597 2675 3597 1894 
z
M 3022 2063 
Q 3016 2534 2758 2815 
Q 2500 3097 2075 3097 
Q 1594 3097 1305 2825 
Q 1016 2553 972 2059 
L 3022 2063 
z
" transform="scale(0.015625)"/>
      </defs>
      <use xlink:href="#DejaVuSans-65"/>
     </g>
    </g>
   </g>
   <g id="text_67">
    <g clip-path="url(#p1679445dc5)">
     <!-- i -->
     <g transform="translate(145.263704 49.68392) scale(0.12 -0.12)">
      <defs>
       <path id="DejaVuSans-69" d="M 603 3500 
L 1178 3500 
L 1178 0 
L 603 0 
L 603 3500 
z
M 603 4863 
L 1178 4863 
L 1178 4134 
L 603 4134 
L 603 4863 
z
" transform="scale(0.015625)"/>
      </defs>
      <use xlink:href="#DejaVuSans-69"/>
     </g>
    </g>
   </g>
   <g id="text_68">
    <g clip-path="url(#p1679445dc5)">
     <!-- h -->
     <g transform="translate(87.789236 278.77483) scale(0.12 -0.12)">
      <defs>
       <path id="DejaVuSans-68" d="M 3513 2113 
L 3513 0 
L 2938 0 
L 2938 2094 
Q 2938 2591 2744 2837 
Q 2550 3084 2163 3084 
Q 1697 3084 1428 2787 
Q 1159 2491 1159 1978 
L 1159 0 
L 581 0 
L 581 4863 
L 1159 4863 
L 1159 2956 
Q 1366 3272 1645 3428 
Q 1925 3584 2291 3584 
Q 2894 3584 3203 3211 
Q 3513 2838 3513 2113 
z
" transform="scale(0.015625)"/>
      </defs>
      <use xlink:href="#DejaVuSans-68"/>
     </g>
    </g>
   </g>
   <g id="text_69">
    <g clip-path="url(#p1679445dc5)">
     <!-- j -->
     <g transform="translate(145.263704 278.77483) scale(0.12 -0.12)">
      <defs>
       <path id="DejaVuSans-6a" d="M 603 3500 
L 1178 3500 
L 1178 -63 
Q 1178 -731 923 -1031 
Q 669 -1331 103 -1331 
L -116 -1331 
L -116 -844 
L 38 -844 
Q 366 -844 484 -692 
Q 603 -541 603 -63 
L 603 3500 
z
M 603 4863 
L 1178 4863 
L 1178 4134 
L 603 4134 
L 603 4863 
z
" transform="scale(0.015625)"/>
      </defs>
      <use xlink:href="#DejaVuSans-6a"/>
     </g>
    </g>
   </g>
   <g id="text_70">
    <g clip-path="url(#p1679445dc5)">
     <!-- k -->
     <g transform="translate(198.795046 278.77483) scale(0.12 -0.12)">
      <defs>
       <path id="DejaVuSans-6b" d="M 581 4863 
L 1159 4863 
L 1159 1991 
L 2875 3500 
L 3609 3500 
L 1753 1863 
L 3688 0 
L 2938 0 
L 1159 1709 
L 1159 0 
L 581 0 
L 581 4863 
z
" transform="scale(0.015625)"/>
      </defs>
      <use xlink:href="#DejaVuSans-6b"/>
     </g>
    </g>
   </g>
   <g id="text_71">
    <g clip-path="url(#p1679445dc5)">
     <!-- m -->
     <g transform="translate(251.763889 278.77483) scale(0.12 -0.12)">
      <defs>
       <path id="DejaVuSans-6d" d="M 3328 2828 
Q 3544 3216 3844 3400 
Q 4144 3584 4550 3584 
Q 5097 3584 5394 3201 
Q 5691 2819 5691 2113 
L 5691 0 
L 5113 0 
L 5113 2094 
Q 5113 2597 4934 2840 
Q 4756 3084 4391 3084 
Q 3944 3084 3684 2787 
Q 3425 2491 3425 1978 
L 3425 0 
L 2847 0 
L 2847 2094 
Q 2847 2600 2669 2842 
Q 2491 3084 2119 3084 
Q 1678 3084 1418 2786 
Q 1159 2488 1159 1978 
L 1159 0 
L 581 0 
L 581 3500 
L 1159 3500 
L 1159 2956 
Q 1356 3278 1631 3431 
Q 1906 3584 2284 3584 
Q 2666 3584 2933 3390 
Q 3200 3197 3328 2828 
z
" transform="scale(0.015625)"/>
      </defs>
      <use xlink:href="#DejaVuSans-6d"/>
     </g>
    </g>
   </g>
   <g id="text_72">
    <g clip-path="url(#p1679445dc5)">
     <!-- l -->
     <g transform="translate(255.941389 49.68392) scale(0.12 -0.12)">
      <defs>
       <path id="DejaVuSans-6c" d="M 603 4863 
L 1178 4863 
L 1178 0 
L 603 0 
L 603 4863 
z
" transform="scale(0.015625)"/>
      </defs>
      <use xlink:href="#DejaVuSans-6c"/>
     </g>
    </g>
   </g>
   <g id="text_73">
    <g clip-path="url(#p1679445dc5)">
     <!-- n -->
     <g transform="translate(309.144607 49.68392) scale(0.12 -0.12)">
      <defs>
       <path id="DejaVuSans-6e" d="M 3513 2113 
L 3513 0 
L 2938 0 
L 2938 2094 
Q 2938 2591 2744 2837 
Q 2550 3084 2163 3084 
Q 1697 3084 1428 2787 
Q 1159 2491 1159 1978 
L 1159 0 
L 581 0 
L 581 3500 
L 1159 3500 
L 1159 2956 
Q 1366 3272 1645 3428 
Q 1925 3584 2291 3584 
Q 2894 3584 3203 3211 
Q 3513 2838 3513 2113 
z
" transform="scale(0.015625)"/>
      </defs>
      <use xlink:href="#DejaVuSans-6e"/>
     </g>
    </g>
   </g>
   <g id="text_74">
    <g clip-path="url(#p1679445dc5)">
     <!-- q -->
     <g transform="translate(309.138045 221.502102) scale(0.12 -0.12)">
      <defs>
       <path id="DejaVuSans-71" d="M 947 1747 
Q 947 1113 1208 752 
Q 1469 391 1925 391 
Q 2381 391 2643 752 
Q 2906 1113 2906 1747 
Q 2906 2381 2643 2742 
Q 2381 3103 1925 3103 
Q 1469 3103 1208 2742 
Q 947 2381 947 1747 
z
M 2906 525 
Q 2725 213 2448 61 
Q 2172 -91 1784 -91 
Q 1150 -91 751 415 
Q 353 922 353 1747 
Q 353 2572 751 3078 
Q 1150 3584 1784 3584 
Q 2172 3584 2448 3432 
Q 2725 3281 2906 2969 
L 2906 3500 
L 3481 3500 
L 3481 -1331 
L 2906 -1331 
L 2906 525 
z
" transform="scale(0.015625)"/>
      </defs>
      <use xlink:href="#DejaVuSans-71"/>
     </g>
    </g>
   </g>
   <g id="text_75">
    <g clip-path="url(#p1679445dc5)">
     <!-- r -->
     <g transform="translate(310.480545 278.77483) scale(0.12 -0.12)">
      <defs>
       <path id="DejaVuSans-72" d="M 2631 2963 
Q 2534 3019 2420 3045 
Q 2306 3072 2169 3072 
Q 1681 3072 1420 2755 
Q 1159 2438 1159 1844 
L 1159 0 
L 581 0 
L 581 3500 
L 1159 3500 
L 1159 2956 
Q 1341 3275 1631 3429 
Q 1922 3584 2338 3584 
Q 2397 3584 2469 3576 
Q 2541 3569 2628 3553 
L 2631 2963 
z
" transform="scale(0.015625)"/>
      </defs>
      <use xlink:href="#DejaVuSans-72"/>
     </g>
    </g>
   </g>
   <g id="text_76">
    <g clip-path="url(#p1679445dc5)">
     <!-- o -->
     <g transform="translate(309.275857 106.956648) scale(0.12 -0.12)">
      <defs>
       <path id="DejaVuSans-6f" d="M 1959 3097 
Q 1497 3097 1228 2736 
Q 959 2375 959 1747 
Q 959 1119 1226 758 
Q 1494 397 1959 397 
Q 2419 397 2687 759 
Q 2956 1122 2956 1747 
Q 2956 2369 2687 2733 
Q 2419 3097 1959 3097 
z
M 1959 3584 
Q 2709 3584 3137 3096 
Q 3566 2609 3566 1747 
Q 3566 888 3137 398 
Q 2709 -91 1959 -91 
Q 1206 -91 779 398 
Q 353 888 353 1747 
Q 353 2609 779 3096 
Q 1206 3584 1959 3584 
z
" transform="scale(0.015625)"/>
      </defs>
      <use xlink:href="#DejaVuSans-6f"/>
     </g>
    </g>
   </g>
   <g id="text_77">
    <g clip-path="url(#p1679445dc5)">
     <!-- p -->
     <g transform="translate(309.138045 164.229375) scale(0.12 -0.12)">
      <defs>
       <path id="DejaVuSans-70" d="M 1159 525 
L 1159 -1331 
L 581 -1331 
L 581 3500 
L 1159 3500 
L 1159 2969 
Q 1341 3281 1617 3432 
Q 1894 3584 2278 3584 
Q 2916 3584 3314 3078 
Q 3713 2572 3713 1747 
Q 3713 922 3314 415 
Q 2916 -91 2278 -91 
Q 1894 -91 1617 61 
Q 1341 213 1159 525 
z
M 3116 1747 
Q 3116 2381 2855 2742 
Q 2594 3103 2138 3103 
Q 1681 3103 1420 2742 
Q 1159 2381 1159 1747 
Q 1159 1113 1420 752 
Q 1681 391 2138 391 
Q 2594 391 2855 752 
Q 3116 1113 3116 1747 
z
" transform="scale(0.015625)"/>
      </defs>
      <use xlink:href="#DejaVuSans-70"/>
     </g>
    </g>
   </g>
   <g id="text_78">
    <!-- inputgraph(length) -->
    <g transform="translate(117.795937 16.318125) scale(0.12 -0.12)">
     <defs>
      <path id="DejaVuSans-75" d="M 544 1381 
L 544 3500 
L 1119 3500 
L 1119 1403 
Q 1119 906 1312 657 
Q 1506 409 1894 409 
Q 2359 409 2629 706 
Q 2900 1003 2900 1516 
L 2900 3500 
L 3475 3500 
L 3475 0 
L 2900 0 
L 2900 538 
Q 2691 219 2414 64 
Q 2138 -91 1772 -91 
Q 1169 -91 856 284 
Q 544 659 544 1381 
z
M 1991 3584 
L 1991 3584 
z
" transform="scale(0.015625)"/>
      <path id="DejaVuSans-74" d="M 1172 4494 
L 1172 3500 
L 2356 3500 
L 2356 3053 
L 1172 3053 
L 1172 1153 
Q 1172 725 1289 603 
Q 1406 481 1766 481 
L 2356 481 
L 2356 0 
L 1766 0 
Q 1100 0 847 248 
Q 594 497 594 1153 
L 594 3053 
L 172 3053 
L 172 3500 
L 594 3500 
L 594 4494 
L 1172 4494 
z
" transform="scale(0.015625)"/>
      <path id="DejaVuSans-28" d="M 1984 4856 
Q 1566 4138 1362 3434 
Q 1159 2731 1159 2009 
Q 1159 1288 1364 580 
Q 1569 -128 1984 -844 
L 1484 -844 
Q 1016 -109 783 600 
Q 550 1309 550 2009 
Q 550 2706 781 3412 
Q 1013 4119 1484 4856 
L 1984 4856 
z
" transform="scale(0.015625)"/>
      <path id="DejaVuSans-29" d="M 513 4856 
L 1013 4856 
Q 1481 4119 1714 3412 
Q 1947 2706 1947 2009 
Q 1947 1309 1714 600 
Q 1481 -109 1013 -844 
L 513 -844 
Q 928 -128 1133 580 
Q 1338 1288 1338 2009 
Q 1338 2731 1133 3434 
Q 928 4138 513 4856 
z
" transform="scale(0.015625)"/>
     </defs>
     <use xlink:href="#DejaVuSans-69"/>
     <use xlink:href="#DejaVuSans-6e" x="27.783203"/>
     <use xlink:href="#DejaVuSans-70" x="91.162109"/>
     <use xlink:href="#DejaVuSans-75" x="154.638672"/>
     <use xlink:href="#DejaVuSans-74" x="218.017578"/>
     <use xlink:href="#DejaVuSans-67" x="257.226562"/>
     <use xlink:href="#DejaVuSans-72" x="320.703125"/>
     <use xlink:href="#DejaVuSans-61" x="361.816406"/>
     <use xlink:href="#DejaVuSans-70" x="423.095703"/>
     <use xlink:href="#DejaVuSans-68" x="486.572266"/>
     <use xlink:href="#DejaVuSans-28" x="549.951172"/>
     <use xlink:href="#DejaVuSans-6c" x="588.964844"/>
     <use xlink:href="#DejaVuSans-65" x="616.748047"/>
     <use xlink:href="#DejaVuSans-6e" x="678.271484"/>
     <use xlink:href="#DejaVuSans-67" x="741.650391"/>
     <use xlink:href="#DejaVuSans-74" x="805.126953"/>
     <use xlink:href="#DejaVuSans-68" x="844.335938"/>
     <use xlink:href="#DejaVuSans-29" x="907.714844"/>
    </g>
   </g>
  </g>
 </g>
 <defs>
  <clipPath id="p1679445dc5">
   <rect x="7.2" y="22.318125" width="334.8" height="277.2"/>
  </clipPath>
 </defs>
</svg>
