<?xml version="1.0" encoding="utf-8" standalone="no"?>
<!DOCTYPE svg PUBLIC "-//W3C//DTD SVG 1.1//EN"
  "http://www.w3.org/Graphics/SVG/1.1/DTD/svg11.dtd">
<svg xmlns:xlink="http://www.w3.org/1999/xlink" width="349.2pt" height="306.718125pt" viewBox="0 0 349.2 306.718125" xmlns="http://www.w3.org/2000/svg" version="1.1">
 <metadata>
  <rdf:RDF xmlns:dc="http://purl.org/dc/elements/1.1/" xmlns:cc="http://creativecommons.org/ns#" xmlns:rdf="http://www.w3.org/1999/02/22-rdf-syntax-ns#">
   <cc:Work>
    <dc:type rdf:resource="http://purl.org/dc/dcmitype/StillImage"/>
    <dc:date>2022-11-22T05:25:07.650076</dc:date>
    <dc:format>image/svg+xml</dc:format>
    <dc:creator>
     <cc:Agent>
      <dc:title>Matplotlib v3.6.1, https://matplotlib.org/</dc:title>
     </cc:Agent>
    </dc:creator>
   </cc:Work>
  </rdf:RDF>
 </metadata>
 <defs>
  <style type="text/css">*{stroke-linejoin: round; stroke-linecap: butt}</style>
 </defs>
 <g id="figure_1">
  <g id="patch_1">
   <path d="M 0 306.718125 
L 349.2 306.718125 
L 349.2 0 
L 0 0 
z
" style="fill: #ffffff"/>
  </g>
  <g id="axes_1">
   <g id="patch_2">
    <path d="M 7.2 299.518125 
L 342 299.518125 
L 342 22.318125 
L 7.2 22.318125 
z
" style="fill: #ffffff"/>
   </g>
   <g id="text_1">
    <g id="patch_3">
     <path d="M 83.752673 175.240426 
L 83.752673 203.868551 
Q 83.752673 206.868551 86.752673 206.868551 
L 96.430798 206.868551 
Q 99.430798 206.868551 99.430798 203.868551 
L 99.430798 175.240426 
Q 99.430798 172.240426 96.430798 172.240426 
L 86.752673 172.240426 
Q 83.752673 172.240426 83.752673 175.240426 
z
" clip-path="url(#p4611655ef9)" style="fill: #ffffff; stroke: #ffffff; stroke-linejoin: miter"/>
    </g>
    <g clip-path="url(#p4611655ef9)">
     <!-- 0.897 -->
     <g transform="translate(88.832361 175.240426) rotate(-270) scale(0.1 -0.1)">
      <defs>
       <path id="DejaVuSans-30" d="M 2034 4250 
Q 1547 4250 1301 3770 
Q 1056 3291 1056 2328 
Q 1056 1369 1301 889 
Q 1547 409 2034 409 
Q 2525 409 2770 889 
Q 3016 1369 3016 2328 
Q 3016 3291 2770 3770 
Q 2525 4250 2034 4250 
z
M 2034 4750 
Q 2819 4750 3233 4129 
Q 3647 3509 3647 2328 
Q 3647 1150 3233 529 
Q 2819 -91 2034 -91 
Q 1250 -91 836 529 
Q 422 1150 422 2328 
Q 422 3509 836 4129 
Q 1250 4750 2034 4750 
z
" transform="scale(0.015625)"/>
       <path id="DejaVuSans-2e" d="M 684 794 
L 1344 794 
L 1344 0 
L 684 0 
L 684 794 
z
" transform="scale(0.015625)"/>
       <path id="DejaVuSans-38" d="M 2034 2216 
Q 1584 2216 1326 1975 
Q 1069 1734 1069 1313 
Q 1069 891 1326 650 
Q 1584 409 2034 409 
Q 2484 409 2743 651 
Q 3003 894 3003 1313 
Q 3003 1734 2745 1975 
Q 2488 2216 2034 2216 
z
M 1403 2484 
Q 997 2584 770 2862 
Q 544 3141 544 3541 
Q 544 4100 942 4425 
Q 1341 4750 2034 4750 
Q 2731 4750 3128 4425 
Q 3525 4100 3525 3541 
Q 3525 3141 3298 2862 
Q 3072 2584 2669 2484 
Q 3125 2378 3379 2068 
Q 3634 1759 3634 1313 
Q 3634 634 3220 271 
Q 2806 -91 2034 -91 
Q 1263 -91 848 271 
Q 434 634 434 1313 
Q 434 1759 690 2068 
Q 947 2378 1403 2484 
z
M 1172 3481 
Q 1172 3119 1398 2916 
Q 1625 2713 2034 2713 
Q 2441 2713 2670 2916 
Q 2900 3119 2900 3481 
Q 2900 3844 2670 4047 
Q 2441 4250 2034 4250 
Q 1625 4250 1398 4047 
Q 1172 3844 1172 3481 
z
" transform="scale(0.015625)"/>
       <path id="DejaVuSans-39" d="M 703 97 
L 703 672 
Q 941 559 1184 500 
Q 1428 441 1663 441 
Q 2288 441 2617 861 
Q 2947 1281 2994 2138 
Q 2813 1869 2534 1725 
Q 2256 1581 1919 1581 
Q 1219 1581 811 2004 
Q 403 2428 403 3163 
Q 403 3881 828 4315 
Q 1253 4750 1959 4750 
Q 2769 4750 3195 4129 
Q 3622 3509 3622 2328 
Q 3622 1225 3098 567 
Q 2575 -91 1691 -91 
Q 1453 -91 1209 -44 
Q 966 3 703 97 
z
M 1959 2075 
Q 2384 2075 2632 2365 
Q 2881 2656 2881 3163 
Q 2881 3666 2632 3958 
Q 2384 4250 1959 4250 
Q 1534 4250 1286 3958 
Q 1038 3666 1038 3163 
Q 1038 2656 1286 2365 
Q 1534 2075 1959 2075 
z
" transform="scale(0.015625)"/>
       <path id="DejaVuSans-37" d="M 525 4666 
L 3525 4666 
L 3525 4397 
L 1831 0 
L 1172 0 
L 2766 4134 
L 525 4134 
L 525 4666 
z
" transform="scale(0.015625)"/>
      </defs>
      <use xlink:href="#DejaVuSans-30"/>
      <use xlink:href="#DejaVuSans-2e" x="63.623047"/>
      <use xlink:href="#DejaVuSans-38" x="95.410156"/>
      <use xlink:href="#DejaVuSans-39" x="159.033203"/>
      <use xlink:href="#DejaVuSans-37" x="222.65625"/>
     </g>
    </g>
   </g>
   <g id="text_2">
    <g id="patch_4">
     <path d="M 104.947095 168.757188 
L 133.57522 168.757188 
Q 136.57522 168.757188 136.57522 165.757188 
L 136.57522 156.079063 
Q 136.57522 153.079063 133.57522 153.079063 
L 104.947095 153.079063 
Q 101.947095 153.079063 101.947095 156.079063 
L 101.947095 165.757188 
Q 101.947095 168.757188 104.947095 168.757188 
z
" clip-path="url(#p4611655ef9)" style="fill: #ffffff; stroke: #ffffff; stroke-linejoin: miter"/>
    </g>
    <g clip-path="url(#p4611655ef9)">
     <!-- 0.805 -->
     <g transform="translate(104.947095 163.6775) scale(0.1 -0.1)">
      <defs>
       <path id="DejaVuSans-35" d="M 691 4666 
L 3169 4666 
L 3169 4134 
L 1269 4134 
L 1269 2991 
Q 1406 3038 1543 3061 
Q 1681 3084 1819 3084 
Q 2600 3084 3056 2656 
Q 3513 2228 3513 1497 
Q 3513 744 3044 326 
Q 2575 -91 1722 -91 
Q 1428 -91 1123 -41 
Q 819 9 494 109 
L 494 744 
Q 775 591 1075 516 
Q 1375 441 1709 441 
Q 2250 441 2565 725 
Q 2881 1009 2881 1497 
Q 2881 1984 2565 2268 
Q 2250 2553 1709 2553 
Q 1456 2553 1204 2497 
Q 953 2441 691 2322 
L 691 4666 
z
" transform="scale(0.015625)"/>
      </defs>
      <use xlink:href="#DejaVuSans-30"/>
      <use xlink:href="#DejaVuSans-2e" x="63.623047"/>
      <use xlink:href="#DejaVuSans-38" x="95.410156"/>
      <use xlink:href="#DejaVuSans-30" x="159.033203"/>
      <use xlink:href="#DejaVuSans-35" x="222.65625"/>
     </g>
    </g>
   </g>
   <g id="text_3">
    <g id="patch_5">
     <path d="M 113.234955 147.448441 
L 135.285883 129.191221 
Q 137.596645 127.278009 135.683434 124.967247 
L 129.511333 117.512632 
Q 127.598122 115.20187 125.287359 117.115082 
L 103.236431 135.372302 
Q 100.925669 137.285514 102.838881 139.596276 
L 109.010981 147.050891 
Q 110.924193 149.361653 113.234955 147.448441 
z
" clip-path="url(#p4611655ef9)" style="fill: #ffffff; stroke: #ffffff; stroke-linejoin: miter"/>
    </g>
    <g clip-path="url(#p4611655ef9)">
     <!-- 0.855 -->
     <g transform="translate(109.995449 143.535791) rotate(-39.623295) scale(0.1 -0.1)">
      <use xlink:href="#DejaVuSans-30"/>
      <use xlink:href="#DejaVuSans-2e" x="63.623047"/>
      <use xlink:href="#DejaVuSans-38" x="95.410156"/>
      <use xlink:href="#DejaVuSans-35" x="159.033203"/>
      <use xlink:href="#DejaVuSans-35" x="222.65625"/>
     </g>
    </g>
   </g>
   <g id="text_4">
    <g id="patch_6">
     <path d="M 49.608252 168.757188 
L 78.236377 168.757188 
Q 81.236377 168.757188 81.236377 165.757188 
L 81.236377 156.079063 
Q 81.236377 153.079063 78.236377 153.079063 
L 49.608252 153.079063 
Q 46.608252 153.079063 46.608252 156.079063 
L 46.608252 165.757188 
Q 46.608252 168.757188 49.608252 168.757188 
z
" clip-path="url(#p4611655ef9)" style="fill: #ffffff; stroke: #ffffff; stroke-linejoin: miter"/>
    </g>
    <g clip-path="url(#p4611655ef9)">
     <!-- 0.855 -->
     <g transform="translate(49.608252 163.6775) scale(0.1 -0.1)">
      <use xlink:href="#DejaVuSans-30"/>
      <use xlink:href="#DejaVuSans-2e" x="63.623047"/>
      <use xlink:href="#DejaVuSans-38" x="95.410156"/>
      <use xlink:href="#DejaVuSans-35" x="159.033203"/>
      <use xlink:href="#DejaVuSans-35" x="222.65625"/>
     </g>
    </g>
   </g>
   <g id="text_5">
    <g id="patch_7">
     <path d="M 104.947095 226.029915 
L 133.57522 226.029915 
Q 136.57522 226.029915 136.57522 223.029915 
L 136.57522 213.35179 
Q 136.57522 210.35179 133.57522 210.35179 
L 104.947095 210.35179 
Q 101.947095 210.35179 101.947095 213.35179 
L 101.947095 223.029915 
Q 101.947095 226.029915 104.947095 226.029915 
z
" clip-path="url(#p4611655ef9)" style="fill: #ffffff; stroke: #ffffff; stroke-linejoin: miter"/>
    </g>
    <g clip-path="url(#p4611655ef9)">
     <!-- 0.948 -->
     <g transform="translate(104.947095 220.950227) scale(0.1 -0.1)">
      <defs>
       <path id="DejaVuSans-34" d="M 2419 4116 
L 825 1625 
L 2419 1625 
L 2419 4116 
z
M 2253 4666 
L 3047 4666 
L 3047 1625 
L 3713 1625 
L 3713 1100 
L 3047 1100 
L 3047 0 
L 2419 0 
L 2419 1100 
L 313 1100 
L 313 1709 
L 2253 4666 
z
" transform="scale(0.015625)"/>
      </defs>
      <use xlink:href="#DejaVuSans-30"/>
      <use xlink:href="#DejaVuSans-2e" x="63.623047"/>
      <use xlink:href="#DejaVuSans-39" x="95.410156"/>
      <use xlink:href="#DejaVuSans-34" x="159.033203"/>
      <use xlink:href="#DejaVuSans-38" x="222.65625"/>
     </g>
    </g>
   </g>
   <g id="text_6">
    <g id="patch_8">
     <path d="M 47.897588 186.463948 
L 69.948516 204.721168 
Q 72.259279 206.63438 74.17249 204.323618 
L 80.344591 196.869003 
Q 82.257802 194.558241 79.94704 192.645029 
L 57.896112 174.387809 
Q 55.58535 172.474597 53.672138 174.785359 
L 47.500038 182.239974 
Q 45.586826 184.550736 47.897588 186.463948 
z
" clip-path="url(#p4611655ef9)" style="fill: #ffffff; stroke: #ffffff; stroke-linejoin: miter"/>
    </g>
    <g clip-path="url(#p4611655ef9)">
     <!-- 0.928 -->
     <g transform="translate(51.137094 182.551298) rotate(-320.376705) scale(0.1 -0.1)">
      <defs>
       <path id="DejaVuSans-32" d="M 1228 531 
L 3431 531 
L 3431 0 
L 469 0 
L 469 531 
Q 828 903 1448 1529 
Q 2069 2156 2228 2338 
Q 2531 2678 2651 2914 
Q 2772 3150 2772 3378 
Q 2772 3750 2511 3984 
Q 2250 4219 1831 4219 
Q 1534 4219 1204 4116 
Q 875 4013 500 3803 
L 500 4441 
Q 881 4594 1212 4672 
Q 1544 4750 1819 4750 
Q 2544 4750 2975 4387 
Q 3406 4025 3406 3419 
Q 3406 3131 3298 2873 
Q 3191 2616 2906 2266 
Q 2828 2175 2409 1742 
Q 1991 1309 1228 531 
z
" transform="scale(0.015625)"/>
      </defs>
      <use xlink:href="#DejaVuSans-30"/>
      <use xlink:href="#DejaVuSans-2e" x="63.623047"/>
      <use xlink:href="#DejaVuSans-39" x="95.410156"/>
      <use xlink:href="#DejaVuSans-32" x="159.033203"/>
      <use xlink:href="#DejaVuSans-38" x="222.65625"/>
     </g>
    </g>
   </g>
   <g id="text_7">
    <g id="patch_9">
     <path d="M 83.752673 232.513153 
L 83.752673 261.141278 
Q 83.752673 264.141278 86.752673 264.141278 
L 96.430798 264.141278 
Q 99.430798 264.141278 99.430798 261.141278 
L 99.430798 232.513153 
Q 99.430798 229.513153 96.430798 229.513153 
L 86.752673 229.513153 
Q 83.752673 229.513153 83.752673 232.513153 
z
" clip-path="url(#p4611655ef9)" style="fill: #ffffff; stroke: #ffffff; stroke-linejoin: miter"/>
    </g>
    <g clip-path="url(#p4611655ef9)">
     <!-- 0.893 -->
     <g transform="translate(88.832361 232.513153) rotate(-270) scale(0.1 -0.1)">
      <defs>
       <path id="DejaVuSans-33" d="M 2597 2516 
Q 3050 2419 3304 2112 
Q 3559 1806 3559 1356 
Q 3559 666 3084 287 
Q 2609 -91 1734 -91 
Q 1441 -91 1130 -33 
Q 819 25 488 141 
L 488 750 
Q 750 597 1062 519 
Q 1375 441 1716 441 
Q 2309 441 2620 675 
Q 2931 909 2931 1356 
Q 2931 1769 2642 2001 
Q 2353 2234 1838 2234 
L 1294 2234 
L 1294 2753 
L 1863 2753 
Q 2328 2753 2575 2939 
Q 2822 3125 2822 3475 
Q 2822 3834 2567 4026 
Q 2313 4219 1838 4219 
Q 1578 4219 1281 4162 
Q 984 4106 628 3988 
L 628 4550 
Q 988 4650 1302 4700 
Q 1616 4750 1894 4750 
Q 2613 4750 3031 4423 
Q 3450 4097 3450 3541 
Q 3450 3153 3228 2886 
Q 3006 2619 2597 2516 
z
" transform="scale(0.015625)"/>
      </defs>
      <use xlink:href="#DejaVuSans-30"/>
      <use xlink:href="#DejaVuSans-2e" x="63.623047"/>
      <use xlink:href="#DejaVuSans-38" x="95.410156"/>
      <use xlink:href="#DejaVuSans-39" x="159.033203"/>
      <use xlink:href="#DejaVuSans-33" x="222.65625"/>
     </g>
    </g>
   </g>
   <g id="text_8">
    <g id="patch_10">
     <path d="M 103.236431 243.736675 
L 125.287359 261.993896 
Q 127.598122 263.907107 129.511333 261.596345 
L 135.683434 254.14173 
Q 137.596645 251.830968 135.285883 249.917757 
L 113.234955 231.660536 
Q 110.924193 229.747325 109.010981 232.058087 
L 102.838881 239.512701 
Q 100.925669 241.823464 103.236431 243.736675 
z
" clip-path="url(#p4611655ef9)" style="fill: #ffffff; stroke: #ffffff; stroke-linejoin: miter"/>
    </g>
    <g clip-path="url(#p4611655ef9)">
     <!-- 0.909 -->
     <g transform="translate(106.475937 239.824025) rotate(-320.376705) scale(0.1 -0.1)">
      <use xlink:href="#DejaVuSans-30"/>
      <use xlink:href="#DejaVuSans-2e" x="63.623047"/>
      <use xlink:href="#DejaVuSans-39" x="95.410156"/>
      <use xlink:href="#DejaVuSans-30" x="159.033203"/>
      <use xlink:href="#DejaVuSans-39" x="222.65625"/>
     </g>
    </g>
   </g>
   <g id="text_9">
    <g id="patch_11">
     <path d="M 160.285937 168.757188 
L 188.914062 168.757188 
Q 191.914062 168.757188 191.914062 165.757188 
L 191.914062 156.079063 
Q 191.914062 153.079063 188.914062 153.079063 
L 160.285937 153.079063 
Q 157.285937 153.079063 157.285937 156.079063 
L 157.285937 165.757188 
Q 157.285937 168.757188 160.285937 168.757188 
z
" clip-path="url(#p4611655ef9)" style="fill: #ffffff; stroke: #ffffff; stroke-linejoin: miter"/>
    </g>
    <g clip-path="url(#p4611655ef9)">
     <!-- 0.918 -->
     <g transform="translate(160.285937 163.6775) scale(0.1 -0.1)">
      <defs>
       <path id="DejaVuSans-31" d="M 794 531 
L 1825 531 
L 1825 4091 
L 703 3866 
L 703 4441 
L 1819 4666 
L 2450 4666 
L 2450 531 
L 3481 531 
L 3481 0 
L 794 0 
L 794 531 
z
" transform="scale(0.015625)"/>
      </defs>
      <use xlink:href="#DejaVuSans-30"/>
      <use xlink:href="#DejaVuSans-2e" x="63.623047"/>
      <use xlink:href="#DejaVuSans-39" x="95.410156"/>
      <use xlink:href="#DejaVuSans-31" x="159.033203"/>
      <use xlink:href="#DejaVuSans-38" x="222.65625"/>
     </g>
    </g>
   </g>
   <g id="text_10">
    <g id="patch_12">
     <path d="M 171.024168 202.692367 
L 188.174355 188.492749 
Q 190.485117 186.579538 188.571906 184.268776 
L 182.399806 176.814161 
Q 180.486594 174.503399 178.175832 176.416611 
L 161.025645 190.616228 
Q 158.714883 192.52944 160.628094 194.840202 
L 166.800194 202.294816 
Q 168.713406 204.605578 171.024168 202.692367 
z
" clip-path="url(#p4611655ef9)" style="fill: #ffffff; stroke: #ffffff; stroke-linejoin: miter"/>
    </g>
    <g clip-path="url(#p4611655ef9)">
     <!-- 0.93 -->
     <g transform="translate(167.784662 198.779717) rotate(-39.623295) scale(0.1 -0.1)">
      <use xlink:href="#DejaVuSans-30"/>
      <use xlink:href="#DejaVuSans-2e" x="63.623047"/>
      <use xlink:href="#DejaVuSans-39" x="95.410156"/>
      <use xlink:href="#DejaVuSans-33" x="159.033203"/>
     </g>
    </g>
   </g>
   <g id="text_11">
    <g id="patch_13">
     <path d="M 160.285937 226.029915 
L 188.914062 226.029915 
Q 191.914062 226.029915 191.914062 223.029915 
L 191.914062 213.35179 
Q 191.914062 210.35179 188.914062 210.35179 
L 160.285937 210.35179 
Q 157.285937 210.35179 157.285937 213.35179 
L 157.285937 223.029915 
Q 157.285937 226.029915 160.285937 226.029915 
z
" clip-path="url(#p4611655ef9)" style="fill: #ffffff; stroke: #ffffff; stroke-linejoin: miter"/>
    </g>
    <g clip-path="url(#p4611655ef9)">
     <!-- 0.888 -->
     <g transform="translate(160.285937 220.950227) scale(0.1 -0.1)">
      <use xlink:href="#DejaVuSans-30"/>
      <use xlink:href="#DejaVuSans-2e" x="63.623047"/>
      <use xlink:href="#DejaVuSans-38" x="95.410156"/>
      <use xlink:href="#DejaVuSans-38" x="159.033203"/>
      <use xlink:href="#DejaVuSans-38" x="222.65625"/>
     </g>
    </g>
   </g>
   <g id="text_12">
    <g id="patch_14">
     <path d="M 139.091516 232.513153 
L 139.091516 261.141278 
Q 139.091516 264.141278 142.091516 264.141278 
L 151.769641 264.141278 
Q 154.769641 264.141278 154.769641 261.141278 
L 154.769641 232.513153 
Q 154.769641 229.513153 151.769641 229.513153 
L 142.091516 229.513153 
Q 139.091516 229.513153 139.091516 232.513153 
z
" clip-path="url(#p4611655ef9)" style="fill: #ffffff; stroke: #ffffff; stroke-linejoin: miter"/>
    </g>
    <g clip-path="url(#p4611655ef9)">
     <!-- 0.849 -->
     <g transform="translate(144.171204 232.513153) rotate(-270) scale(0.1 -0.1)">
      <use xlink:href="#DejaVuSans-30"/>
      <use xlink:href="#DejaVuSans-2e" x="63.623047"/>
      <use xlink:href="#DejaVuSans-38" x="95.410156"/>
      <use xlink:href="#DejaVuSans-34" x="159.033203"/>
      <use xlink:href="#DejaVuSans-39" x="222.65625"/>
     </g>
    </g>
   </g>
   <g id="text_13">
    <g id="patch_15">
     <path d="M 158.575274 129.191221 
L 180.626202 147.448441 
Q 182.936965 149.361653 184.850176 147.050891 
L 191.022276 139.596276 
Q 192.935488 137.285514 190.624726 135.372302 
L 168.573798 117.115082 
Q 166.263035 115.20187 164.349824 117.512632 
L 158.177724 124.967247 
Q 156.264512 127.278009 158.575274 129.191221 
z
" clip-path="url(#p4611655ef9)" style="fill: #ffffff; stroke: #ffffff; stroke-linejoin: miter"/>
    </g>
    <g clip-path="url(#p4611655ef9)">
     <!-- 0.922 -->
     <g transform="translate(161.81478 125.278571) rotate(-320.376705) scale(0.1 -0.1)">
      <use xlink:href="#DejaVuSans-30"/>
      <use xlink:href="#DejaVuSans-2e" x="63.623047"/>
      <use xlink:href="#DejaVuSans-39" x="95.410156"/>
      <use xlink:href="#DejaVuSans-32" x="159.033203"/>
      <use xlink:href="#DejaVuSans-32" x="222.65625"/>
     </g>
    </g>
   </g>
   <g id="text_14">
    <g id="patch_16">
     <path d="M 160.285937 111.48446 
L 188.914062 111.48446 
Q 191.914062 111.48446 191.914062 108.48446 
L 191.914062 98.806335 
Q 191.914062 95.806335 188.914062 95.806335 
L 160.285937 95.806335 
Q 157.285937 95.806335 157.285937 98.806335 
L 157.285937 108.48446 
Q 157.285937 111.48446 160.285937 111.48446 
z
" clip-path="url(#p4611655ef9)" style="fill: #ffffff; stroke: #ffffff; stroke-linejoin: miter"/>
    </g>
    <g clip-path="url(#p4611655ef9)">
     <!-- 0.879 -->
     <g transform="translate(160.285937 106.404773) scale(0.1 -0.1)">
      <use xlink:href="#DejaVuSans-30"/>
      <use xlink:href="#DejaVuSans-2e" x="63.623047"/>
      <use xlink:href="#DejaVuSans-38" x="95.410156"/>
      <use xlink:href="#DejaVuSans-37" x="159.033203"/>
      <use xlink:href="#DejaVuSans-39" x="222.65625"/>
     </g>
    </g>
   </g>
   <g id="text_15">
    <g id="patch_17">
     <path d="M 210.108484 146.595824 
L 210.108484 117.967699 
Q 210.108484 114.967699 207.108484 114.967699 
L 197.430359 114.967699 
Q 194.430359 114.967699 194.430359 117.967699 
L 194.430359 146.595824 
Q 194.430359 149.595824 197.430359 149.595824 
L 207.108484 149.595824 
Q 210.108484 149.595824 210.108484 146.595824 
z
" clip-path="url(#p4611655ef9)" style="fill: #ffffff; stroke: #ffffff; stroke-linejoin: miter"/>
    </g>
    <g clip-path="url(#p4611655ef9)">
     <!-- 0.821 -->
     <g transform="translate(205.028796 146.595824) rotate(-90) scale(0.1 -0.1)">
      <use xlink:href="#DejaVuSans-30"/>
      <use xlink:href="#DejaVuSans-2e" x="63.623047"/>
      <use xlink:href="#DejaVuSans-38" x="95.410156"/>
      <use xlink:href="#DejaVuSans-32" x="159.033203"/>
      <use xlink:href="#DejaVuSans-31" x="222.65625"/>
     </g>
    </g>
   </g>
   <g id="text_16">
    <g id="patch_18">
     <path d="M 194.430359 175.240426 
L 194.430359 203.868551 
Q 194.430359 206.868551 197.430359 206.868551 
L 207.108484 206.868551 
Q 210.108484 206.868551 210.108484 203.868551 
L 210.108484 175.240426 
Q 210.108484 172.240426 207.108484 172.240426 
L 197.430359 172.240426 
Q 194.430359 172.240426 194.430359 175.240426 
z
" clip-path="url(#p4611655ef9)" style="fill: #ffffff; stroke: #ffffff; stroke-linejoin: miter"/>
    </g>
    <g clip-path="url(#p4611655ef9)">
     <!-- 0.953 -->
     <g transform="translate(199.510046 175.240426) rotate(-270) scale(0.1 -0.1)">
      <use xlink:href="#DejaVuSans-30"/>
      <use xlink:href="#DejaVuSans-2e" x="63.623047"/>
      <use xlink:href="#DejaVuSans-39" x="95.410156"/>
      <use xlink:href="#DejaVuSans-35" x="159.033203"/>
      <use xlink:href="#DejaVuSans-33" x="222.65625"/>
     </g>
    </g>
   </g>
   <g id="text_17">
    <g id="patch_19">
     <path d="M 223.912641 147.448441 
L 245.963569 129.191221 
Q 248.274331 127.278009 246.361119 124.967247 
L 240.189019 117.512632 
Q 238.275807 115.20187 235.965045 117.115082 
L 213.914117 135.372302 
Q 211.603355 137.285514 213.516566 139.596276 
L 219.688667 147.050891 
Q 221.601878 149.361653 223.912641 147.448441 
z
" clip-path="url(#p4611655ef9)" style="fill: #ffffff; stroke: #ffffff; stroke-linejoin: miter"/>
    </g>
    <g clip-path="url(#p4611655ef9)">
     <!-- 0.853 -->
     <g transform="translate(220.673135 143.535791) rotate(-39.623295) scale(0.1 -0.1)">
      <use xlink:href="#DejaVuSans-30"/>
      <use xlink:href="#DejaVuSans-2e" x="63.623047"/>
      <use xlink:href="#DejaVuSans-38" x="95.410156"/>
      <use xlink:href="#DejaVuSans-35" x="159.033203"/>
      <use xlink:href="#DejaVuSans-33" x="222.65625"/>
     </g>
    </g>
   </g>
   <g id="text_18">
    <g id="patch_20">
     <path d="M 215.62478 168.757188 
L 244.252905 168.757188 
Q 247.252905 168.757188 247.252905 165.757188 
L 247.252905 156.079063 
Q 247.252905 153.079063 244.252905 153.079063 
L 215.62478 153.079063 
Q 212.62478 153.079063 212.62478 156.079063 
L 212.62478 165.757188 
Q 212.62478 168.757188 215.62478 168.757188 
z
" clip-path="url(#p4611655ef9)" style="fill: #ffffff; stroke: #ffffff; stroke-linejoin: miter"/>
    </g>
    <g clip-path="url(#p4611655ef9)">
     <!-- 0.813 -->
     <g transform="translate(215.62478 163.6775) scale(0.1 -0.1)">
      <use xlink:href="#DejaVuSans-30"/>
      <use xlink:href="#DejaVuSans-2e" x="63.623047"/>
      <use xlink:href="#DejaVuSans-38" x="95.410156"/>
      <use xlink:href="#DejaVuSans-31" x="159.033203"/>
      <use xlink:href="#DejaVuSans-33" x="222.65625"/>
     </g>
    </g>
   </g>
   <g id="text_19">
    <g id="patch_21">
     <path d="M 226.363011 202.692367 
L 243.513198 188.492749 
Q 245.82396 186.579538 243.910749 184.268776 
L 237.738648 176.814161 
Q 235.825437 174.503399 233.514675 176.416611 
L 216.364488 190.616228 
Q 214.053725 192.52944 215.966937 194.840202 
L 222.139037 202.294816 
Q 224.052249 204.605578 226.363011 202.692367 
z
" clip-path="url(#p4611655ef9)" style="fill: #ffffff; stroke: #ffffff; stroke-linejoin: miter"/>
    </g>
    <g clip-path="url(#p4611655ef9)">
     <!-- 0.89 -->
     <g transform="translate(223.123505 198.779717) rotate(-39.623295) scale(0.1 -0.1)">
      <use xlink:href="#DejaVuSans-30"/>
      <use xlink:href="#DejaVuSans-2e" x="63.623047"/>
      <use xlink:href="#DejaVuSans-38" x="95.410156"/>
      <use xlink:href="#DejaVuSans-39" x="159.033203"/>
     </g>
    </g>
   </g>
   <g id="text_20">
    <g id="patch_22">
     <path d="M 213.914117 243.736675 
L 235.965045 261.993896 
Q 238.275807 263.907107 240.189019 261.596345 
L 246.361119 254.14173 
Q 248.274331 251.830968 245.963569 249.917757 
L 223.912641 231.660536 
Q 221.601878 229.747325 219.688667 232.058087 
L 213.516566 239.512701 
Q 211.603355 241.823464 213.914117 243.736675 
z
" clip-path="url(#p4611655ef9)" style="fill: #ffffff; stroke: #ffffff; stroke-linejoin: miter"/>
    </g>
    <g clip-path="url(#p4611655ef9)">
     <!-- 0.957 -->
     <g transform="translate(217.153623 239.824025) rotate(-320.376705) scale(0.1 -0.1)">
      <use xlink:href="#DejaVuSans-30"/>
      <use xlink:href="#DejaVuSans-2e" x="63.623047"/>
      <use xlink:href="#DejaVuSans-39" x="95.410156"/>
      <use xlink:href="#DejaVuSans-35" x="159.033203"/>
      <use xlink:href="#DejaVuSans-37" x="222.65625"/>
     </g>
    </g>
   </g>
   <g id="text_21">
    <g id="patch_23">
     <path d="M 194.430359 60.694972 
L 194.430359 89.323097 
Q 194.430359 92.323097 197.430359 92.323097 
L 207.108484 92.323097 
Q 210.108484 92.323097 210.108484 89.323097 
L 210.108484 60.694972 
Q 210.108484 57.694972 207.108484 57.694972 
L 197.430359 57.694972 
Q 194.430359 57.694972 194.430359 60.694972 
z
" clip-path="url(#p4611655ef9)" style="fill: #ffffff; stroke: #ffffff; stroke-linejoin: miter"/>
    </g>
    <g clip-path="url(#p4611655ef9)">
     <!-- 0.875 -->
     <g transform="translate(199.510046 60.694972) rotate(-270) scale(0.1 -0.1)">
      <use xlink:href="#DejaVuSans-30"/>
      <use xlink:href="#DejaVuSans-2e" x="63.623047"/>
      <use xlink:href="#DejaVuSans-38" x="95.410156"/>
      <use xlink:href="#DejaVuSans-37" x="159.033203"/>
      <use xlink:href="#DejaVuSans-35" x="222.65625"/>
     </g>
    </g>
   </g>
   <g id="text_22">
    <g id="patch_24">
     <path d="M 215.62478 111.48446 
L 244.252905 111.48446 
Q 247.252905 111.48446 247.252905 108.48446 
L 247.252905 98.806335 
Q 247.252905 95.806335 244.252905 95.806335 
L 215.62478 95.806335 
Q 212.62478 95.806335 212.62478 98.806335 
L 212.62478 108.48446 
Q 212.62478 111.48446 215.62478 111.48446 
z
" clip-path="url(#p4611655ef9)" style="fill: #ffffff; stroke: #ffffff; stroke-linejoin: miter"/>
    </g>
    <g clip-path="url(#p4611655ef9)">
     <!-- 0.926 -->
     <g transform="translate(215.62478 106.404773) scale(0.1 -0.1)">
      <defs>
       <path id="DejaVuSans-36" d="M 2113 2584 
Q 1688 2584 1439 2293 
Q 1191 2003 1191 1497 
Q 1191 994 1439 701 
Q 1688 409 2113 409 
Q 2538 409 2786 701 
Q 3034 994 3034 1497 
Q 3034 2003 2786 2293 
Q 2538 2584 2113 2584 
z
M 3366 4563 
L 3366 3988 
Q 3128 4100 2886 4159 
Q 2644 4219 2406 4219 
Q 1781 4219 1451 3797 
Q 1122 3375 1075 2522 
Q 1259 2794 1537 2939 
Q 1816 3084 2150 3084 
Q 2853 3084 3261 2657 
Q 3669 2231 3669 1497 
Q 3669 778 3244 343 
Q 2819 -91 2113 -91 
Q 1303 -91 875 529 
Q 447 1150 447 2328 
Q 447 3434 972 4092 
Q 1497 4750 2381 4750 
Q 2619 4750 2861 4703 
Q 3103 4656 3366 4563 
z
" transform="scale(0.015625)"/>
      </defs>
      <use xlink:href="#DejaVuSans-30"/>
      <use xlink:href="#DejaVuSans-2e" x="63.623047"/>
      <use xlink:href="#DejaVuSans-39" x="95.410156"/>
      <use xlink:href="#DejaVuSans-32" x="159.033203"/>
      <use xlink:href="#DejaVuSans-36" x="222.65625"/>
     </g>
    </g>
   </g>
   <g id="text_23">
    <g id="patch_25">
     <path d="M 158.575274 71.918493 
L 180.626202 90.175714 
Q 182.936965 92.088925 184.850176 89.778163 
L 191.022276 82.323549 
Q 192.935488 80.012786 190.624726 78.099575 
L 168.573798 59.842354 
Q 166.263035 57.929143 164.349824 60.239905 
L 158.177724 67.69452 
Q 156.264512 70.005282 158.575274 71.918493 
z
" clip-path="url(#p4611655ef9)" style="fill: #ffffff; stroke: #ffffff; stroke-linejoin: miter"/>
    </g>
    <g clip-path="url(#p4611655ef9)">
     <!-- 0.963 -->
     <g transform="translate(161.81478 68.005844) rotate(-320.376705) scale(0.1 -0.1)">
      <use xlink:href="#DejaVuSans-30"/>
      <use xlink:href="#DejaVuSans-2e" x="63.623047"/>
      <use xlink:href="#DejaVuSans-39" x="95.410156"/>
      <use xlink:href="#DejaVuSans-36" x="159.033203"/>
      <use xlink:href="#DejaVuSans-33" x="222.65625"/>
     </g>
    </g>
   </g>
   <g id="text_24">
    <g id="patch_26">
     <path d="M 223.912641 90.175714 
L 245.963569 71.918493 
Q 248.274331 70.005282 246.361119 67.69452 
L 240.189019 60.239905 
Q 238.275807 57.929143 235.965045 59.842354 
L 213.914117 78.099575 
Q 211.603355 80.012786 213.516566 82.323549 
L 219.688667 89.778163 
Q 221.601878 92.088925 223.912641 90.175714 
z
" clip-path="url(#p4611655ef9)" style="fill: #ffffff; stroke: #ffffff; stroke-linejoin: miter"/>
    </g>
    <g clip-path="url(#p4611655ef9)">
     <!-- 0.863 -->
     <g transform="translate(220.673135 86.263064) rotate(-39.623295) scale(0.1 -0.1)">
      <use xlink:href="#DejaVuSans-30"/>
      <use xlink:href="#DejaVuSans-2e" x="63.623047"/>
      <use xlink:href="#DejaVuSans-38" x="95.410156"/>
      <use xlink:href="#DejaVuSans-36" x="159.033203"/>
      <use xlink:href="#DejaVuSans-33" x="222.65625"/>
     </g>
    </g>
   </g>
   <g id="text_25">
    <g id="patch_27">
     <path d="M 249.769202 117.967699 
L 249.769202 146.595824 
Q 249.769202 149.595824 252.769202 149.595824 
L 262.447327 149.595824 
Q 265.447327 149.595824 265.447327 146.595824 
L 265.447327 117.967699 
Q 265.447327 114.967699 262.447327 114.967699 
L 252.769202 114.967699 
Q 249.769202 114.967699 249.769202 117.967699 
z
" clip-path="url(#p4611655ef9)" style="fill: #ffffff; stroke: #ffffff; stroke-linejoin: miter"/>
    </g>
    <g clip-path="url(#p4611655ef9)">
     <!-- 0.883 -->
     <g transform="translate(254.848889 117.967699) rotate(-270) scale(0.1 -0.1)">
      <use xlink:href="#DejaVuSans-30"/>
      <use xlink:href="#DejaVuSans-2e" x="63.623047"/>
      <use xlink:href="#DejaVuSans-38" x="95.410156"/>
      <use xlink:href="#DejaVuSans-38" x="159.033203"/>
      <use xlink:href="#DejaVuSans-33" x="222.65625"/>
     </g>
    </g>
   </g>
   <g id="text_26">
    <g id="patch_28">
     <path d="M 269.25296 129.191221 
L 291.303888 147.448441 
Q 293.61465 149.361653 295.527862 147.050891 
L 301.699962 139.596276 
Q 303.613174 137.285514 301.302412 135.372302 
L 279.251484 117.115082 
Q 276.940721 115.20187 275.02751 117.512632 
L 268.855409 124.967247 
Q 266.942198 127.278009 269.25296 129.191221 
z
" clip-path="url(#p4611655ef9)" style="fill: #ffffff; stroke: #ffffff; stroke-linejoin: miter"/>
    </g>
    <g clip-path="url(#p4611655ef9)">
     <!-- 0.938 -->
     <g transform="translate(272.492466 125.278571) rotate(-320.376705) scale(0.1 -0.1)">
      <use xlink:href="#DejaVuSans-30"/>
      <use xlink:href="#DejaVuSans-2e" x="63.623047"/>
      <use xlink:href="#DejaVuSans-39" x="95.410156"/>
      <use xlink:href="#DejaVuSans-33" x="159.033203"/>
      <use xlink:href="#DejaVuSans-38" x="222.65625"/>
     </g>
    </g>
   </g>
   <g id="text_27">
    <g id="patch_29">
     <path d="M 249.769202 178.421676 
L 249.769202 200.687301 
Q 249.769202 203.687301 252.769202 203.687301 
L 262.447327 203.687301 
Q 265.447327 203.687301 265.447327 200.687301 
L 265.447327 178.421676 
Q 265.447327 175.421676 262.447327 175.421676 
L 252.769202 175.421676 
Q 249.769202 175.421676 249.769202 178.421676 
z
" clip-path="url(#p4611655ef9)" style="fill: #ffffff; stroke: #ffffff; stroke-linejoin: miter"/>
    </g>
    <g clip-path="url(#p4611655ef9)">
     <!-- 0.86 -->
     <g transform="translate(254.848889 178.421676) rotate(-270) scale(0.1 -0.1)">
      <use xlink:href="#DejaVuSans-30"/>
      <use xlink:href="#DejaVuSans-2e" x="63.623047"/>
      <use xlink:href="#DejaVuSans-38" x="95.410156"/>
      <use xlink:href="#DejaVuSans-36" x="159.033203"/>
     </g>
    </g>
   </g>
   <g id="text_28">
    <g id="patch_30">
     <path d="M 249.769202 232.513153 
L 249.769202 261.141278 
Q 249.769202 264.141278 252.769202 264.141278 
L 262.447327 264.141278 
Q 265.447327 264.141278 265.447327 261.141278 
L 265.447327 232.513153 
Q 265.447327 229.513153 262.447327 229.513153 
L 252.769202 229.513153 
Q 249.769202 229.513153 249.769202 232.513153 
z
" clip-path="url(#p4611655ef9)" style="fill: #ffffff; stroke: #ffffff; stroke-linejoin: miter"/>
    </g>
    <g clip-path="url(#p4611655ef9)">
     <!-- 0.889 -->
     <g transform="translate(254.848889 232.513153) rotate(-270) scale(0.1 -0.1)">
      <use xlink:href="#DejaVuSans-30"/>
      <use xlink:href="#DejaVuSans-2e" x="63.623047"/>
      <use xlink:href="#DejaVuSans-38" x="95.410156"/>
      <use xlink:href="#DejaVuSans-38" x="159.033203"/>
      <use xlink:href="#DejaVuSans-39" x="222.65625"/>
     </g>
    </g>
   </g>
   <g id="text_29">
    <g id="patch_31">
     <path d="M 279.251484 204.721168 
L 301.302412 186.463948 
Q 303.613174 184.550736 301.699962 182.239974 
L 295.527862 174.785359 
Q 293.61465 172.474597 291.303888 174.387809 
L 269.25296 192.645029 
Q 266.942198 194.558241 268.855409 196.869003 
L 275.02751 204.323618 
Q 276.940721 206.63438 279.251484 204.721168 
z
" clip-path="url(#p4611655ef9)" style="fill: #ffffff; stroke: #ffffff; stroke-linejoin: miter"/>
    </g>
    <g clip-path="url(#p4611655ef9)">
     <!-- 0.883 -->
     <g transform="translate(276.011978 200.808519) rotate(-39.623295) scale(0.1 -0.1)">
      <use xlink:href="#DejaVuSans-30"/>
      <use xlink:href="#DejaVuSans-2e" x="63.623047"/>
      <use xlink:href="#DejaVuSans-38" x="95.410156"/>
      <use xlink:href="#DejaVuSans-38" x="159.033203"/>
      <use xlink:href="#DejaVuSans-33" x="222.65625"/>
     </g>
    </g>
   </g>
   <g id="text_30">
    <g id="patch_32">
     <path d="M 28.41383 60.694972 
L 28.41383 89.323097 
Q 28.41383 92.323097 31.41383 92.323097 
L 41.091955 92.323097 
Q 44.091955 92.323097 44.091955 89.323097 
L 44.091955 60.694972 
Q 44.091955 57.694972 41.091955 57.694972 
L 31.41383 57.694972 
Q 28.41383 57.694972 28.41383 60.694972 
z
" clip-path="url(#p4611655ef9)" style="fill: #ffffff; stroke: #ffffff; stroke-linejoin: miter"/>
    </g>
    <g clip-path="url(#p4611655ef9)">
     <!-- 0.847 -->
     <g transform="translate(33.493518 60.694972) rotate(-270) scale(0.1 -0.1)">
      <use xlink:href="#DejaVuSans-30"/>
      <use xlink:href="#DejaVuSans-2e" x="63.623047"/>
      <use xlink:href="#DejaVuSans-38" x="95.410156"/>
      <use xlink:href="#DejaVuSans-34" x="159.033203"/>
      <use xlink:href="#DejaVuSans-37" x="222.65625"/>
     </g>
    </g>
   </g>
   <g id="text_31">
    <g id="patch_33">
     <path d="M 47.897588 71.918493 
L 69.948516 90.175714 
Q 72.259279 92.088925 74.17249 89.778163 
L 80.344591 82.323549 
Q 82.257802 80.012786 79.94704 78.099575 
L 57.896112 59.842354 
Q 55.58535 57.929143 53.672138 60.239905 
L 47.500038 67.69452 
Q 45.586826 70.005282 47.897588 71.918493 
z
" clip-path="url(#p4611655ef9)" style="fill: #ffffff; stroke: #ffffff; stroke-linejoin: miter"/>
    </g>
    <g clip-path="url(#p4611655ef9)">
     <!-- 0.954 -->
     <g transform="translate(51.137094 68.005844) rotate(-320.376705) scale(0.1 -0.1)">
      <use xlink:href="#DejaVuSans-30"/>
      <use xlink:href="#DejaVuSans-2e" x="63.623047"/>
      <use xlink:href="#DejaVuSans-39" x="95.410156"/>
      <use xlink:href="#DejaVuSans-35" x="159.033203"/>
      <use xlink:href="#DejaVuSans-34" x="222.65625"/>
     </g>
    </g>
   </g>
   <g id="text_32">
    <g id="patch_34">
     <path d="M 49.608252 54.211733 
L 78.236377 54.211733 
Q 81.236377 54.211733 81.236377 51.211733 
L 81.236377 41.533608 
Q 81.236377 38.533608 78.236377 38.533608 
L 49.608252 38.533608 
Q 46.608252 38.533608 46.608252 41.533608 
L 46.608252 51.211733 
Q 46.608252 54.211733 49.608252 54.211733 
z
" clip-path="url(#p4611655ef9)" style="fill: #ffffff; stroke: #ffffff; stroke-linejoin: miter"/>
    </g>
    <g clip-path="url(#p4611655ef9)">
     <!-- 0.811 -->
     <g transform="translate(49.608252 49.132045) scale(0.1 -0.1)">
      <use xlink:href="#DejaVuSans-30"/>
      <use xlink:href="#DejaVuSans-2e" x="63.623047"/>
      <use xlink:href="#DejaVuSans-38" x="95.410156"/>
      <use xlink:href="#DejaVuSans-31" x="159.033203"/>
      <use xlink:href="#DejaVuSans-31" x="222.65625"/>
     </g>
    </g>
   </g>
   <g id="text_33">
    <g id="patch_35">
     <path d="M 28.41383 117.967699 
L 28.41383 146.595824 
Q 28.41383 149.595824 31.41383 149.595824 
L 41.091955 149.595824 
Q 44.091955 149.595824 44.091955 146.595824 
L 44.091955 117.967699 
Q 44.091955 114.967699 41.091955 114.967699 
L 31.41383 114.967699 
Q 28.41383 114.967699 28.41383 117.967699 
z
" clip-path="url(#p4611655ef9)" style="fill: #ffffff; stroke: #ffffff; stroke-linejoin: miter"/>
    </g>
    <g clip-path="url(#p4611655ef9)">
     <!-- 0.882 -->
     <g transform="translate(33.493518 117.967699) rotate(-270) scale(0.1 -0.1)">
      <use xlink:href="#DejaVuSans-30"/>
      <use xlink:href="#DejaVuSans-2e" x="63.623047"/>
      <use xlink:href="#DejaVuSans-38" x="95.410156"/>
      <use xlink:href="#DejaVuSans-38" x="159.033203"/>
      <use xlink:href="#DejaVuSans-32" x="222.65625"/>
     </g>
    </g>
   </g>
   <g id="text_34">
    <g id="patch_36">
     <path d="M 57.896112 147.448441 
L 79.94704 129.191221 
Q 82.257802 127.278009 80.344591 124.967247 
L 74.17249 117.512632 
Q 72.259279 115.20187 69.948516 117.115082 
L 47.897588 135.372302 
Q 45.586826 137.285514 47.500038 139.596276 
L 53.672138 147.050891 
Q 55.58535 149.361653 57.896112 147.448441 
z
" clip-path="url(#p4611655ef9)" style="fill: #ffffff; stroke: #ffffff; stroke-linejoin: miter"/>
    </g>
    <g clip-path="url(#p4611655ef9)">
     <!-- 0.842 -->
     <g transform="translate(54.656606 143.535791) rotate(-39.623295) scale(0.1 -0.1)">
      <use xlink:href="#DejaVuSans-30"/>
      <use xlink:href="#DejaVuSans-2e" x="63.623047"/>
      <use xlink:href="#DejaVuSans-38" x="95.410156"/>
      <use xlink:href="#DejaVuSans-34" x="159.033203"/>
      <use xlink:href="#DejaVuSans-32" x="222.65625"/>
     </g>
    </g>
   </g>
   <g id="text_35">
    <g id="patch_37">
     <path d="M 113.234955 90.175714 
L 135.285883 71.918493 
Q 137.596645 70.005282 135.683434 67.69452 
L 129.511333 60.239905 
Q 127.598122 57.929143 125.287359 59.842354 
L 103.236431 78.099575 
Q 100.925669 80.012786 102.838881 82.323549 
L 109.010981 89.778163 
Q 110.924193 92.088925 113.234955 90.175714 
z
" clip-path="url(#p4611655ef9)" style="fill: #ffffff; stroke: #ffffff; stroke-linejoin: miter"/>
    </g>
    <g clip-path="url(#p4611655ef9)">
     <!-- 0.847 -->
     <g transform="translate(109.995449 86.263064) rotate(-39.623295) scale(0.1 -0.1)">
      <use xlink:href="#DejaVuSans-30"/>
      <use xlink:href="#DejaVuSans-2e" x="63.623047"/>
      <use xlink:href="#DejaVuSans-38" x="95.410156"/>
      <use xlink:href="#DejaVuSans-34" x="159.033203"/>
      <use xlink:href="#DejaVuSans-37" x="222.65625"/>
     </g>
    </g>
   </g>
   <g id="text_36">
    <g id="patch_38">
     <path d="M 104.947095 54.211733 
L 133.57522 54.211733 
Q 136.57522 54.211733 136.57522 51.211733 
L 136.57522 41.533608 
Q 136.57522 38.533608 133.57522 38.533608 
L 104.947095 38.533608 
Q 101.947095 38.533608 101.947095 41.533608 
L 101.947095 51.211733 
Q 101.947095 54.211733 104.947095 54.211733 
z
" clip-path="url(#p4611655ef9)" style="fill: #ffffff; stroke: #ffffff; stroke-linejoin: miter"/>
    </g>
    <g clip-path="url(#p4611655ef9)">
     <!-- 0.907 -->
     <g transform="translate(104.947095 49.132045) scale(0.1 -0.1)">
      <use xlink:href="#DejaVuSans-30"/>
      <use xlink:href="#DejaVuSans-2e" x="63.623047"/>
      <use xlink:href="#DejaVuSans-39" x="95.410156"/>
      <use xlink:href="#DejaVuSans-30" x="159.033203"/>
      <use xlink:href="#DejaVuSans-37" x="222.65625"/>
     </g>
    </g>
   </g>
   <g id="text_37">
    <g id="patch_39">
     <path d="M 28.41383 175.240426 
L 28.41383 203.868551 
Q 28.41383 206.868551 31.41383 206.868551 
L 41.091955 206.868551 
Q 44.091955 206.868551 44.091955 203.868551 
L 44.091955 175.240426 
Q 44.091955 172.240426 41.091955 172.240426 
L 31.41383 172.240426 
Q 28.41383 172.240426 28.41383 175.240426 
z
" clip-path="url(#p4611655ef9)" style="fill: #ffffff; stroke: #ffffff; stroke-linejoin: miter"/>
    </g>
    <g clip-path="url(#p4611655ef9)">
     <!-- 0.956 -->
     <g transform="translate(33.493518 175.240426) rotate(-270) scale(0.1 -0.1)">
      <use xlink:href="#DejaVuSans-30"/>
      <use xlink:href="#DejaVuSans-2e" x="63.623047"/>
      <use xlink:href="#DejaVuSans-39" x="95.410156"/>
      <use xlink:href="#DejaVuSans-35" x="159.033203"/>
      <use xlink:href="#DejaVuSans-36" x="222.65625"/>
     </g>
    </g>
   </g>
   <g id="text_38">
    <g id="patch_40">
     <path d="M 28.41383 232.513153 
L 28.41383 261.141278 
Q 28.41383 264.141278 31.41383 264.141278 
L 41.091955 264.141278 
Q 44.091955 264.141278 44.091955 261.141278 
L 44.091955 232.513153 
Q 44.091955 229.513153 41.091955 229.513153 
L 31.41383 229.513153 
Q 28.41383 229.513153 28.41383 232.513153 
z
" clip-path="url(#p4611655ef9)" style="fill: #ffffff; stroke: #ffffff; stroke-linejoin: miter"/>
    </g>
    <g clip-path="url(#p4611655ef9)">
     <!-- 0.865 -->
     <g transform="translate(33.493518 232.513153) rotate(-270) scale(0.1 -0.1)">
      <use xlink:href="#DejaVuSans-30"/>
      <use xlink:href="#DejaVuSans-2e" x="63.623047"/>
      <use xlink:href="#DejaVuSans-38" x="95.410156"/>
      <use xlink:href="#DejaVuSans-36" x="159.033203"/>
      <use xlink:href="#DejaVuSans-35" x="222.65625"/>
     </g>
    </g>
   </g>
   <g id="text_39">
    <g id="patch_41">
     <path d="M 163.467187 283.302642 
L 185.732812 283.302642 
Q 188.732812 283.302642 188.732812 280.302642 
L 188.732812 270.624517 
Q 188.732812 267.624517 185.732812 267.624517 
L 163.467187 267.624517 
Q 160.467187 267.624517 160.467187 270.624517 
L 160.467187 280.302642 
Q 160.467187 283.302642 163.467187 283.302642 
z
" clip-path="url(#p4611655ef9)" style="fill: #ffffff; stroke: #ffffff; stroke-linejoin: miter"/>
    </g>
    <g clip-path="url(#p4611655ef9)">
     <!-- 0.81 -->
     <g transform="translate(163.467187 278.222955) scale(0.1 -0.1)">
      <use xlink:href="#DejaVuSans-30"/>
      <use xlink:href="#DejaVuSans-2e" x="63.623047"/>
      <use xlink:href="#DejaVuSans-38" x="95.410156"/>
      <use xlink:href="#DejaVuSans-31" x="159.033203"/>
     </g>
    </g>
   </g>
   <g id="text_40">
    <g id="patch_42">
     <path d="M 215.62478 283.302642 
L 244.252905 283.302642 
Q 247.252905 283.302642 247.252905 280.302642 
L 247.252905 270.624517 
Q 247.252905 267.624517 244.252905 267.624517 
L 215.62478 267.624517 
Q 212.62478 267.624517 212.62478 270.624517 
L 212.62478 280.302642 
Q 212.62478 283.302642 215.62478 283.302642 
z
" clip-path="url(#p4611655ef9)" style="fill: #ffffff; stroke: #ffffff; stroke-linejoin: miter"/>
    </g>
    <g clip-path="url(#p4611655ef9)">
     <!-- 0.866 -->
     <g transform="translate(215.62478 278.222955) scale(0.1 -0.1)">
      <use xlink:href="#DejaVuSans-30"/>
      <use xlink:href="#DejaVuSans-2e" x="63.623047"/>
      <use xlink:href="#DejaVuSans-38" x="95.410156"/>
      <use xlink:href="#DejaVuSans-36" x="159.033203"/>
      <use xlink:href="#DejaVuSans-36" x="222.65625"/>
     </g>
    </g>
   </g>
   <g id="text_41">
    <g id="patch_43">
     <path d="M 279.251484 261.993896 
L 301.302412 243.736675 
Q 303.613174 241.823464 301.699962 239.512701 
L 295.527862 232.058087 
Q 293.61465 229.747325 291.303888 231.660536 
L 269.25296 249.917757 
Q 266.942198 251.830968 268.855409 254.14173 
L 275.02751 261.596345 
Q 276.940721 263.907107 279.251484 261.993896 
z
" clip-path="url(#p4611655ef9)" style="fill: #ffffff; stroke: #ffffff; stroke-linejoin: miter"/>
    </g>
    <g clip-path="url(#p4611655ef9)">
     <!-- 0.882 -->
     <g transform="translate(276.011978 258.081246) rotate(-39.623295) scale(0.1 -0.1)">
      <use xlink:href="#DejaVuSans-30"/>
      <use xlink:href="#DejaVuSans-2e" x="63.623047"/>
      <use xlink:href="#DejaVuSans-38" x="95.410156"/>
      <use xlink:href="#DejaVuSans-38" x="159.033203"/>
      <use xlink:href="#DejaVuSans-32" x="222.65625"/>
     </g>
    </g>
   </g>
   <g id="text_42">
    <g id="patch_44">
     <path d="M 270.963623 283.302642 
L 299.591748 283.302642 
Q 302.591748 283.302642 302.591748 280.302642 
L 302.591748 270.624517 
Q 302.591748 267.624517 299.591748 267.624517 
L 270.963623 267.624517 
Q 267.963623 267.624517 267.963623 270.624517 
L 267.963623 280.302642 
Q 267.963623 283.302642 270.963623 283.302642 
z
" clip-path="url(#p4611655ef9)" style="fill: #ffffff; stroke: #ffffff; stroke-linejoin: miter"/>
    </g>
    <g clip-path="url(#p4611655ef9)">
     <!-- 0.894 -->
     <g transform="translate(270.963623 278.222955) scale(0.1 -0.1)">
      <use xlink:href="#DejaVuSans-30"/>
      <use xlink:href="#DejaVuSans-2e" x="63.623047"/>
      <use xlink:href="#DejaVuSans-38" x="95.410156"/>
      <use xlink:href="#DejaVuSans-39" x="159.033203"/>
      <use xlink:href="#DejaVuSans-34" x="222.65625"/>
     </g>
    </g>
   </g>
   <g id="text_43">
    <g id="patch_45">
     <path d="M 270.963623 54.211733 
L 299.591748 54.211733 
Q 302.591748 54.211733 302.591748 51.211733 
L 302.591748 41.533608 
Q 302.591748 38.533608 299.591748 38.533608 
L 270.963623 38.533608 
Q 267.963623 38.533608 267.963623 41.533608 
L 267.963623 51.211733 
Q 267.963623 54.211733 270.963623 54.211733 
z
" clip-path="url(#p4611655ef9)" style="fill: #ffffff; stroke: #ffffff; stroke-linejoin: miter"/>
    </g>
    <g clip-path="url(#p4611655ef9)">
     <!-- 0.923 -->
     <g transform="translate(270.963623 49.132045) scale(0.1 -0.1)">
      <use xlink:href="#DejaVuSans-30"/>
      <use xlink:href="#DejaVuSans-2e" x="63.623047"/>
      <use xlink:href="#DejaVuSans-39" x="95.410156"/>
      <use xlink:href="#DejaVuSans-32" x="159.033203"/>
      <use xlink:href="#DejaVuSans-33" x="222.65625"/>
     </g>
    </g>
   </g>
   <g id="text_44">
    <g id="patch_46">
     <path d="M 305.108045 60.694972 
L 305.108045 89.323097 
Q 305.108045 92.323097 308.108045 92.323097 
L 317.78617 92.323097 
Q 320.78617 92.323097 320.78617 89.323097 
L 320.78617 60.694972 
Q 320.78617 57.694972 317.78617 57.694972 
L 308.108045 57.694972 
Q 305.108045 57.694972 305.108045 60.694972 
z
" clip-path="url(#p4611655ef9)" style="fill: #ffffff; stroke: #ffffff; stroke-linejoin: miter"/>
    </g>
    <g clip-path="url(#p4611655ef9)">
     <!-- 0.916 -->
     <g transform="translate(310.187732 60.694972) rotate(-270) scale(0.1 -0.1)">
      <use xlink:href="#DejaVuSans-30"/>
      <use xlink:href="#DejaVuSans-2e" x="63.623047"/>
      <use xlink:href="#DejaVuSans-39" x="95.410156"/>
      <use xlink:href="#DejaVuSans-31" x="159.033203"/>
      <use xlink:href="#DejaVuSans-36" x="222.65625"/>
     </g>
    </g>
   </g>
   <g id="text_45">
    <g id="patch_47">
     <path d="M 320.78617 203.868551 
L 320.78617 175.240426 
Q 320.78617 172.240426 317.78617 172.240426 
L 308.108045 172.240426 
Q 305.108045 172.240426 305.108045 175.240426 
L 305.108045 203.868551 
Q 305.108045 206.868551 308.108045 206.868551 
L 317.78617 206.868551 
Q 320.78617 206.868551 320.78617 203.868551 
z
" clip-path="url(#p4611655ef9)" style="fill: #ffffff; stroke: #ffffff; stroke-linejoin: miter"/>
    </g>
    <g clip-path="url(#p4611655ef9)">
     <!-- 0.887 -->
     <g transform="translate(315.706482 203.868551) rotate(-90) scale(0.1 -0.1)">
      <use xlink:href="#DejaVuSans-30"/>
      <use xlink:href="#DejaVuSans-2e" x="63.623047"/>
      <use xlink:href="#DejaVuSans-38" x="95.410156"/>
      <use xlink:href="#DejaVuSans-38" x="159.033203"/>
      <use xlink:href="#DejaVuSans-37" x="222.65625"/>
     </g>
    </g>
   </g>
   <g id="text_46">
    <g id="patch_48">
     <path d="M 305.108045 232.513153 
L 305.108045 261.141278 
Q 305.108045 264.141278 308.108045 264.141278 
L 317.78617 264.141278 
Q 320.78617 264.141278 320.78617 261.141278 
L 320.78617 232.513153 
Q 320.78617 229.513153 317.78617 229.513153 
L 308.108045 229.513153 
Q 305.108045 229.513153 305.108045 232.513153 
z
" clip-path="url(#p4611655ef9)" style="fill: #ffffff; stroke: #ffffff; stroke-linejoin: miter"/>
    </g>
    <g clip-path="url(#p4611655ef9)">
     <!-- 0.911 -->
     <g transform="translate(310.187732 232.513153) rotate(-270) scale(0.1 -0.1)">
      <use xlink:href="#DejaVuSans-30"/>
      <use xlink:href="#DejaVuSans-2e" x="63.623047"/>
      <use xlink:href="#DejaVuSans-39" x="95.410156"/>
      <use xlink:href="#DejaVuSans-31" x="159.033203"/>
      <use xlink:href="#DejaVuSans-31" x="222.65625"/>
     </g>
    </g>
   </g>
   <g id="text_47">
    <g id="patch_49">
     <path d="M 305.108045 117.967699 
L 305.108045 146.595824 
Q 305.108045 149.595824 308.108045 149.595824 
L 317.78617 149.595824 
Q 320.78617 149.595824 320.78617 146.595824 
L 320.78617 117.967699 
Q 320.78617 114.967699 317.78617 114.967699 
L 308.108045 114.967699 
Q 305.108045 114.967699 305.108045 117.967699 
z
" clip-path="url(#p4611655ef9)" style="fill: #ffffff; stroke: #ffffff; stroke-linejoin: miter"/>
    </g>
    <g clip-path="url(#p4611655ef9)">
     <!-- 0.903 -->
     <g transform="translate(310.187732 117.967699) rotate(-270) scale(0.1 -0.1)">
      <use xlink:href="#DejaVuSans-30"/>
      <use xlink:href="#DejaVuSans-2e" x="63.623047"/>
      <use xlink:href="#DejaVuSans-39" x="95.410156"/>
      <use xlink:href="#DejaVuSans-30" x="159.033203"/>
      <use xlink:href="#DejaVuSans-33" x="222.65625"/>
     </g>
    </g>
   </g>
   <g id="LineCollection_1">
    <path d="M 91.591736 160.918125 
L 91.591736 218.190852 
" clip-path="url(#p4611655ef9)" style="fill: none; stroke: #000000; stroke-opacity: 0.6"/>
    <path d="M 91.591736 160.918125 
L 146.930579 160.918125 
" clip-path="url(#p4611655ef9)" style="fill: none; stroke: #000000; stroke-opacity: 0.6"/>
    <path d="M 91.591736 160.918125 
L 146.930579 103.645398 
" clip-path="url(#p4611655ef9)" style="fill: none; stroke: #000000; stroke-opacity: 0.6"/>
    <path d="M 91.591736 160.918125 
L 36.252893 160.918125 
" clip-path="url(#p4611655ef9)" style="fill: none; stroke: #000000; stroke-opacity: 0.6"/>
    <path d="M 91.591736 218.190852 
L 146.930579 218.190852 
" clip-path="url(#p4611655ef9)" style="fill: none; stroke: #000000; stroke-opacity: 0.6"/>
    <path d="M 91.591736 218.190852 
L 36.252893 160.918125 
" clip-path="url(#p4611655ef9)" style="fill: none; stroke: #000000; stroke-opacity: 0.6"/>
    <path d="M 91.591736 218.190852 
L 91.591736 275.46358 
" clip-path="url(#p4611655ef9)" style="fill: none; stroke: #000000; stroke-opacity: 0.6"/>
    <path d="M 91.591736 218.190852 
L 146.930579 275.46358 
" clip-path="url(#p4611655ef9)" style="fill: none; stroke: #000000; stroke-opacity: 0.6"/>
    <path d="M 146.930579 160.918125 
L 202.269421 160.918125 
" clip-path="url(#p4611655ef9)" style="fill: none; stroke: #000000; stroke-opacity: 0.6"/>
    <path d="M 146.930579 218.190852 
L 202.269421 160.918125 
" clip-path="url(#p4611655ef9)" style="fill: none; stroke: #000000; stroke-opacity: 0.6"/>
    <path d="M 146.930579 218.190852 
L 202.269421 218.190852 
" clip-path="url(#p4611655ef9)" style="fill: none; stroke: #000000; stroke-opacity: 0.6"/>
    <path d="M 146.930579 218.190852 
L 146.930579 275.46358 
" clip-path="url(#p4611655ef9)" style="fill: none; stroke: #000000; stroke-opacity: 0.6"/>
    <path d="M 146.930579 103.645398 
L 202.269421 160.918125 
" clip-path="url(#p4611655ef9)" style="fill: none; stroke: #000000; stroke-opacity: 0.6"/>
    <path d="M 146.930579 103.645398 
L 202.269421 103.645398 
" clip-path="url(#p4611655ef9)" style="fill: none; stroke: #000000; stroke-opacity: 0.6"/>
    <path d="M 202.269421 160.918125 
L 202.269421 103.645398 
" clip-path="url(#p4611655ef9)" style="fill: none; stroke: #000000; stroke-opacity: 0.6"/>
    <path d="M 202.269421 160.918125 
L 202.269421 218.190852 
" clip-path="url(#p4611655ef9)" style="fill: none; stroke: #000000; stroke-opacity: 0.6"/>
    <path d="M 202.269421 160.918125 
L 257.608264 103.645398 
" clip-path="url(#p4611655ef9)" style="fill: none; stroke: #000000; stroke-opacity: 0.6"/>
    <path d="M 202.269421 160.918125 
L 257.608264 160.918125 
" clip-path="url(#p4611655ef9)" style="fill: none; stroke: #000000; stroke-opacity: 0.6"/>
    <path d="M 202.269421 218.190852 
L 257.608264 160.918125 
" clip-path="url(#p4611655ef9)" style="fill: none; stroke: #000000; stroke-opacity: 0.6"/>
    <path d="M 202.269421 218.190852 
L 257.608264 275.46358 
" clip-path="url(#p4611655ef9)" style="fill: none; stroke: #000000; stroke-opacity: 0.6"/>
    <path d="M 202.269421 46.37267 
L 202.269421 103.645398 
" clip-path="url(#p4611655ef9)" style="fill: none; stroke: #000000; stroke-opacity: 0.6"/>
    <path d="M 202.269421 103.645398 
L 257.608264 103.645398 
" clip-path="url(#p4611655ef9)" style="fill: none; stroke: #000000; stroke-opacity: 0.6"/>
    <path d="M 202.269421 103.645398 
L 146.930579 46.37267 
" clip-path="url(#p4611655ef9)" style="fill: none; stroke: #000000; stroke-opacity: 0.6"/>
    <path d="M 202.269421 103.645398 
L 257.608264 46.37267 
" clip-path="url(#p4611655ef9)" style="fill: none; stroke: #000000; stroke-opacity: 0.6"/>
    <path d="M 257.608264 103.645398 
L 257.608264 160.918125 
" clip-path="url(#p4611655ef9)" style="fill: none; stroke: #000000; stroke-opacity: 0.6"/>
    <path d="M 257.608264 103.645398 
L 312.947107 160.918125 
" clip-path="url(#p4611655ef9)" style="fill: none; stroke: #000000; stroke-opacity: 0.6"/>
    <path d="M 257.608264 160.918125 
L 257.608264 218.190852 
" clip-path="url(#p4611655ef9)" style="fill: none; stroke: #000000; stroke-opacity: 0.6"/>
    <path d="M 257.608264 218.190852 
L 257.608264 275.46358 
" clip-path="url(#p4611655ef9)" style="fill: none; stroke: #000000; stroke-opacity: 0.6"/>
    <path d="M 257.608264 218.190852 
L 312.947107 160.918125 
" clip-path="url(#p4611655ef9)" style="fill: none; stroke: #000000; stroke-opacity: 0.6"/>
    <path d="M 36.252893 46.37267 
L 36.252893 103.645398 
" clip-path="url(#p4611655ef9)" style="fill: none; stroke: #000000; stroke-opacity: 0.6"/>
    <path d="M 36.252893 46.37267 
L 91.591736 103.645398 
" clip-path="url(#p4611655ef9)" style="fill: none; stroke: #000000; stroke-opacity: 0.6"/>
    <path d="M 36.252893 46.37267 
L 91.591736 46.37267 
" clip-path="url(#p4611655ef9)" style="fill: none; stroke: #000000; stroke-opacity: 0.6"/>
    <path d="M 36.252893 103.645398 
L 36.252893 160.918125 
" clip-path="url(#p4611655ef9)" style="fill: none; stroke: #000000; stroke-opacity: 0.6"/>
    <path d="M 91.591736 103.645398 
L 36.252893 160.918125 
" clip-path="url(#p4611655ef9)" style="fill: none; stroke: #000000; stroke-opacity: 0.6"/>
    <path d="M 91.591736 103.645398 
L 146.930579 46.37267 
" clip-path="url(#p4611655ef9)" style="fill: none; stroke: #000000; stroke-opacity: 0.6"/>
    <path d="M 91.591736 46.37267 
L 146.930579 46.37267 
" clip-path="url(#p4611655ef9)" style="fill: none; stroke: #000000; stroke-opacity: 0.6"/>
    <path d="M 36.252893 160.918125 
L 36.252893 218.190852 
" clip-path="url(#p4611655ef9)" style="fill: none; stroke: #000000; stroke-opacity: 0.6"/>
    <path d="M 36.252893 218.190852 
L 36.252893 275.46358 
" clip-path="url(#p4611655ef9)" style="fill: none; stroke: #000000; stroke-opacity: 0.6"/>
    <path d="M 146.930579 275.46358 
L 202.269421 275.46358 
" clip-path="url(#p4611655ef9)" style="fill: none; stroke: #000000; stroke-opacity: 0.6"/>
    <path d="M 202.269421 275.46358 
L 257.608264 275.46358 
" clip-path="url(#p4611655ef9)" style="fill: none; stroke: #000000; stroke-opacity: 0.6"/>
    <path d="M 257.608264 275.46358 
L 312.947107 218.190852 
" clip-path="url(#p4611655ef9)" style="fill: none; stroke: #000000; stroke-opacity: 0.6"/>
    <path d="M 257.608264 275.46358 
L 312.947107 275.46358 
" clip-path="url(#p4611655ef9)" style="fill: none; stroke: #000000; stroke-opacity: 0.6"/>
    <path d="M 257.608264 46.37267 
L 312.947107 46.37267 
" clip-path="url(#p4611655ef9)" style="fill: none; stroke: #000000; stroke-opacity: 0.6"/>
    <path d="M 312.947107 46.37267 
L 312.947107 103.645398 
" clip-path="url(#p4611655ef9)" style="fill: none; stroke: #000000; stroke-opacity: 0.6"/>
    <path d="M 312.947107 218.190852 
L 312.947107 160.918125 
" clip-path="url(#p4611655ef9)" style="fill: none; stroke: #000000; stroke-opacity: 0.6"/>
    <path d="M 312.947107 218.190852 
L 312.947107 275.46358 
" clip-path="url(#p4611655ef9)" style="fill: none; stroke: #000000; stroke-opacity: 0.6"/>
    <path d="M 312.947107 103.645398 
L 312.947107 160.918125 
" clip-path="url(#p4611655ef9)" style="fill: none; stroke: #000000; stroke-opacity: 0.6"/>
   </g>
   <g id="matplotlib.axis_1">
    <g id="xtick_1"/>
    <g id="xtick_2"/>
    <g id="xtick_3"/>
    <g id="xtick_4"/>
    <g id="xtick_5"/>
    <g id="xtick_6"/>
   </g>
   <g id="matplotlib.axis_2">
    <g id="ytick_1"/>
    <g id="ytick_2"/>
    <g id="ytick_3"/>
    <g id="ytick_4"/>
    <g id="ytick_5"/>
   </g>
   <g id="PathCollection_1">
    <defs>
     <path id="mee8d12d672" d="M 0 11.18034 
C 2.965061 11.18034 5.80908 10.002309 7.905694 7.905694 
C 10.002309 5.80908 11.18034 2.965061 11.18034 0 
C 11.18034 -2.965061 10.002309 -5.80908 7.905694 -7.905694 
C 5.80908 -10.002309 2.965061 -11.18034 0 -11.18034 
C -2.965061 -11.18034 -5.80908 -10.002309 -7.905694 -7.905694 
C -10.002309 -5.80908 -11.18034 -2.965061 -11.18034 0 
C -11.18034 2.965061 -10.002309 5.80908 -7.905694 7.905694 
C -5.80908 10.002309 -2.965061 11.18034 0 11.18034 
z
" style="stroke: #1f78b4"/>
    </defs>
    <g clip-path="url(#p4611655ef9)">
     <use xlink:href="#mee8d12d672" x="91.591736" y="160.918125" style="fill: #1f78b4; stroke: #1f78b4"/>
     <use xlink:href="#mee8d12d672" x="91.591736" y="218.190852" style="fill: #1f78b4; stroke: #1f78b4"/>
     <use xlink:href="#mee8d12d672" x="146.930579" y="160.918125" style="fill: #1f78b4; stroke: #1f78b4"/>
     <use xlink:href="#mee8d12d672" x="146.930579" y="218.190852" style="fill: #1f78b4; stroke: #1f78b4"/>
     <use xlink:href="#mee8d12d672" x="146.930579" y="103.645398" style="fill: #1f78b4; stroke: #1f78b4"/>
     <use xlink:href="#mee8d12d672" x="202.269421" y="160.918125" style="fill: #1f78b4; stroke: #1f78b4"/>
     <use xlink:href="#mee8d12d672" x="202.269421" y="218.190852" style="fill: #1f78b4; stroke: #1f78b4"/>
     <use xlink:href="#mee8d12d672" x="202.269421" y="46.37267" style="fill: #1f78b4; stroke: #1f78b4"/>
     <use xlink:href="#mee8d12d672" x="202.269421" y="103.645398" style="fill: #1f78b4; stroke: #1f78b4"/>
     <use xlink:href="#mee8d12d672" x="257.608264" y="103.645398" style="fill: #1f78b4; stroke: #1f78b4"/>
     <use xlink:href="#mee8d12d672" x="257.608264" y="160.918125" style="fill: #1f78b4; stroke: #1f78b4"/>
     <use xlink:href="#mee8d12d672" x="257.608264" y="218.190852" style="fill: #1f78b4; stroke: #1f78b4"/>
     <use xlink:href="#mee8d12d672" x="36.252893" y="46.37267" style="fill: #1f78b4; stroke: #1f78b4"/>
     <use xlink:href="#mee8d12d672" x="36.252893" y="103.645398" style="fill: #1f78b4; stroke: #1f78b4"/>
     <use xlink:href="#mee8d12d672" x="91.591736" y="103.645398" style="fill: #1f78b4; stroke: #1f78b4"/>
     <use xlink:href="#mee8d12d672" x="91.591736" y="46.37267" style="fill: #1f78b4; stroke: #1f78b4"/>
     <use xlink:href="#mee8d12d672" x="36.252893" y="160.918125" style="fill: #1f78b4; stroke: #1f78b4"/>
     <use xlink:href="#mee8d12d672" x="36.252893" y="218.190852" style="fill: #1f78b4; stroke: #1f78b4"/>
     <use xlink:href="#mee8d12d672" x="36.252893" y="275.46358" style="fill: #1f78b4; stroke: #1f78b4"/>
     <use xlink:href="#mee8d12d672" x="146.930579" y="46.37267" style="fill: #1f78b4; stroke: #1f78b4"/>
     <use xlink:href="#mee8d12d672" x="91.591736" y="275.46358" style="fill: #1f78b4; stroke: #1f78b4"/>
     <use xlink:href="#mee8d12d672" x="146.930579" y="275.46358" style="fill: #1f78b4; stroke: #1f78b4"/>
     <use xlink:href="#mee8d12d672" x="202.269421" y="275.46358" style="fill: #1f78b4; stroke: #1f78b4"/>
     <use xlink:href="#mee8d12d672" x="257.608264" y="275.46358" style="fill: #1f78b4; stroke: #1f78b4"/>
     <use xlink:href="#mee8d12d672" x="257.608264" y="46.37267" style="fill: #1f78b4; stroke: #1f78b4"/>
     <use xlink:href="#mee8d12d672" x="312.947107" y="46.37267" style="fill: #1f78b4; stroke: #1f78b4"/>
     <use xlink:href="#mee8d12d672" x="312.947107" y="218.190852" style="fill: #1f78b4; stroke: #1f78b4"/>
     <use xlink:href="#mee8d12d672" x="312.947107" y="275.46358" style="fill: #1f78b4; stroke: #1f78b4"/>
     <use xlink:href="#mee8d12d672" x="312.947107" y="103.645398" style="fill: #1f78b4; stroke: #1f78b4"/>
     <use xlink:href="#mee8d12d672" x="312.947107" y="160.918125" style="fill: #1f78b4; stroke: #1f78b4"/>
    </g>
   </g>
   <g id="text_48">
    <g clip-path="url(#p4611655ef9)">
     <!-- A -->
     <g transform="translate(87.487361 164.229375) scale(0.12 -0.12)">
      <defs>
       <path id="DejaVuSans-41" d="M 2188 4044 
L 1331 1722 
L 3047 1722 
L 2188 4044 
z
M 1831 4666 
L 2547 4666 
L 4325 0 
L 3669 0 
L 3244 1197 
L 1141 1197 
L 716 0 
L 50 0 
L 1831 4666 
z
" transform="scale(0.015625)"/>
      </defs>
      <use xlink:href="#DejaVuSans-41"/>
     </g>
    </g>
   </g>
   <g id="text_49">
    <g clip-path="url(#p4611655ef9)">
     <!-- B -->
     <g transform="translate(87.475173 221.502102) scale(0.12 -0.12)">
      <defs>
       <path id="DejaVuSans-42" d="M 1259 2228 
L 1259 519 
L 2272 519 
Q 2781 519 3026 730 
Q 3272 941 3272 1375 
Q 3272 1813 3026 2020 
Q 2781 2228 2272 2228 
L 1259 2228 
z
M 1259 4147 
L 1259 2741 
L 2194 2741 
Q 2656 2741 2882 2914 
Q 3109 3088 3109 3444 
Q 3109 3797 2882 3972 
Q 2656 4147 2194 4147 
L 1259 4147 
z
M 628 4666 
L 2241 4666 
Q 2963 4666 3353 4366 
Q 3744 4066 3744 3513 
Q 3744 3084 3544 2831 
Q 3344 2578 2956 2516 
Q 3422 2416 3680 2098 
Q 3938 1781 3938 1306 
Q 3938 681 3513 340 
Q 3088 0 2303 0 
L 628 0 
L 628 4666 
z
" transform="scale(0.015625)"/>
      </defs>
      <use xlink:href="#DejaVuSans-42"/>
     </g>
    </g>
   </g>
   <g id="text_50">
    <g clip-path="url(#p4611655ef9)">
     <!-- D -->
     <g transform="translate(142.310579 164.229375) scale(0.12 -0.12)">
      <defs>
       <path id="DejaVuSans-44" d="M 1259 4147 
L 1259 519 
L 2022 519 
Q 2988 519 3436 956 
Q 3884 1394 3884 2338 
Q 3884 3275 3436 3711 
Q 2988 4147 2022 4147 
L 1259 4147 
z
M 628 4666 
L 1925 4666 
Q 3281 4666 3915 4102 
Q 4550 3538 4550 2338 
Q 4550 1131 3912 565 
Q 3275 0 1925 0 
L 628 0 
L 628 4666 
z
" transform="scale(0.015625)"/>
      </defs>
      <use xlink:href="#DejaVuSans-44"/>
     </g>
    </g>
   </g>
   <g id="text_51">
    <g clip-path="url(#p4611655ef9)">
     <!-- E -->
     <g transform="translate(143.139329 221.502102) scale(0.12 -0.12)">
      <defs>
       <path id="DejaVuSans-45" d="M 628 4666 
L 3578 4666 
L 3578 4134 
L 1259 4134 
L 1259 2753 
L 3481 2753 
L 3481 2222 
L 1259 2222 
L 1259 531 
L 3634 531 
L 3634 0 
L 628 0 
L 628 4666 
z
" transform="scale(0.015625)"/>
      </defs>
      <use xlink:href="#DejaVuSans-45"/>
     </g>
    </g>
   </g>
   <g id="text_52">
    <g clip-path="url(#p4611655ef9)">
     <!-- C -->
     <g transform="translate(142.740891 106.956648) scale(0.12 -0.12)">
      <defs>
       <path id="DejaVuSans-43" d="M 4122 4306 
L 4122 3641 
Q 3803 3938 3442 4084 
Q 3081 4231 2675 4231 
Q 1875 4231 1450 3742 
Q 1025 3253 1025 2328 
Q 1025 1406 1450 917 
Q 1875 428 2675 428 
Q 3081 428 3442 575 
Q 3803 722 4122 1019 
L 4122 359 
Q 3791 134 3420 21 
Q 3050 -91 2638 -91 
Q 1578 -91 968 557 
Q 359 1206 359 2328 
Q 359 3453 968 4101 
Q 1578 4750 2638 4750 
Q 3056 4750 3426 4639 
Q 3797 4528 4122 4306 
z
" transform="scale(0.015625)"/>
      </defs>
      <use xlink:href="#DejaVuSans-43"/>
     </g>
    </g>
   </g>
   <g id="text_53">
    <g clip-path="url(#p4611655ef9)">
     <!-- H -->
     <g transform="translate(197.757234 164.229375) scale(0.12 -0.12)">
      <defs>
       <path id="DejaVuSans-48" d="M 628 4666 
L 1259 4666 
L 1259 2753 
L 3553 2753 
L 3553 4666 
L 4184 4666 
L 4184 0 
L 3553 0 
L 3553 2222 
L 1259 2222 
L 1259 0 
L 628 0 
L 628 4666 
z
" transform="scale(0.015625)"/>
      </defs>
      <use xlink:href="#DejaVuSans-48"/>
     </g>
    </g>
   </g>
   <g id="text_54">
    <g clip-path="url(#p4611655ef9)">
     <!-- I -->
     <g transform="translate(200.499421 221.502102) scale(0.12 -0.12)">
      <defs>
       <path id="DejaVuSans-49" d="M 628 4666 
L 1259 4666 
L 1259 0 
L 628 0 
L 628 4666 
z
" transform="scale(0.015625)"/>
      </defs>
      <use xlink:href="#DejaVuSans-49"/>
     </g>
    </g>
   </g>
   <g id="text_55">
    <g clip-path="url(#p4611655ef9)">
     <!-- F -->
     <g transform="translate(198.818484 49.68392) scale(0.12 -0.12)">
      <defs>
       <path id="DejaVuSans-46" d="M 628 4666 
L 3309 4666 
L 3309 4134 
L 1259 4134 
L 1259 2759 
L 3109 2759 
L 3109 2228 
L 1259 2228 
L 1259 0 
L 628 0 
L 628 4666 
z
" transform="scale(0.015625)"/>
      </defs>
      <use xlink:href="#DejaVuSans-46"/>
     </g>
    </g>
   </g>
   <g id="text_56">
    <g clip-path="url(#p4611655ef9)">
     <!-- G -->
     <g transform="translate(197.620359 106.956648) scale(0.12 -0.12)">
      <defs>
       <path id="DejaVuSans-47" d="M 3809 666 
L 3809 1919 
L 2778 1919 
L 2778 2438 
L 4434 2438 
L 4434 434 
Q 4069 175 3628 42 
Q 3188 -91 2688 -91 
Q 1594 -91 976 548 
Q 359 1188 359 2328 
Q 359 3472 976 4111 
Q 1594 4750 2688 4750 
Q 3144 4750 3555 4637 
Q 3966 4525 4313 4306 
L 4313 3634 
Q 3963 3931 3569 4081 
Q 3175 4231 2741 4231 
Q 1884 4231 1454 3753 
Q 1025 3275 1025 2328 
Q 1025 1384 1454 906 
Q 1884 428 2741 428 
Q 3075 428 3337 486 
Q 3600 544 3809 666 
z
" transform="scale(0.015625)"/>
      </defs>
      <use xlink:href="#DejaVuSans-47"/>
     </g>
    </g>
   </g>
   <g id="text_57">
    <g clip-path="url(#p4611655ef9)">
     <!-- J -->
     <g transform="translate(255.838264 106.956648) scale(0.12 -0.12)">
      <defs>
       <path id="DejaVuSans-4a" d="M 628 4666 
L 1259 4666 
L 1259 325 
Q 1259 -519 939 -900 
Q 619 -1281 -91 -1281 
L -331 -1281 
L -331 -750 
L -134 -750 
Q 284 -750 456 -515 
Q 628 -281 628 325 
L 628 4666 
z
" transform="scale(0.015625)"/>
      </defs>
      <use xlink:href="#DejaVuSans-4a"/>
     </g>
    </g>
   </g>
   <g id="text_58">
    <g clip-path="url(#p4611655ef9)">
     <!-- K -->
     <g transform="translate(253.673577 164.229375) scale(0.12 -0.12)">
      <defs>
       <path id="DejaVuSans-4b" d="M 628 4666 
L 1259 4666 
L 1259 2694 
L 3353 4666 
L 4166 4666 
L 1850 2491 
L 4331 0 
L 3500 0 
L 1259 2247 
L 1259 0 
L 628 0 
L 628 4666 
z
" transform="scale(0.015625)"/>
      </defs>
      <use xlink:href="#DejaVuSans-4b"/>
     </g>
    </g>
   </g>
   <g id="text_59">
    <g clip-path="url(#p4611655ef9)">
     <!-- L -->
     <g transform="translate(254.265139 221.502102) scale(0.12 -0.12)">
      <defs>
       <path id="DejaVuSans-4c" d="M 628 4666 
L 1259 4666 
L 1259 531 
L 3531 531 
L 3531 0 
L 628 0 
L 628 4666 
z
" transform="scale(0.015625)"/>
      </defs>
      <use xlink:href="#DejaVuSans-4c"/>
     </g>
    </g>
   </g>
   <g id="text_60">
    <g clip-path="url(#p4611655ef9)">
     <!-- a -->
     <g transform="translate(32.576018 49.68392) scale(0.12 -0.12)">
      <defs>
       <path id="DejaVuSans-61" d="M 2194 1759 
Q 1497 1759 1228 1600 
Q 959 1441 959 1056 
Q 959 750 1161 570 
Q 1363 391 1709 391 
Q 2188 391 2477 730 
Q 2766 1069 2766 1631 
L 2766 1759 
L 2194 1759 
z
M 3341 1997 
L 3341 0 
L 2766 0 
L 2766 531 
Q 2569 213 2275 61 
Q 1981 -91 1556 -91 
Q 1019 -91 701 211 
Q 384 513 384 1019 
Q 384 1609 779 1909 
Q 1175 2209 1959 2209 
L 2766 2209 
L 2766 2266 
Q 2766 2663 2505 2880 
Q 2244 3097 1772 3097 
Q 1472 3097 1187 3025 
Q 903 2953 641 2809 
L 641 3341 
Q 956 3463 1253 3523 
Q 1550 3584 1831 3584 
Q 2591 3584 2966 3190 
Q 3341 2797 3341 1997 
z
" transform="scale(0.015625)"/>
      </defs>
      <use xlink:href="#DejaVuSans-61"/>
     </g>
    </g>
   </g>
   <g id="text_61">
    <g clip-path="url(#p4611655ef9)">
     <!-- b -->
     <g transform="translate(32.44383 106.956648) scale(0.12 -0.12)">
      <defs>
       <path id="DejaVuSans-62" d="M 3116 1747 
Q 3116 2381 2855 2742 
Q 2594 3103 2138 3103 
Q 1681 3103 1420 2742 
Q 1159 2381 1159 1747 
Q 1159 1113 1420 752 
Q 1681 391 2138 391 
Q 2594 391 2855 752 
Q 3116 1113 3116 1747 
z
M 1159 2969 
Q 1341 3281 1617 3432 
Q 1894 3584 2278 3584 
Q 2916 3584 3314 3078 
Q 3713 2572 3713 1747 
Q 3713 922 3314 415 
Q 2916 -91 2278 -91 
Q 1894 -91 1617 61 
Q 1341 213 1159 525 
L 1159 0 
L 581 0 
L 581 4863 
L 1159 4863 
L 1159 2969 
z
" transform="scale(0.015625)"/>
      </defs>
      <use xlink:href="#DejaVuSans-62"/>
     </g>
    </g>
   </g>
   <g id="text_62">
    <g clip-path="url(#p4611655ef9)">
     <!-- g -->
     <g transform="translate(87.782673 106.956648) scale(0.12 -0.12)">
      <defs>
       <path id="DejaVuSans-67" d="M 2906 1791 
Q 2906 2416 2648 2759 
Q 2391 3103 1925 3103 
Q 1463 3103 1205 2759 
Q 947 2416 947 1791 
Q 947 1169 1205 825 
Q 1463 481 1925 481 
Q 2391 481 2648 825 
Q 2906 1169 2906 1791 
z
M 3481 434 
Q 3481 -459 3084 -895 
Q 2688 -1331 1869 -1331 
Q 1566 -1331 1297 -1286 
Q 1028 -1241 775 -1147 
L 775 -588 
Q 1028 -725 1275 -790 
Q 1522 -856 1778 -856 
Q 2344 -856 2625 -561 
Q 2906 -266 2906 331 
L 2906 616 
Q 2728 306 2450 153 
Q 2172 0 1784 0 
Q 1141 0 747 490 
Q 353 981 353 1791 
Q 353 2603 747 3093 
Q 1141 3584 1784 3584 
Q 2172 3584 2450 3431 
Q 2728 3278 2906 2969 
L 2906 3500 
L 3481 3500 
L 3481 434 
z
" transform="scale(0.015625)"/>
      </defs>
      <use xlink:href="#DejaVuSans-67"/>
     </g>
    </g>
   </g>
   <g id="text_63">
    <g clip-path="url(#p4611655ef9)">
     <!-- f -->
     <g transform="translate(89.479548 49.68392) scale(0.12 -0.12)">
      <defs>
       <path id="DejaVuSans-66" d="M 2375 4863 
L 2375 4384 
L 1825 4384 
Q 1516 4384 1395 4259 
Q 1275 4134 1275 3809 
L 1275 3500 
L 2222 3500 
L 2222 3053 
L 1275 3053 
L 1275 0 
L 697 0 
L 697 3053 
L 147 3053 
L 147 3500 
L 697 3500 
L 697 3744 
Q 697 4328 969 4595 
Q 1241 4863 1831 4863 
L 2375 4863 
z
" transform="scale(0.015625)"/>
      </defs>
      <use xlink:href="#DejaVuSans-66"/>
     </g>
    </g>
   </g>
   <g id="text_64">
    <g clip-path="url(#p4611655ef9)">
     <!-- c -->
     <g transform="translate(32.95383 164.229375) scale(0.12 -0.12)">
      <defs>
       <path id="DejaVuSans-63" d="M 3122 3366 
L 3122 2828 
Q 2878 2963 2633 3030 
Q 2388 3097 2138 3097 
Q 1578 3097 1268 2742 
Q 959 2388 959 1747 
Q 959 1106 1268 751 
Q 1578 397 2138 397 
Q 2388 397 2633 464 
Q 2878 531 3122 666 
L 3122 134 
Q 2881 22 2623 -34 
Q 2366 -91 2075 -91 
Q 1284 -91 818 406 
Q 353 903 353 1747 
Q 353 2603 823 3093 
Q 1294 3584 2113 3584 
Q 2378 3584 2631 3529 
Q 2884 3475 3122 3366 
z
" transform="scale(0.015625)"/>
      </defs>
      <use xlink:href="#DejaVuSans-63"/>
     </g>
    </g>
   </g>
   <g id="text_65">
    <g clip-path="url(#p4611655ef9)">
     <!-- d -->
     <g transform="translate(32.44383 221.502102) scale(0.12 -0.12)">
      <defs>
       <path id="DejaVuSans-64" d="M 2906 2969 
L 2906 4863 
L 3481 4863 
L 3481 0 
L 2906 0 
L 2906 525 
Q 2725 213 2448 61 
Q 2172 -91 1784 -91 
Q 1150 -91 751 415 
Q 353 922 353 1747 
Q 353 2572 751 3078 
Q 1150 3584 1784 3584 
Q 2172 3584 2448 3432 
Q 2725 3281 2906 2969 
z
M 947 1747 
Q 947 1113 1208 752 
Q 1469 391 1925 391 
Q 2381 391 2643 752 
Q 2906 1113 2906 1747 
Q 2906 2381 2643 2742 
Q 2381 3103 1925 3103 
Q 1469 3103 1208 2742 
Q 947 2381 947 1747 
z
" transform="scale(0.015625)"/>
      </defs>
      <use xlink:href="#DejaVuSans-64"/>
     </g>
    </g>
   </g>
   <g id="text_66">
    <g clip-path="url(#p4611655ef9)">
     <!-- e -->
     <g transform="translate(32.561018 278.77483) scale(0.12 -0.12)">
      <defs>
       <path id="DejaVuSans-65" d="M 3597 1894 
L 3597 1613 
L 953 1613 
Q 991 1019 1311 708 
Q 1631 397 2203 397 
Q 2534 397 2845 478 
Q 3156 559 3463 722 
L 3463 178 
Q 3153 47 2828 -22 
Q 2503 -91 2169 -91 
Q 1331 -91 842 396 
Q 353 884 353 1716 
Q 353 2575 817 3079 
Q 1281 3584 2069 3584 
Q 2775 3584 3186 3129 
Q 3597 2675 3597 1894 
z
M 3022 2063 
Q 3016 2534 2758 2815 
Q 2500 3097 2075 3097 
Q 1594 3097 1305 2825 
Q 1016 2553 972 2059 
L 3022 2063 
z
" transform="scale(0.015625)"/>
      </defs>
      <use xlink:href="#DejaVuSans-65"/>
     </g>
    </g>
   </g>
   <g id="text_67">
    <g clip-path="url(#p4611655ef9)">
     <!-- i -->
     <g transform="translate(145.263704 49.68392) scale(0.12 -0.12)">
      <defs>
       <path id="DejaVuSans-69" d="M 603 3500 
L 1178 3500 
L 1178 0 
L 603 0 
L 603 3500 
z
M 603 4863 
L 1178 4863 
L 1178 4134 
L 603 4134 
L 603 4863 
z
" transform="scale(0.015625)"/>
      </defs>
      <use xlink:href="#DejaVuSans-69"/>
     </g>
    </g>
   </g>
   <g id="text_68">
    <g clip-path="url(#p4611655ef9)">
     <!-- h -->
     <g transform="translate(87.789236 278.77483) scale(0.12 -0.12)">
      <defs>
       <path id="DejaVuSans-68" d="M 3513 2113 
L 3513 0 
L 2938 0 
L 2938 2094 
Q 2938 2591 2744 2837 
Q 2550 3084 2163 3084 
Q 1697 3084 1428 2787 
Q 1159 2491 1159 1978 
L 1159 0 
L 581 0 
L 581 4863 
L 1159 4863 
L 1159 2956 
Q 1366 3272 1645 3428 
Q 1925 3584 2291 3584 
Q 2894 3584 3203 3211 
Q 3513 2838 3513 2113 
z
" transform="scale(0.015625)"/>
      </defs>
      <use xlink:href="#DejaVuSans-68"/>
     </g>
    </g>
   </g>
   <g id="text_69">
    <g clip-path="url(#p4611655ef9)">
     <!-- j -->
     <g transform="translate(145.263704 278.77483) scale(0.12 -0.12)">
      <defs>
       <path id="DejaVuSans-6a" d="M 603 3500 
L 1178 3500 
L 1178 -63 
Q 1178 -731 923 -1031 
Q 669 -1331 103 -1331 
L -116 -1331 
L -116 -844 
L 38 -844 
Q 366 -844 484 -692 
Q 603 -541 603 -63 
L 603 3500 
z
M 603 4863 
L 1178 4863 
L 1178 4134 
L 603 4134 
L 603 4863 
z
" transform="scale(0.015625)"/>
      </defs>
      <use xlink:href="#DejaVuSans-6a"/>
     </g>
    </g>
   </g>
   <g id="text_70">
    <g clip-path="url(#p4611655ef9)">
     <!-- k -->
     <g transform="translate(198.795046 278.77483) scale(0.12 -0.12)">
      <defs>
       <path id="DejaVuSans-6b" d="M 581 4863 
L 1159 4863 
L 1159 1991 
L 2875 3500 
L 3609 3500 
L 1753 1863 
L 3688 0 
L 2938 0 
L 1159 1709 
L 1159 0 
L 581 0 
L 581 4863 
z
" transform="scale(0.015625)"/>
      </defs>
      <use xlink:href="#DejaVuSans-6b"/>
     </g>
    </g>
   </g>
   <g id="text_71">
    <g clip-path="url(#p4611655ef9)">
     <!-- m -->
     <g transform="translate(251.763889 278.77483) scale(0.12 -0.12)">
      <defs>
       <path id="DejaVuSans-6d" d="M 3328 2828 
Q 3544 3216 3844 3400 
Q 4144 3584 4550 3584 
Q 5097 3584 5394 3201 
Q 5691 2819 5691 2113 
L 5691 0 
L 5113 0 
L 5113 2094 
Q 5113 2597 4934 2840 
Q 4756 3084 4391 3084 
Q 3944 3084 3684 2787 
Q 3425 2491 3425 1978 
L 3425 0 
L 2847 0 
L 2847 2094 
Q 2847 2600 2669 2842 
Q 2491 3084 2119 3084 
Q 1678 3084 1418 2786 
Q 1159 2488 1159 1978 
L 1159 0 
L 581 0 
L 581 3500 
L 1159 3500 
L 1159 2956 
Q 1356 3278 1631 3431 
Q 1906 3584 2284 3584 
Q 2666 3584 2933 3390 
Q 3200 3197 3328 2828 
z
" transform="scale(0.015625)"/>
      </defs>
      <use xlink:href="#DejaVuSans-6d"/>
     </g>
    </g>
   </g>
   <g id="text_72">
    <g clip-path="url(#p4611655ef9)">
     <!-- l -->
     <g transform="translate(255.941389 49.68392) scale(0.12 -0.12)">
      <defs>
       <path id="DejaVuSans-6c" d="M 603 4863 
L 1178 4863 
L 1178 0 
L 603 0 
L 603 4863 
z
" transform="scale(0.015625)"/>
      </defs>
      <use xlink:href="#DejaVuSans-6c"/>
     </g>
    </g>
   </g>
   <g id="text_73">
    <g clip-path="url(#p4611655ef9)">
     <!-- n -->
     <g transform="translate(309.144607 49.68392) scale(0.12 -0.12)">
      <defs>
       <path id="DejaVuSans-6e" d="M 3513 2113 
L 3513 0 
L 2938 0 
L 2938 2094 
Q 2938 2591 2744 2837 
Q 2550 3084 2163 3084 
Q 1697 3084 1428 2787 
Q 1159 2491 1159 1978 
L 1159 0 
L 581 0 
L 581 3500 
L 1159 3500 
L 1159 2956 
Q 1366 3272 1645 3428 
Q 1925 3584 2291 3584 
Q 2894 3584 3203 3211 
Q 3513 2838 3513 2113 
z
" transform="scale(0.015625)"/>
      </defs>
      <use xlink:href="#DejaVuSans-6e"/>
     </g>
    </g>
   </g>
   <g id="text_74">
    <g clip-path="url(#p4611655ef9)">
     <!-- q -->
     <g transform="translate(309.138045 221.502102) scale(0.12 -0.12)">
      <defs>
       <path id="DejaVuSans-71" d="M 947 1747 
Q 947 1113 1208 752 
Q 1469 391 1925 391 
Q 2381 391 2643 752 
Q 2906 1113 2906 1747 
Q 2906 2381 2643 2742 
Q 2381 3103 1925 3103 
Q 1469 3103 1208 2742 
Q 947 2381 947 1747 
z
M 2906 525 
Q 2725 213 2448 61 
Q 2172 -91 1784 -91 
Q 1150 -91 751 415 
Q 353 922 353 1747 
Q 353 2572 751 3078 
Q 1150 3584 1784 3584 
Q 2172 3584 2448 3432 
Q 2725 3281 2906 2969 
L 2906 3500 
L 3481 3500 
L 3481 -1331 
L 2906 -1331 
L 2906 525 
z
" transform="scale(0.015625)"/>
      </defs>
      <use xlink:href="#DejaVuSans-71"/>
     </g>
    </g>
   </g>
   <g id="text_75">
    <g clip-path="url(#p4611655ef9)">
     <!-- r -->
     <g transform="translate(310.480545 278.77483) scale(0.12 -0.12)">
      <defs>
       <path id="DejaVuSans-72" d="M 2631 2963 
Q 2534 3019 2420 3045 
Q 2306 3072 2169 3072 
Q 1681 3072 1420 2755 
Q 1159 2438 1159 1844 
L 1159 0 
L 581 0 
L 581 3500 
L 1159 3500 
L 1159 2956 
Q 1341 3275 1631 3429 
Q 1922 3584 2338 3584 
Q 2397 3584 2469 3576 
Q 2541 3569 2628 3553 
L 2631 2963 
z
" transform="scale(0.015625)"/>
      </defs>
      <use xlink:href="#DejaVuSans-72"/>
     </g>
    </g>
   </g>
   <g id="text_76">
    <g clip-path="url(#p4611655ef9)">
     <!-- o -->
     <g transform="translate(309.275857 106.956648) scale(0.12 -0.12)">
      <defs>
       <path id="DejaVuSans-6f" d="M 1959 3097 
Q 1497 3097 1228 2736 
Q 959 2375 959 1747 
Q 959 1119 1226 758 
Q 1494 397 1959 397 
Q 2419 397 2687 759 
Q 2956 1122 2956 1747 
Q 2956 2369 2687 2733 
Q 2419 3097 1959 3097 
z
M 1959 3584 
Q 2709 3584 3137 3096 
Q 3566 2609 3566 1747 
Q 3566 888 3137 398 
Q 2709 -91 1959 -91 
Q 1206 -91 779 398 
Q 353 888 353 1747 
Q 353 2609 779 3096 
Q 1206 3584 1959 3584 
z
" transform="scale(0.015625)"/>
      </defs>
      <use xlink:href="#DejaVuSans-6f"/>
     </g>
    </g>
   </g>
   <g id="text_77">
    <g clip-path="url(#p4611655ef9)">
     <!-- p -->
     <g transform="translate(309.138045 164.229375) scale(0.12 -0.12)">
      <defs>
       <path id="DejaVuSans-70" d="M 1159 525 
L 1159 -1331 
L 581 -1331 
L 581 3500 
L 1159 3500 
L 1159 2969 
Q 1341 3281 1617 3432 
Q 1894 3584 2278 3584 
Q 2916 3584 3314 3078 
Q 3713 2572 3713 1747 
Q 3713 922 3314 415 
Q 2916 -91 2278 -91 
Q 1894 -91 1617 61 
Q 1341 213 1159 525 
z
M 3116 1747 
Q 3116 2381 2855 2742 
Q 2594 3103 2138 3103 
Q 1681 3103 1420 2742 
Q 1159 2381 1159 1747 
Q 1159 1113 1420 752 
Q 1681 391 2138 391 
Q 2594 391 2855 752 
Q 3116 1113 3116 1747 
z
" transform="scale(0.015625)"/>
      </defs>
      <use xlink:href="#DejaVuSans-70"/>
     </g>
    </g>
   </g>
   <g id="text_78">
    <!-- inputgraph(rate) -->
    <g transform="translate(124.733437 16.318125) scale(0.12 -0.12)">
     <defs>
      <path id="DejaVuSans-75" d="M 544 1381 
L 544 3500 
L 1119 3500 
L 1119 1403 
Q 1119 906 1312 657 
Q 1506 409 1894 409 
Q 2359 409 2629 706 
Q 2900 1003 2900 1516 
L 2900 3500 
L 3475 3500 
L 3475 0 
L 2900 0 
L 2900 538 
Q 2691 219 2414 64 
Q 2138 -91 1772 -91 
Q 1169 -91 856 284 
Q 544 659 544 1381 
z
M 1991 3584 
L 1991 3584 
z
" transform="scale(0.015625)"/>
      <path id="DejaVuSans-74" d="M 1172 4494 
L 1172 3500 
L 2356 3500 
L 2356 3053 
L 1172 3053 
L 1172 1153 
Q 1172 725 1289 603 
Q 1406 481 1766 481 
L 2356 481 
L 2356 0 
L 1766 0 
Q 1100 0 847 248 
Q 594 497 594 1153 
L 594 3053 
L 172 3053 
L 172 3500 
L 594 3500 
L 594 4494 
L 1172 4494 
z
" transform="scale(0.015625)"/>
      <path id="DejaVuSans-28" d="M 1984 4856 
Q 1566 4138 1362 3434 
Q 1159 2731 1159 2009 
Q 1159 1288 1364 580 
Q 1569 -128 1984 -844 
L 1484 -844 
Q 1016 -109 783 600 
Q 550 1309 550 2009 
Q 550 2706 781 3412 
Q 1013 4119 1484 4856 
L 1984 4856 
z
" transform="scale(0.015625)"/>
      <path id="DejaVuSans-29" d="M 513 4856 
L 1013 4856 
Q 1481 4119 1714 3412 
Q 1947 2706 1947 2009 
Q 1947 1309 1714 600 
Q 1481 -109 1013 -844 
L 513 -844 
Q 928 -128 1133 580 
Q 1338 1288 1338 2009 
Q 1338 2731 1133 3434 
Q 928 4138 513 4856 
z
" transform="scale(0.015625)"/>
     </defs>
     <use xlink:href="#DejaVuSans-69"/>
     <use xlink:href="#DejaVuSans-6e" x="27.783203"/>
     <use xlink:href="#DejaVuSans-70" x="91.162109"/>
     <use xlink:href="#DejaVuSans-75" x="154.638672"/>
     <use xlink:href="#DejaVuSans-74" x="218.017578"/>
     <use xlink:href="#DejaVuSans-67" x="257.226562"/>
     <use xlink:href="#DejaVuSans-72" x="320.703125"/>
     <use xlink:href="#DejaVuSans-61" x="361.816406"/>
     <use xlink:href="#DejaVuSans-70" x="423.095703"/>
     <use xlink:href="#DejaVuSans-68" x="486.572266"/>
     <use xlink:href="#DejaVuSans-28" x="549.951172"/>
     <use xlink:href="#DejaVuSans-72" x="588.964844"/>
     <use xlink:href="#DejaVuSans-61" x="630.078125"/>
     <use xlink:href="#DejaVuSans-74" x="691.357422"/>
     <use xlink:href="#DejaVuSans-65" x="730.566406"/>
     <use xlink:href="#DejaVuSans-29" x="792.089844"/>
    </g>
   </g>
  </g>
 </g>
 <defs>
  <clipPath id="p4611655ef9">
   <rect x="7.2" y="22.318125" width="334.8" height="277.2"/>
  </clipPath>
 </defs>
</svg>
