<?xml version="1.0" encoding="UTF-8" standalone="no"?>
<!DOCTYPE svg PUBLIC "-//W3C//DTD SVG 1.1//EN"
 "http://www.w3.org/Graphics/SVG/1.1/DTD/svg11.dtd">
<!-- Generated by graphviz version 2.43.0 (0)
 -->
<!-- Title: %3 Pages: 1 -->
<svg width="218pt" height="371pt"
 viewBox="0.00 0.00 218.19 371.17" xmlns="http://www.w3.org/2000/svg" xmlns:xlink="http://www.w3.org/1999/xlink">
<g id="graph0" class="graph" transform="scale(1 1) rotate(0) translate(4 367.17)">
<title>%3</title>
<polygon fill="white" stroke="transparent" points="-4,4 -4,-367.17 214.19,-367.17 214.19,4 -4,4"/>
<!-- (a,b) 1.0 -->
<g id="node1" class="node">
<title>(a,b) 1.0</title>
<ellipse fill="none" stroke="black" cx="106.4" cy="-313.78" rx="49.29" ry="49.29"/>
<text text-anchor="middle" x="106.4" y="-310.08" font-family="Times,serif" font-size="14.00">(a,b) 1.0</text>
</g>
<!-- (g,a) 2.0 -->
<g id="node2" class="node">
<title>(g,a) 2.0</title>
<ellipse fill="none" stroke="black" cx="49.4" cy="-178.99" rx="49.29" ry="49.29"/>
<text text-anchor="middle" x="49.4" y="-175.29" font-family="Times,serif" font-size="14.00">(g,a) 2.0</text>
</g>
<!-- (a,b) 1.0&#45;&gt;(g,a) 2.0 -->
<g id="edge1" class="edge">
<title>(a,b) 1.0&#45;&gt;(g,a) 2.0</title>
<path fill="none" stroke="black" d="M87.26,-268.19C82.56,-257.24 77.48,-245.4 72.61,-234.06"/>
<polygon fill="black" stroke="black" points="75.74,-232.49 68.58,-224.68 69.31,-235.25 75.74,-232.49"/>
</g>
<!-- (a,f) 3.0 -->
<g id="node3" class="node">
<title>(a,f) 3.0</title>
<ellipse fill="none" stroke="black" cx="163.4" cy="-178.99" rx="46.59" ry="46.59"/>
<text text-anchor="middle" x="163.4" y="-175.29" font-family="Times,serif" font-size="14.00">(a,f) 3.0</text>
</g>
<!-- (a,b) 1.0&#45;&gt;(a,f) 3.0 -->
<g id="edge2" class="edge">
<title>(a,b) 1.0&#45;&gt;(a,f) 3.0</title>
<path fill="none" stroke="black" d="M125.53,-268.19C130.54,-256.54 135.97,-243.88 141.12,-231.88"/>
<polygon fill="black" stroke="black" points="144.45,-233 145.18,-222.43 138.01,-230.24 144.45,-233"/>
</g>
<!-- (g,i) 3.0 -->
<g id="node4" class="node">
<title>(g,i) 3.0</title>
<ellipse fill="none" stroke="black" cx="49.4" cy="-46.8" rx="46.59" ry="46.59"/>
<text text-anchor="middle" x="49.4" y="-43.1" font-family="Times,serif" font-size="14.00">(g,i) 3.0</text>
</g>
<!-- (g,a) 2.0&#45;&gt;(g,i) 3.0 -->
<g id="edge3" class="edge">
<title>(g,a) 2.0&#45;&gt;(g,i) 3.0</title>
<path fill="none" stroke="black" d="M49.4,-129.51C49.4,-121.18 49.4,-112.47 49.4,-103.96"/>
<polygon fill="black" stroke="black" points="52.9,-103.73 49.4,-93.73 45.9,-103.73 52.9,-103.73"/>
</g>
</g>
</svg>
