<?xml version="1.0" encoding="UTF-8" standalone="no"?>
<!DOCTYPE svg PUBLIC "-//W3C//DTD SVG 1.1//EN"
 "http://www.w3.org/Graphics/SVG/1.1/DTD/svg11.dtd">
<!-- Generated by graphviz version 2.43.0 (0)
 -->
<!-- Title: %3 Pages: 1 -->
<svg width="270pt" height="371pt"
 viewBox="0.00 0.00 269.59 371.17" xmlns="http://www.w3.org/2000/svg" xmlns:xlink="http://www.w3.org/1999/xlink">
<g id="graph0" class="graph" transform="scale(1 1) rotate(0) translate(4 367.17)">
<title>%3</title>
<polygon fill="white" stroke="transparent" points="-4,4 -4,-367.17 265.59,-367.17 265.59,4 -4,4"/>
<!-- (a,b) 1.0 -->
<g id="node1" class="node">
<title>(a,b) 1.0</title>
<ellipse fill="none" stroke="black" cx="155.2" cy="-313.78" rx="49.29" ry="49.29"/>
<text text-anchor="middle" x="155.2" y="-310.08" font-family="Times,serif" font-size="14.00">(a,b) 1.0</text>
</g>
<!-- (a,f) 3.0 -->
<g id="node2" class="node">
<title>(a,f) 3.0</title>
<ellipse fill="none" stroke="black" cx="98.2" cy="-178.99" rx="46.59" ry="46.59"/>
<text text-anchor="middle" x="98.2" y="-175.29" font-family="Times,serif" font-size="14.00">(a,f) 3.0</text>
</g>
<!-- (a,b) 1.0&#45;&gt;(a,f) 3.0 -->
<g id="edge1" class="edge">
<title>(a,b) 1.0&#45;&gt;(a,f) 3.0</title>
<path fill="none" stroke="black" d="M136.06,-268.19C131.06,-256.54 125.62,-243.88 120.47,-231.88"/>
<polygon fill="black" stroke="black" points="123.58,-230.24 116.42,-222.43 117.14,-233 123.58,-230.24"/>
</g>
<!-- (g,a) 2.0 -->
<g id="node3" class="node">
<title>(g,a) 2.0</title>
<ellipse fill="none" stroke="black" cx="212.2" cy="-178.99" rx="49.29" ry="49.29"/>
<text text-anchor="middle" x="212.2" y="-175.29" font-family="Times,serif" font-size="14.00">(g,a) 2.0</text>
</g>
<!-- (a,b) 1.0&#45;&gt;(g,a) 2.0 -->
<g id="edge2" class="edge">
<title>(a,b) 1.0&#45;&gt;(g,a) 2.0</title>
<path fill="none" stroke="black" d="M174.33,-268.19C179.03,-257.24 184.12,-245.4 188.98,-234.06"/>
<polygon fill="black" stroke="black" points="192.28,-235.25 193.01,-224.68 185.85,-232.49 192.28,-235.25"/>
</g>
<!-- (f,i) 5.0 -->
<g id="node4" class="node">
<title>(f,i) 5.0</title>
<ellipse fill="none" stroke="black" cx="44.2" cy="-46.8" rx="44.39" ry="44.39"/>
<text text-anchor="middle" x="44.2" y="-43.1" font-family="Times,serif" font-size="14.00">(f,i) 5.0</text>
</g>
<!-- (a,f) 3.0&#45;&gt;(f,i) 5.0 -->
<g id="edge3" class="edge">
<title>(a,f) 3.0&#45;&gt;(f,i) 5.0</title>
<path fill="none" stroke="black" d="M80.51,-135.36C75.47,-123.18 69.92,-109.82 64.72,-97.27"/>
<polygon fill="black" stroke="black" points="67.88,-95.77 60.82,-87.87 61.42,-98.45 67.88,-95.77"/>
</g>
<!-- (g,i) 3.0 -->
<g id="node5" class="node">
<title>(g,i) 3.0</title>
<ellipse fill="none" stroke="black" cx="153.2" cy="-46.8" rx="46.59" ry="46.59"/>
<text text-anchor="middle" x="153.2" y="-43.1" font-family="Times,serif" font-size="14.00">(g,i) 3.0</text>
</g>
<!-- (a,f) 3.0&#45;&gt;(g,i) 3.0 -->
<g id="edge4" class="edge">
<title>(a,f) 3.0&#45;&gt;(g,i) 3.0</title>
<path fill="none" stroke="black" d="M116.05,-135.72C120.9,-124.23 126.21,-111.67 131.26,-99.72"/>
<polygon fill="black" stroke="black" points="134.57,-100.87 135.24,-90.3 128.12,-98.15 134.57,-100.87"/>
</g>
</g>
</svg>
