<?xml version="1.0" encoding="UTF-8" standalone="no"?>
<!DOCTYPE svg PUBLIC "-//W3C//DTD SVG 1.1//EN"
 "http://www.w3.org/Graphics/SVG/1.1/DTD/svg11.dtd">
<!-- Generated by graphviz version 2.43.0 (0)
 -->
<!-- Title: %3 Pages: 1 -->
<svg width="209pt" height="369pt"
 viewBox="0.00 0.00 209.29 368.57" xmlns="http://www.w3.org/2000/svg" xmlns:xlink="http://www.w3.org/1999/xlink">
<g id="graph0" class="graph" transform="scale(1 1) rotate(0) translate(4 364.57)">
<title>%3</title>
<polygon fill="white" stroke="transparent" points="-4,4 -4,-364.57 205.29,-364.57 205.29,4 -4,4"/>
<!-- (g,a) 2.0 -->
<g id="node1" class="node">
<title>(g,a) 2.0</title>
<ellipse fill="none" stroke="black" cx="102.1" cy="-311.18" rx="49.29" ry="49.29"/>
<text text-anchor="middle" x="102.1" y="-307.48" font-family="Times,serif" font-size="14.00">(g,a) 2.0</text>
</g>
<!-- (g,i) 3.0 -->
<g id="node2" class="node">
<title>(g,i) 3.0</title>
<ellipse fill="none" stroke="black" cx="48.1" cy="-178.99" rx="46.59" ry="46.59"/>
<text text-anchor="middle" x="48.1" y="-175.29" font-family="Times,serif" font-size="14.00">(g,i) 3.0</text>
</g>
<!-- (g,a) 2.0&#45;&gt;(g,i) 3.0 -->
<g id="edge1" class="edge">
<title>(g,a) 2.0&#45;&gt;(g,i) 3.0</title>
<path fill="none" stroke="black" d="M83.51,-265.37C79.08,-254.68 74.3,-243.17 69.74,-232.18"/>
<polygon fill="black" stroke="black" points="72.87,-230.57 65.8,-222.68 66.4,-233.26 72.87,-230.57"/>
</g>
<!-- (i,f) 5.0 -->
<g id="node3" class="node">
<title>(i,f) 5.0</title>
<ellipse fill="none" stroke="black" cx="157.1" cy="-178.99" rx="44.39" ry="44.39"/>
<text text-anchor="middle" x="157.1" y="-175.29" font-family="Times,serif" font-size="14.00">(i,f) 5.0</text>
</g>
<!-- (g,a) 2.0&#45;&gt;(i,f) 5.0 -->
<g id="edge2" class="edge">
<title>(g,a) 2.0&#45;&gt;(i,f) 5.0</title>
<path fill="none" stroke="black" d="M121.02,-265.37C125.93,-253.77 131.24,-241.2 136.23,-229.37"/>
<polygon fill="black" stroke="black" points="139.49,-230.65 140.16,-220.08 133.04,-227.93 139.49,-230.65"/>
</g>
<!-- (i,G) 4.0 -->
<g id="node4" class="node">
<title>(i,G) 4.0</title>
<ellipse fill="none" stroke="black" cx="48.1" cy="-48.1" rx="48.19" ry="48.19"/>
<text text-anchor="middle" x="48.1" y="-44.4" font-family="Times,serif" font-size="14.00">(i,G) 4.0</text>
</g>
<!-- (g,i) 3.0&#45;&gt;(i,G) 4.0 -->
<g id="edge3" class="edge">
<title>(g,i) 3.0&#45;&gt;(i,G) 4.0</title>
<path fill="none" stroke="black" d="M48.1,-132.18C48.1,-123.95 48.1,-115.28 48.1,-106.76"/>
<polygon fill="black" stroke="black" points="51.6,-106.5 48.1,-96.5 44.6,-106.5 51.6,-106.5"/>
</g>
</g>
</svg>
