<?xml version="1.0" encoding="UTF-8" standalone="no"?>
<!DOCTYPE svg PUBLIC "-//W3C//DTD SVG 1.1//EN"
 "http://www.w3.org/Graphics/SVG/1.1/DTD/svg11.dtd">
<!-- Generated by graphviz version 2.43.0 (0)
 -->
<!-- Title: %3 Pages: 1 -->
<svg width="275pt" height="380pt"
 viewBox="0.00 0.00 274.84 380.27" xmlns="http://www.w3.org/2000/svg" xmlns:xlink="http://www.w3.org/1999/xlink">
<g id="graph0" class="graph" transform="scale(1 1) rotate(0) translate(4 376.27)">
<title>%3</title>
<polygon fill="white" stroke="transparent" points="-4,4 -4,-376.27 270.84,-376.27 270.84,4 -4,4"/>
<!-- (B,A) 1.0 -->
<g id="node1" class="node">
<title>(B,A) 1.0</title>
<ellipse fill="none" stroke="black" cx="164.7" cy="-320.93" rx="51.19" ry="51.19"/>
<text text-anchor="middle" x="164.7" y="-317.23" font-family="Times,serif" font-size="14.00">(B,A) 1.0</text>
</g>
<!-- (B,j) 1.0 -->
<g id="node2" class="node">
<title>(B,j) 1.0</title>
<ellipse fill="none" stroke="black" cx="108.7" cy="-185.49" rx="48.19" ry="48.19"/>
<text text-anchor="middle" x="108.7" y="-181.79" font-family="Times,serif" font-size="14.00">(B,j) 1.0</text>
</g>
<!-- (B,A) 1.0&#45;&gt;(B,j) 1.0 -->
<g id="edge1" class="edge">
<title>(B,A) 1.0&#45;&gt;(B,j) 1.0</title>
<path fill="none" stroke="black" d="M145.11,-273.26C140.53,-262.34 135.61,-250.62 130.92,-239.45"/>
<polygon fill="black" stroke="black" points="134.15,-238.09 127.05,-230.22 127.69,-240.8 134.15,-238.09"/>
</g>
<!-- (j,k) 2.0 -->
<g id="node3" class="node">
<title>(j,k) 2.0</title>
<ellipse fill="none" stroke="black" cx="220.7" cy="-185.49" rx="46.29" ry="46.29"/>
<text text-anchor="middle" x="220.7" y="-181.79" font-family="Times,serif" font-size="14.00">(j,k) 2.0</text>
</g>
<!-- (B,A) 1.0&#45;&gt;(j,k) 2.0 -->
<g id="edge2" class="edge">
<title>(B,A) 1.0&#45;&gt;(j,k) 2.0</title>
<path fill="none" stroke="black" d="M184.28,-273.26C189.06,-261.87 194.2,-249.62 199.07,-238.01"/>
<polygon fill="black" stroke="black" points="202.44,-239.03 203.08,-228.45 195.99,-236.32 202.44,-239.03"/>
</g>
<!-- (B,h) 3.0 -->
<g id="node4" class="node">
<title>(B,h) 3.0</title>
<ellipse fill="none" stroke="black" cx="50.7" cy="-50.7" rx="50.89" ry="50.89"/>
<text text-anchor="middle" x="50.7" y="-47" font-family="Times,serif" font-size="14.00">(B,h) 3.0</text>
</g>
<!-- (B,j) 1.0&#45;&gt;(B,h) 3.0 -->
<g id="edge3" class="edge">
<title>(B,j) 1.0&#45;&gt;(B,h) 3.0</title>
<path fill="none" stroke="black" d="M89.7,-141.01C84.95,-130.13 79.8,-118.32 74.84,-106.96"/>
<polygon fill="black" stroke="black" points="77.94,-105.32 70.73,-97.56 71.52,-108.12 77.94,-105.32"/>
</g>
<!-- (j,E) 2.0 -->
<g id="node5" class="node">
<title>(j,E) 2.0</title>
<ellipse fill="none" stroke="black" cx="167.7" cy="-50.7" rx="48.19" ry="48.19"/>
<text text-anchor="middle" x="167.7" y="-47" font-family="Times,serif" font-size="14.00">(j,E) 2.0</text>
</g>
<!-- (B,j) 1.0&#45;&gt;(j,E) 2.0 -->
<g id="edge4" class="edge">
<title>(B,j) 1.0&#45;&gt;(j,E) 2.0</title>
<path fill="none" stroke="black" d="M128.01,-141.01C133.26,-129.19 139,-116.27 144.44,-104.03"/>
<polygon fill="black" stroke="black" points="147.67,-105.38 148.53,-94.82 141.28,-102.54 147.67,-105.38"/>
</g>
</g>
</svg>
