<?xml version="1.0" encoding="utf-8" standalone="no"?>
<!DOCTYPE svg PUBLIC "-//W3C//DTD SVG 1.1//EN"
  "http://www.w3.org/Graphics/SVG/1.1/DTD/svg11.dtd">
<svg xmlns:xlink="http://www.w3.org/1999/xlink" width="576pt" height="576pt" viewBox="0 0 576 576" xmlns="http://www.w3.org/2000/svg" version="1.1">
 <metadata>
  <rdf:RDF xmlns:dc="http://purl.org/dc/elements/1.1/" xmlns:cc="http://creativecommons.org/ns#" xmlns:rdf="http://www.w3.org/1999/02/22-rdf-syntax-ns#">
   <cc:Work>
    <dc:type rdf:resource="http://purl.org/dc/dcmitype/StillImage"/>
    <dc:date>2022-11-20T21:55:11.215683</dc:date>
    <dc:format>image/svg+xml</dc:format>
    <dc:creator>
     <cc:Agent>
      <dc:title>Matplotlib v3.6.1, https://matplotlib.org/</dc:title>
     </cc:Agent>
    </dc:creator>
   </cc:Work>
  </rdf:RDF>
 </metadata>
 <defs>
  <style type="text/css">*{stroke-linejoin: round; stroke-linecap: butt}</style>
 </defs>
 <g id="figure_1">
  <g id="patch_1">
   <path d="M 0 576 
L 576 576 
L 576 0 
L 0 0 
z
" style="fill: #ffffff"/>
  </g>
  <g id="axes_1">
   <g id="patch_2">
    <path d="M 72 512.64 
L 518.4 512.64 
L 518.4 69.12 
L 72 69.12 
z
" style="fill: #ffffff"/>
   </g>
   <g id="text_1">
    <g id="patch_3">
     <path d="M 176.683252 328.746619 
L 176.683252 344.649744 
Q 176.683252 347.649744 179.683252 347.649744 
L 189.361377 347.649744 
Q 192.361377 347.649744 192.361377 344.649744 
L 192.361377 328.746619 
Q 192.361377 325.746619 189.361377 325.746619 
L 179.683252 325.746619 
Q 176.683252 325.746619 176.683252 328.746619 
z
" clip-path="url(#p58d29d2135)" style="fill: #ffffff; stroke: #ffffff; stroke-linejoin: miter"/>
    </g>
    <g clip-path="url(#p58d29d2135)">
     <!-- 1.0 -->
     <g transform="translate(181.762939 328.746619) rotate(-270) scale(0.1 -0.1)">
      <defs>
       <path id="DejaVuSans-31" d="M 794 531 
L 1825 531 
L 1825 4091 
L 703 3866 
L 703 4441 
L 1819 4666 
L 2450 4666 
L 2450 531 
L 3481 531 
L 3481 0 
L 794 0 
L 794 531 
z
" transform="scale(0.015625)"/>
       <path id="DejaVuSans-2e" d="M 684 794 
L 1344 794 
L 1344 0 
L 684 0 
L 684 794 
z
" transform="scale(0.015625)"/>
       <path id="DejaVuSans-30" d="M 2034 4250 
Q 1547 4250 1301 3770 
Q 1056 3291 1056 2328 
Q 1056 1369 1301 889 
Q 1547 409 2034 409 
Q 2525 409 2770 889 
Q 3016 1369 3016 2328 
Q 3016 3291 2770 3770 
Q 2525 4250 2034 4250 
z
M 2034 4750 
Q 2819 4750 3233 4129 
Q 3647 3509 3647 2328 
Q 3647 1150 3233 529 
Q 2819 -91 2034 -91 
Q 1250 -91 836 529 
Q 422 1150 422 2328 
Q 422 3509 836 4129 
Q 1250 4750 2034 4750 
z
" transform="scale(0.015625)"/>
      </defs>
      <use xlink:href="#DejaVuSans-31"/>
      <use xlink:href="#DejaVuSans-2e" x="63.623047"/>
      <use xlink:href="#DejaVuSans-30" x="95.410156"/>
     </g>
    </g>
   </g>
   <g id="text_2">
    <g id="patch_4">
     <path d="M 213.463314 298.719063 
L 229.366439 298.719063 
Q 232.366439 298.719063 232.366439 295.719063 
L 232.366439 286.040937 
Q 232.366439 283.040937 229.366439 283.040937 
L 213.463314 283.040937 
Q 210.463314 283.040937 210.463314 286.040937 
L 210.463314 295.719063 
Q 210.463314 298.719063 213.463314 298.719063 
z
" clip-path="url(#p58d29d2135)" style="fill: #ffffff; stroke: #ffffff; stroke-linejoin: miter"/>
    </g>
    <g clip-path="url(#p58d29d2135)">
     <!-- 3.0 -->
     <g transform="translate(213.463314 293.639375) scale(0.1 -0.1)">
      <defs>
       <path id="DejaVuSans-33" d="M 2597 2516 
Q 3050 2419 3304 2112 
Q 3559 1806 3559 1356 
Q 3559 666 3084 287 
Q 2609 -91 1734 -91 
Q 1441 -91 1130 -33 
Q 819 25 488 141 
L 488 750 
Q 750 597 1062 519 
Q 1375 441 1716 441 
Q 2309 441 2620 675 
Q 2931 909 2931 1356 
Q 2931 1769 2642 2001 
Q 2353 2234 1838 2234 
L 1294 2234 
L 1294 2753 
L 1863 2753 
Q 2328 2753 2575 2939 
Q 2822 3125 2822 3475 
Q 2822 3834 2567 4026 
Q 2313 4219 1838 4219 
Q 1578 4219 1281 4162 
Q 984 4106 628 3988 
L 628 4550 
Q 988 4650 1302 4700 
Q 1616 4750 1894 4750 
Q 2613 4750 3031 4423 
Q 3450 4097 3450 3541 
Q 3450 3153 3228 2886 
Q 3006 2619 2597 2516 
z
" transform="scale(0.015625)"/>
      </defs>
      <use xlink:href="#DejaVuSans-33"/>
      <use xlink:href="#DejaVuSans-2e" x="63.623047"/>
      <use xlink:href="#DejaVuSans-30" x="95.410156"/>
     </g>
    </g>
   </g>
   <g id="text_3">
    <g id="patch_5">
     <path d="M 221.299192 256.22716 
L 232.580733 245.018404 
Q 234.708907 242.90396 232.594463 240.775785 
L 225.773178 233.910206 
Q 223.658734 231.782032 221.53056 233.896476 
L 210.249019 245.105233 
Q 208.120845 247.219677 210.235289 249.347851 
L 217.056574 256.21343 
Q 219.171018 258.341604 221.299192 256.22716 
z
" clip-path="url(#p58d29d2135)" style="fill: #ffffff; stroke: #ffffff; stroke-linejoin: miter"/>
    </g>
    <g clip-path="url(#p58d29d2135)">
     <!-- 2.0 -->
     <g transform="translate(217.718954 252.623673) rotate(-44.814577) scale(0.1 -0.1)">
      <defs>
       <path id="DejaVuSans-32" d="M 1228 531 
L 3431 531 
L 3431 0 
L 469 0 
L 469 531 
Q 828 903 1448 1529 
Q 2069 2156 2228 2338 
Q 2531 2678 2651 2914 
Q 2772 3150 2772 3378 
Q 2772 3750 2511 3984 
Q 2250 4219 1831 4219 
Q 1534 4219 1204 4116 
Q 875 4013 500 3803 
L 500 4441 
Q 881 4594 1212 4672 
Q 1544 4750 1819 4750 
Q 2544 4750 2975 4387 
Q 3406 4025 3406 3419 
Q 3406 3131 3298 2873 
Q 3191 2616 2906 2266 
Q 2828 2175 2409 1742 
Q 1991 1309 1228 531 
z
" transform="scale(0.015625)"/>
      </defs>
      <use xlink:href="#DejaVuSans-32"/>
      <use xlink:href="#DejaVuSans-2e" x="63.623047"/>
      <use xlink:href="#DejaVuSans-30" x="95.410156"/>
     </g>
    </g>
   </g>
   <g id="text_4">
    <g id="patch_6">
     <path d="M 139.67819 298.719063 
L 155.581315 298.719063 
Q 158.581315 298.719063 158.581315 295.719063 
L 158.581315 286.040937 
Q 158.581315 283.040937 155.581315 283.040937 
L 139.67819 283.040937 
Q 136.67819 283.040937 136.67819 286.040937 
L 136.67819 295.719063 
Q 136.67819 298.719063 139.67819 298.719063 
z
" clip-path="url(#p58d29d2135)" style="fill: #ffffff; stroke: #ffffff; stroke-linejoin: miter"/>
    </g>
    <g clip-path="url(#p58d29d2135)">
     <!-- 3.0 -->
     <g transform="translate(139.67819 293.639375) scale(0.1 -0.1)">
      <use xlink:href="#DejaVuSans-33"/>
      <use xlink:href="#DejaVuSans-2e" x="63.623047"/>
      <use xlink:href="#DejaVuSans-30" x="95.410156"/>
     </g>
    </g>
   </g>
   <g id="text_5">
    <g id="patch_7">
     <path d="M 213.463314 390.355426 
L 229.366439 390.355426 
Q 232.366439 390.355426 232.366439 387.355426 
L 232.366439 377.677301 
Q 232.366439 374.677301 229.366439 374.677301 
L 213.463314 374.677301 
Q 210.463314 374.677301 210.463314 377.677301 
L 210.463314 387.355426 
Q 210.463314 390.355426 213.463314 390.355426 
z
" clip-path="url(#p58d29d2135)" style="fill: #ffffff; stroke: #ffffff; stroke-linejoin: miter"/>
    </g>
    <g clip-path="url(#p58d29d2135)">
     <!-- 3.0 -->
     <g transform="translate(213.463314 385.275739) scale(0.1 -0.1)">
      <use xlink:href="#DejaVuSans-33"/>
      <use xlink:href="#DejaVuSans-2e" x="63.623047"/>
      <use xlink:href="#DejaVuSans-30" x="95.410156"/>
     </g>
    </g>
   </g>
   <g id="text_6">
    <g id="patch_8">
     <path d="M 136.463895 336.654767 
L 147.745436 347.863524 
Q 149.87361 349.977968 151.988054 347.849794 
L 158.809339 340.984215 
Q 160.923783 338.85604 158.795609 336.741596 
L 147.514068 325.53284 
Q 145.385894 323.418396 143.27145 325.54657 
L 136.450165 332.412149 
Q 134.335721 334.540323 136.463895 336.654767 
z
" clip-path="url(#p58d29d2135)" style="fill: #ffffff; stroke: #ffffff; stroke-linejoin: miter"/>
    </g>
    <g clip-path="url(#p58d29d2135)">
     <!-- 3.0 -->
     <g transform="translate(140.044134 333.051281) rotate(-315.185423) scale(0.1 -0.1)">
      <use xlink:href="#DejaVuSans-33"/>
      <use xlink:href="#DejaVuSans-2e" x="63.623047"/>
      <use xlink:href="#DejaVuSans-30" x="95.410156"/>
     </g>
    </g>
   </g>
   <g id="text_7">
    <g id="patch_9">
     <path d="M 176.683252 420.382983 
L 176.683252 436.286108 
Q 176.683252 439.286108 179.683252 439.286108 
L 189.361377 439.286108 
Q 192.361377 439.286108 192.361377 436.286108 
L 192.361377 420.382983 
Q 192.361377 417.382983 189.361377 417.382983 
L 179.683252 417.382983 
Q 176.683252 417.382983 176.683252 420.382983 
z
" clip-path="url(#p58d29d2135)" style="fill: #ffffff; stroke: #ffffff; stroke-linejoin: miter"/>
    </g>
    <g clip-path="url(#p58d29d2135)">
     <!-- 3.0 -->
     <g transform="translate(181.762939 420.382983) rotate(-270) scale(0.1 -0.1)">
      <use xlink:href="#DejaVuSans-33"/>
      <use xlink:href="#DejaVuSans-2e" x="63.623047"/>
      <use xlink:href="#DejaVuSans-30" x="95.410156"/>
     </g>
    </g>
   </g>
   <g id="text_8">
    <g id="patch_10">
     <path d="M 210.249019 428.291131 
L 221.53056 439.499888 
Q 223.658734 441.614332 225.773178 439.486157 
L 232.594463 432.620578 
Q 234.708907 430.492404 232.580733 428.37796 
L 221.299192 417.169203 
Q 219.171018 415.054759 217.056574 417.182934 
L 210.235289 424.048513 
Q 208.120845 426.176687 210.249019 428.291131 
z
" clip-path="url(#p58d29d2135)" style="fill: #ffffff; stroke: #ffffff; stroke-linejoin: miter"/>
    </g>
    <g clip-path="url(#p58d29d2135)">
     <!-- 1.0 -->
     <g transform="translate(213.829258 424.687644) rotate(-315.185423) scale(0.1 -0.1)">
      <use xlink:href="#DejaVuSans-31"/>
      <use xlink:href="#DejaVuSans-2e" x="63.623047"/>
      <use xlink:href="#DejaVuSans-30" x="95.410156"/>
     </g>
    </g>
   </g>
   <g id="text_9">
    <g id="patch_11">
     <path d="M 287.248437 298.719063 
L 303.151562 298.719063 
Q 306.151562 298.719063 306.151562 295.719063 
L 306.151562 286.040937 
Q 306.151562 283.040937 303.151562 283.040937 
L 287.248437 283.040937 
Q 284.248437 283.040937 284.248437 286.040937 
L 284.248437 295.719063 
Q 284.248437 298.719063 287.248437 298.719063 
z
" clip-path="url(#p58d29d2135)" style="fill: #ffffff; stroke: #ffffff; stroke-linejoin: miter"/>
    </g>
    <g clip-path="url(#p58d29d2135)">
     <!-- 2.0 -->
     <g transform="translate(287.248437 293.639375) scale(0.1 -0.1)">
      <use xlink:href="#DejaVuSans-32"/>
      <use xlink:href="#DejaVuSans-2e" x="63.623047"/>
      <use xlink:href="#DejaVuSans-30" x="95.410156"/>
     </g>
    </g>
   </g>
   <g id="text_10">
    <g id="patch_12">
     <path d="M 295.084316 347.863524 
L 306.365857 336.654767 
Q 308.494031 334.540323 306.379587 332.412149 
L 299.558302 325.54657 
Q 297.443858 323.418396 295.315684 325.53284 
L 284.034143 336.741596 
Q 281.905969 338.85604 284.020413 340.984215 
L 290.841698 347.849794 
Q 292.956142 349.977968 295.084316 347.863524 
z
" clip-path="url(#p58d29d2135)" style="fill: #ffffff; stroke: #ffffff; stroke-linejoin: miter"/>
    </g>
    <g clip-path="url(#p58d29d2135)">
     <!-- 1.0 -->
     <g transform="translate(291.504078 344.260037) rotate(-44.814577) scale(0.1 -0.1)">
      <use xlink:href="#DejaVuSans-31"/>
      <use xlink:href="#DejaVuSans-2e" x="63.623047"/>
      <use xlink:href="#DejaVuSans-30" x="95.410156"/>
     </g>
    </g>
   </g>
   <g id="text_11">
    <g id="patch_13">
     <path d="M 287.248437 390.355426 
L 303.151562 390.355426 
Q 306.151562 390.355426 306.151562 387.355426 
L 306.151562 377.677301 
Q 306.151562 374.677301 303.151562 374.677301 
L 287.248437 374.677301 
Q 284.248437 374.677301 284.248437 377.677301 
L 284.248437 387.355426 
Q 284.248437 390.355426 287.248437 390.355426 
z
" clip-path="url(#p58d29d2135)" style="fill: #ffffff; stroke: #ffffff; stroke-linejoin: miter"/>
    </g>
    <g clip-path="url(#p58d29d2135)">
     <!-- 2.0 -->
     <g transform="translate(287.248437 385.275739) scale(0.1 -0.1)">
      <use xlink:href="#DejaVuSans-32"/>
      <use xlink:href="#DejaVuSans-2e" x="63.623047"/>
      <use xlink:href="#DejaVuSans-30" x="95.410156"/>
     </g>
    </g>
   </g>
   <g id="text_12">
    <g id="patch_14">
     <path d="M 250.468376 420.382983 
L 250.468376 436.286108 
Q 250.468376 439.286108 253.468376 439.286108 
L 263.146501 439.286108 
Q 266.146501 439.286108 266.146501 436.286108 
L 266.146501 420.382983 
Q 266.146501 417.382983 263.146501 417.382983 
L 253.468376 417.382983 
Q 250.468376 417.382983 250.468376 420.382983 
z
" clip-path="url(#p58d29d2135)" style="fill: #ffffff; stroke: #ffffff; stroke-linejoin: miter"/>
    </g>
    <g clip-path="url(#p58d29d2135)">
     <!-- 2.0 -->
     <g transform="translate(255.548063 420.382983) rotate(-270) scale(0.1 -0.1)">
      <use xlink:href="#DejaVuSans-32"/>
      <use xlink:href="#DejaVuSans-2e" x="63.623047"/>
      <use xlink:href="#DejaVuSans-30" x="95.410156"/>
     </g>
    </g>
   </g>
   <g id="text_13">
    <g id="patch_15">
     <path d="M 284.034143 245.018404 
L 295.315684 256.22716 
Q 297.443858 258.341604 299.558302 256.21343 
L 306.379587 249.347851 
Q 308.494031 247.219677 306.365857 245.105233 
L 295.084316 233.896476 
Q 292.956142 231.782032 290.841698 233.910206 
L 284.020413 240.775785 
Q 281.905969 242.90396 284.034143 245.018404 
z
" clip-path="url(#p58d29d2135)" style="fill: #ffffff; stroke: #ffffff; stroke-linejoin: miter"/>
    </g>
    <g clip-path="url(#p58d29d2135)">
     <!-- 4.0 -->
     <g transform="translate(287.614382 241.414917) rotate(-315.185423) scale(0.1 -0.1)">
      <defs>
       <path id="DejaVuSans-34" d="M 2419 4116 
L 825 1625 
L 2419 1625 
L 2419 4116 
z
M 2253 4666 
L 3047 4666 
L 3047 1625 
L 3713 1625 
L 3713 1100 
L 3047 1100 
L 3047 0 
L 2419 0 
L 2419 1100 
L 313 1100 
L 313 1709 
L 2253 4666 
z
" transform="scale(0.015625)"/>
      </defs>
      <use xlink:href="#DejaVuSans-34"/>
      <use xlink:href="#DejaVuSans-2e" x="63.623047"/>
      <use xlink:href="#DejaVuSans-30" x="95.410156"/>
     </g>
    </g>
   </g>
   <g id="text_14">
    <g id="patch_16">
     <path d="M 287.248437 207.082699 
L 303.151562 207.082699 
Q 306.151562 207.082699 306.151562 204.082699 
L 306.151562 194.404574 
Q 306.151562 191.404574 303.151562 191.404574 
L 287.248437 191.404574 
Q 284.248437 191.404574 284.248437 194.404574 
L 284.248437 204.082699 
Q 284.248437 207.082699 287.248437 207.082699 
z
" clip-path="url(#p58d29d2135)" style="fill: #ffffff; stroke: #ffffff; stroke-linejoin: miter"/>
    </g>
    <g clip-path="url(#p58d29d2135)">
     <!-- 3.0 -->
     <g transform="translate(287.248437 202.003011) scale(0.1 -0.1)">
      <use xlink:href="#DejaVuSans-33"/>
      <use xlink:href="#DejaVuSans-2e" x="63.623047"/>
      <use xlink:href="#DejaVuSans-30" x="95.410156"/>
     </g>
    </g>
   </g>
   <g id="text_15">
    <g id="patch_17">
     <path d="M 339.931624 253.013381 
L 339.931624 237.110256 
Q 339.931624 234.110256 336.931624 234.110256 
L 327.253499 234.110256 
Q 324.253499 234.110256 324.253499 237.110256 
L 324.253499 253.013381 
Q 324.253499 256.013381 327.253499 256.013381 
L 336.931624 256.013381 
Q 339.931624 256.013381 339.931624 253.013381 
z
" clip-path="url(#p58d29d2135)" style="fill: #ffffff; stroke: #ffffff; stroke-linejoin: miter"/>
    </g>
    <g clip-path="url(#p58d29d2135)">
     <!-- 2.0 -->
     <g transform="translate(334.851937 253.013381) rotate(-90) scale(0.1 -0.1)">
      <use xlink:href="#DejaVuSans-32"/>
      <use xlink:href="#DejaVuSans-2e" x="63.623047"/>
      <use xlink:href="#DejaVuSans-30" x="95.410156"/>
     </g>
    </g>
   </g>
   <g id="text_16">
    <g id="patch_18">
     <path d="M 324.253499 328.746619 
L 324.253499 344.649744 
Q 324.253499 347.649744 327.253499 347.649744 
L 336.931624 347.649744 
Q 339.931624 347.649744 339.931624 344.649744 
L 339.931624 328.746619 
Q 339.931624 325.746619 336.931624 325.746619 
L 327.253499 325.746619 
Q 324.253499 325.746619 324.253499 328.746619 
z
" clip-path="url(#p58d29d2135)" style="fill: #ffffff; stroke: #ffffff; stroke-linejoin: miter"/>
    </g>
    <g clip-path="url(#p58d29d2135)">
     <!-- 1.0 -->
     <g transform="translate(329.333187 328.746619) rotate(-270) scale(0.1 -0.1)">
      <use xlink:href="#DejaVuSans-31"/>
      <use xlink:href="#DejaVuSans-2e" x="63.623047"/>
      <use xlink:href="#DejaVuSans-30" x="95.410156"/>
     </g>
    </g>
   </g>
   <g id="text_17">
    <g id="patch_19">
     <path d="M 368.86944 256.22716 
L 380.150981 245.018404 
Q 382.279155 242.90396 380.164711 240.775785 
L 373.343426 233.910206 
Q 371.228982 231.782032 369.100808 233.896476 
L 357.819267 245.105233 
Q 355.691093 247.219677 357.805537 249.347851 
L 364.626822 256.21343 
Q 366.741266 258.341604 368.86944 256.22716 
z
" clip-path="url(#p58d29d2135)" style="fill: #ffffff; stroke: #ffffff; stroke-linejoin: miter"/>
    </g>
    <g clip-path="url(#p58d29d2135)">
     <!-- 2.0 -->
     <g transform="translate(365.289202 252.623673) rotate(-44.814577) scale(0.1 -0.1)">
      <use xlink:href="#DejaVuSans-32"/>
      <use xlink:href="#DejaVuSans-2e" x="63.623047"/>
      <use xlink:href="#DejaVuSans-30" x="95.410156"/>
     </g>
    </g>
   </g>
   <g id="text_18">
    <g id="patch_20">
     <path d="M 361.033561 298.719063 
L 376.936686 298.719063 
Q 379.936686 298.719063 379.936686 295.719063 
L 379.936686 286.040937 
Q 379.936686 283.040937 376.936686 283.040937 
L 361.033561 283.040937 
Q 358.033561 283.040937 358.033561 286.040937 
L 358.033561 295.719063 
Q 358.033561 298.719063 361.033561 298.719063 
z
" clip-path="url(#p58d29d2135)" style="fill: #ffffff; stroke: #ffffff; stroke-linejoin: miter"/>
    </g>
    <g clip-path="url(#p58d29d2135)">
     <!-- 3.0 -->
     <g transform="translate(361.033561 293.639375) scale(0.1 -0.1)">
      <use xlink:href="#DejaVuSans-33"/>
      <use xlink:href="#DejaVuSans-2e" x="63.623047"/>
      <use xlink:href="#DejaVuSans-30" x="95.410156"/>
     </g>
    </g>
   </g>
   <g id="text_19">
    <g id="patch_21">
     <path d="M 368.86944 347.863524 
L 380.150981 336.654767 
Q 382.279155 334.540323 380.164711 332.412149 
L 373.343426 325.54657 
Q 371.228982 323.418396 369.100808 325.53284 
L 357.819267 336.741596 
Q 355.691093 338.85604 357.805537 340.984215 
L 364.626822 347.849794 
Q 366.741266 349.977968 368.86944 347.863524 
z
" clip-path="url(#p58d29d2135)" style="fill: #ffffff; stroke: #ffffff; stroke-linejoin: miter"/>
    </g>
    <g clip-path="url(#p58d29d2135)">
     <!-- 3.0 -->
     <g transform="translate(365.289202 344.260037) rotate(-44.814577) scale(0.1 -0.1)">
      <use xlink:href="#DejaVuSans-33"/>
      <use xlink:href="#DejaVuSans-2e" x="63.623047"/>
      <use xlink:href="#DejaVuSans-30" x="95.410156"/>
     </g>
    </g>
   </g>
   <g id="text_20">
    <g id="patch_22">
     <path d="M 357.819267 428.291131 
L 369.100808 439.499888 
Q 371.228982 441.614332 373.343426 439.486157 
L 380.164711 432.620578 
Q 382.279155 430.492404 380.150981 428.37796 
L 368.86944 417.169203 
Q 366.741266 415.054759 364.626822 417.182934 
L 357.805537 424.048513 
Q 355.691093 426.176687 357.819267 428.291131 
z
" clip-path="url(#p58d29d2135)" style="fill: #ffffff; stroke: #ffffff; stroke-linejoin: miter"/>
    </g>
    <g clip-path="url(#p58d29d2135)">
     <!-- 3.0 -->
     <g transform="translate(361.399505 424.687644) rotate(-315.185423) scale(0.1 -0.1)">
      <use xlink:href="#DejaVuSans-33"/>
      <use xlink:href="#DejaVuSans-2e" x="63.623047"/>
      <use xlink:href="#DejaVuSans-30" x="95.410156"/>
     </g>
    </g>
   </g>
   <g id="text_21">
    <g id="patch_23">
     <path d="M 324.253499 145.473892 
L 324.253499 161.377017 
Q 324.253499 164.377017 327.253499 164.377017 
L 336.931624 164.377017 
Q 339.931624 164.377017 339.931624 161.377017 
L 339.931624 145.473892 
Q 339.931624 142.473892 336.931624 142.473892 
L 327.253499 142.473892 
Q 324.253499 142.473892 324.253499 145.473892 
z
" clip-path="url(#p58d29d2135)" style="fill: #ffffff; stroke: #ffffff; stroke-linejoin: miter"/>
    </g>
    <g clip-path="url(#p58d29d2135)">
     <!-- 3.0 -->
     <g transform="translate(329.333187 145.473892) rotate(-270) scale(0.1 -0.1)">
      <use xlink:href="#DejaVuSans-33"/>
      <use xlink:href="#DejaVuSans-2e" x="63.623047"/>
      <use xlink:href="#DejaVuSans-30" x="95.410156"/>
     </g>
    </g>
   </g>
   <g id="text_22">
    <g id="patch_24">
     <path d="M 361.033561 207.082699 
L 376.936686 207.082699 
Q 379.936686 207.082699 379.936686 204.082699 
L 379.936686 194.404574 
Q 379.936686 191.404574 376.936686 191.404574 
L 361.033561 191.404574 
Q 358.033561 191.404574 358.033561 194.404574 
L 358.033561 204.082699 
Q 358.033561 207.082699 361.033561 207.082699 
z
" clip-path="url(#p58d29d2135)" style="fill: #ffffff; stroke: #ffffff; stroke-linejoin: miter"/>
    </g>
    <g clip-path="url(#p58d29d2135)">
     <!-- 1.0 -->
     <g transform="translate(361.033561 202.003011) scale(0.1 -0.1)">
      <use xlink:href="#DejaVuSans-31"/>
      <use xlink:href="#DejaVuSans-2e" x="63.623047"/>
      <use xlink:href="#DejaVuSans-30" x="95.410156"/>
     </g>
    </g>
   </g>
   <g id="text_23">
    <g id="patch_25">
     <path d="M 284.034143 153.38204 
L 295.315684 164.590797 
Q 297.443858 166.705241 299.558302 164.577066 
L 306.379587 157.711487 
Q 308.494031 155.583313 306.365857 153.468869 
L 295.084316 142.260112 
Q 292.956142 140.145668 290.841698 142.273843 
L 284.020413 149.139422 
Q 281.905969 151.267596 284.034143 153.38204 
z
" clip-path="url(#p58d29d2135)" style="fill: #ffffff; stroke: #ffffff; stroke-linejoin: miter"/>
    </g>
    <g clip-path="url(#p58d29d2135)">
     <!-- 4.0 -->
     <g transform="translate(287.614382 149.778553) rotate(-315.185423) scale(0.1 -0.1)">
      <use xlink:href="#DejaVuSans-34"/>
      <use xlink:href="#DejaVuSans-2e" x="63.623047"/>
      <use xlink:href="#DejaVuSans-30" x="95.410156"/>
     </g>
    </g>
   </g>
   <g id="text_24">
    <g id="patch_26">
     <path d="M 368.86944 164.590797 
L 380.150981 153.38204 
Q 382.279155 151.267596 380.164711 149.139422 
L 373.343426 142.273843 
Q 371.228982 140.145668 369.100808 142.260112 
L 357.819267 153.468869 
Q 355.691093 155.583313 357.805537 157.711487 
L 364.626822 164.577066 
Q 366.741266 166.705241 368.86944 164.590797 
z
" clip-path="url(#p58d29d2135)" style="fill: #ffffff; stroke: #ffffff; stroke-linejoin: miter"/>
    </g>
    <g clip-path="url(#p58d29d2135)">
     <!-- 4.0 -->
     <g transform="translate(365.289202 160.98731) rotate(-44.814577) scale(0.1 -0.1)">
      <use xlink:href="#DejaVuSans-34"/>
      <use xlink:href="#DejaVuSans-2e" x="63.623047"/>
      <use xlink:href="#DejaVuSans-30" x="95.410156"/>
     </g>
    </g>
   </g>
   <g id="text_25">
    <g id="patch_27">
     <path d="M 398.038623 237.110256 
L 398.038623 253.013381 
Q 398.038623 256.013381 401.038623 256.013381 
L 410.716748 256.013381 
Q 413.716748 256.013381 413.716748 253.013381 
L 413.716748 237.110256 
Q 413.716748 234.110256 410.716748 234.110256 
L 401.038623 234.110256 
Q 398.038623 234.110256 398.038623 237.110256 
z
" clip-path="url(#p58d29d2135)" style="fill: #ffffff; stroke: #ffffff; stroke-linejoin: miter"/>
    </g>
    <g clip-path="url(#p58d29d2135)">
     <!-- 2.0 -->
     <g transform="translate(403.118311 237.110256) rotate(-270) scale(0.1 -0.1)">
      <use xlink:href="#DejaVuSans-32"/>
      <use xlink:href="#DejaVuSans-2e" x="63.623047"/>
      <use xlink:href="#DejaVuSans-30" x="95.410156"/>
     </g>
    </g>
   </g>
   <g id="text_26">
    <g id="patch_28">
     <path d="M 431.604391 245.018404 
L 442.885932 256.22716 
Q 445.014106 258.341604 447.12855 256.21343 
L 453.949835 249.347851 
Q 456.064279 247.219677 453.936105 245.105233 
L 442.654564 233.896476 
Q 440.52639 231.782032 438.411946 233.910206 
L 431.590661 240.775785 
Q 429.476217 242.90396 431.604391 245.018404 
z
" clip-path="url(#p58d29d2135)" style="fill: #ffffff; stroke: #ffffff; stroke-linejoin: miter"/>
    </g>
    <g clip-path="url(#p58d29d2135)">
     <!-- 1.0 -->
     <g transform="translate(435.184629 241.414917) rotate(-315.185423) scale(0.1 -0.1)">
      <use xlink:href="#DejaVuSans-31"/>
      <use xlink:href="#DejaVuSans-2e" x="63.623047"/>
      <use xlink:href="#DejaVuSans-30" x="95.410156"/>
     </g>
    </g>
   </g>
   <g id="text_27">
    <g id="patch_29">
     <path d="M 398.038623 328.746619 
L 398.038623 344.649744 
Q 398.038623 347.649744 401.038623 347.649744 
L 410.716748 347.649744 
Q 413.716748 347.649744 413.716748 344.649744 
L 413.716748 328.746619 
Q 413.716748 325.746619 410.716748 325.746619 
L 401.038623 325.746619 
Q 398.038623 325.746619 398.038623 328.746619 
z
" clip-path="url(#p58d29d2135)" style="fill: #ffffff; stroke: #ffffff; stroke-linejoin: miter"/>
    </g>
    <g clip-path="url(#p58d29d2135)">
     <!-- 2.0 -->
     <g transform="translate(403.118311 328.746619) rotate(-270) scale(0.1 -0.1)">
      <use xlink:href="#DejaVuSans-32"/>
      <use xlink:href="#DejaVuSans-2e" x="63.623047"/>
      <use xlink:href="#DejaVuSans-30" x="95.410156"/>
     </g>
    </g>
   </g>
   <g id="text_28">
    <g id="patch_30">
     <path d="M 398.038623 420.382983 
L 398.038623 436.286108 
Q 398.038623 439.286108 401.038623 439.286108 
L 410.716748 439.286108 
Q 413.716748 439.286108 413.716748 436.286108 
L 413.716748 420.382983 
Q 413.716748 417.382983 410.716748 417.382983 
L 401.038623 417.382983 
Q 398.038623 417.382983 398.038623 420.382983 
z
" clip-path="url(#p58d29d2135)" style="fill: #ffffff; stroke: #ffffff; stroke-linejoin: miter"/>
    </g>
    <g clip-path="url(#p58d29d2135)">
     <!-- 4.0 -->
     <g transform="translate(403.118311 420.382983) rotate(-270) scale(0.1 -0.1)">
      <use xlink:href="#DejaVuSans-34"/>
      <use xlink:href="#DejaVuSans-2e" x="63.623047"/>
      <use xlink:href="#DejaVuSans-30" x="95.410156"/>
     </g>
    </g>
   </g>
   <g id="text_29">
    <g id="patch_31">
     <path d="M 442.654564 347.863524 
L 453.936105 336.654767 
Q 456.064279 334.540323 453.949835 332.412149 
L 447.12855 325.54657 
Q 445.014106 323.418396 442.885932 325.53284 
L 431.604391 336.741596 
Q 429.476217 338.85604 431.590661 340.984215 
L 438.411946 347.849794 
Q 440.52639 349.977968 442.654564 347.863524 
z
" clip-path="url(#p58d29d2135)" style="fill: #ffffff; stroke: #ffffff; stroke-linejoin: miter"/>
    </g>
    <g clip-path="url(#p58d29d2135)">
     <!-- 6.0 -->
     <g transform="translate(439.074326 344.260037) rotate(-44.814577) scale(0.1 -0.1)">
      <defs>
       <path id="DejaVuSans-36" d="M 2113 2584 
Q 1688 2584 1439 2293 
Q 1191 2003 1191 1497 
Q 1191 994 1439 701 
Q 1688 409 2113 409 
Q 2538 409 2786 701 
Q 3034 994 3034 1497 
Q 3034 2003 2786 2293 
Q 2538 2584 2113 2584 
z
M 3366 4563 
L 3366 3988 
Q 3128 4100 2886 4159 
Q 2644 4219 2406 4219 
Q 1781 4219 1451 3797 
Q 1122 3375 1075 2522 
Q 1259 2794 1537 2939 
Q 1816 3084 2150 3084 
Q 2853 3084 3261 2657 
Q 3669 2231 3669 1497 
Q 3669 778 3244 343 
Q 2819 -91 2113 -91 
Q 1303 -91 875 529 
Q 447 1150 447 2328 
Q 447 3434 972 4092 
Q 1497 4750 2381 4750 
Q 2619 4750 2861 4703 
Q 3103 4656 3366 4563 
z
" transform="scale(0.015625)"/>
      </defs>
      <use xlink:href="#DejaVuSans-36"/>
      <use xlink:href="#DejaVuSans-2e" x="63.623047"/>
      <use xlink:href="#DejaVuSans-30" x="95.410156"/>
     </g>
    </g>
   </g>
   <g id="text_30">
    <g id="patch_32">
     <path d="M 102.898128 145.473892 
L 102.898128 161.377017 
Q 102.898128 164.377017 105.898128 164.377017 
L 115.576253 164.377017 
Q 118.576253 164.377017 118.576253 161.377017 
L 118.576253 145.473892 
Q 118.576253 142.473892 115.576253 142.473892 
L 105.898128 142.473892 
Q 102.898128 142.473892 102.898128 145.473892 
z
" clip-path="url(#p58d29d2135)" style="fill: #ffffff; stroke: #ffffff; stroke-linejoin: miter"/>
    </g>
    <g clip-path="url(#p58d29d2135)">
     <!-- 1.0 -->
     <g transform="translate(107.977815 145.473892) rotate(-270) scale(0.1 -0.1)">
      <use xlink:href="#DejaVuSans-31"/>
      <use xlink:href="#DejaVuSans-2e" x="63.623047"/>
      <use xlink:href="#DejaVuSans-30" x="95.410156"/>
     </g>
    </g>
   </g>
   <g id="text_31">
    <g id="patch_33">
     <path d="M 136.463895 153.38204 
L 147.745436 164.590797 
Q 149.87361 166.705241 151.988054 164.577066 
L 158.809339 157.711487 
Q 160.923783 155.583313 158.795609 153.468869 
L 147.514068 142.260112 
Q 145.385894 140.145668 143.27145 142.273843 
L 136.450165 149.139422 
Q 134.335721 151.267596 136.463895 153.38204 
z
" clip-path="url(#p58d29d2135)" style="fill: #ffffff; stroke: #ffffff; stroke-linejoin: miter"/>
    </g>
    <g clip-path="url(#p58d29d2135)">
     <!-- 2.0 -->
     <g transform="translate(140.044134 149.778553) rotate(-315.185423) scale(0.1 -0.1)">
      <use xlink:href="#DejaVuSans-32"/>
      <use xlink:href="#DejaVuSans-2e" x="63.623047"/>
      <use xlink:href="#DejaVuSans-30" x="95.410156"/>
     </g>
    </g>
   </g>
   <g id="text_32">
    <g id="patch_34">
     <path d="M 139.67819 115.446335 
L 155.581315 115.446335 
Q 158.581315 115.446335 158.581315 112.446335 
L 158.581315 102.76821 
Q 158.581315 99.76821 155.581315 99.76821 
L 139.67819 99.76821 
Q 136.67819 99.76821 136.67819 102.76821 
L 136.67819 112.446335 
Q 136.67819 115.446335 139.67819 115.446335 
z
" clip-path="url(#p58d29d2135)" style="fill: #ffffff; stroke: #ffffff; stroke-linejoin: miter"/>
    </g>
    <g clip-path="url(#p58d29d2135)">
     <!-- 3.0 -->
     <g transform="translate(139.67819 110.366648) scale(0.1 -0.1)">
      <use xlink:href="#DejaVuSans-33"/>
      <use xlink:href="#DejaVuSans-2e" x="63.623047"/>
      <use xlink:href="#DejaVuSans-30" x="95.410156"/>
     </g>
    </g>
   </g>
   <g id="text_33">
    <g id="patch_35">
     <path d="M 102.898128 237.110256 
L 102.898128 253.013381 
Q 102.898128 256.013381 105.898128 256.013381 
L 115.576253 256.013381 
Q 118.576253 256.013381 118.576253 253.013381 
L 118.576253 237.110256 
Q 118.576253 234.110256 115.576253 234.110256 
L 105.898128 234.110256 
Q 102.898128 234.110256 102.898128 237.110256 
z
" clip-path="url(#p58d29d2135)" style="fill: #ffffff; stroke: #ffffff; stroke-linejoin: miter"/>
    </g>
    <g clip-path="url(#p58d29d2135)">
     <!-- 4.0 -->
     <g transform="translate(107.977815 237.110256) rotate(-270) scale(0.1 -0.1)">
      <use xlink:href="#DejaVuSans-34"/>
      <use xlink:href="#DejaVuSans-2e" x="63.623047"/>
      <use xlink:href="#DejaVuSans-30" x="95.410156"/>
     </g>
    </g>
   </g>
   <g id="text_34">
    <g id="patch_36">
     <path d="M 147.514068 256.22716 
L 158.795609 245.018404 
Q 160.923783 242.90396 158.809339 240.775785 
L 151.988054 233.910206 
Q 149.87361 231.782032 147.745436 233.896476 
L 136.463895 245.105233 
Q 134.335721 247.219677 136.450165 249.347851 
L 143.27145 256.21343 
Q 145.385894 258.341604 147.514068 256.22716 
z
" clip-path="url(#p58d29d2135)" style="fill: #ffffff; stroke: #ffffff; stroke-linejoin: miter"/>
    </g>
    <g clip-path="url(#p58d29d2135)">
     <!-- 2.0 -->
     <g transform="translate(143.93383 252.623673) rotate(-44.814577) scale(0.1 -0.1)">
      <use xlink:href="#DejaVuSans-32"/>
      <use xlink:href="#DejaVuSans-2e" x="63.623047"/>
      <use xlink:href="#DejaVuSans-30" x="95.410156"/>
     </g>
    </g>
   </g>
   <g id="text_35">
    <g id="patch_37">
     <path d="M 221.299192 164.590797 
L 232.580733 153.38204 
Q 234.708907 151.267596 232.594463 149.139422 
L 225.773178 142.273843 
Q 223.658734 140.145668 221.53056 142.260112 
L 210.249019 153.468869 
Q 208.120845 155.583313 210.235289 157.711487 
L 217.056574 164.577066 
Q 219.171018 166.705241 221.299192 164.590797 
z
" clip-path="url(#p58d29d2135)" style="fill: #ffffff; stroke: #ffffff; stroke-linejoin: miter"/>
    </g>
    <g clip-path="url(#p58d29d2135)">
     <!-- 3.0 -->
     <g transform="translate(217.718954 160.98731) rotate(-44.814577) scale(0.1 -0.1)">
      <use xlink:href="#DejaVuSans-33"/>
      <use xlink:href="#DejaVuSans-2e" x="63.623047"/>
      <use xlink:href="#DejaVuSans-30" x="95.410156"/>
     </g>
    </g>
   </g>
   <g id="text_36">
    <g id="patch_38">
     <path d="M 213.463314 115.446335 
L 229.366439 115.446335 
Q 232.366439 115.446335 232.366439 112.446335 
L 232.366439 102.76821 
Q 232.366439 99.76821 229.366439 99.76821 
L 213.463314 99.76821 
Q 210.463314 99.76821 210.463314 102.76821 
L 210.463314 112.446335 
Q 210.463314 115.446335 213.463314 115.446335 
z
" clip-path="url(#p58d29d2135)" style="fill: #ffffff; stroke: #ffffff; stroke-linejoin: miter"/>
    </g>
    <g clip-path="url(#p58d29d2135)">
     <!-- 5.0 -->
     <g transform="translate(213.463314 110.366648) scale(0.1 -0.1)">
      <defs>
       <path id="DejaVuSans-35" d="M 691 4666 
L 3169 4666 
L 3169 4134 
L 1269 4134 
L 1269 2991 
Q 1406 3038 1543 3061 
Q 1681 3084 1819 3084 
Q 2600 3084 3056 2656 
Q 3513 2228 3513 1497 
Q 3513 744 3044 326 
Q 2575 -91 1722 -91 
Q 1428 -91 1123 -41 
Q 819 9 494 109 
L 494 744 
Q 775 591 1075 516 
Q 1375 441 1709 441 
Q 2250 441 2565 725 
Q 2881 1009 2881 1497 
Q 2881 1984 2565 2268 
Q 2250 2553 1709 2553 
Q 1456 2553 1204 2497 
Q 953 2441 691 2322 
L 691 4666 
z
" transform="scale(0.015625)"/>
      </defs>
      <use xlink:href="#DejaVuSans-35"/>
      <use xlink:href="#DejaVuSans-2e" x="63.623047"/>
      <use xlink:href="#DejaVuSans-30" x="95.410156"/>
     </g>
    </g>
   </g>
   <g id="text_37">
    <g id="patch_39">
     <path d="M 102.898128 328.746619 
L 102.898128 344.649744 
Q 102.898128 347.649744 105.898128 347.649744 
L 115.576253 347.649744 
Q 118.576253 347.649744 118.576253 344.649744 
L 118.576253 328.746619 
Q 118.576253 325.746619 115.576253 325.746619 
L 105.898128 325.746619 
Q 102.898128 325.746619 102.898128 328.746619 
z
" clip-path="url(#p58d29d2135)" style="fill: #ffffff; stroke: #ffffff; stroke-linejoin: miter"/>
    </g>
    <g clip-path="url(#p58d29d2135)">
     <!-- 3.0 -->
     <g transform="translate(107.977815 328.746619) rotate(-270) scale(0.1 -0.1)">
      <use xlink:href="#DejaVuSans-33"/>
      <use xlink:href="#DejaVuSans-2e" x="63.623047"/>
      <use xlink:href="#DejaVuSans-30" x="95.410156"/>
     </g>
    </g>
   </g>
   <g id="text_38">
    <g id="patch_40">
     <path d="M 102.898128 420.382983 
L 102.898128 436.286108 
Q 102.898128 439.286108 105.898128 439.286108 
L 115.576253 439.286108 
Q 118.576253 439.286108 118.576253 436.286108 
L 118.576253 420.382983 
Q 118.576253 417.382983 115.576253 417.382983 
L 105.898128 417.382983 
Q 102.898128 417.382983 102.898128 420.382983 
z
" clip-path="url(#p58d29d2135)" style="fill: #ffffff; stroke: #ffffff; stroke-linejoin: miter"/>
    </g>
    <g clip-path="url(#p58d29d2135)">
     <!-- 1.0 -->
     <g transform="translate(107.977815 420.382983) rotate(-270) scale(0.1 -0.1)">
      <use xlink:href="#DejaVuSans-31"/>
      <use xlink:href="#DejaVuSans-2e" x="63.623047"/>
      <use xlink:href="#DejaVuSans-30" x="95.410156"/>
     </g>
    </g>
   </g>
   <g id="text_39">
    <g id="patch_41">
     <path d="M 287.248437 481.99179 
L 303.151562 481.99179 
Q 306.151562 481.99179 306.151562 478.99179 
L 306.151562 469.313665 
Q 306.151562 466.313665 303.151562 466.313665 
L 287.248437 466.313665 
Q 284.248437 466.313665 284.248437 469.313665 
L 284.248437 478.99179 
Q 284.248437 481.99179 287.248437 481.99179 
z
" clip-path="url(#p58d29d2135)" style="fill: #ffffff; stroke: #ffffff; stroke-linejoin: miter"/>
    </g>
    <g clip-path="url(#p58d29d2135)">
     <!-- 2.0 -->
     <g transform="translate(287.248437 476.912102) scale(0.1 -0.1)">
      <use xlink:href="#DejaVuSans-32"/>
      <use xlink:href="#DejaVuSans-2e" x="63.623047"/>
      <use xlink:href="#DejaVuSans-30" x="95.410156"/>
     </g>
    </g>
   </g>
   <g id="text_40">
    <g id="patch_42">
     <path d="M 361.033561 481.99179 
L 376.936686 481.99179 
Q 379.936686 481.99179 379.936686 478.99179 
L 379.936686 469.313665 
Q 379.936686 466.313665 376.936686 466.313665 
L 361.033561 466.313665 
Q 358.033561 466.313665 358.033561 469.313665 
L 358.033561 478.99179 
Q 358.033561 481.99179 361.033561 481.99179 
z
" clip-path="url(#p58d29d2135)" style="fill: #ffffff; stroke: #ffffff; stroke-linejoin: miter"/>
    </g>
    <g clip-path="url(#p58d29d2135)">
     <!-- 3.0 -->
     <g transform="translate(361.033561 476.912102) scale(0.1 -0.1)">
      <use xlink:href="#DejaVuSans-33"/>
      <use xlink:href="#DejaVuSans-2e" x="63.623047"/>
      <use xlink:href="#DejaVuSans-30" x="95.410156"/>
     </g>
    </g>
   </g>
   <g id="text_41">
    <g id="patch_43">
     <path d="M 442.654564 439.499888 
L 453.936105 428.291131 
Q 456.064279 426.176687 453.949835 424.048513 
L 447.12855 417.182934 
Q 445.014106 415.054759 442.885932 417.169203 
L 431.604391 428.37796 
Q 429.476217 430.492404 431.590661 432.620578 
L 438.411946 439.486157 
Q 440.52639 441.614332 442.654564 439.499888 
z
" clip-path="url(#p58d29d2135)" style="fill: #ffffff; stroke: #ffffff; stroke-linejoin: miter"/>
    </g>
    <g clip-path="url(#p58d29d2135)">
     <!-- 3.0 -->
     <g transform="translate(439.074326 435.896401) rotate(-44.814577) scale(0.1 -0.1)">
      <use xlink:href="#DejaVuSans-33"/>
      <use xlink:href="#DejaVuSans-2e" x="63.623047"/>
      <use xlink:href="#DejaVuSans-30" x="95.410156"/>
     </g>
    </g>
   </g>
   <g id="text_42">
    <g id="patch_44">
     <path d="M 434.818685 481.99179 
L 450.72181 481.99179 
Q 453.72181 481.99179 453.72181 478.99179 
L 453.72181 469.313665 
Q 453.72181 466.313665 450.72181 466.313665 
L 434.818685 466.313665 
Q 431.818685 466.313665 431.818685 469.313665 
L 431.818685 478.99179 
Q 431.818685 481.99179 434.818685 481.99179 
z
" clip-path="url(#p58d29d2135)" style="fill: #ffffff; stroke: #ffffff; stroke-linejoin: miter"/>
    </g>
    <g clip-path="url(#p58d29d2135)">
     <!-- 4.0 -->
     <g transform="translate(434.818685 476.912102) scale(0.1 -0.1)">
      <use xlink:href="#DejaVuSans-34"/>
      <use xlink:href="#DejaVuSans-2e" x="63.623047"/>
      <use xlink:href="#DejaVuSans-30" x="95.410156"/>
     </g>
    </g>
   </g>
   <g id="text_43">
    <g id="patch_45">
     <path d="M 434.818685 115.446335 
L 450.72181 115.446335 
Q 453.72181 115.446335 453.72181 112.446335 
L 453.72181 102.76821 
Q 453.72181 99.76821 450.72181 99.76821 
L 434.818685 99.76821 
Q 431.818685 99.76821 431.818685 102.76821 
L 431.818685 112.446335 
Q 431.818685 115.446335 434.818685 115.446335 
z
" clip-path="url(#p58d29d2135)" style="fill: #ffffff; stroke: #ffffff; stroke-linejoin: miter"/>
    </g>
    <g clip-path="url(#p58d29d2135)">
     <!-- 3.0 -->
     <g transform="translate(434.818685 110.366648) scale(0.1 -0.1)">
      <use xlink:href="#DejaVuSans-33"/>
      <use xlink:href="#DejaVuSans-2e" x="63.623047"/>
      <use xlink:href="#DejaVuSans-30" x="95.410156"/>
     </g>
    </g>
   </g>
   <g id="text_44">
    <g id="patch_46">
     <path d="M 471.823747 145.473892 
L 471.823747 161.377017 
Q 471.823747 164.377017 474.823747 164.377017 
L 484.501872 164.377017 
Q 487.501872 164.377017 487.501872 161.377017 
L 487.501872 145.473892 
Q 487.501872 142.473892 484.501872 142.473892 
L 474.823747 142.473892 
Q 471.823747 142.473892 471.823747 145.473892 
z
" clip-path="url(#p58d29d2135)" style="fill: #ffffff; stroke: #ffffff; stroke-linejoin: miter"/>
    </g>
    <g clip-path="url(#p58d29d2135)">
     <!-- 2.0 -->
     <g transform="translate(476.903435 145.473892) rotate(-270) scale(0.1 -0.1)">
      <use xlink:href="#DejaVuSans-32"/>
      <use xlink:href="#DejaVuSans-2e" x="63.623047"/>
      <use xlink:href="#DejaVuSans-30" x="95.410156"/>
     </g>
    </g>
   </g>
   <g id="text_45">
    <g id="patch_47">
     <path d="M 487.501872 344.649744 
L 487.501872 328.746619 
Q 487.501872 325.746619 484.501872 325.746619 
L 474.823747 325.746619 
Q 471.823747 325.746619 471.823747 328.746619 
L 471.823747 344.649744 
Q 471.823747 347.649744 474.823747 347.649744 
L 484.501872 347.649744 
Q 487.501872 347.649744 487.501872 344.649744 
z
" clip-path="url(#p58d29d2135)" style="fill: #ffffff; stroke: #ffffff; stroke-linejoin: miter"/>
    </g>
    <g clip-path="url(#p58d29d2135)">
     <!-- 1.0 -->
     <g transform="translate(482.422185 344.649744) rotate(-90) scale(0.1 -0.1)">
      <use xlink:href="#DejaVuSans-31"/>
      <use xlink:href="#DejaVuSans-2e" x="63.623047"/>
      <use xlink:href="#DejaVuSans-30" x="95.410156"/>
     </g>
    </g>
   </g>
   <g id="text_46">
    <g id="patch_48">
     <path d="M 471.823747 420.382983 
L 471.823747 436.286108 
Q 471.823747 439.286108 474.823747 439.286108 
L 484.501872 439.286108 
Q 487.501872 439.286108 487.501872 436.286108 
L 487.501872 420.382983 
Q 487.501872 417.382983 484.501872 417.382983 
L 474.823747 417.382983 
Q 471.823747 417.382983 471.823747 420.382983 
z
" clip-path="url(#p58d29d2135)" style="fill: #ffffff; stroke: #ffffff; stroke-linejoin: miter"/>
    </g>
    <g clip-path="url(#p58d29d2135)">
     <!-- 3.0 -->
     <g transform="translate(476.903435 420.382983) rotate(-270) scale(0.1 -0.1)">
      <use xlink:href="#DejaVuSans-33"/>
      <use xlink:href="#DejaVuSans-2e" x="63.623047"/>
      <use xlink:href="#DejaVuSans-30" x="95.410156"/>
     </g>
    </g>
   </g>
   <g id="text_47">
    <g id="patch_49">
     <path d="M 471.823747 237.110256 
L 471.823747 253.013381 
Q 471.823747 256.013381 474.823747 256.013381 
L 484.501872 256.013381 
Q 487.501872 256.013381 487.501872 253.013381 
L 487.501872 237.110256 
Q 487.501872 234.110256 484.501872 234.110256 
L 474.823747 234.110256 
Q 471.823747 234.110256 471.823747 237.110256 
z
" clip-path="url(#p58d29d2135)" style="fill: #ffffff; stroke: #ffffff; stroke-linejoin: miter"/>
    </g>
    <g clip-path="url(#p58d29d2135)">
     <!-- 3.0 -->
     <g transform="translate(476.903435 237.110256) rotate(-270) scale(0.1 -0.1)">
      <use xlink:href="#DejaVuSans-33"/>
      <use xlink:href="#DejaVuSans-2e" x="63.623047"/>
      <use xlink:href="#DejaVuSans-30" x="95.410156"/>
     </g>
    </g>
   </g>
   <g id="LineCollection_1">
    <path d="M 184.522314 290.88 
L 184.522314 382.516364 
" clip-path="url(#p58d29d2135)" style="fill: none; stroke: #000000; stroke-opacity: 0.7"/>
    <path d="M 184.522314 290.88 
L 258.307438 290.88 
" clip-path="url(#p58d29d2135)" style="fill: none; stroke: #000000; stroke-opacity: 0.7"/>
    <path d="M 184.522314 290.88 
L 258.307438 199.243636 
" clip-path="url(#p58d29d2135)" style="fill: none; stroke: #000000; stroke-opacity: 0.7"/>
    <path d="M 184.522314 290.88 
L 110.73719 290.88 
" clip-path="url(#p58d29d2135)" style="fill: none; stroke: #000000; stroke-opacity: 0.7"/>
    <path d="M 184.522314 382.516364 
L 258.307438 382.516364 
" clip-path="url(#p58d29d2135)" style="fill: none; stroke: #000000; stroke-opacity: 0.7"/>
    <path d="M 184.522314 382.516364 
L 110.73719 290.88 
" clip-path="url(#p58d29d2135)" style="fill: none; stroke: #000000; stroke-opacity: 0.7"/>
    <path d="M 184.522314 382.516364 
L 184.522314 474.152727 
" clip-path="url(#p58d29d2135)" style="fill: none; stroke: #000000; stroke-opacity: 0.7"/>
    <path d="M 184.522314 382.516364 
L 258.307438 474.152727 
" clip-path="url(#p58d29d2135)" style="fill: none; stroke: #000000; stroke-opacity: 0.7"/>
    <path d="M 258.307438 290.88 
L 332.092562 290.88 
" clip-path="url(#p58d29d2135)" style="fill: none; stroke: #000000; stroke-opacity: 0.7"/>
    <path d="M 258.307438 382.516364 
L 332.092562 290.88 
" clip-path="url(#p58d29d2135)" style="fill: none; stroke: #000000; stroke-opacity: 0.7"/>
    <path d="M 258.307438 382.516364 
L 332.092562 382.516364 
" clip-path="url(#p58d29d2135)" style="fill: none; stroke: #000000; stroke-opacity: 0.7"/>
    <path d="M 258.307438 382.516364 
L 258.307438 474.152727 
" clip-path="url(#p58d29d2135)" style="fill: none; stroke: #000000; stroke-opacity: 0.7"/>
    <path d="M 258.307438 199.243636 
L 332.092562 290.88 
" clip-path="url(#p58d29d2135)" style="fill: none; stroke: #000000; stroke-opacity: 0.7"/>
    <path d="M 258.307438 199.243636 
L 332.092562 199.243636 
" clip-path="url(#p58d29d2135)" style="fill: none; stroke: #000000; stroke-opacity: 0.7"/>
    <path d="M 332.092562 290.88 
L 332.092562 199.243636 
" clip-path="url(#p58d29d2135)" style="fill: none; stroke: #000000; stroke-opacity: 0.7"/>
    <path d="M 332.092562 290.88 
L 332.092562 382.516364 
" clip-path="url(#p58d29d2135)" style="fill: none; stroke: #000000; stroke-opacity: 0.7"/>
    <path d="M 332.092562 290.88 
L 405.877686 199.243636 
" clip-path="url(#p58d29d2135)" style="fill: none; stroke: #000000; stroke-opacity: 0.7"/>
    <path d="M 332.092562 290.88 
L 405.877686 290.88 
" clip-path="url(#p58d29d2135)" style="fill: none; stroke: #000000; stroke-opacity: 0.7"/>
    <path d="M 332.092562 382.516364 
L 405.877686 290.88 
" clip-path="url(#p58d29d2135)" style="fill: none; stroke: #000000; stroke-opacity: 0.7"/>
    <path d="M 332.092562 382.516364 
L 405.877686 474.152727 
" clip-path="url(#p58d29d2135)" style="fill: none; stroke: #000000; stroke-opacity: 0.7"/>
    <path d="M 332.092562 107.607273 
L 332.092562 199.243636 
" clip-path="url(#p58d29d2135)" style="fill: none; stroke: #000000; stroke-opacity: 0.7"/>
    <path d="M 332.092562 199.243636 
L 405.877686 199.243636 
" clip-path="url(#p58d29d2135)" style="fill: none; stroke: #000000; stroke-opacity: 0.7"/>
    <path d="M 332.092562 199.243636 
L 258.307438 107.607273 
" clip-path="url(#p58d29d2135)" style="fill: none; stroke: #000000; stroke-opacity: 0.7"/>
    <path d="M 332.092562 199.243636 
L 405.877686 107.607273 
" clip-path="url(#p58d29d2135)" style="fill: none; stroke: #000000; stroke-opacity: 0.7"/>
    <path d="M 405.877686 199.243636 
L 405.877686 290.88 
" clip-path="url(#p58d29d2135)" style="fill: none; stroke: #000000; stroke-opacity: 0.7"/>
    <path d="M 405.877686 199.243636 
L 479.66281 290.88 
" clip-path="url(#p58d29d2135)" style="fill: none; stroke: #000000; stroke-opacity: 0.7"/>
    <path d="M 405.877686 290.88 
L 405.877686 382.516364 
" clip-path="url(#p58d29d2135)" style="fill: none; stroke: #000000; stroke-opacity: 0.7"/>
    <path d="M 405.877686 382.516364 
L 405.877686 474.152727 
" clip-path="url(#p58d29d2135)" style="fill: none; stroke: #000000; stroke-opacity: 0.7"/>
    <path d="M 405.877686 382.516364 
L 479.66281 290.88 
" clip-path="url(#p58d29d2135)" style="fill: none; stroke: #000000; stroke-opacity: 0.7"/>
    <path d="M 110.73719 107.607273 
L 110.73719 199.243636 
" clip-path="url(#p58d29d2135)" style="fill: none; stroke: #000000; stroke-opacity: 0.7"/>
    <path d="M 110.73719 107.607273 
L 184.522314 199.243636 
" clip-path="url(#p58d29d2135)" style="fill: none; stroke: #000000; stroke-opacity: 0.7"/>
    <path d="M 110.73719 107.607273 
L 184.522314 107.607273 
" clip-path="url(#p58d29d2135)" style="fill: none; stroke: #000000; stroke-opacity: 0.7"/>
    <path d="M 110.73719 199.243636 
L 110.73719 290.88 
" clip-path="url(#p58d29d2135)" style="fill: none; stroke: #000000; stroke-opacity: 0.7"/>
    <path d="M 184.522314 199.243636 
L 110.73719 290.88 
" clip-path="url(#p58d29d2135)" style="fill: none; stroke: #000000; stroke-opacity: 0.7"/>
    <path d="M 184.522314 199.243636 
L 258.307438 107.607273 
" clip-path="url(#p58d29d2135)" style="fill: none; stroke: #000000; stroke-opacity: 0.7"/>
    <path d="M 184.522314 107.607273 
L 258.307438 107.607273 
" clip-path="url(#p58d29d2135)" style="fill: none; stroke: #000000; stroke-opacity: 0.7"/>
    <path d="M 110.73719 290.88 
L 110.73719 382.516364 
" clip-path="url(#p58d29d2135)" style="fill: none; stroke: #000000; stroke-opacity: 0.7"/>
    <path d="M 110.73719 382.516364 
L 110.73719 474.152727 
" clip-path="url(#p58d29d2135)" style="fill: none; stroke: #000000; stroke-opacity: 0.7"/>
    <path d="M 258.307438 474.152727 
L 332.092562 474.152727 
" clip-path="url(#p58d29d2135)" style="fill: none; stroke: #000000; stroke-opacity: 0.7"/>
    <path d="M 332.092562 474.152727 
L 405.877686 474.152727 
" clip-path="url(#p58d29d2135)" style="fill: none; stroke: #000000; stroke-opacity: 0.7"/>
    <path d="M 405.877686 474.152727 
L 479.66281 382.516364 
" clip-path="url(#p58d29d2135)" style="fill: none; stroke: #000000; stroke-opacity: 0.7"/>
    <path d="M 405.877686 474.152727 
L 479.66281 474.152727 
" clip-path="url(#p58d29d2135)" style="fill: none; stroke: #000000; stroke-opacity: 0.7"/>
    <path d="M 405.877686 107.607273 
L 479.66281 107.607273 
" clip-path="url(#p58d29d2135)" style="fill: none; stroke: #000000; stroke-opacity: 0.7"/>
    <path d="M 479.66281 107.607273 
L 479.66281 199.243636 
" clip-path="url(#p58d29d2135)" style="fill: none; stroke: #000000; stroke-opacity: 0.7"/>
    <path d="M 479.66281 382.516364 
L 479.66281 290.88 
" clip-path="url(#p58d29d2135)" style="fill: none; stroke: #000000; stroke-opacity: 0.7"/>
    <path d="M 479.66281 382.516364 
L 479.66281 474.152727 
" clip-path="url(#p58d29d2135)" style="fill: none; stroke: #000000; stroke-opacity: 0.7"/>
    <path d="M 479.66281 199.243636 
L 479.66281 290.88 
" clip-path="url(#p58d29d2135)" style="fill: none; stroke: #000000; stroke-opacity: 0.7"/>
   </g>
   <g id="LineCollection_2">
    <path d="M 332.092562 107.607273 
L 332.092562 199.243636 
" clip-path="url(#p58d29d2135)" style="fill: none; stroke: #ff0000; stroke-opacity: 0.4; stroke-width: 12"/>
    <path d="M 332.092562 199.243636 
L 258.307438 199.243636 
" clip-path="url(#p58d29d2135)" style="fill: none; stroke: #ff0000; stroke-opacity: 0.4; stroke-width: 12"/>
    <path d="M 258.307438 199.243636 
L 184.522314 290.88 
" clip-path="url(#p58d29d2135)" style="fill: none; stroke: #ff0000; stroke-opacity: 0.4; stroke-width: 12"/>
    <path d="M 184.522314 290.88 
L 110.73719 290.88 
" clip-path="url(#p58d29d2135)" style="fill: none; stroke: #ff0000; stroke-opacity: 0.4; stroke-width: 12"/>
    <path d="M 110.73719 290.88 
L 184.522314 382.516364 
" clip-path="url(#p58d29d2135)" style="fill: none; stroke: #ff0000; stroke-opacity: 0.4; stroke-width: 12"/>
    <path d="M 184.522314 382.516364 
L 258.307438 382.516364 
" clip-path="url(#p58d29d2135)" style="fill: none; stroke: #ff0000; stroke-opacity: 0.4; stroke-width: 12"/>
    <path d="M 258.307438 382.516364 
L 332.092562 382.516364 
" clip-path="url(#p58d29d2135)" style="fill: none; stroke: #ff0000; stroke-opacity: 0.4; stroke-width: 12"/>
   </g>
   <g id="matplotlib.axis_1">
    <g id="xtick_1"/>
    <g id="xtick_2"/>
    <g id="xtick_3"/>
    <g id="xtick_4"/>
    <g id="xtick_5"/>
    <g id="xtick_6"/>
   </g>
   <g id="matplotlib.axis_2">
    <g id="ytick_1"/>
    <g id="ytick_2"/>
    <g id="ytick_3"/>
    <g id="ytick_4"/>
    <g id="ytick_5"/>
   </g>
   <g id="PathCollection_1">
    <defs>
     <path id="m751f585726" d="M 0 14.142136 
C 3.750538 14.142136 7.347969 12.652031 10 10 
C 12.652031 7.347969 14.142136 3.750538 14.142136 0 
C 14.142136 -3.750538 12.652031 -7.347969 10 -10 
C 7.347969 -12.652031 3.750538 -14.142136 0 -14.142136 
C -3.750538 -14.142136 -7.347969 -12.652031 -10 -10 
C -12.652031 -7.347969 -14.142136 -3.750538 -14.142136 0 
C -14.142136 3.750538 -12.652031 7.347969 -10 10 
C -7.347969 12.652031 -3.750538 14.142136 0 14.142136 
z
" style="stroke: #1f78b4; stroke-opacity: 0.7"/>
    </defs>
    <g clip-path="url(#p58d29d2135)">
     <use xlink:href="#m751f585726" x="184.522314" y="290.88" style="fill: #1f78b4; fill-opacity: 0.7; stroke: #1f78b4; stroke-opacity: 0.7"/>
     <use xlink:href="#m751f585726" x="184.522314" y="382.516364" style="fill: #1f78b4; fill-opacity: 0.7; stroke: #1f78b4; stroke-opacity: 0.7"/>
     <use xlink:href="#m751f585726" x="258.307438" y="290.88" style="fill: #1f78b4; fill-opacity: 0.7; stroke: #1f78b4; stroke-opacity: 0.7"/>
     <use xlink:href="#m751f585726" x="258.307438" y="382.516364" style="fill: #1f78b4; fill-opacity: 0.7; stroke: #1f78b4; stroke-opacity: 0.7"/>
     <use xlink:href="#m751f585726" x="258.307438" y="199.243636" style="fill: #1f78b4; fill-opacity: 0.7; stroke: #1f78b4; stroke-opacity: 0.7"/>
     <use xlink:href="#m751f585726" x="332.092562" y="290.88" style="fill: #1f78b4; fill-opacity: 0.7; stroke: #1f78b4; stroke-opacity: 0.7"/>
     <use xlink:href="#m751f585726" x="332.092562" y="382.516364" style="fill: #1f78b4; fill-opacity: 0.7; stroke: #1f78b4; stroke-opacity: 0.7"/>
     <use xlink:href="#m751f585726" x="332.092562" y="107.607273" style="fill: #1f78b4; fill-opacity: 0.7; stroke: #1f78b4; stroke-opacity: 0.7"/>
     <use xlink:href="#m751f585726" x="332.092562" y="199.243636" style="fill: #1f78b4; fill-opacity: 0.7; stroke: #1f78b4; stroke-opacity: 0.7"/>
     <use xlink:href="#m751f585726" x="405.877686" y="199.243636" style="fill: #1f78b4; fill-opacity: 0.7; stroke: #1f78b4; stroke-opacity: 0.7"/>
     <use xlink:href="#m751f585726" x="405.877686" y="290.88" style="fill: #1f78b4; fill-opacity: 0.7; stroke: #1f78b4; stroke-opacity: 0.7"/>
     <use xlink:href="#m751f585726" x="405.877686" y="382.516364" style="fill: #1f78b4; fill-opacity: 0.7; stroke: #1f78b4; stroke-opacity: 0.7"/>
     <use xlink:href="#m751f585726" x="110.73719" y="107.607273" style="fill: #1f78b4; fill-opacity: 0.7; stroke: #1f78b4; stroke-opacity: 0.7"/>
     <use xlink:href="#m751f585726" x="110.73719" y="199.243636" style="fill: #1f78b4; fill-opacity: 0.7; stroke: #1f78b4; stroke-opacity: 0.7"/>
     <use xlink:href="#m751f585726" x="184.522314" y="199.243636" style="fill: #1f78b4; fill-opacity: 0.7; stroke: #1f78b4; stroke-opacity: 0.7"/>
     <use xlink:href="#m751f585726" x="184.522314" y="107.607273" style="fill: #1f78b4; fill-opacity: 0.7; stroke: #1f78b4; stroke-opacity: 0.7"/>
     <use xlink:href="#m751f585726" x="110.73719" y="290.88" style="fill: #1f78b4; fill-opacity: 0.7; stroke: #1f78b4; stroke-opacity: 0.7"/>
     <use xlink:href="#m751f585726" x="110.73719" y="382.516364" style="fill: #1f78b4; fill-opacity: 0.7; stroke: #1f78b4; stroke-opacity: 0.7"/>
     <use xlink:href="#m751f585726" x="110.73719" y="474.152727" style="fill: #1f78b4; fill-opacity: 0.7; stroke: #1f78b4; stroke-opacity: 0.7"/>
     <use xlink:href="#m751f585726" x="258.307438" y="107.607273" style="fill: #1f78b4; fill-opacity: 0.7; stroke: #1f78b4; stroke-opacity: 0.7"/>
     <use xlink:href="#m751f585726" x="184.522314" y="474.152727" style="fill: #1f78b4; fill-opacity: 0.7; stroke: #1f78b4; stroke-opacity: 0.7"/>
     <use xlink:href="#m751f585726" x="258.307438" y="474.152727" style="fill: #1f78b4; fill-opacity: 0.7; stroke: #1f78b4; stroke-opacity: 0.7"/>
     <use xlink:href="#m751f585726" x="332.092562" y="474.152727" style="fill: #1f78b4; fill-opacity: 0.7; stroke: #1f78b4; stroke-opacity: 0.7"/>
     <use xlink:href="#m751f585726" x="405.877686" y="474.152727" style="fill: #1f78b4; fill-opacity: 0.7; stroke: #1f78b4; stroke-opacity: 0.7"/>
     <use xlink:href="#m751f585726" x="405.877686" y="107.607273" style="fill: #1f78b4; fill-opacity: 0.7; stroke: #1f78b4; stroke-opacity: 0.7"/>
     <use xlink:href="#m751f585726" x="479.66281" y="107.607273" style="fill: #1f78b4; fill-opacity: 0.7; stroke: #1f78b4; stroke-opacity: 0.7"/>
     <use xlink:href="#m751f585726" x="479.66281" y="382.516364" style="fill: #1f78b4; fill-opacity: 0.7; stroke: #1f78b4; stroke-opacity: 0.7"/>
     <use xlink:href="#m751f585726" x="479.66281" y="474.152727" style="fill: #1f78b4; fill-opacity: 0.7; stroke: #1f78b4; stroke-opacity: 0.7"/>
     <use xlink:href="#m751f585726" x="479.66281" y="199.243636" style="fill: #1f78b4; fill-opacity: 0.7; stroke: #1f78b4; stroke-opacity: 0.7"/>
     <use xlink:href="#m751f585726" x="479.66281" y="290.88" style="fill: #1f78b4; fill-opacity: 0.7; stroke: #1f78b4; stroke-opacity: 0.7"/>
    </g>
   </g>
   <g id="patch_50">
    <path d="M 72 512.64 
L 72 69.12 
" style="fill: none; stroke: #000000; stroke-width: 0.8; stroke-linejoin: miter; stroke-linecap: square"/>
   </g>
   <g id="patch_51">
    <path d="M 518.4 512.64 
L 518.4 69.12 
" style="fill: none; stroke: #000000; stroke-width: 0.8; stroke-linejoin: miter; stroke-linecap: square"/>
   </g>
   <g id="patch_52">
    <path d="M 72 512.64 
L 518.4 512.64 
" style="fill: none; stroke: #000000; stroke-width: 0.8; stroke-linejoin: miter; stroke-linecap: square"/>
   </g>
   <g id="patch_53">
    <path d="M 72 69.12 
L 518.4 69.12 
" style="fill: none; stroke: #000000; stroke-width: 0.8; stroke-linejoin: miter; stroke-linecap: square"/>
   </g>
   <g id="text_48">
    <g clip-path="url(#p58d29d2135)">
     <!-- A -->
     <g style="opacity: 0.7" transform="translate(180.417939 294.19125) scale(0.12 -0.12)">
      <defs>
       <path id="DejaVuSans-41" d="M 2188 4044 
L 1331 1722 
L 3047 1722 
L 2188 4044 
z
M 1831 4666 
L 2547 4666 
L 4325 0 
L 3669 0 
L 3244 1197 
L 1141 1197 
L 716 0 
L 50 0 
L 1831 4666 
z
" transform="scale(0.015625)"/>
      </defs>
      <use xlink:href="#DejaVuSans-41"/>
     </g>
    </g>
   </g>
   <g id="text_49">
    <g clip-path="url(#p58d29d2135)">
     <!-- B -->
     <g style="opacity: 0.7" transform="translate(180.405752 385.827614) scale(0.12 -0.12)">
      <defs>
       <path id="DejaVuSans-42" d="M 1259 2228 
L 1259 519 
L 2272 519 
Q 2781 519 3026 730 
Q 3272 941 3272 1375 
Q 3272 1813 3026 2020 
Q 2781 2228 2272 2228 
L 1259 2228 
z
M 1259 4147 
L 1259 2741 
L 2194 2741 
Q 2656 2741 2882 2914 
Q 3109 3088 3109 3444 
Q 3109 3797 2882 3972 
Q 2656 4147 2194 4147 
L 1259 4147 
z
M 628 4666 
L 2241 4666 
Q 2963 4666 3353 4366 
Q 3744 4066 3744 3513 
Q 3744 3084 3544 2831 
Q 3344 2578 2956 2516 
Q 3422 2416 3680 2098 
Q 3938 1781 3938 1306 
Q 3938 681 3513 340 
Q 3088 0 2303 0 
L 628 0 
L 628 4666 
z
" transform="scale(0.015625)"/>
      </defs>
      <use xlink:href="#DejaVuSans-42"/>
     </g>
    </g>
   </g>
   <g id="text_50">
    <g clip-path="url(#p58d29d2135)">
     <!-- D -->
     <g style="opacity: 0.7" transform="translate(253.687438 294.19125) scale(0.12 -0.12)">
      <defs>
       <path id="DejaVuSans-44" d="M 1259 4147 
L 1259 519 
L 2022 519 
Q 2988 519 3436 956 
Q 3884 1394 3884 2338 
Q 3884 3275 3436 3711 
Q 2988 4147 2022 4147 
L 1259 4147 
z
M 628 4666 
L 1925 4666 
Q 3281 4666 3915 4102 
Q 4550 3538 4550 2338 
Q 4550 1131 3912 565 
Q 3275 0 1925 0 
L 628 0 
L 628 4666 
z
" transform="scale(0.015625)"/>
      </defs>
      <use xlink:href="#DejaVuSans-44"/>
     </g>
    </g>
   </g>
   <g id="text_51">
    <g clip-path="url(#p58d29d2135)">
     <!-- E -->
     <g style="opacity: 0.7" transform="translate(254.516188 385.827614) scale(0.12 -0.12)">
      <defs>
       <path id="DejaVuSans-45" d="M 628 4666 
L 3578 4666 
L 3578 4134 
L 1259 4134 
L 1259 2753 
L 3481 2753 
L 3481 2222 
L 1259 2222 
L 1259 531 
L 3634 531 
L 3634 0 
L 628 0 
L 628 4666 
z
" transform="scale(0.015625)"/>
      </defs>
      <use xlink:href="#DejaVuSans-45"/>
     </g>
    </g>
   </g>
   <g id="text_52">
    <g clip-path="url(#p58d29d2135)">
     <!-- C -->
     <g style="opacity: 0.7" transform="translate(254.117751 202.554886) scale(0.12 -0.12)">
      <defs>
       <path id="DejaVuSans-43" d="M 4122 4306 
L 4122 3641 
Q 3803 3938 3442 4084 
Q 3081 4231 2675 4231 
Q 1875 4231 1450 3742 
Q 1025 3253 1025 2328 
Q 1025 1406 1450 917 
Q 1875 428 2675 428 
Q 3081 428 3442 575 
Q 3803 722 4122 1019 
L 4122 359 
Q 3791 134 3420 21 
Q 3050 -91 2638 -91 
Q 1578 -91 968 557 
Q 359 1206 359 2328 
Q 359 3453 968 4101 
Q 1578 4750 2638 4750 
Q 3056 4750 3426 4639 
Q 3797 4528 4122 4306 
z
" transform="scale(0.015625)"/>
      </defs>
      <use xlink:href="#DejaVuSans-43"/>
     </g>
    </g>
   </g>
   <g id="text_53">
    <g clip-path="url(#p58d29d2135)">
     <!-- H -->
     <g style="opacity: 0.7" transform="translate(327.580374 294.19125) scale(0.12 -0.12)">
      <defs>
       <path id="DejaVuSans-48" d="M 628 4666 
L 1259 4666 
L 1259 2753 
L 3553 2753 
L 3553 4666 
L 4184 4666 
L 4184 0 
L 3553 0 
L 3553 2222 
L 1259 2222 
L 1259 0 
L 628 0 
L 628 4666 
z
" transform="scale(0.015625)"/>
      </defs>
      <use xlink:href="#DejaVuSans-48"/>
     </g>
    </g>
   </g>
   <g id="text_54">
    <g clip-path="url(#p58d29d2135)">
     <!-- I -->
     <g style="opacity: 0.7" transform="translate(330.322562 385.827614) scale(0.12 -0.12)">
      <defs>
       <path id="DejaVuSans-49" d="M 628 4666 
L 1259 4666 
L 1259 0 
L 628 0 
L 628 4666 
z
" transform="scale(0.015625)"/>
      </defs>
      <use xlink:href="#DejaVuSans-49"/>
     </g>
    </g>
   </g>
   <g id="text_55">
    <g clip-path="url(#p58d29d2135)">
     <!-- F -->
     <g style="opacity: 0.7" transform="translate(328.641624 110.918523) scale(0.12 -0.12)">
      <defs>
       <path id="DejaVuSans-46" d="M 628 4666 
L 3309 4666 
L 3309 4134 
L 1259 4134 
L 1259 2759 
L 3109 2759 
L 3109 2228 
L 1259 2228 
L 1259 0 
L 628 0 
L 628 4666 
z
" transform="scale(0.015625)"/>
      </defs>
      <use xlink:href="#DejaVuSans-46"/>
     </g>
    </g>
   </g>
   <g id="text_56">
    <g clip-path="url(#p58d29d2135)">
     <!-- G -->
     <g style="opacity: 0.7" transform="translate(327.443499 202.554886) scale(0.12 -0.12)">
      <defs>
       <path id="DejaVuSans-47" d="M 3809 666 
L 3809 1919 
L 2778 1919 
L 2778 2438 
L 4434 2438 
L 4434 434 
Q 4069 175 3628 42 
Q 3188 -91 2688 -91 
Q 1594 -91 976 548 
Q 359 1188 359 2328 
Q 359 3472 976 4111 
Q 1594 4750 2688 4750 
Q 3144 4750 3555 4637 
Q 3966 4525 4313 4306 
L 4313 3634 
Q 3963 3931 3569 4081 
Q 3175 4231 2741 4231 
Q 1884 4231 1454 3753 
Q 1025 3275 1025 2328 
Q 1025 1384 1454 906 
Q 1884 428 2741 428 
Q 3075 428 3337 486 
Q 3600 544 3809 666 
z
" transform="scale(0.015625)"/>
      </defs>
      <use xlink:href="#DejaVuSans-47"/>
     </g>
    </g>
   </g>
   <g id="text_57">
    <g clip-path="url(#p58d29d2135)">
     <!-- J -->
     <g style="opacity: 0.7" transform="translate(404.107686 202.554886) scale(0.12 -0.12)">
      <defs>
       <path id="DejaVuSans-4a" d="M 628 4666 
L 1259 4666 
L 1259 325 
Q 1259 -519 939 -900 
Q 619 -1281 -91 -1281 
L -331 -1281 
L -331 -750 
L -134 -750 
Q 284 -750 456 -515 
Q 628 -281 628 325 
L 628 4666 
z
" transform="scale(0.015625)"/>
      </defs>
      <use xlink:href="#DejaVuSans-4a"/>
     </g>
    </g>
   </g>
   <g id="text_58">
    <g clip-path="url(#p58d29d2135)">
     <!-- K -->
     <g style="opacity: 0.7" transform="translate(401.942998 294.19125) scale(0.12 -0.12)">
      <defs>
       <path id="DejaVuSans-4b" d="M 628 4666 
L 1259 4666 
L 1259 2694 
L 3353 4666 
L 4166 4666 
L 1850 2491 
L 4331 0 
L 3500 0 
L 1259 2247 
L 1259 0 
L 628 0 
L 628 4666 
z
" transform="scale(0.015625)"/>
      </defs>
      <use xlink:href="#DejaVuSans-4b"/>
     </g>
    </g>
   </g>
   <g id="text_59">
    <g clip-path="url(#p58d29d2135)">
     <!-- L -->
     <g style="opacity: 0.7" transform="translate(402.534561 385.827614) scale(0.12 -0.12)">
      <defs>
       <path id="DejaVuSans-4c" d="M 628 4666 
L 1259 4666 
L 1259 531 
L 3531 531 
L 3531 0 
L 628 0 
L 628 4666 
z
" transform="scale(0.015625)"/>
      </defs>
      <use xlink:href="#DejaVuSans-4c"/>
     </g>
    </g>
   </g>
   <g id="text_60">
    <g clip-path="url(#p58d29d2135)">
     <!-- a -->
     <g style="opacity: 0.7" transform="translate(107.060315 110.918523) scale(0.12 -0.12)">
      <defs>
       <path id="DejaVuSans-61" d="M 2194 1759 
Q 1497 1759 1228 1600 
Q 959 1441 959 1056 
Q 959 750 1161 570 
Q 1363 391 1709 391 
Q 2188 391 2477 730 
Q 2766 1069 2766 1631 
L 2766 1759 
L 2194 1759 
z
M 3341 1997 
L 3341 0 
L 2766 0 
L 2766 531 
Q 2569 213 2275 61 
Q 1981 -91 1556 -91 
Q 1019 -91 701 211 
Q 384 513 384 1019 
Q 384 1609 779 1909 
Q 1175 2209 1959 2209 
L 2766 2209 
L 2766 2266 
Q 2766 2663 2505 2880 
Q 2244 3097 1772 3097 
Q 1472 3097 1187 3025 
Q 903 2953 641 2809 
L 641 3341 
Q 956 3463 1253 3523 
Q 1550 3584 1831 3584 
Q 2591 3584 2966 3190 
Q 3341 2797 3341 1997 
z
" transform="scale(0.015625)"/>
      </defs>
      <use xlink:href="#DejaVuSans-61"/>
     </g>
    </g>
   </g>
   <g id="text_61">
    <g clip-path="url(#p58d29d2135)">
     <!-- b -->
     <g style="opacity: 0.7" transform="translate(106.928128 202.554886) scale(0.12 -0.12)">
      <defs>
       <path id="DejaVuSans-62" d="M 3116 1747 
Q 3116 2381 2855 2742 
Q 2594 3103 2138 3103 
Q 1681 3103 1420 2742 
Q 1159 2381 1159 1747 
Q 1159 1113 1420 752 
Q 1681 391 2138 391 
Q 2594 391 2855 752 
Q 3116 1113 3116 1747 
z
M 1159 2969 
Q 1341 3281 1617 3432 
Q 1894 3584 2278 3584 
Q 2916 3584 3314 3078 
Q 3713 2572 3713 1747 
Q 3713 922 3314 415 
Q 2916 -91 2278 -91 
Q 1894 -91 1617 61 
Q 1341 213 1159 525 
L 1159 0 
L 581 0 
L 581 4863 
L 1159 4863 
L 1159 2969 
z
" transform="scale(0.015625)"/>
      </defs>
      <use xlink:href="#DejaVuSans-62"/>
     </g>
    </g>
   </g>
   <g id="text_62">
    <g clip-path="url(#p58d29d2135)">
     <!-- g -->
     <g style="opacity: 0.7" transform="translate(180.713252 202.554886) scale(0.12 -0.12)">
      <defs>
       <path id="DejaVuSans-67" d="M 2906 1791 
Q 2906 2416 2648 2759 
Q 2391 3103 1925 3103 
Q 1463 3103 1205 2759 
Q 947 2416 947 1791 
Q 947 1169 1205 825 
Q 1463 481 1925 481 
Q 2391 481 2648 825 
Q 2906 1169 2906 1791 
z
M 3481 434 
Q 3481 -459 3084 -895 
Q 2688 -1331 1869 -1331 
Q 1566 -1331 1297 -1286 
Q 1028 -1241 775 -1147 
L 775 -588 
Q 1028 -725 1275 -790 
Q 1522 -856 1778 -856 
Q 2344 -856 2625 -561 
Q 2906 -266 2906 331 
L 2906 616 
Q 2728 306 2450 153 
Q 2172 0 1784 0 
Q 1141 0 747 490 
Q 353 981 353 1791 
Q 353 2603 747 3093 
Q 1141 3584 1784 3584 
Q 2172 3584 2450 3431 
Q 2728 3278 2906 2969 
L 2906 3500 
L 3481 3500 
L 3481 434 
z
" transform="scale(0.015625)"/>
      </defs>
      <use xlink:href="#DejaVuSans-67"/>
     </g>
    </g>
   </g>
   <g id="text_63">
    <g clip-path="url(#p58d29d2135)">
     <!-- f -->
     <g style="opacity: 0.7" transform="translate(182.410127 110.918523) scale(0.12 -0.12)">
      <defs>
       <path id="DejaVuSans-66" d="M 2375 4863 
L 2375 4384 
L 1825 4384 
Q 1516 4384 1395 4259 
Q 1275 4134 1275 3809 
L 1275 3500 
L 2222 3500 
L 2222 3053 
L 1275 3053 
L 1275 0 
L 697 0 
L 697 3053 
L 147 3053 
L 147 3500 
L 697 3500 
L 697 3744 
Q 697 4328 969 4595 
Q 1241 4863 1831 4863 
L 2375 4863 
z
" transform="scale(0.015625)"/>
      </defs>
      <use xlink:href="#DejaVuSans-66"/>
     </g>
    </g>
   </g>
   <g id="text_64">
    <g clip-path="url(#p58d29d2135)">
     <!-- c -->
     <g style="opacity: 0.7" transform="translate(107.438128 294.19125) scale(0.12 -0.12)">
      <defs>
       <path id="DejaVuSans-63" d="M 3122 3366 
L 3122 2828 
Q 2878 2963 2633 3030 
Q 2388 3097 2138 3097 
Q 1578 3097 1268 2742 
Q 959 2388 959 1747 
Q 959 1106 1268 751 
Q 1578 397 2138 397 
Q 2388 397 2633 464 
Q 2878 531 3122 666 
L 3122 134 
Q 2881 22 2623 -34 
Q 2366 -91 2075 -91 
Q 1284 -91 818 406 
Q 353 903 353 1747 
Q 353 2603 823 3093 
Q 1294 3584 2113 3584 
Q 2378 3584 2631 3529 
Q 2884 3475 3122 3366 
z
" transform="scale(0.015625)"/>
      </defs>
      <use xlink:href="#DejaVuSans-63"/>
     </g>
    </g>
   </g>
   <g id="text_65">
    <g clip-path="url(#p58d29d2135)">
     <!-- d -->
     <g style="opacity: 0.7" transform="translate(106.928128 385.827614) scale(0.12 -0.12)">
      <defs>
       <path id="DejaVuSans-64" d="M 2906 2969 
L 2906 4863 
L 3481 4863 
L 3481 0 
L 2906 0 
L 2906 525 
Q 2725 213 2448 61 
Q 2172 -91 1784 -91 
Q 1150 -91 751 415 
Q 353 922 353 1747 
Q 353 2572 751 3078 
Q 1150 3584 1784 3584 
Q 2172 3584 2448 3432 
Q 2725 3281 2906 2969 
z
M 947 1747 
Q 947 1113 1208 752 
Q 1469 391 1925 391 
Q 2381 391 2643 752 
Q 2906 1113 2906 1747 
Q 2906 2381 2643 2742 
Q 2381 3103 1925 3103 
Q 1469 3103 1208 2742 
Q 947 2381 947 1747 
z
" transform="scale(0.015625)"/>
      </defs>
      <use xlink:href="#DejaVuSans-64"/>
     </g>
    </g>
   </g>
   <g id="text_66">
    <g clip-path="url(#p58d29d2135)">
     <!-- e -->
     <g style="opacity: 0.7" transform="translate(107.045315 477.463977) scale(0.12 -0.12)">
      <defs>
       <path id="DejaVuSans-65" d="M 3597 1894 
L 3597 1613 
L 953 1613 
Q 991 1019 1311 708 
Q 1631 397 2203 397 
Q 2534 397 2845 478 
Q 3156 559 3463 722 
L 3463 178 
Q 3153 47 2828 -22 
Q 2503 -91 2169 -91 
Q 1331 -91 842 396 
Q 353 884 353 1716 
Q 353 2575 817 3079 
Q 1281 3584 2069 3584 
Q 2775 3584 3186 3129 
Q 3597 2675 3597 1894 
z
M 3022 2063 
Q 3016 2534 2758 2815 
Q 2500 3097 2075 3097 
Q 1594 3097 1305 2825 
Q 1016 2553 972 2059 
L 3022 2063 
z
" transform="scale(0.015625)"/>
      </defs>
      <use xlink:href="#DejaVuSans-65"/>
     </g>
    </g>
   </g>
   <g id="text_67">
    <g clip-path="url(#p58d29d2135)">
     <!-- i -->
     <g style="opacity: 0.7" transform="translate(256.640563 110.918523) scale(0.12 -0.12)">
      <defs>
       <path id="DejaVuSans-69" d="M 603 3500 
L 1178 3500 
L 1178 0 
L 603 0 
L 603 3500 
z
M 603 4863 
L 1178 4863 
L 1178 4134 
L 603 4134 
L 603 4863 
z
" transform="scale(0.015625)"/>
      </defs>
      <use xlink:href="#DejaVuSans-69"/>
     </g>
    </g>
   </g>
   <g id="text_68">
    <g clip-path="url(#p58d29d2135)">
     <!-- h -->
     <g style="opacity: 0.7" transform="translate(180.719814 477.463977) scale(0.12 -0.12)">
      <defs>
       <path id="DejaVuSans-68" d="M 3513 2113 
L 3513 0 
L 2938 0 
L 2938 2094 
Q 2938 2591 2744 2837 
Q 2550 3084 2163 3084 
Q 1697 3084 1428 2787 
Q 1159 2491 1159 1978 
L 1159 0 
L 581 0 
L 581 4863 
L 1159 4863 
L 1159 2956 
Q 1366 3272 1645 3428 
Q 1925 3584 2291 3584 
Q 2894 3584 3203 3211 
Q 3513 2838 3513 2113 
z
" transform="scale(0.015625)"/>
      </defs>
      <use xlink:href="#DejaVuSans-68"/>
     </g>
    </g>
   </g>
   <g id="text_69">
    <g clip-path="url(#p58d29d2135)">
     <!-- j -->
     <g style="opacity: 0.7" transform="translate(256.640563 477.463977) scale(0.12 -0.12)">
      <defs>
       <path id="DejaVuSans-6a" d="M 603 3500 
L 1178 3500 
L 1178 -63 
Q 1178 -731 923 -1031 
Q 669 -1331 103 -1331 
L -116 -1331 
L -116 -844 
L 38 -844 
Q 366 -844 484 -692 
Q 603 -541 603 -63 
L 603 3500 
z
M 603 4863 
L 1178 4863 
L 1178 4134 
L 603 4134 
L 603 4863 
z
" transform="scale(0.015625)"/>
      </defs>
      <use xlink:href="#DejaVuSans-6a"/>
     </g>
    </g>
   </g>
   <g id="text_70">
    <g clip-path="url(#p58d29d2135)">
     <!-- k -->
     <g style="opacity: 0.7" transform="translate(328.618187 477.463977) scale(0.12 -0.12)">
      <defs>
       <path id="DejaVuSans-6b" d="M 581 4863 
L 1159 4863 
L 1159 1991 
L 2875 3500 
L 3609 3500 
L 1753 1863 
L 3688 0 
L 2938 0 
L 1159 1709 
L 1159 0 
L 581 0 
L 581 4863 
z
" transform="scale(0.015625)"/>
      </defs>
      <use xlink:href="#DejaVuSans-6b"/>
     </g>
    </g>
   </g>
   <g id="text_71">
    <g clip-path="url(#p58d29d2135)">
     <!-- m -->
     <g style="opacity: 0.7" transform="translate(400.033311 477.463977) scale(0.12 -0.12)">
      <defs>
       <path id="DejaVuSans-6d" d="M 3328 2828 
Q 3544 3216 3844 3400 
Q 4144 3584 4550 3584 
Q 5097 3584 5394 3201 
Q 5691 2819 5691 2113 
L 5691 0 
L 5113 0 
L 5113 2094 
Q 5113 2597 4934 2840 
Q 4756 3084 4391 3084 
Q 3944 3084 3684 2787 
Q 3425 2491 3425 1978 
L 3425 0 
L 2847 0 
L 2847 2094 
Q 2847 2600 2669 2842 
Q 2491 3084 2119 3084 
Q 1678 3084 1418 2786 
Q 1159 2488 1159 1978 
L 1159 0 
L 581 0 
L 581 3500 
L 1159 3500 
L 1159 2956 
Q 1356 3278 1631 3431 
Q 1906 3584 2284 3584 
Q 2666 3584 2933 3390 
Q 3200 3197 3328 2828 
z
" transform="scale(0.015625)"/>
      </defs>
      <use xlink:href="#DejaVuSans-6d"/>
     </g>
    </g>
   </g>
   <g id="text_72">
    <g clip-path="url(#p58d29d2135)">
     <!-- l -->
     <g style="opacity: 0.7" transform="translate(404.210811 110.918523) scale(0.12 -0.12)">
      <defs>
       <path id="DejaVuSans-6c" d="M 603 4863 
L 1178 4863 
L 1178 0 
L 603 0 
L 603 4863 
z
" transform="scale(0.015625)"/>
      </defs>
      <use xlink:href="#DejaVuSans-6c"/>
     </g>
    </g>
   </g>
   <g id="text_73">
    <g clip-path="url(#p58d29d2135)">
     <!-- n -->
     <g style="opacity: 0.7" transform="translate(475.86031 110.918523) scale(0.12 -0.12)">
      <defs>
       <path id="DejaVuSans-6e" d="M 3513 2113 
L 3513 0 
L 2938 0 
L 2938 2094 
Q 2938 2591 2744 2837 
Q 2550 3084 2163 3084 
Q 1697 3084 1428 2787 
Q 1159 2491 1159 1978 
L 1159 0 
L 581 0 
L 581 3500 
L 1159 3500 
L 1159 2956 
Q 1366 3272 1645 3428 
Q 1925 3584 2291 3584 
Q 2894 3584 3203 3211 
Q 3513 2838 3513 2113 
z
" transform="scale(0.015625)"/>
      </defs>
      <use xlink:href="#DejaVuSans-6e"/>
     </g>
    </g>
   </g>
   <g id="text_74">
    <g clip-path="url(#p58d29d2135)">
     <!-- q -->
     <g style="opacity: 0.7" transform="translate(475.853747 385.827614) scale(0.12 -0.12)">
      <defs>
       <path id="DejaVuSans-71" d="M 947 1747 
Q 947 1113 1208 752 
Q 1469 391 1925 391 
Q 2381 391 2643 752 
Q 2906 1113 2906 1747 
Q 2906 2381 2643 2742 
Q 2381 3103 1925 3103 
Q 1469 3103 1208 2742 
Q 947 2381 947 1747 
z
M 2906 525 
Q 2725 213 2448 61 
Q 2172 -91 1784 -91 
Q 1150 -91 751 415 
Q 353 922 353 1747 
Q 353 2572 751 3078 
Q 1150 3584 1784 3584 
Q 2172 3584 2448 3432 
Q 2725 3281 2906 2969 
L 2906 3500 
L 3481 3500 
L 3481 -1331 
L 2906 -1331 
L 2906 525 
z
" transform="scale(0.015625)"/>
      </defs>
      <use xlink:href="#DejaVuSans-71"/>
     </g>
    </g>
   </g>
   <g id="text_75">
    <g clip-path="url(#p58d29d2135)">
     <!-- r -->
     <g style="opacity: 0.7" transform="translate(477.196247 477.463977) scale(0.12 -0.12)">
      <defs>
       <path id="DejaVuSans-72" d="M 2631 2963 
Q 2534 3019 2420 3045 
Q 2306 3072 2169 3072 
Q 1681 3072 1420 2755 
Q 1159 2438 1159 1844 
L 1159 0 
L 581 0 
L 581 3500 
L 1159 3500 
L 1159 2956 
Q 1341 3275 1631 3429 
Q 1922 3584 2338 3584 
Q 2397 3584 2469 3576 
Q 2541 3569 2628 3553 
L 2631 2963 
z
" transform="scale(0.015625)"/>
      </defs>
      <use xlink:href="#DejaVuSans-72"/>
     </g>
    </g>
   </g>
   <g id="text_76">
    <g clip-path="url(#p58d29d2135)">
     <!-- o -->
     <g style="opacity: 0.7" transform="translate(475.99156 202.554886) scale(0.12 -0.12)">
      <defs>
       <path id="DejaVuSans-6f" d="M 1959 3097 
Q 1497 3097 1228 2736 
Q 959 2375 959 1747 
Q 959 1119 1226 758 
Q 1494 397 1959 397 
Q 2419 397 2687 759 
Q 2956 1122 2956 1747 
Q 2956 2369 2687 2733 
Q 2419 3097 1959 3097 
z
M 1959 3584 
Q 2709 3584 3137 3096 
Q 3566 2609 3566 1747 
Q 3566 888 3137 398 
Q 2709 -91 1959 -91 
Q 1206 -91 779 398 
Q 353 888 353 1747 
Q 353 2609 779 3096 
Q 1206 3584 1959 3584 
z
" transform="scale(0.015625)"/>
      </defs>
      <use xlink:href="#DejaVuSans-6f"/>
     </g>
    </g>
   </g>
   <g id="text_77">
    <g clip-path="url(#p58d29d2135)">
     <!-- p -->
     <g style="opacity: 0.7" transform="translate(475.853747 294.19125) scale(0.12 -0.12)">
      <defs>
       <path id="DejaVuSans-70" d="M 1159 525 
L 1159 -1331 
L 581 -1331 
L 581 3500 
L 1159 3500 
L 1159 2969 
Q 1341 3281 1617 3432 
Q 1894 3584 2278 3584 
Q 2916 3584 3314 3078 
Q 3713 2572 3713 1747 
Q 3713 922 3314 415 
Q 2916 -91 2278 -91 
Q 1894 -91 1617 61 
Q 1341 213 1159 525 
z
M 3116 1747 
Q 3116 2381 2855 2742 
Q 2594 3103 2138 3103 
Q 1681 3103 1420 2742 
Q 1159 2381 1159 1747 
Q 1159 1113 1420 752 
Q 1681 391 2138 391 
Q 2594 391 2855 752 
Q 3116 1113 3116 1747 
z
" transform="scale(0.015625)"/>
      </defs>
      <use xlink:href="#DejaVuSans-70"/>
     </g>
    </g>
   </g>
   <g id="text_78">
    <!-- detour: FGCAcBEI(len: 19.0, RP: 7.641 -->
    <g transform="translate(180.822187 63.12) scale(0.12 -0.12)">
     <defs>
      <path id="DejaVuSans-74" d="M 1172 4494 
L 1172 3500 
L 2356 3500 
L 2356 3053 
L 1172 3053 
L 1172 1153 
Q 1172 725 1289 603 
Q 1406 481 1766 481 
L 2356 481 
L 2356 0 
L 1766 0 
Q 1100 0 847 248 
Q 594 497 594 1153 
L 594 3053 
L 172 3053 
L 172 3500 
L 594 3500 
L 594 4494 
L 1172 4494 
z
" transform="scale(0.015625)"/>
      <path id="DejaVuSans-75" d="M 544 1381 
L 544 3500 
L 1119 3500 
L 1119 1403 
Q 1119 906 1312 657 
Q 1506 409 1894 409 
Q 2359 409 2629 706 
Q 2900 1003 2900 1516 
L 2900 3500 
L 3475 3500 
L 3475 0 
L 2900 0 
L 2900 538 
Q 2691 219 2414 64 
Q 2138 -91 1772 -91 
Q 1169 -91 856 284 
Q 544 659 544 1381 
z
M 1991 3584 
L 1991 3584 
z
" transform="scale(0.015625)"/>
      <path id="DejaVuSans-3a" d="M 750 794 
L 1409 794 
L 1409 0 
L 750 0 
L 750 794 
z
M 750 3309 
L 1409 3309 
L 1409 2516 
L 750 2516 
L 750 3309 
z
" transform="scale(0.015625)"/>
      <path id="DejaVuSans-20" transform="scale(0.015625)"/>
      <path id="DejaVuSans-28" d="M 1984 4856 
Q 1566 4138 1362 3434 
Q 1159 2731 1159 2009 
Q 1159 1288 1364 580 
Q 1569 -128 1984 -844 
L 1484 -844 
Q 1016 -109 783 600 
Q 550 1309 550 2009 
Q 550 2706 781 3412 
Q 1013 4119 1484 4856 
L 1984 4856 
z
" transform="scale(0.015625)"/>
      <path id="DejaVuSans-39" d="M 703 97 
L 703 672 
Q 941 559 1184 500 
Q 1428 441 1663 441 
Q 2288 441 2617 861 
Q 2947 1281 2994 2138 
Q 2813 1869 2534 1725 
Q 2256 1581 1919 1581 
Q 1219 1581 811 2004 
Q 403 2428 403 3163 
Q 403 3881 828 4315 
Q 1253 4750 1959 4750 
Q 2769 4750 3195 4129 
Q 3622 3509 3622 2328 
Q 3622 1225 3098 567 
Q 2575 -91 1691 -91 
Q 1453 -91 1209 -44 
Q 966 3 703 97 
z
M 1959 2075 
Q 2384 2075 2632 2365 
Q 2881 2656 2881 3163 
Q 2881 3666 2632 3958 
Q 2384 4250 1959 4250 
Q 1534 4250 1286 3958 
Q 1038 3666 1038 3163 
Q 1038 2656 1286 2365 
Q 1534 2075 1959 2075 
z
" transform="scale(0.015625)"/>
      <path id="DejaVuSans-2c" d="M 750 794 
L 1409 794 
L 1409 256 
L 897 -744 
L 494 -744 
L 750 256 
L 750 794 
z
" transform="scale(0.015625)"/>
      <path id="DejaVuSans-52" d="M 2841 2188 
Q 3044 2119 3236 1894 
Q 3428 1669 3622 1275 
L 4263 0 
L 3584 0 
L 2988 1197 
Q 2756 1666 2539 1819 
Q 2322 1972 1947 1972 
L 1259 1972 
L 1259 0 
L 628 0 
L 628 4666 
L 2053 4666 
Q 2853 4666 3247 4331 
Q 3641 3997 3641 3322 
Q 3641 2881 3436 2590 
Q 3231 2300 2841 2188 
z
M 1259 4147 
L 1259 2491 
L 2053 2491 
Q 2509 2491 2742 2702 
Q 2975 2913 2975 3322 
Q 2975 3731 2742 3939 
Q 2509 4147 2053 4147 
L 1259 4147 
z
" transform="scale(0.015625)"/>
      <path id="DejaVuSans-50" d="M 1259 4147 
L 1259 2394 
L 2053 2394 
Q 2494 2394 2734 2622 
Q 2975 2850 2975 3272 
Q 2975 3691 2734 3919 
Q 2494 4147 2053 4147 
L 1259 4147 
z
M 628 4666 
L 2053 4666 
Q 2838 4666 3239 4311 
Q 3641 3956 3641 3272 
Q 3641 2581 3239 2228 
Q 2838 1875 2053 1875 
L 1259 1875 
L 1259 0 
L 628 0 
L 628 4666 
z
" transform="scale(0.015625)"/>
      <path id="DejaVuSans-37" d="M 525 4666 
L 3525 4666 
L 3525 4397 
L 1831 0 
L 1172 0 
L 2766 4134 
L 525 4134 
L 525 4666 
z
" transform="scale(0.015625)"/>
     </defs>
     <use xlink:href="#DejaVuSans-64"/>
     <use xlink:href="#DejaVuSans-65" x="63.476562"/>
     <use xlink:href="#DejaVuSans-74" x="125"/>
     <use xlink:href="#DejaVuSans-6f" x="164.208984"/>
     <use xlink:href="#DejaVuSans-75" x="225.390625"/>
     <use xlink:href="#DejaVuSans-72" x="288.769531"/>
     <use xlink:href="#DejaVuSans-3a" x="328.132812"/>
     <use xlink:href="#DejaVuSans-20" x="361.824219"/>
     <use xlink:href="#DejaVuSans-46" x="393.611328"/>
     <use xlink:href="#DejaVuSans-47" x="451.130859"/>
     <use xlink:href="#DejaVuSans-43" x="528.621094"/>
     <use xlink:href="#DejaVuSans-41" x="598.445312"/>
     <use xlink:href="#DejaVuSans-63" x="665.103516"/>
     <use xlink:href="#DejaVuSans-42" x="720.083984"/>
     <use xlink:href="#DejaVuSans-45" x="788.6875"/>
     <use xlink:href="#DejaVuSans-49" x="851.871094"/>
     <use xlink:href="#DejaVuSans-28" x="881.363281"/>
     <use xlink:href="#DejaVuSans-6c" x="920.376953"/>
     <use xlink:href="#DejaVuSans-65" x="948.160156"/>
     <use xlink:href="#DejaVuSans-6e" x="1009.683594"/>
     <use xlink:href="#DejaVuSans-3a" x="1073.0625"/>
     <use xlink:href="#DejaVuSans-20" x="1106.753906"/>
     <use xlink:href="#DejaVuSans-31" x="1138.541016"/>
     <use xlink:href="#DejaVuSans-39" x="1202.164062"/>
     <use xlink:href="#DejaVuSans-2e" x="1265.787109"/>
     <use xlink:href="#DejaVuSans-30" x="1297.574219"/>
     <use xlink:href="#DejaVuSans-2c" x="1361.197266"/>
     <use xlink:href="#DejaVuSans-20" x="1392.984375"/>
     <use xlink:href="#DejaVuSans-52" x="1424.771484"/>
     <use xlink:href="#DejaVuSans-50" x="1494.253906"/>
     <use xlink:href="#DejaVuSans-3a" x="1554.556641"/>
     <use xlink:href="#DejaVuSans-20" x="1588.248047"/>
     <use xlink:href="#DejaVuSans-37" x="1620.035156"/>
     <use xlink:href="#DejaVuSans-2e" x="1683.658203"/>
     <use xlink:href="#DejaVuSans-36" x="1715.445312"/>
     <use xlink:href="#DejaVuSans-34" x="1779.068359"/>
     <use xlink:href="#DejaVuSans-31" x="1842.691406"/>
    </g>
   </g>
  </g>
 </g>
 <defs>
  <clipPath id="p58d29d2135">
   <rect x="72" y="69.12" width="446.4" height="443.52"/>
  </clipPath>
 </defs>
</svg>
