<?xml version="1.0" encoding="UTF-8" standalone="no"?>
<!DOCTYPE svg PUBLIC "-//W3C//DTD SVG 1.1//EN"
 "http://www.w3.org/Graphics/SVG/1.1/DTD/svg11.dtd">
<!-- Generated by graphviz version 2.43.0 (0)
 -->
<!-- Title: %3 Pages: 1 -->
<svg width="222pt" height="380pt"
 viewBox="0.00 0.00 221.79 380.27" xmlns="http://www.w3.org/2000/svg" xmlns:xlink="http://www.w3.org/1999/xlink">
<g id="graph0" class="graph" transform="scale(1 1) rotate(0) translate(4 376.27)">
<title>%3</title>
<polygon fill="white" stroke="transparent" points="-4,4 -4,-376.27 217.79,-376.27 217.79,4 -4,4"/>
<!-- (B,A) 1.0 -->
<g id="node1" class="node">
<title>(B,A) 1.0</title>
<ellipse fill="none" stroke="black" cx="106.4" cy="-320.93" rx="51.19" ry="51.19"/>
<text text-anchor="middle" x="106.4" y="-317.23" font-family="Times,serif" font-size="14.00">(B,A) 1.0</text>
</g>
<!-- (E,I) 2.0 -->
<g id="node2" class="node">
<title>(E,I) 2.0</title>
<ellipse fill="none" stroke="black" cx="49.4" cy="-184.19" rx="48.19" ry="48.19"/>
<text text-anchor="middle" x="49.4" y="-180.49" font-family="Times,serif" font-size="14.00">(E,I) 2.0</text>
</g>
<!-- (B,A) 1.0&#45;&gt;(E,I) 2.0 -->
<g id="edge1" class="edge">
<title>(B,A) 1.0&#45;&gt;(E,I) 2.0</title>
<path fill="none" stroke="black" d="M86.62,-273.18C81.85,-261.9 76.71,-249.76 71.83,-238.21"/>
<polygon fill="black" stroke="black" points="74.92,-236.53 67.8,-228.68 68.47,-239.26 74.92,-236.53"/>
</g>
<!-- (H,I) 1.0 -->
<g id="node3" class="node">
<title>(H,I) 1.0</title>
<ellipse fill="none" stroke="black" cx="164.4" cy="-184.19" rx="49.29" ry="49.29"/>
<text text-anchor="middle" x="164.4" y="-180.49" font-family="Times,serif" font-size="14.00">(H,I) 1.0</text>
</g>
<!-- (B,A) 1.0&#45;&gt;(H,I) 1.0 -->
<g id="edge2" class="edge">
<title>(B,A) 1.0&#45;&gt;(H,I) 1.0</title>
<path fill="none" stroke="black" d="M126.36,-273.56C131.12,-262.5 136.24,-250.59 141.14,-239.22"/>
<polygon fill="black" stroke="black" points="144.44,-240.39 145.18,-229.82 138.01,-237.62 144.44,-240.39"/>
</g>
<!-- (c,A) 3.0 -->
<g id="node4" class="node">
<title>(c,A) 3.0</title>
<ellipse fill="none" stroke="black" cx="49.4" cy="-49.4" rx="49.29" ry="49.29"/>
<text text-anchor="middle" x="49.4" y="-45.7" font-family="Times,serif" font-size="14.00">(c,A) 3.0</text>
</g>
<!-- (E,I) 2.0&#45;&gt;(c,A) 3.0 -->
<g id="edge3" class="edge">
<title>(E,I) 2.0&#45;&gt;(c,A) 3.0</title>
<path fill="none" stroke="black" d="M49.4,-136C49.4,-127.42 49.4,-118.38 49.4,-109.52"/>
<polygon fill="black" stroke="black" points="52.9,-109.23 49.4,-99.23 45.9,-109.23 52.9,-109.23"/>
</g>
</g>
</svg>
