<?xml version="1.0" encoding="UTF-8" standalone="no"?>
<!DOCTYPE svg PUBLIC "-//W3C//DTD SVG 1.1//EN"
 "http://www.w3.org/Graphics/SVG/1.1/DTD/svg11.dtd">
<!-- Generated by graphviz version 2.43.0 (0)
 -->
<!-- Title: %3 Pages: 1 -->
<svg width="222pt" height="239pt"
 viewBox="0.00 0.00 222.14 238.98" xmlns="http://www.w3.org/2000/svg" xmlns:xlink="http://www.w3.org/1999/xlink">
<g id="graph0" class="graph" transform="scale(1 1) rotate(0) translate(4 234.98)">
<title>%3</title>
<polygon fill="white" stroke="transparent" points="-4,4 -4,-234.98 218.14,-234.98 218.14,4 -4,4"/>
<!-- (G,J) 1.0 -->
<g id="node1" class="node">
<title>(G,J) 1.0</title>
<ellipse fill="none" stroke="black" cx="107.4" cy="-182.89" rx="48.19" ry="48.19"/>
<text text-anchor="middle" x="107.4" y="-179.19" font-family="Times,serif" font-size="14.00">(G,J) 1.0</text>
</g>
<!-- (H,I) 1.0 -->
<g id="node2" class="node">
<title>(H,I) 1.0</title>
<ellipse fill="none" stroke="black" cx="49.4" cy="-49.4" rx="49.29" ry="49.29"/>
<text text-anchor="middle" x="49.4" y="-45.7" font-family="Times,serif" font-size="14.00">(H,I) 1.0</text>
</g>
<!-- (G,J) 1.0&#45;&gt;(H,I) 1.0 -->
<g id="edge1" class="edge">
<title>(G,J) 1.0&#45;&gt;(H,I) 1.0</title>
<path fill="none" stroke="black" d="M88.24,-138.47C83.45,-127.6 78.25,-115.8 73.25,-104.48"/>
<polygon fill="black" stroke="black" points="76.36,-102.86 69.12,-95.12 69.96,-105.68 76.36,-102.86"/>
</g>
<!-- (g,c) 2.0 -->
<g id="node3" class="node">
<title>(g,c) 2.0</title>
<ellipse fill="none" stroke="black" cx="165.4" cy="-49.4" rx="48.99" ry="48.99"/>
<text text-anchor="middle" x="165.4" y="-45.7" font-family="Times,serif" font-size="14.00">(g,c) 2.0</text>
</g>
<!-- (G,J) 1.0&#45;&gt;(g,c) 2.0 -->
<g id="edge2" class="edge">
<title>(G,J) 1.0&#45;&gt;(g,c) 2.0</title>
<path fill="none" stroke="black" d="M126.55,-138.47C131.49,-127.25 136.88,-115.05 142.01,-103.41"/>
<polygon fill="black" stroke="black" points="145.23,-104.78 146.07,-94.22 138.83,-101.96 145.23,-104.78"/>
</g>
</g>
</svg>
