<?xml version="1.0" encoding="UTF-8" standalone="no"?>
<!DOCTYPE svg PUBLIC "-//W3C//DTD SVG 1.1//EN"
 "http://www.w3.org/Graphics/SVG/1.1/DTD/svg11.dtd">
<!-- Generated by graphviz version 2.43.0 (0)
 -->
<!-- Title: %3 Pages: 1 -->
<svg width="220pt" height="245pt"
 viewBox="0.00 0.00 220.49 245.48" xmlns="http://www.w3.org/2000/svg" xmlns:xlink="http://www.w3.org/1999/xlink">
<g id="graph0" class="graph" transform="scale(1 1) rotate(0) translate(4 241.48)">
<title>%3</title>
<polygon fill="white" stroke="transparent" points="-4,4 -4,-241.48 216.49,-241.48 216.49,4 -4,4"/>
<!-- (B,A) 1.0 -->
<g id="node1" class="node">
<title>(B,A) 1.0</title>
<ellipse fill="none" stroke="black" cx="105.1" cy="-186.14" rx="51.19" ry="51.19"/>
<text text-anchor="middle" x="105.1" y="-182.44" font-family="Times,serif" font-size="14.00">(B,A) 1.0</text>
</g>
<!-- (E,I) 2.0 -->
<g id="node2" class="node">
<title>(E,I) 2.0</title>
<ellipse fill="none" stroke="black" cx="48.1" cy="-49.4" rx="48.19" ry="48.19"/>
<text text-anchor="middle" x="48.1" y="-45.7" font-family="Times,serif" font-size="14.00">(E,I) 2.0</text>
</g>
<!-- (B,A) 1.0&#45;&gt;(E,I) 2.0 -->
<g id="edge1" class="edge">
<title>(B,A) 1.0&#45;&gt;(E,I) 2.0</title>
<path fill="none" stroke="black" d="M85.32,-138.39C80.55,-127.11 75.41,-114.97 70.53,-103.42"/>
<polygon fill="black" stroke="black" points="73.62,-101.74 66.5,-93.89 67.17,-104.47 73.62,-101.74"/>
</g>
<!-- (H,I) 1.0 -->
<g id="node3" class="node">
<title>(H,I) 1.0</title>
<ellipse fill="none" stroke="black" cx="163.1" cy="-49.4" rx="49.29" ry="49.29"/>
<text text-anchor="middle" x="163.1" y="-45.7" font-family="Times,serif" font-size="14.00">(H,I) 1.0</text>
</g>
<!-- (B,A) 1.0&#45;&gt;(H,I) 1.0 -->
<g id="edge2" class="edge">
<title>(B,A) 1.0&#45;&gt;(H,I) 1.0</title>
<path fill="none" stroke="black" d="M125.06,-138.77C129.82,-127.7 134.94,-115.8 139.84,-104.43"/>
<polygon fill="black" stroke="black" points="143.14,-105.6 143.88,-95.03 136.71,-102.83 143.14,-105.6"/>
</g>
</g>
</svg>
