<?xml version="1.0" encoding="UTF-8" standalone="no"?>
<!DOCTYPE svg PUBLIC "-//W3C//DTD SVG 1.1//EN"
 "http://www.w3.org/Graphics/SVG/1.1/DTD/svg11.dtd">
<!-- Generated by graphviz version 2.43.0 (0)
 -->
<!-- Title: %3 Pages: 1 -->
<svg width="218pt" height="239pt"
 viewBox="0.00 0.00 218.19 238.98" xmlns="http://www.w3.org/2000/svg" xmlns:xlink="http://www.w3.org/1999/xlink">
<g id="graph0" class="graph" transform="scale(1 1) rotate(0) translate(4 234.98)">
<title>%3</title>
<polygon fill="white" stroke="transparent" points="-4,4 -4,-234.98 214.19,-234.98 214.19,4 -4,4"/>
<!-- (H,I) 1.0 -->
<g id="node1" class="node">
<title>(H,I) 1.0</title>
<ellipse fill="none" stroke="black" cx="105.1" cy="-181.59" rx="49.29" ry="49.29"/>
<text text-anchor="middle" x="105.1" y="-177.89" font-family="Times,serif" font-size="14.00">(H,I) 1.0</text>
</g>
<!-- (E,I) 2.0 -->
<g id="node2" class="node">
<title>(E,I) 2.0</title>
<ellipse fill="none" stroke="black" cx="48.1" cy="-48.1" rx="48.19" ry="48.19"/>
<text text-anchor="middle" x="48.1" y="-44.4" font-family="Times,serif" font-size="14.00">(E,I) 2.0</text>
</g>
<!-- (H,I) 1.0&#45;&gt;(E,I) 2.0 -->
<g id="edge1" class="edge">
<title>(H,I) 1.0&#45;&gt;(E,I) 2.0</title>
<path fill="none" stroke="black" d="M85.8,-136.07C81.05,-125.13 75.93,-113.31 71.03,-102.01"/>
<polygon fill="black" stroke="black" points="74.18,-100.46 66.99,-92.67 67.75,-103.24 74.18,-100.46"/>
</g>
<!-- (j,B) 1.0 -->
<g id="node3" class="node">
<title>(j,B) 1.0</title>
<ellipse fill="none" stroke="black" cx="162.1" cy="-48.1" rx="48.19" ry="48.19"/>
<text text-anchor="middle" x="162.1" y="-44.4" font-family="Times,serif" font-size="14.00">(j,B) 1.0</text>
</g>
<!-- (H,I) 1.0&#45;&gt;(j,B) 1.0 -->
<g id="edge2" class="edge">
<title>(H,I) 1.0&#45;&gt;(j,B) 1.0</title>
<path fill="none" stroke="black" d="M124.39,-136.07C129.14,-125.13 134.26,-113.31 139.16,-102.01"/>
<polygon fill="black" stroke="black" points="142.44,-103.24 143.2,-92.67 136.02,-100.46 142.44,-103.24"/>
</g>
</g>
</svg>
