<?xml version="1.0" encoding="UTF-8" standalone="no"?>
<!DOCTYPE svg PUBLIC "-//W3C//DTD SVG 1.1//EN"
 "http://www.w3.org/Graphics/SVG/1.1/DTD/svg11.dtd">
<!-- Generated by graphviz version 2.43.0 (0)
 -->
<!-- Title: %3 Pages: 1 -->
<svg width="222pt" height="379pt"
 viewBox="0.00 0.00 222.09 378.97" xmlns="http://www.w3.org/2000/svg" xmlns:xlink="http://www.w3.org/1999/xlink">
<g id="graph0" class="graph" transform="scale(1 1) rotate(0) translate(4 374.97)">
<title>%3</title>
<polygon fill="white" stroke="transparent" points="-4,4 -4,-374.97 218.09,-374.97 218.09,4 -4,4"/>
<!-- (H,I) 1.0 -->
<g id="node1" class="node">
<title>(H,I) 1.0</title>
<ellipse fill="none" stroke="black" cx="109" cy="-321.58" rx="49.29" ry="49.29"/>
<text text-anchor="middle" x="109" y="-317.88" font-family="Times,serif" font-size="14.00">(H,I) 1.0</text>
</g>
<!-- (E,I) 2.0 -->
<g id="node2" class="node">
<title>(E,I) 2.0</title>
<ellipse fill="none" stroke="black" cx="52" cy="-188.09" rx="48.19" ry="48.19"/>
<text text-anchor="middle" x="52" y="-184.39" font-family="Times,serif" font-size="14.00">(E,I) 2.0</text>
</g>
<!-- (H,I) 1.0&#45;&gt;(E,I) 2.0 -->
<g id="edge1" class="edge">
<title>(H,I) 1.0&#45;&gt;(E,I) 2.0</title>
<path fill="none" stroke="black" d="M89.7,-276.06C84.95,-265.12 79.83,-253.3 74.93,-242"/>
<polygon fill="black" stroke="black" points="78.08,-240.45 70.89,-232.67 71.65,-243.23 78.08,-240.45"/>
</g>
<!-- (j,B) 1.0 -->
<g id="node3" class="node">
<title>(j,B) 1.0</title>
<ellipse fill="none" stroke="black" cx="166" cy="-188.09" rx="48.19" ry="48.19"/>
<text text-anchor="middle" x="166" y="-184.39" font-family="Times,serif" font-size="14.00">(j,B) 1.0</text>
</g>
<!-- (H,I) 1.0&#45;&gt;(j,B) 1.0 -->
<g id="edge2" class="edge">
<title>(H,I) 1.0&#45;&gt;(j,B) 1.0</title>
<path fill="none" stroke="black" d="M128.29,-276.06C133.04,-265.12 138.16,-253.3 143.06,-242"/>
<polygon fill="black" stroke="black" points="146.34,-243.23 147.1,-232.67 139.92,-240.45 146.34,-243.23"/>
</g>
<!-- (k,m) 3.0 -->
<g id="node4" class="node">
<title>(k,m) 3.0</title>
<ellipse fill="none" stroke="black" cx="52" cy="-52" rx="51.99" ry="51.99"/>
<text text-anchor="middle" x="52" y="-48.3" font-family="Times,serif" font-size="14.00">(k,m) 3.0</text>
</g>
<!-- (E,I) 2.0&#45;&gt;(k,m) 3.0 -->
<g id="edge3" class="edge">
<title>(E,I) 2.0&#45;&gt;(k,m) 3.0</title>
<path fill="none" stroke="black" d="M52,-139.81C52,-131.66 52,-123.09 52,-114.63"/>
<polygon fill="black" stroke="black" points="55.5,-114.4 52,-104.4 48.5,-114.4 55.5,-114.4"/>
</g>
</g>
</svg>
