<?xml version="1.0" encoding="UTF-8" standalone="no"?>
<!DOCTYPE svg PUBLIC "-//W3C//DTD SVG 1.1//EN"
 "http://www.w3.org/Graphics/SVG/1.1/DTD/svg11.dtd">
<!-- Generated by graphviz version 2.43.0 (0)
 -->
<!-- Title: %3 Pages: 1 -->
<svg width="218pt" height="239pt"
 viewBox="0.00 0.00 218.19 238.98" xmlns="http://www.w3.org/2000/svg" xmlns:xlink="http://www.w3.org/1999/xlink">
<g id="graph0" class="graph" transform="scale(1 1) rotate(0) translate(4 234.98)">
<title>%3</title>
<polygon fill="white" stroke="transparent" points="-4,4 -4,-234.98 214.19,-234.98 214.19,4 -4,4"/>
<!-- (G,J) 1.0 -->
<g id="node1" class="node">
<title>(G,J) 1.0</title>
<ellipse fill="none" stroke="black" cx="106.4" cy="-182.89" rx="48.19" ry="48.19"/>
<text text-anchor="middle" x="106.4" y="-179.19" font-family="Times,serif" font-size="14.00">(G,J) 1.0</text>
</g>
<!-- (H,I) 1.0 -->
<g id="node2" class="node">
<title>(H,I) 1.0</title>
<ellipse fill="none" stroke="black" cx="49.4" cy="-49.4" rx="49.29" ry="49.29"/>
<text text-anchor="middle" x="49.4" y="-45.7" font-family="Times,serif" font-size="14.00">(H,I) 1.0</text>
</g>
<!-- (G,J) 1.0&#45;&gt;(H,I) 1.0 -->
<g id="edge1" class="edge">
<title>(G,J) 1.0&#45;&gt;(H,I) 1.0</title>
<path fill="none" stroke="black" d="M87.57,-138.47C82.86,-127.6 77.75,-115.8 72.84,-104.48"/>
<polygon fill="black" stroke="black" points="75.97,-102.9 68.78,-95.12 69.55,-105.69 75.97,-102.9"/>
</g>
<!-- (l,n) 3.0 -->
<g id="node3" class="node">
<title>(l,n) 3.0</title>
<ellipse fill="none" stroke="black" cx="163.4" cy="-49.4" rx="46.59" ry="46.59"/>
<text text-anchor="middle" x="163.4" y="-45.7" font-family="Times,serif" font-size="14.00">(l,n) 3.0</text>
</g>
<!-- (G,J) 1.0&#45;&gt;(l,n) 3.0 -->
<g id="edge2" class="edge">
<title>(G,J) 1.0&#45;&gt;(l,n) 3.0</title>
<path fill="none" stroke="black" d="M125.22,-138.47C130.23,-126.9 135.7,-114.28 140.89,-102.31"/>
<polygon fill="black" stroke="black" points="144.22,-103.44 144.98,-92.87 137.79,-100.66 144.22,-103.44"/>
</g>
</g>
</svg>
