<?xml version="1.0" encoding="UTF-8" standalone="no"?>
<!DOCTYPE svg PUBLIC "-//W3C//DTD SVG 1.1//EN"
 "http://www.w3.org/Graphics/SVG/1.1/DTD/svg11.dtd">
<!-- Generated by graphviz version 2.43.0 (0)
 -->
<!-- Title: %3 Pages: 1 -->
<svg width="226pt" height="247pt"
 viewBox="0.00 0.00 226.09 246.78" xmlns="http://www.w3.org/2000/svg" xmlns:xlink="http://www.w3.org/1999/xlink">
<g id="graph0" class="graph" transform="scale(1 1) rotate(0) translate(4 242.78)">
<title>%3</title>
<polygon fill="white" stroke="transparent" points="-4,4 -4,-242.78 222.09,-242.78 222.09,4 -4,4"/>
<!-- (H,I) 1.0 -->
<g id="node1" class="node">
<title>(H,I) 1.0</title>
<ellipse fill="none" stroke="black" cx="107.1" cy="-189.39" rx="49.29" ry="49.29"/>
<text text-anchor="middle" x="107.1" y="-185.69" font-family="Times,serif" font-size="14.00">(H,I) 1.0</text>
</g>
<!-- (I,E) 2.0 -->
<g id="node2" class="node">
<title>(I,E) 2.0</title>
<ellipse fill="none" stroke="black" cx="48.1" cy="-52" rx="48.19" ry="48.19"/>
<text text-anchor="middle" x="48.1" y="-48.3" font-family="Times,serif" font-size="14.00">(I,E) 2.0</text>
</g>
<!-- (H,I) 1.0&#45;&gt;(I,E) 2.0 -->
<g id="edge1" class="edge">
<title>(H,I) 1.0&#45;&gt;(I,E) 2.0</title>
<path fill="none" stroke="black" d="M87.61,-143.68C82.32,-131.53 76.53,-118.25 71.06,-105.7"/>
<polygon fill="black" stroke="black" points="74.16,-104.04 66.96,-96.27 67.74,-106.84 74.16,-104.04"/>
</g>
<!-- (m,k) 3.0 -->
<g id="node3" class="node">
<title>(m,k) 3.0</title>
<ellipse fill="none" stroke="black" cx="166.1" cy="-52" rx="51.99" ry="51.99"/>
<text text-anchor="middle" x="166.1" y="-48.3" font-family="Times,serif" font-size="14.00">(m,k) 3.0</text>
</g>
<!-- (H,I) 1.0&#45;&gt;(m,k) 3.0 -->
<g id="edge2" class="edge">
<title>(H,I) 1.0&#45;&gt;(m,k) 3.0</title>
<path fill="none" stroke="black" d="M126.58,-143.68C131.35,-132.73 136.52,-120.86 141.5,-109.44"/>
<polygon fill="black" stroke="black" points="144.84,-110.54 145.62,-99.98 138.42,-107.75 144.84,-110.54"/>
</g>
</g>
</svg>
