<?xml version="1.0" encoding="UTF-8" standalone="no"?>
<!DOCTYPE svg PUBLIC "-//W3C//DTD SVG 1.1//EN"
 "http://www.w3.org/Graphics/SVG/1.1/DTD/svg11.dtd">
<!-- Generated by graphviz version 2.43.0 (0)
 -->
<!-- Title: %3 Pages: 1 -->
<svg width="280pt" height="378pt"
 viewBox="0.00 0.00 280.44 377.67" xmlns="http://www.w3.org/2000/svg" xmlns:xlink="http://www.w3.org/1999/xlink">
<g id="graph0" class="graph" transform="scale(1 1) rotate(0) translate(4 373.67)">
<title>%3</title>
<polygon fill="white" stroke="transparent" points="-4,4 -4,-373.67 276.44,-373.67 276.44,4 -4,4"/>
<!-- (H,I) 1.0 -->
<g id="node1" class="node">
<title>(H,I) 1.0</title>
<ellipse fill="none" stroke="black" cx="164.4" cy="-320.28" rx="49.29" ry="49.29"/>
<text text-anchor="middle" x="164.4" y="-316.58" font-family="Times,serif" font-size="14.00">(H,I) 1.0</text>
</g>
<!-- (J,G) 1.0 -->
<g id="node2" class="node">
<title>(J,G) 1.0</title>
<ellipse fill="none" stroke="black" cx="106.4" cy="-184.84" rx="48.19" ry="48.19"/>
<text text-anchor="middle" x="106.4" y="-181.14" font-family="Times,serif" font-size="14.00">(J,G) 1.0</text>
</g>
<!-- (H,I) 1.0&#45;&gt;(J,G) 1.0 -->
<g id="edge1" class="edge">
<title>(H,I) 1.0&#45;&gt;(J,G) 1.0</title>
<path fill="none" stroke="black" d="M144.92,-274.47C139.94,-263 134.53,-250.56 129.38,-238.72"/>
<polygon fill="black" stroke="black" points="132.52,-237.17 125.33,-229.39 126.1,-239.96 132.52,-237.17"/>
</g>
<!-- (p,q) 1.0 -->
<g id="node3" class="node">
<title>(p,q) 1.0</title>
<ellipse fill="none" stroke="black" cx="222.4" cy="-184.84" rx="50.09" ry="50.09"/>
<text text-anchor="middle" x="222.4" y="-181.14" font-family="Times,serif" font-size="14.00">(p,q) 1.0</text>
</g>
<!-- (H,I) 1.0&#45;&gt;(p,q) 1.0 -->
<g id="edge2" class="edge">
<title>(H,I) 1.0&#45;&gt;(p,q) 1.0</title>
<path fill="none" stroke="black" d="M183.87,-274.47C188.6,-263.59 193.71,-251.83 198.62,-240.54"/>
<polygon fill="black" stroke="black" points="201.9,-241.77 202.68,-231.21 195.48,-238.98 201.9,-241.77"/>
</g>
<!-- (o,n) 2.0 -->
<g id="node4" class="node">
<title>(o,n) 2.0</title>
<ellipse fill="none" stroke="black" cx="49.4" cy="-49.4" rx="49.29" ry="49.29"/>
<text text-anchor="middle" x="49.4" y="-45.7" font-family="Times,serif" font-size="14.00">(o,n) 2.0</text>
</g>
<!-- (J,G) 1.0&#45;&gt;(o,n) 2.0 -->
<g id="edge3" class="edge">
<title>(J,G) 1.0&#45;&gt;(o,n) 2.0</title>
<path fill="none" stroke="black" d="M87.73,-140.14C82.86,-128.75 77.56,-116.33 72.49,-104.47"/>
<polygon fill="black" stroke="black" points="75.64,-102.92 68.49,-95.1 69.2,-105.67 75.64,-102.92"/>
</g>
<!-- (n,l) 3.0 -->
<g id="node5" class="node">
<title>(n,l) 3.0</title>
<ellipse fill="none" stroke="black" cx="163.4" cy="-49.4" rx="46.59" ry="46.59"/>
<text text-anchor="middle" x="163.4" y="-45.7" font-family="Times,serif" font-size="14.00">(n,l) 3.0</text>
</g>
<!-- (J,G) 1.0&#45;&gt;(n,l) 3.0 -->
<g id="edge4" class="edge">
<title>(J,G) 1.0&#45;&gt;(n,l) 3.0</title>
<path fill="none" stroke="black" d="M125.06,-140.14C130.23,-128.03 135.9,-114.76 141.25,-102.23"/>
<polygon fill="black" stroke="black" points="144.56,-103.39 145.27,-92.82 138.13,-100.64 144.56,-103.39"/>
</g>
</g>
</svg>
