<?xml version="1.0" encoding="UTF-8" standalone="no"?>
<!DOCTYPE svg PUBLIC "-//W3C//DTD SVG 1.1//EN"
 "http://www.w3.org/Graphics/SVG/1.1/DTD/svg11.dtd">
<!-- Generated by graphviz version 2.43.0 (0)
 -->
<!-- Title: %3 Pages: 1 -->
<svg width="223pt" height="378pt"
 viewBox="0.00 0.00 223.44 377.67" xmlns="http://www.w3.org/2000/svg" xmlns:xlink="http://www.w3.org/1999/xlink">
<g id="graph0" class="graph" transform="scale(1 1) rotate(0) translate(4 373.67)">
<title>%3</title>
<polygon fill="white" stroke="transparent" points="-4,4 -4,-373.67 219.44,-373.67 219.44,4 -4,4"/>
<!-- (H,I) 1.0 -->
<g id="node1" class="node">
<title>(H,I) 1.0</title>
<ellipse fill="none" stroke="black" cx="107.4" cy="-320.28" rx="49.29" ry="49.29"/>
<text text-anchor="middle" x="107.4" y="-316.58" font-family="Times,serif" font-size="14.00">(H,I) 1.0</text>
</g>
<!-- (J,G) 1.0 -->
<g id="node2" class="node">
<title>(J,G) 1.0</title>
<ellipse fill="none" stroke="black" cx="49.4" cy="-184.84" rx="48.19" ry="48.19"/>
<text text-anchor="middle" x="49.4" y="-181.14" font-family="Times,serif" font-size="14.00">(J,G) 1.0</text>
</g>
<!-- (H,I) 1.0&#45;&gt;(J,G) 1.0 -->
<g id="edge1" class="edge">
<title>(H,I) 1.0&#45;&gt;(J,G) 1.0</title>
<path fill="none" stroke="black" d="M87.92,-274.47C82.94,-263 77.53,-250.56 72.38,-238.72"/>
<polygon fill="black" stroke="black" points="75.52,-237.17 68.33,-229.39 69.1,-239.96 75.52,-237.17"/>
</g>
<!-- (p,q) 1.0 -->
<g id="node3" class="node">
<title>(p,q) 1.0</title>
<ellipse fill="none" stroke="black" cx="165.4" cy="-184.84" rx="50.09" ry="50.09"/>
<text text-anchor="middle" x="165.4" y="-181.14" font-family="Times,serif" font-size="14.00">(p,q) 1.0</text>
</g>
<!-- (H,I) 1.0&#45;&gt;(p,q) 1.0 -->
<g id="edge2" class="edge">
<title>(H,I) 1.0&#45;&gt;(p,q) 1.0</title>
<path fill="none" stroke="black" d="M126.87,-274.47C131.6,-263.59 136.71,-251.83 141.62,-240.54"/>
<polygon fill="black" stroke="black" points="144.9,-241.77 145.68,-231.21 138.48,-238.98 144.9,-241.77"/>
</g>
<!-- (o,n) 2.0 -->
<g id="node4" class="node">
<title>(o,n) 2.0</title>
<ellipse fill="none" stroke="black" cx="49.4" cy="-49.4" rx="49.29" ry="49.29"/>
<text text-anchor="middle" x="49.4" y="-45.7" font-family="Times,serif" font-size="14.00">(o,n) 2.0</text>
</g>
<!-- (J,G) 1.0&#45;&gt;(o,n) 2.0 -->
<g id="edge3" class="edge">
<title>(J,G) 1.0&#45;&gt;(o,n) 2.0</title>
<path fill="none" stroke="black" d="M49.4,-136.41C49.4,-127.6 49.4,-118.29 49.4,-109.18"/>
<polygon fill="black" stroke="black" points="52.9,-109.02 49.4,-99.02 45.9,-109.02 52.9,-109.02"/>
</g>
</g>
</svg>
