<?xml version="1.0" encoding="UTF-8" standalone="no"?>
<!DOCTYPE svg PUBLIC "-//W3C//DTD SVG 1.1//EN"
 "http://www.w3.org/Graphics/SVG/1.1/DTD/svg11.dtd">
<!-- Generated by graphviz version 2.43.0 (0)
 -->
<!-- Title: %3 Pages: 1 -->
<svg width="222pt" height="243pt"
 viewBox="0.00 0.00 222.14 242.88" xmlns="http://www.w3.org/2000/svg" xmlns:xlink="http://www.w3.org/1999/xlink">
<g id="graph0" class="graph" transform="scale(1 1) rotate(0) translate(4 238.88)">
<title>%3</title>
<polygon fill="white" stroke="transparent" points="-4,4 -4,-238.88 218.14,-238.88 218.14,4 -4,4"/>
<!-- (H,I) 1.0 -->
<g id="node1" class="node">
<title>(H,I) 1.0</title>
<ellipse fill="none" stroke="black" cx="106.1" cy="-185.49" rx="49.29" ry="49.29"/>
<text text-anchor="middle" x="106.1" y="-181.79" font-family="Times,serif" font-size="14.00">(H,I) 1.0</text>
</g>
<!-- (J,G) 1.0 -->
<g id="node2" class="node">
<title>(J,G) 1.0</title>
<ellipse fill="none" stroke="black" cx="48.1" cy="-50.05" rx="48.19" ry="48.19"/>
<text text-anchor="middle" x="48.1" y="-46.35" font-family="Times,serif" font-size="14.00">(J,G) 1.0</text>
</g>
<!-- (H,I) 1.0&#45;&gt;(J,G) 1.0 -->
<g id="edge1" class="edge">
<title>(H,I) 1.0&#45;&gt;(J,G) 1.0</title>
<path fill="none" stroke="black" d="M86.62,-139.68C81.64,-128.21 76.23,-115.77 71.08,-103.93"/>
<polygon fill="black" stroke="black" points="74.22,-102.38 67.03,-94.6 67.8,-105.17 74.22,-102.38"/>
</g>
<!-- (p,q) 1.0 -->
<g id="node3" class="node">
<title>(p,q) 1.0</title>
<ellipse fill="none" stroke="black" cx="164.1" cy="-50.05" rx="50.09" ry="50.09"/>
<text text-anchor="middle" x="164.1" y="-46.35" font-family="Times,serif" font-size="14.00">(p,q) 1.0</text>
</g>
<!-- (H,I) 1.0&#45;&gt;(p,q) 1.0 -->
<g id="edge2" class="edge">
<title>(H,I) 1.0&#45;&gt;(p,q) 1.0</title>
<path fill="none" stroke="black" d="M125.57,-139.68C130.3,-128.8 135.41,-117.04 140.32,-105.75"/>
<polygon fill="black" stroke="black" points="143.6,-106.98 144.38,-96.41 137.18,-104.19 143.6,-106.98"/>
</g>
</g>
</svg>
