<?xml version="1.0" encoding="UTF-8" standalone="no"?>
<!DOCTYPE svg PUBLIC "-//W3C//DTD SVG 1.1//EN"
 "http://www.w3.org/Graphics/SVG/1.1/DTD/svg11.dtd">
<!-- Generated by graphviz version 2.43.0 (0)
 -->
<!-- Title: %3 Pages: 1 -->
<svg width="227pt" height="384pt"
 viewBox="0.00 0.00 226.69 384.17" xmlns="http://www.w3.org/2000/svg" xmlns:xlink="http://www.w3.org/1999/xlink">
<g id="graph0" class="graph" transform="scale(1 1) rotate(0) translate(4 380.17)">
<title>%3</title>
<polygon fill="white" stroke="transparent" points="-4,4 -4,-380.17 222.69,-380.17 222.69,4 -4,4"/>
<!-- (H,I) 1.0 -->
<g id="node1" class="node">
<title>(H,I) 1.0</title>
<ellipse fill="none" stroke="black" cx="110.65" cy="-326.78" rx="49.29" ry="49.29"/>
<text text-anchor="middle" x="110.65" y="-323.08" font-family="Times,serif" font-size="14.00">(H,I) 1.0</text>
</g>
<!-- (J,G) 1.0 -->
<g id="node2" class="node">
<title>(J,G) 1.0</title>
<ellipse fill="none" stroke="black" cx="52.65" cy="-191.34" rx="48.19" ry="48.19"/>
<text text-anchor="middle" x="52.65" y="-187.64" font-family="Times,serif" font-size="14.00">(J,G) 1.0</text>
</g>
<!-- (H,I) 1.0&#45;&gt;(J,G) 1.0 -->
<g id="edge1" class="edge">
<title>(H,I) 1.0&#45;&gt;(J,G) 1.0</title>
<path fill="none" stroke="black" d="M91.17,-280.97C86.19,-269.5 80.78,-257.06 75.63,-245.22"/>
<polygon fill="black" stroke="black" points="78.77,-243.67 71.58,-235.89 72.35,-246.46 78.77,-243.67"/>
</g>
<!-- (p,q) 1.0 -->
<g id="node3" class="node">
<title>(p,q) 1.0</title>
<ellipse fill="none" stroke="black" cx="168.65" cy="-191.34" rx="50.09" ry="50.09"/>
<text text-anchor="middle" x="168.65" y="-187.64" font-family="Times,serif" font-size="14.00">(p,q) 1.0</text>
</g>
<!-- (H,I) 1.0&#45;&gt;(p,q) 1.0 -->
<g id="edge2" class="edge">
<title>(H,I) 1.0&#45;&gt;(p,q) 1.0</title>
<path fill="none" stroke="black" d="M130.12,-280.97C134.85,-270.09 139.96,-258.33 144.87,-247.04"/>
<polygon fill="black" stroke="black" points="148.15,-248.27 148.93,-237.71 141.73,-245.48 148.15,-248.27"/>
</g>
<!-- (q,m) 3.0 -->
<g id="node4" class="node">
<title>(q,m) 3.0</title>
<ellipse fill="none" stroke="black" cx="52.65" cy="-52.65" rx="52.79" ry="52.79"/>
<text text-anchor="middle" x="52.65" y="-48.95" font-family="Times,serif" font-size="14.00">(q,m) 3.0</text>
</g>
<!-- (J,G) 1.0&#45;&gt;(q,m) 3.0 -->
<g id="edge3" class="edge">
<title>(J,G) 1.0&#45;&gt;(q,m) 3.0</title>
<path fill="none" stroke="black" d="M52.65,-142.91C52.65,-134.17 52.65,-124.93 52.65,-115.83"/>
<polygon fill="black" stroke="black" points="56.15,-115.65 52.65,-105.65 49.15,-115.65 56.15,-115.65"/>
</g>
</g>
</svg>
