<?xml version="1.0" encoding="UTF-8" standalone="no"?>
<!DOCTYPE svg PUBLIC "-//W3C//DTD SVG 1.1//EN"
 "http://www.w3.org/Graphics/SVG/1.1/DTD/svg11.dtd">
<!-- Generated by graphviz version 2.43.0 (0)
 -->
<!-- Title: %3 Pages: 1 -->
<svg width="287pt" height="384pt"
 viewBox="0.00 0.00 286.69 384.17" xmlns="http://www.w3.org/2000/svg" xmlns:xlink="http://www.w3.org/1999/xlink">
<g id="graph0" class="graph" transform="scale(1 1) rotate(0) translate(4 380.17)">
<title>%3</title>
<polygon fill="white" stroke="transparent" points="-4,4 -4,-380.17 282.69,-380.17 282.69,4 -4,4"/>
<!-- (H,I) 1.0 -->
<g id="node1" class="node">
<title>(H,I) 1.0</title>
<ellipse fill="none" stroke="black" cx="170.65" cy="-326.78" rx="49.29" ry="49.29"/>
<text text-anchor="middle" x="170.65" y="-323.08" font-family="Times,serif" font-size="14.00">(H,I) 1.0</text>
</g>
<!-- (J,G) 1.0 -->
<g id="node2" class="node">
<title>(J,G) 1.0</title>
<ellipse fill="none" stroke="black" cx="112.65" cy="-191.34" rx="48.19" ry="48.19"/>
<text text-anchor="middle" x="112.65" y="-187.64" font-family="Times,serif" font-size="14.00">(J,G) 1.0</text>
</g>
<!-- (H,I) 1.0&#45;&gt;(J,G) 1.0 -->
<g id="edge1" class="edge">
<title>(H,I) 1.0&#45;&gt;(J,G) 1.0</title>
<path fill="none" stroke="black" d="M151.17,-280.97C146.19,-269.5 140.78,-257.06 135.63,-245.22"/>
<polygon fill="black" stroke="black" points="138.77,-243.67 131.58,-235.89 132.35,-246.46 138.77,-243.67"/>
</g>
<!-- (p,q) 1.0 -->
<g id="node3" class="node">
<title>(p,q) 1.0</title>
<ellipse fill="none" stroke="black" cx="228.65" cy="-191.34" rx="50.09" ry="50.09"/>
<text text-anchor="middle" x="228.65" y="-187.64" font-family="Times,serif" font-size="14.00">(p,q) 1.0</text>
</g>
<!-- (H,I) 1.0&#45;&gt;(p,q) 1.0 -->
<g id="edge2" class="edge">
<title>(H,I) 1.0&#45;&gt;(p,q) 1.0</title>
<path fill="none" stroke="black" d="M190.12,-280.97C194.85,-270.09 199.96,-258.33 204.87,-247.04"/>
<polygon fill="black" stroke="black" points="208.15,-248.27 208.93,-237.71 201.73,-245.48 208.15,-248.27"/>
</g>
<!-- (q,m) 3.0 -->
<g id="node4" class="node">
<title>(q,m) 3.0</title>
<ellipse fill="none" stroke="black" cx="52.65" cy="-52.65" rx="52.79" ry="52.79"/>
<text text-anchor="middle" x="52.65" y="-48.95" font-family="Times,serif" font-size="14.00">(q,m) 3.0</text>
</g>
<!-- (J,G) 1.0&#45;&gt;(q,m) 3.0 -->
<g id="edge3" class="edge">
<title>(J,G) 1.0&#45;&gt;(q,m) 3.0</title>
<path fill="none" stroke="black" d="M93.66,-147.09C88.57,-135.49 82.99,-122.78 77.63,-110.57"/>
<polygon fill="black" stroke="black" points="80.81,-109.11 73.59,-101.36 74.4,-111.92 80.81,-109.11"/>
</g>
<!-- (r,m) 4.0 -->
<g id="node5" class="node">
<title>(r,m) 4.0</title>
<ellipse fill="none" stroke="black" cx="173.65" cy="-52.65" rx="50.09" ry="50.09"/>
<text text-anchor="middle" x="173.65" y="-48.95" font-family="Times,serif" font-size="14.00">(r,m) 4.0</text>
</g>
<!-- (J,G) 1.0&#45;&gt;(r,m) 4.0 -->
<g id="edge4" class="edge">
<title>(J,G) 1.0&#45;&gt;(r,m) 4.0</title>
<path fill="none" stroke="black" d="M131.95,-147.09C137.45,-134.75 143.52,-121.15 149.29,-108.23"/>
<polygon fill="black" stroke="black" points="152.54,-109.53 153.42,-98.97 146.15,-106.68 152.54,-109.53"/>
</g>
</g>
</svg>
