<?xml version="1.0" encoding="UTF-8" standalone="no"?>
<!DOCTYPE svg PUBLIC "-//W3C//DTD SVG 1.1//EN"
 "http://www.w3.org/Graphics/SVG/1.1/DTD/svg11.dtd">
<!-- Generated by graphviz version 2.43.0 (0)
 -->
<!-- Title: %3 Pages: 1 -->
<svg width="252pt" height="427pt"
 viewBox="0.00 0.00 252.09 427.07" xmlns="http://www.w3.org/2000/svg" xmlns:xlink="http://www.w3.org/1999/xlink">
<g id="graph0" class="graph" transform="scale(1 1) rotate(0) translate(4 423.07)">
<title>%3</title>
<polygon fill="white" stroke="transparent" points="-4,4 -4,-423.07 248.09,-423.07 248.09,4 -4,4"/>
<!-- q(g)=11.0 -->
<g id="node1" class="node">
<title>q(g)=11.0</title>
<ellipse fill="none" stroke="black" cx="122.84" cy="-361.22" rx="57.69" ry="57.69"/>
<text text-anchor="middle" x="122.84" y="-357.52" font-family="Times,serif" font-size="14.00">q(g)=11.0</text>
</g>
<!-- q(d)=13.0 -->
<g id="node2" class="node">
<title>q(d)=13.0</title>
<ellipse fill="none" stroke="black" cx="57.84" cy="-209.53" rx="57.69" ry="57.69"/>
<text text-anchor="middle" x="57.84" y="-205.83" font-family="Times,serif" font-size="14.00">q(d)=13.0</text>
</g>
<!-- q(g)=11.0&#45;&gt;q(d)=13.0 -->
<g id="edge1" class="edge">
<title>q(g)=11.0&#45;&gt;q(d)=13.0</title>
<path fill="none" stroke="black" d="M100.11,-307.87C95.11,-296.36 89.78,-284.07 84.64,-272.23"/>
<polygon fill="black" stroke="black" points="87.76,-270.64 80.57,-262.86 81.34,-273.43 87.76,-270.64"/>
</g>
<!-- q(f)=18.0 -->
<g id="node3" class="node">
<title>q(f)=18.0</title>
<ellipse fill="none" stroke="black" cx="188.84" cy="-209.53" rx="55.49" ry="55.49"/>
<text text-anchor="middle" x="188.84" y="-205.83" font-family="Times,serif" font-size="14.00">q(f)=18.0</text>
</g>
<!-- q(g)=11.0&#45;&gt;q(f)=18.0 -->
<g id="edge2" class="edge">
<title>q(g)=11.0&#45;&gt;q(f)=18.0</title>
<path fill="none" stroke="black" d="M145.93,-307.87C151.35,-295.58 157.16,-282.39 162.71,-269.81"/>
<polygon fill="black" stroke="black" points="166.05,-270.91 166.88,-260.34 159.65,-268.08 166.05,-270.91"/>
</g>
<!-- q(b)=15.0 -->
<g id="node4" class="node">
<title>q(b)=15.0</title>
<ellipse fill="none" stroke="black" cx="57.84" cy="-57.84" rx="57.69" ry="57.69"/>
<text text-anchor="middle" x="57.84" y="-54.14" font-family="Times,serif" font-size="14.00">q(b)=15.0</text>
</g>
<!-- q(d)=13.0&#45;&gt;q(b)=15.0 -->
<g id="edge3" class="edge">
<title>q(d)=13.0&#45;&gt;q(b)=15.0</title>
<path fill="none" stroke="black" d="M57.84,-151.52C57.84,-143.08 57.84,-134.33 57.84,-125.72"/>
<polygon fill="black" stroke="black" points="61.34,-125.7 57.84,-115.7 54.34,-125.7 61.34,-125.7"/>
</g>
</g>
</svg>
