<?xml version="1.0" encoding="utf-8" standalone="no"?>
<!DOCTYPE svg PUBLIC "-//W3C//DTD SVG 1.1//EN"
  "http://www.w3.org/Graphics/SVG/1.1/DTD/svg11.dtd">
<svg xmlns:xlink="http://www.w3.org/1999/xlink" width="432pt" height="432pt" viewBox="0 0 432 432" xmlns="http://www.w3.org/2000/svg" version="1.1">
 <metadata>
  <rdf:RDF xmlns:dc="http://purl.org/dc/elements/1.1/" xmlns:cc="http://creativecommons.org/ns#" xmlns:rdf="http://www.w3.org/1999/02/22-rdf-syntax-ns#">
   <cc:Work>
    <dc:type rdf:resource="http://purl.org/dc/dcmitype/StillImage"/>
    <dc:date>2022-11-03T00:48:39.856994</dc:date>
    <dc:format>image/svg+xml</dc:format>
    <dc:creator>
     <cc:Agent>
      <dc:title>Matplotlib v3.6.1, https://matplotlib.org/</dc:title>
     </cc:Agent>
    </dc:creator>
   </cc:Work>
  </rdf:RDF>
 </metadata>
 <defs>
  <style type="text/css">*{stroke-linejoin: round; stroke-linecap: butt}</style>
 </defs>
 <g id="figure_1">
  <g id="patch_1">
   <path d="M 0 432 
L 432 432 
L 432 0 
L 0 0 
z
" style="fill: #ffffff"/>
  </g>
  <g id="axes_1">
   <g id="patch_2">
    <path d="M 54 384.48 
L 388.8 384.48 
L 388.8 51.84 
L 54 51.84 
z
" style="fill: #ffffff"/>
   </g>
   <g id="text_1">
    <g id="patch_3">
     <path d="M 130.552673 244.572074 
L 130.552673 260.475199 
Q 130.552673 263.475199 133.552673 263.475199 
L 143.230798 263.475199 
Q 146.230798 263.475199 146.230798 260.475199 
L 146.230798 244.572074 
Q 146.230798 241.572074 143.230798 241.572074 
L 133.552673 241.572074 
Q 130.552673 241.572074 130.552673 244.572074 
z
" clip-path="url(#ped7e68f760)" style="fill: #ffffff; stroke: #ffffff; stroke-linejoin: miter"/>
    </g>
    <g clip-path="url(#ped7e68f760)">
     <!-- 1.0 -->
     <g transform="translate(135.632361 244.572074) rotate(-270) scale(0.1 -0.1)">
      <defs>
       <path id="DejaVuSans-31" d="M 794 531 
L 1825 531 
L 1825 4091 
L 703 3866 
L 703 4441 
L 1819 4666 
L 2450 4666 
L 2450 531 
L 3481 531 
L 3481 0 
L 794 0 
L 794 531 
z
" transform="scale(0.015625)"/>
       <path id="DejaVuSans-2e" d="M 684 794 
L 1344 794 
L 1344 0 
L 684 0 
L 684 794 
z
" transform="scale(0.015625)"/>
       <path id="DejaVuSans-30" d="M 2034 4250 
Q 1547 4250 1301 3770 
Q 1056 3291 1056 2328 
Q 1056 1369 1301 889 
Q 1547 409 2034 409 
Q 2525 409 2770 889 
Q 3016 1369 3016 2328 
Q 3016 3291 2770 3770 
Q 2525 4250 2034 4250 
z
M 2034 4750 
Q 2819 4750 3233 4129 
Q 3647 3509 3647 2328 
Q 3647 1150 3233 529 
Q 2819 -91 2034 -91 
Q 1250 -91 836 529 
Q 422 1150 422 2328 
Q 422 3509 836 4129 
Q 1250 4750 2034 4750 
z
" transform="scale(0.015625)"/>
      </defs>
      <use xlink:href="#DejaVuSans-31"/>
      <use xlink:href="#DejaVuSans-2e" x="63.623047"/>
      <use xlink:href="#DejaVuSans-30" x="95.410156"/>
     </g>
    </g>
   </g>
   <g id="text_2">
    <g id="patch_4">
     <path d="M 158.109595 225.999062 
L 174.01272 225.999062 
Q 177.01272 225.999062 177.01272 222.999062 
L 177.01272 213.320937 
Q 177.01272 210.320937 174.01272 210.320937 
L 158.109595 210.320937 
Q 155.109595 210.320937 155.109595 213.320937 
L 155.109595 222.999062 
Q 155.109595 225.999062 158.109595 225.999062 
z
" clip-path="url(#ped7e68f760)" style="fill: #ffffff; stroke: #ffffff; stroke-linejoin: miter"/>
    </g>
    <g clip-path="url(#ped7e68f760)">
     <!-- 3.0 -->
     <g transform="translate(158.109595 220.919375) scale(0.1 -0.1)">
      <defs>
       <path id="DejaVuSans-33" d="M 2597 2516 
Q 3050 2419 3304 2112 
Q 3559 1806 3559 1356 
Q 3559 666 3084 287 
Q 2609 -91 1734 -91 
Q 1441 -91 1130 -33 
Q 819 25 488 141 
L 488 750 
Q 750 597 1062 519 
Q 1375 441 1716 441 
Q 2309 441 2620 675 
Q 2931 909 2931 1356 
Q 2931 1769 2642 2001 
Q 2353 2234 1838 2234 
L 1294 2234 
L 1294 2753 
L 1863 2753 
Q 2328 2753 2575 2939 
Q 2822 3125 2822 3475 
Q 2822 3834 2567 4026 
Q 2313 4219 1838 4219 
Q 1578 4219 1281 4162 
Q 984 4106 628 3988 
L 628 4550 
Q 988 4650 1302 4700 
Q 1616 4750 1894 4750 
Q 2613 4750 3031 4423 
Q 3450 4097 3450 3541 
Q 3450 3153 3228 2886 
Q 3006 2619 2597 2516 
z
" transform="scale(0.015625)"/>
      </defs>
      <use xlink:href="#DejaVuSans-33"/>
      <use xlink:href="#DejaVuSans-2e" x="63.623047"/>
      <use xlink:href="#DejaVuSans-30" x="95.410156"/>
     </g>
    </g>
   </g>
   <g id="text_3">
    <g id="patch_5">
     <path d="M 165.945473 194.961706 
L 177.227014 183.752949 
Q 179.355188 181.638505 177.240744 179.510331 
L 170.419459 172.644752 
Q 168.305015 170.516577 166.176841 172.631022 
L 154.8953 183.839778 
Q 152.767126 185.954222 154.88157 188.082397 
L 161.702855 194.947976 
Q 163.817299 197.07615 165.945473 194.961706 
z
" clip-path="url(#ped7e68f760)" style="fill: #ffffff; stroke: #ffffff; stroke-linejoin: miter"/>
    </g>
    <g clip-path="url(#ped7e68f760)">
     <!-- 2.0 -->
     <g transform="translate(162.365235 191.358219) rotate(-44.814577) scale(0.1 -0.1)">
      <defs>
       <path id="DejaVuSans-32" d="M 1228 531 
L 3431 531 
L 3431 0 
L 469 0 
L 469 531 
Q 828 903 1448 1529 
Q 2069 2156 2228 2338 
Q 2531 2678 2651 2914 
Q 2772 3150 2772 3378 
Q 2772 3750 2511 3984 
Q 2250 4219 1831 4219 
Q 1534 4219 1204 4116 
Q 875 4013 500 3803 
L 500 4441 
Q 881 4594 1212 4672 
Q 1544 4750 1819 4750 
Q 2544 4750 2975 4387 
Q 3406 4025 3406 3419 
Q 3406 3131 3298 2873 
Q 3191 2616 2906 2266 
Q 2828 2175 2409 1742 
Q 1991 1309 1228 531 
z
" transform="scale(0.015625)"/>
      </defs>
      <use xlink:href="#DejaVuSans-32"/>
      <use xlink:href="#DejaVuSans-2e" x="63.623047"/>
      <use xlink:href="#DejaVuSans-30" x="95.410156"/>
     </g>
    </g>
   </g>
   <g id="text_4">
    <g id="patch_6">
     <path d="M 102.770752 225.999062 
L 118.673877 225.999062 
Q 121.673877 225.999062 121.673877 222.999062 
L 121.673877 213.320937 
Q 121.673877 210.320937 118.673877 210.320937 
L 102.770752 210.320937 
Q 99.770752 210.320937 99.770752 213.320937 
L 99.770752 222.999062 
Q 99.770752 225.999062 102.770752 225.999062 
z
" clip-path="url(#ped7e68f760)" style="fill: #ffffff; stroke: #ffffff; stroke-linejoin: miter"/>
    </g>
    <g clip-path="url(#ped7e68f760)">
     <!-- 3.0 -->
     <g transform="translate(102.770752 220.919375) scale(0.1 -0.1)">
      <use xlink:href="#DejaVuSans-33"/>
      <use xlink:href="#DejaVuSans-2e" x="63.623047"/>
      <use xlink:href="#DejaVuSans-30" x="95.410156"/>
     </g>
    </g>
   </g>
   <g id="text_5">
    <g id="patch_7">
     <path d="M 158.109595 294.726335 
L 174.01272 294.726335 
Q 177.01272 294.726335 177.01272 291.726335 
L 177.01272 282.04821 
Q 177.01272 279.04821 174.01272 279.04821 
L 158.109595 279.04821 
Q 155.109595 279.04821 155.109595 282.04821 
L 155.109595 291.726335 
Q 155.109595 294.726335 158.109595 294.726335 
z
" clip-path="url(#ped7e68f760)" style="fill: #ffffff; stroke: #ffffff; stroke-linejoin: miter"/>
    </g>
    <g clip-path="url(#ped7e68f760)">
     <!-- 3.0 -->
     <g transform="translate(158.109595 289.646648) scale(0.1 -0.1)">
      <use xlink:href="#DejaVuSans-33"/>
      <use xlink:href="#DejaVuSans-2e" x="63.623047"/>
      <use xlink:href="#DejaVuSans-30" x="95.410156"/>
     </g>
    </g>
   </g>
   <g id="text_6">
    <g id="patch_8">
     <path d="M 99.556457 252.480222 
L 110.837998 263.688978 
Q 112.966172 265.803423 115.080616 263.675248 
L 121.901901 256.809669 
Q 124.016345 254.681495 121.888171 252.567051 
L 110.60663 241.358294 
Q 108.478456 239.24385 106.364012 241.372024 
L 99.542727 248.237603 
Q 97.428283 250.365778 99.556457 252.480222 
z
" clip-path="url(#ped7e68f760)" style="fill: #ffffff; stroke: #ffffff; stroke-linejoin: miter"/>
    </g>
    <g clip-path="url(#ped7e68f760)">
     <!-- 3.0 -->
     <g transform="translate(103.136696 248.876735) rotate(-315.185423) scale(0.1 -0.1)">
      <use xlink:href="#DejaVuSans-33"/>
      <use xlink:href="#DejaVuSans-2e" x="63.623047"/>
      <use xlink:href="#DejaVuSans-30" x="95.410156"/>
     </g>
    </g>
   </g>
   <g id="text_7">
    <g id="patch_9">
     <path d="M 130.552673 313.299347 
L 130.552673 329.202472 
Q 130.552673 332.202472 133.552673 332.202472 
L 143.230798 332.202472 
Q 146.230798 332.202472 146.230798 329.202472 
L 146.230798 313.299347 
Q 146.230798 310.299347 143.230798 310.299347 
L 133.552673 310.299347 
Q 130.552673 310.299347 130.552673 313.299347 
z
" clip-path="url(#ped7e68f760)" style="fill: #ffffff; stroke: #ffffff; stroke-linejoin: miter"/>
    </g>
    <g clip-path="url(#ped7e68f760)">
     <!-- 3.0 -->
     <g transform="translate(135.632361 313.299347) rotate(-270) scale(0.1 -0.1)">
      <use xlink:href="#DejaVuSans-33"/>
      <use xlink:href="#DejaVuSans-2e" x="63.623047"/>
      <use xlink:href="#DejaVuSans-30" x="95.410156"/>
     </g>
    </g>
   </g>
   <g id="text_8">
    <g id="patch_10">
     <path d="M 154.8953 321.207495 
L 166.176841 332.416251 
Q 168.305015 334.530695 170.419459 332.402521 
L 177.240744 325.536942 
Q 179.355188 323.408768 177.227014 321.294324 
L 165.945473 310.085567 
Q 163.817299 307.971123 161.702855 310.099297 
L 154.88157 316.964876 
Q 152.767126 319.09305 154.8953 321.207495 
z
" clip-path="url(#ped7e68f760)" style="fill: #ffffff; stroke: #ffffff; stroke-linejoin: miter"/>
    </g>
    <g clip-path="url(#ped7e68f760)">
     <!-- 1.0 -->
     <g transform="translate(158.475539 317.604008) rotate(-315.185423) scale(0.1 -0.1)">
      <use xlink:href="#DejaVuSans-31"/>
      <use xlink:href="#DejaVuSans-2e" x="63.623047"/>
      <use xlink:href="#DejaVuSans-30" x="95.410156"/>
     </g>
    </g>
   </g>
   <g id="text_9">
    <g id="patch_11">
     <path d="M 213.448437 225.999062 
L 229.351562 225.999062 
Q 232.351562 225.999062 232.351562 222.999062 
L 232.351562 213.320937 
Q 232.351562 210.320937 229.351562 210.320937 
L 213.448437 210.320937 
Q 210.448437 210.320937 210.448437 213.320937 
L 210.448437 222.999062 
Q 210.448437 225.999062 213.448437 225.999062 
z
" clip-path="url(#ped7e68f760)" style="fill: #ffffff; stroke: #ffffff; stroke-linejoin: miter"/>
    </g>
    <g clip-path="url(#ped7e68f760)">
     <!-- 2.0 -->
     <g transform="translate(213.448437 220.919375) scale(0.1 -0.1)">
      <use xlink:href="#DejaVuSans-32"/>
      <use xlink:href="#DejaVuSans-2e" x="63.623047"/>
      <use xlink:href="#DejaVuSans-30" x="95.410156"/>
     </g>
    </g>
   </g>
   <g id="text_10">
    <g id="patch_12">
     <path d="M 221.284316 263.688978 
L 232.565857 252.480222 
Q 234.694031 250.365778 232.579587 248.237603 
L 225.758302 241.372024 
Q 223.643858 239.24385 221.515684 241.358294 
L 210.234143 252.567051 
Q 208.105969 254.681495 210.220413 256.809669 
L 217.041698 263.675248 
Q 219.156142 265.803423 221.284316 263.688978 
z
" clip-path="url(#ped7e68f760)" style="fill: #ffffff; stroke: #ffffff; stroke-linejoin: miter"/>
    </g>
    <g clip-path="url(#ped7e68f760)">
     <!-- 1.0 -->
     <g transform="translate(217.704078 260.085492) rotate(-44.814577) scale(0.1 -0.1)">
      <use xlink:href="#DejaVuSans-31"/>
      <use xlink:href="#DejaVuSans-2e" x="63.623047"/>
      <use xlink:href="#DejaVuSans-30" x="95.410156"/>
     </g>
    </g>
   </g>
   <g id="text_11">
    <g id="patch_13">
     <path d="M 213.448437 294.726335 
L 229.351562 294.726335 
Q 232.351562 294.726335 232.351562 291.726335 
L 232.351562 282.04821 
Q 232.351562 279.04821 229.351562 279.04821 
L 213.448437 279.04821 
Q 210.448437 279.04821 210.448437 282.04821 
L 210.448437 291.726335 
Q 210.448437 294.726335 213.448437 294.726335 
z
" clip-path="url(#ped7e68f760)" style="fill: #ffffff; stroke: #ffffff; stroke-linejoin: miter"/>
    </g>
    <g clip-path="url(#ped7e68f760)">
     <!-- 2.0 -->
     <g transform="translate(213.448437 289.646648) scale(0.1 -0.1)">
      <use xlink:href="#DejaVuSans-32"/>
      <use xlink:href="#DejaVuSans-2e" x="63.623047"/>
      <use xlink:href="#DejaVuSans-30" x="95.410156"/>
     </g>
    </g>
   </g>
   <g id="text_12">
    <g id="patch_14">
     <path d="M 185.891516 313.299347 
L 185.891516 329.202472 
Q 185.891516 332.202472 188.891516 332.202472 
L 198.569641 332.202472 
Q 201.569641 332.202472 201.569641 329.202472 
L 201.569641 313.299347 
Q 201.569641 310.299347 198.569641 310.299347 
L 188.891516 310.299347 
Q 185.891516 310.299347 185.891516 313.299347 
z
" clip-path="url(#ped7e68f760)" style="fill: #ffffff; stroke: #ffffff; stroke-linejoin: miter"/>
    </g>
    <g clip-path="url(#ped7e68f760)">
     <!-- 2.0 -->
     <g transform="translate(190.971204 313.299347) rotate(-270) scale(0.1 -0.1)">
      <use xlink:href="#DejaVuSans-32"/>
      <use xlink:href="#DejaVuSans-2e" x="63.623047"/>
      <use xlink:href="#DejaVuSans-30" x="95.410156"/>
     </g>
    </g>
   </g>
   <g id="text_13">
    <g id="patch_15">
     <path d="M 210.234143 183.752949 
L 221.515684 194.961706 
Q 223.643858 197.07615 225.758302 194.947976 
L 232.579587 188.082397 
Q 234.694031 185.954222 232.565857 183.839778 
L 221.284316 172.631022 
Q 219.156142 170.516577 217.041698 172.644752 
L 210.220413 179.510331 
Q 208.105969 181.638505 210.234143 183.752949 
z
" clip-path="url(#ped7e68f760)" style="fill: #ffffff; stroke: #ffffff; stroke-linejoin: miter"/>
    </g>
    <g clip-path="url(#ped7e68f760)">
     <!-- 4.0 -->
     <g transform="translate(213.814382 180.149462) rotate(-315.185423) scale(0.1 -0.1)">
      <defs>
       <path id="DejaVuSans-34" d="M 2419 4116 
L 825 1625 
L 2419 1625 
L 2419 4116 
z
M 2253 4666 
L 3047 4666 
L 3047 1625 
L 3713 1625 
L 3713 1100 
L 3047 1100 
L 3047 0 
L 2419 0 
L 2419 1100 
L 313 1100 
L 313 1709 
L 2253 4666 
z
" transform="scale(0.015625)"/>
      </defs>
      <use xlink:href="#DejaVuSans-34"/>
      <use xlink:href="#DejaVuSans-2e" x="63.623047"/>
      <use xlink:href="#DejaVuSans-30" x="95.410156"/>
     </g>
    </g>
   </g>
   <g id="text_14">
    <g id="patch_16">
     <path d="M 213.448437 157.27179 
L 229.351562 157.27179 
Q 232.351562 157.27179 232.351562 154.27179 
L 232.351562 144.593665 
Q 232.351562 141.593665 229.351562 141.593665 
L 213.448437 141.593665 
Q 210.448437 141.593665 210.448437 144.593665 
L 210.448437 154.27179 
Q 210.448437 157.27179 213.448437 157.27179 
z
" clip-path="url(#ped7e68f760)" style="fill: #ffffff; stroke: #ffffff; stroke-linejoin: miter"/>
    </g>
    <g clip-path="url(#ped7e68f760)">
     <!-- 3.0 -->
     <g transform="translate(213.448437 152.192102) scale(0.1 -0.1)">
      <use xlink:href="#DejaVuSans-33"/>
      <use xlink:href="#DejaVuSans-2e" x="63.623047"/>
      <use xlink:href="#DejaVuSans-30" x="95.410156"/>
     </g>
    </g>
   </g>
   <g id="text_15">
    <g id="patch_17">
     <path d="M 256.908484 191.747926 
L 256.908484 175.844801 
Q 256.908484 172.844801 253.908484 172.844801 
L 244.230359 172.844801 
Q 241.230359 172.844801 241.230359 175.844801 
L 241.230359 191.747926 
Q 241.230359 194.747926 244.230359 194.747926 
L 253.908484 194.747926 
Q 256.908484 194.747926 256.908484 191.747926 
z
" clip-path="url(#ped7e68f760)" style="fill: #ffffff; stroke: #ffffff; stroke-linejoin: miter"/>
    </g>
    <g clip-path="url(#ped7e68f760)">
     <!-- 2.0 -->
     <g transform="translate(251.828796 191.747926) rotate(-90) scale(0.1 -0.1)">
      <use xlink:href="#DejaVuSans-32"/>
      <use xlink:href="#DejaVuSans-2e" x="63.623047"/>
      <use xlink:href="#DejaVuSans-30" x="95.410156"/>
     </g>
    </g>
   </g>
   <g id="text_16">
    <g id="patch_18">
     <path d="M 241.230359 244.572074 
L 241.230359 260.475199 
Q 241.230359 263.475199 244.230359 263.475199 
L 253.908484 263.475199 
Q 256.908484 263.475199 256.908484 260.475199 
L 256.908484 244.572074 
Q 256.908484 241.572074 253.908484 241.572074 
L 244.230359 241.572074 
Q 241.230359 241.572074 241.230359 244.572074 
z
" clip-path="url(#ped7e68f760)" style="fill: #ffffff; stroke: #ffffff; stroke-linejoin: miter"/>
    </g>
    <g clip-path="url(#ped7e68f760)">
     <!-- 1.0 -->
     <g transform="translate(246.310046 244.572074) rotate(-270) scale(0.1 -0.1)">
      <use xlink:href="#DejaVuSans-31"/>
      <use xlink:href="#DejaVuSans-2e" x="63.623047"/>
      <use xlink:href="#DejaVuSans-30" x="95.410156"/>
     </g>
    </g>
   </g>
   <g id="text_17">
    <g id="patch_19">
     <path d="M 276.623159 194.961706 
L 287.9047 183.752949 
Q 290.032874 181.638505 287.91843 179.510331 
L 281.097145 172.644752 
Q 278.982701 170.516577 276.854527 172.631022 
L 265.572986 183.839778 
Q 263.444812 185.954222 265.559256 188.082397 
L 272.380541 194.947976 
Q 274.494985 197.07615 276.623159 194.961706 
z
" clip-path="url(#ped7e68f760)" style="fill: #ffffff; stroke: #ffffff; stroke-linejoin: miter"/>
    </g>
    <g clip-path="url(#ped7e68f760)">
     <!-- 2.0 -->
     <g transform="translate(273.042921 191.358219) rotate(-44.814577) scale(0.1 -0.1)">
      <use xlink:href="#DejaVuSans-32"/>
      <use xlink:href="#DejaVuSans-2e" x="63.623047"/>
      <use xlink:href="#DejaVuSans-30" x="95.410156"/>
     </g>
    </g>
   </g>
   <g id="text_18">
    <g id="patch_20">
     <path d="M 268.78728 225.999062 
L 284.690405 225.999062 
Q 287.690405 225.999062 287.690405 222.999062 
L 287.690405 213.320937 
Q 287.690405 210.320937 284.690405 210.320937 
L 268.78728 210.320937 
Q 265.78728 210.320937 265.78728 213.320937 
L 265.78728 222.999062 
Q 265.78728 225.999062 268.78728 225.999062 
z
" clip-path="url(#ped7e68f760)" style="fill: #ffffff; stroke: #ffffff; stroke-linejoin: miter"/>
    </g>
    <g clip-path="url(#ped7e68f760)">
     <!-- 3.0 -->
     <g transform="translate(268.78728 220.919375) scale(0.1 -0.1)">
      <use xlink:href="#DejaVuSans-33"/>
      <use xlink:href="#DejaVuSans-2e" x="63.623047"/>
      <use xlink:href="#DejaVuSans-30" x="95.410156"/>
     </g>
    </g>
   </g>
   <g id="text_19">
    <g id="patch_21">
     <path d="M 276.623159 263.688978 
L 287.9047 252.480222 
Q 290.032874 250.365778 287.91843 248.237603 
L 281.097145 241.372024 
Q 278.982701 239.24385 276.854527 241.358294 
L 265.572986 252.567051 
Q 263.444812 254.681495 265.559256 256.809669 
L 272.380541 263.675248 
Q 274.494985 265.803423 276.623159 263.688978 
z
" clip-path="url(#ped7e68f760)" style="fill: #ffffff; stroke: #ffffff; stroke-linejoin: miter"/>
    </g>
    <g clip-path="url(#ped7e68f760)">
     <!-- 3.0 -->
     <g transform="translate(273.042921 260.085492) rotate(-44.814577) scale(0.1 -0.1)">
      <use xlink:href="#DejaVuSans-33"/>
      <use xlink:href="#DejaVuSans-2e" x="63.623047"/>
      <use xlink:href="#DejaVuSans-30" x="95.410156"/>
     </g>
    </g>
   </g>
   <g id="text_20">
    <g id="patch_22">
     <path d="M 268.78728 294.726335 
L 284.690405 294.726335 
Q 287.690405 294.726335 287.690405 291.726335 
L 287.690405 282.04821 
Q 287.690405 279.04821 284.690405 279.04821 
L 268.78728 279.04821 
Q 265.78728 279.04821 265.78728 282.04821 
L 265.78728 291.726335 
Q 265.78728 294.726335 268.78728 294.726335 
z
" clip-path="url(#ped7e68f760)" style="fill: #ffffff; stroke: #ffffff; stroke-linejoin: miter"/>
    </g>
    <g clip-path="url(#ped7e68f760)">
     <!-- 2.0 -->
     <g transform="translate(268.78728 289.646648) scale(0.1 -0.1)">
      <use xlink:href="#DejaVuSans-32"/>
      <use xlink:href="#DejaVuSans-2e" x="63.623047"/>
      <use xlink:href="#DejaVuSans-30" x="95.410156"/>
     </g>
    </g>
   </g>
   <g id="text_21">
    <g id="patch_23">
     <path d="M 265.572986 321.207495 
L 276.854527 332.416251 
Q 278.982701 334.530695 281.097145 332.402521 
L 287.91843 325.536942 
Q 290.032874 323.408768 287.9047 321.294324 
L 276.623159 310.085567 
Q 274.494985 307.971123 272.380541 310.099297 
L 265.559256 316.964876 
Q 263.444812 319.09305 265.572986 321.207495 
z
" clip-path="url(#ped7e68f760)" style="fill: #ffffff; stroke: #ffffff; stroke-linejoin: miter"/>
    </g>
    <g clip-path="url(#ped7e68f760)">
     <!-- 3.0 -->
     <g transform="translate(269.153225 317.604008) rotate(-315.185423) scale(0.1 -0.1)">
      <use xlink:href="#DejaVuSans-33"/>
      <use xlink:href="#DejaVuSans-2e" x="63.623047"/>
      <use xlink:href="#DejaVuSans-30" x="95.410156"/>
     </g>
    </g>
   </g>
   <g id="text_22">
    <g id="patch_24">
     <path d="M 241.230359 107.117528 
L 241.230359 123.020653 
Q 241.230359 126.020653 244.230359 126.020653 
L 253.908484 126.020653 
Q 256.908484 126.020653 256.908484 123.020653 
L 256.908484 107.117528 
Q 256.908484 104.117528 253.908484 104.117528 
L 244.230359 104.117528 
Q 241.230359 104.117528 241.230359 107.117528 
z
" clip-path="url(#ped7e68f760)" style="fill: #ffffff; stroke: #ffffff; stroke-linejoin: miter"/>
    </g>
    <g clip-path="url(#ped7e68f760)">
     <!-- 3.0 -->
     <g transform="translate(246.310046 107.117528) rotate(-270) scale(0.1 -0.1)">
      <use xlink:href="#DejaVuSans-33"/>
      <use xlink:href="#DejaVuSans-2e" x="63.623047"/>
      <use xlink:href="#DejaVuSans-30" x="95.410156"/>
     </g>
    </g>
   </g>
   <g id="text_23">
    <g id="patch_25">
     <path d="M 268.78728 157.27179 
L 284.690405 157.27179 
Q 287.690405 157.27179 287.690405 154.27179 
L 287.690405 144.593665 
Q 287.690405 141.593665 284.690405 141.593665 
L 268.78728 141.593665 
Q 265.78728 141.593665 265.78728 144.593665 
L 265.78728 154.27179 
Q 265.78728 157.27179 268.78728 157.27179 
z
" clip-path="url(#ped7e68f760)" style="fill: #ffffff; stroke: #ffffff; stroke-linejoin: miter"/>
    </g>
    <g clip-path="url(#ped7e68f760)">
     <!-- 1.0 -->
     <g transform="translate(268.78728 152.192102) scale(0.1 -0.1)">
      <use xlink:href="#DejaVuSans-31"/>
      <use xlink:href="#DejaVuSans-2e" x="63.623047"/>
      <use xlink:href="#DejaVuSans-30" x="95.410156"/>
     </g>
    </g>
   </g>
   <g id="text_24">
    <g id="patch_26">
     <path d="M 210.234143 115.025676 
L 221.515684 126.234433 
Q 223.643858 128.348877 225.758302 126.220703 
L 232.579587 119.355124 
Q 234.694031 117.22695 232.565857 115.112505 
L 221.284316 103.903749 
Q 219.156142 101.789305 217.041698 103.917479 
L 210.220413 110.783058 
Q 208.105969 112.911232 210.234143 115.025676 
z
" clip-path="url(#ped7e68f760)" style="fill: #ffffff; stroke: #ffffff; stroke-linejoin: miter"/>
    </g>
    <g clip-path="url(#ped7e68f760)">
     <!-- 4.0 -->
     <g transform="translate(213.814382 111.42219) rotate(-315.185423) scale(0.1 -0.1)">
      <use xlink:href="#DejaVuSans-34"/>
      <use xlink:href="#DejaVuSans-2e" x="63.623047"/>
      <use xlink:href="#DejaVuSans-30" x="95.410156"/>
     </g>
    </g>
   </g>
   <g id="text_25">
    <g id="patch_27">
     <path d="M 276.623159 126.234433 
L 287.9047 115.025676 
Q 290.032874 112.911232 287.91843 110.783058 
L 281.097145 103.917479 
Q 278.982701 101.789305 276.854527 103.903749 
L 265.572986 115.112505 
Q 263.444812 117.22695 265.559256 119.355124 
L 272.380541 126.220703 
Q 274.494985 128.348877 276.623159 126.234433 
z
" clip-path="url(#ped7e68f760)" style="fill: #ffffff; stroke: #ffffff; stroke-linejoin: miter"/>
    </g>
    <g clip-path="url(#ped7e68f760)">
     <!-- 4.0 -->
     <g transform="translate(273.042921 122.630946) rotate(-44.814577) scale(0.1 -0.1)">
      <use xlink:href="#DejaVuSans-34"/>
      <use xlink:href="#DejaVuSans-2e" x="63.623047"/>
      <use xlink:href="#DejaVuSans-30" x="95.410156"/>
     </g>
    </g>
   </g>
   <g id="text_26">
    <g id="patch_28">
     <path d="M 296.569202 175.844801 
L 296.569202 191.747926 
Q 296.569202 194.747926 299.569202 194.747926 
L 309.247327 194.747926 
Q 312.247327 194.747926 312.247327 191.747926 
L 312.247327 175.844801 
Q 312.247327 172.844801 309.247327 172.844801 
L 299.569202 172.844801 
Q 296.569202 172.844801 296.569202 175.844801 
z
" clip-path="url(#ped7e68f760)" style="fill: #ffffff; stroke: #ffffff; stroke-linejoin: miter"/>
    </g>
    <g clip-path="url(#ped7e68f760)">
     <!-- 2.0 -->
     <g transform="translate(301.648889 175.844801) rotate(-270) scale(0.1 -0.1)">
      <use xlink:href="#DejaVuSans-32"/>
      <use xlink:href="#DejaVuSans-2e" x="63.623047"/>
      <use xlink:href="#DejaVuSans-30" x="95.410156"/>
     </g>
    </g>
   </g>
   <g id="text_27">
    <g id="patch_29">
     <path d="M 320.911829 183.752949 
L 332.19337 194.961706 
Q 334.321544 197.07615 336.435988 194.947976 
L 343.257273 188.082397 
Q 345.371717 185.954222 343.243543 183.839778 
L 331.962002 172.631022 
Q 329.833828 170.516577 327.719384 172.644752 
L 320.898099 179.510331 
Q 318.783655 181.638505 320.911829 183.752949 
z
" clip-path="url(#ped7e68f760)" style="fill: #ffffff; stroke: #ffffff; stroke-linejoin: miter"/>
    </g>
    <g clip-path="url(#ped7e68f760)">
     <!-- 1.0 -->
     <g transform="translate(324.492067 180.149462) rotate(-315.185423) scale(0.1 -0.1)">
      <use xlink:href="#DejaVuSans-31"/>
      <use xlink:href="#DejaVuSans-2e" x="63.623047"/>
      <use xlink:href="#DejaVuSans-30" x="95.410156"/>
     </g>
    </g>
   </g>
   <g id="text_28">
    <g id="patch_30">
     <path d="M 296.569202 244.572074 
L 296.569202 260.475199 
Q 296.569202 263.475199 299.569202 263.475199 
L 309.247327 263.475199 
Q 312.247327 263.475199 312.247327 260.475199 
L 312.247327 244.572074 
Q 312.247327 241.572074 309.247327 241.572074 
L 299.569202 241.572074 
Q 296.569202 241.572074 296.569202 244.572074 
z
" clip-path="url(#ped7e68f760)" style="fill: #ffffff; stroke: #ffffff; stroke-linejoin: miter"/>
    </g>
    <g clip-path="url(#ped7e68f760)">
     <!-- 2.0 -->
     <g transform="translate(301.648889 244.572074) rotate(-270) scale(0.1 -0.1)">
      <use xlink:href="#DejaVuSans-32"/>
      <use xlink:href="#DejaVuSans-2e" x="63.623047"/>
      <use xlink:href="#DejaVuSans-30" x="95.410156"/>
     </g>
    </g>
   </g>
   <g id="text_29">
    <g id="patch_31">
     <path d="M 296.569202 313.299347 
L 296.569202 329.202472 
Q 296.569202 332.202472 299.569202 332.202472 
L 309.247327 332.202472 
Q 312.247327 332.202472 312.247327 329.202472 
L 312.247327 313.299347 
Q 312.247327 310.299347 309.247327 310.299347 
L 299.569202 310.299347 
Q 296.569202 310.299347 296.569202 313.299347 
z
" clip-path="url(#ped7e68f760)" style="fill: #ffffff; stroke: #ffffff; stroke-linejoin: miter"/>
    </g>
    <g clip-path="url(#ped7e68f760)">
     <!-- 4.0 -->
     <g transform="translate(301.648889 313.299347) rotate(-270) scale(0.1 -0.1)">
      <use xlink:href="#DejaVuSans-34"/>
      <use xlink:href="#DejaVuSans-2e" x="63.623047"/>
      <use xlink:href="#DejaVuSans-30" x="95.410156"/>
     </g>
    </g>
   </g>
   <g id="text_30">
    <g id="patch_32">
     <path d="M 331.962002 263.688978 
L 343.243543 252.480222 
Q 345.371717 250.365778 343.257273 248.237603 
L 336.435988 241.372024 
Q 334.321544 239.24385 332.19337 241.358294 
L 320.911829 252.567051 
Q 318.783655 254.681495 320.898099 256.809669 
L 327.719384 263.675248 
Q 329.833828 265.803423 331.962002 263.688978 
z
" clip-path="url(#ped7e68f760)" style="fill: #ffffff; stroke: #ffffff; stroke-linejoin: miter"/>
    </g>
    <g clip-path="url(#ped7e68f760)">
     <!-- 6.0 -->
     <g transform="translate(328.381764 260.085492) rotate(-44.814577) scale(0.1 -0.1)">
      <defs>
       <path id="DejaVuSans-36" d="M 2113 2584 
Q 1688 2584 1439 2293 
Q 1191 2003 1191 1497 
Q 1191 994 1439 701 
Q 1688 409 2113 409 
Q 2538 409 2786 701 
Q 3034 994 3034 1497 
Q 3034 2003 2786 2293 
Q 2538 2584 2113 2584 
z
M 3366 4563 
L 3366 3988 
Q 3128 4100 2886 4159 
Q 2644 4219 2406 4219 
Q 1781 4219 1451 3797 
Q 1122 3375 1075 2522 
Q 1259 2794 1537 2939 
Q 1816 3084 2150 3084 
Q 2853 3084 3261 2657 
Q 3669 2231 3669 1497 
Q 3669 778 3244 343 
Q 2819 -91 2113 -91 
Q 1303 -91 875 529 
Q 447 1150 447 2328 
Q 447 3434 972 4092 
Q 1497 4750 2381 4750 
Q 2619 4750 2861 4703 
Q 3103 4656 3366 4563 
z
" transform="scale(0.015625)"/>
      </defs>
      <use xlink:href="#DejaVuSans-36"/>
      <use xlink:href="#DejaVuSans-2e" x="63.623047"/>
      <use xlink:href="#DejaVuSans-30" x="95.410156"/>
     </g>
    </g>
   </g>
   <g id="text_31">
    <g id="patch_33">
     <path d="M 75.21383 107.117528 
L 75.21383 123.020653 
Q 75.21383 126.020653 78.21383 126.020653 
L 87.891955 126.020653 
Q 90.891955 126.020653 90.891955 123.020653 
L 90.891955 107.117528 
Q 90.891955 104.117528 87.891955 104.117528 
L 78.21383 104.117528 
Q 75.21383 104.117528 75.21383 107.117528 
z
" clip-path="url(#ped7e68f760)" style="fill: #ffffff; stroke: #ffffff; stroke-linejoin: miter"/>
    </g>
    <g clip-path="url(#ped7e68f760)">
     <!-- 1.0 -->
     <g transform="translate(80.293518 107.117528) rotate(-270) scale(0.1 -0.1)">
      <use xlink:href="#DejaVuSans-31"/>
      <use xlink:href="#DejaVuSans-2e" x="63.623047"/>
      <use xlink:href="#DejaVuSans-30" x="95.410156"/>
     </g>
    </g>
   </g>
   <g id="text_32">
    <g id="patch_34">
     <path d="M 99.556457 115.025676 
L 110.837998 126.234433 
Q 112.966172 128.348877 115.080616 126.220703 
L 121.901901 119.355124 
Q 124.016345 117.22695 121.888171 115.112505 
L 110.60663 103.903749 
Q 108.478456 101.789305 106.364012 103.917479 
L 99.542727 110.783058 
Q 97.428283 112.911232 99.556457 115.025676 
z
" clip-path="url(#ped7e68f760)" style="fill: #ffffff; stroke: #ffffff; stroke-linejoin: miter"/>
    </g>
    <g clip-path="url(#ped7e68f760)">
     <!-- 2.0 -->
     <g transform="translate(103.136696 111.42219) rotate(-315.185423) scale(0.1 -0.1)">
      <use xlink:href="#DejaVuSans-32"/>
      <use xlink:href="#DejaVuSans-2e" x="63.623047"/>
      <use xlink:href="#DejaVuSans-30" x="95.410156"/>
     </g>
    </g>
   </g>
   <g id="text_33">
    <g id="patch_35">
     <path d="M 102.770752 88.544517 
L 118.673877 88.544517 
Q 121.673877 88.544517 121.673877 85.544517 
L 121.673877 75.866392 
Q 121.673877 72.866392 118.673877 72.866392 
L 102.770752 72.866392 
Q 99.770752 72.866392 99.770752 75.866392 
L 99.770752 85.544517 
Q 99.770752 88.544517 102.770752 88.544517 
z
" clip-path="url(#ped7e68f760)" style="fill: #ffffff; stroke: #ffffff; stroke-linejoin: miter"/>
    </g>
    <g clip-path="url(#ped7e68f760)">
     <!-- 3.0 -->
     <g transform="translate(102.770752 83.46483) scale(0.1 -0.1)">
      <use xlink:href="#DejaVuSans-33"/>
      <use xlink:href="#DejaVuSans-2e" x="63.623047"/>
      <use xlink:href="#DejaVuSans-30" x="95.410156"/>
     </g>
    </g>
   </g>
   <g id="text_34">
    <g id="patch_36">
     <path d="M 75.21383 175.844801 
L 75.21383 191.747926 
Q 75.21383 194.747926 78.21383 194.747926 
L 87.891955 194.747926 
Q 90.891955 194.747926 90.891955 191.747926 
L 90.891955 175.844801 
Q 90.891955 172.844801 87.891955 172.844801 
L 78.21383 172.844801 
Q 75.21383 172.844801 75.21383 175.844801 
z
" clip-path="url(#ped7e68f760)" style="fill: #ffffff; stroke: #ffffff; stroke-linejoin: miter"/>
    </g>
    <g clip-path="url(#ped7e68f760)">
     <!-- 4.0 -->
     <g transform="translate(80.293518 175.844801) rotate(-270) scale(0.1 -0.1)">
      <use xlink:href="#DejaVuSans-34"/>
      <use xlink:href="#DejaVuSans-2e" x="63.623047"/>
      <use xlink:href="#DejaVuSans-30" x="95.410156"/>
     </g>
    </g>
   </g>
   <g id="text_35">
    <g id="patch_37">
     <path d="M 110.60663 194.961706 
L 121.888171 183.752949 
Q 124.016345 181.638505 121.901901 179.510331 
L 115.080616 172.644752 
Q 112.966172 170.516577 110.837998 172.631022 
L 99.556457 183.839778 
Q 97.428283 185.954222 99.542727 188.082397 
L 106.364012 194.947976 
Q 108.478456 197.07615 110.60663 194.961706 
z
" clip-path="url(#ped7e68f760)" style="fill: #ffffff; stroke: #ffffff; stroke-linejoin: miter"/>
    </g>
    <g clip-path="url(#ped7e68f760)">
     <!-- 2.0 -->
     <g transform="translate(107.026392 191.358219) rotate(-44.814577) scale(0.1 -0.1)">
      <use xlink:href="#DejaVuSans-32"/>
      <use xlink:href="#DejaVuSans-2e" x="63.623047"/>
      <use xlink:href="#DejaVuSans-30" x="95.410156"/>
     </g>
    </g>
   </g>
   <g id="text_36">
    <g id="patch_38">
     <path d="M 165.945473 126.234433 
L 177.227014 115.025676 
Q 179.355188 112.911232 177.240744 110.783058 
L 170.419459 103.917479 
Q 168.305015 101.789305 166.176841 103.903749 
L 154.8953 115.112505 
Q 152.767126 117.22695 154.88157 119.355124 
L 161.702855 126.220703 
Q 163.817299 128.348877 165.945473 126.234433 
z
" clip-path="url(#ped7e68f760)" style="fill: #ffffff; stroke: #ffffff; stroke-linejoin: miter"/>
    </g>
    <g clip-path="url(#ped7e68f760)">
     <!-- 3.0 -->
     <g transform="translate(162.365235 122.630946) rotate(-44.814577) scale(0.1 -0.1)">
      <use xlink:href="#DejaVuSans-33"/>
      <use xlink:href="#DejaVuSans-2e" x="63.623047"/>
      <use xlink:href="#DejaVuSans-30" x="95.410156"/>
     </g>
    </g>
   </g>
   <g id="text_37">
    <g id="patch_39">
     <path d="M 158.109595 88.544517 
L 174.01272 88.544517 
Q 177.01272 88.544517 177.01272 85.544517 
L 177.01272 75.866392 
Q 177.01272 72.866392 174.01272 72.866392 
L 158.109595 72.866392 
Q 155.109595 72.866392 155.109595 75.866392 
L 155.109595 85.544517 
Q 155.109595 88.544517 158.109595 88.544517 
z
" clip-path="url(#ped7e68f760)" style="fill: #ffffff; stroke: #ffffff; stroke-linejoin: miter"/>
    </g>
    <g clip-path="url(#ped7e68f760)">
     <!-- 5.0 -->
     <g transform="translate(158.109595 83.46483) scale(0.1 -0.1)">
      <defs>
       <path id="DejaVuSans-35" d="M 691 4666 
L 3169 4666 
L 3169 4134 
L 1269 4134 
L 1269 2991 
Q 1406 3038 1543 3061 
Q 1681 3084 1819 3084 
Q 2600 3084 3056 2656 
Q 3513 2228 3513 1497 
Q 3513 744 3044 326 
Q 2575 -91 1722 -91 
Q 1428 -91 1123 -41 
Q 819 9 494 109 
L 494 744 
Q 775 591 1075 516 
Q 1375 441 1709 441 
Q 2250 441 2565 725 
Q 2881 1009 2881 1497 
Q 2881 1984 2565 2268 
Q 2250 2553 1709 2553 
Q 1456 2553 1204 2497 
Q 953 2441 691 2322 
L 691 4666 
z
" transform="scale(0.015625)"/>
      </defs>
      <use xlink:href="#DejaVuSans-35"/>
      <use xlink:href="#DejaVuSans-2e" x="63.623047"/>
      <use xlink:href="#DejaVuSans-30" x="95.410156"/>
     </g>
    </g>
   </g>
   <g id="text_38">
    <g id="patch_40">
     <path d="M 75.21383 244.572074 
L 75.21383 260.475199 
Q 75.21383 263.475199 78.21383 263.475199 
L 87.891955 263.475199 
Q 90.891955 263.475199 90.891955 260.475199 
L 90.891955 244.572074 
Q 90.891955 241.572074 87.891955 241.572074 
L 78.21383 241.572074 
Q 75.21383 241.572074 75.21383 244.572074 
z
" clip-path="url(#ped7e68f760)" style="fill: #ffffff; stroke: #ffffff; stroke-linejoin: miter"/>
    </g>
    <g clip-path="url(#ped7e68f760)">
     <!-- 3.0 -->
     <g transform="translate(80.293518 244.572074) rotate(-270) scale(0.1 -0.1)">
      <use xlink:href="#DejaVuSans-33"/>
      <use xlink:href="#DejaVuSans-2e" x="63.623047"/>
      <use xlink:href="#DejaVuSans-30" x="95.410156"/>
     </g>
    </g>
   </g>
   <g id="text_39">
    <g id="patch_41">
     <path d="M 75.21383 313.299347 
L 75.21383 329.202472 
Q 75.21383 332.202472 78.21383 332.202472 
L 87.891955 332.202472 
Q 90.891955 332.202472 90.891955 329.202472 
L 90.891955 313.299347 
Q 90.891955 310.299347 87.891955 310.299347 
L 78.21383 310.299347 
Q 75.21383 310.299347 75.21383 313.299347 
z
" clip-path="url(#ped7e68f760)" style="fill: #ffffff; stroke: #ffffff; stroke-linejoin: miter"/>
    </g>
    <g clip-path="url(#ped7e68f760)">
     <!-- 1.0 -->
     <g transform="translate(80.293518 313.299347) rotate(-270) scale(0.1 -0.1)">
      <use xlink:href="#DejaVuSans-31"/>
      <use xlink:href="#DejaVuSans-2e" x="63.623047"/>
      <use xlink:href="#DejaVuSans-30" x="95.410156"/>
     </g>
    </g>
   </g>
   <g id="text_40">
    <g id="patch_42">
     <path d="M 213.448437 363.453608 
L 229.351562 363.453608 
Q 232.351562 363.453608 232.351562 360.453608 
L 232.351562 350.775483 
Q 232.351562 347.775483 229.351562 347.775483 
L 213.448437 347.775483 
Q 210.448437 347.775483 210.448437 350.775483 
L 210.448437 360.453608 
Q 210.448437 363.453608 213.448437 363.453608 
z
" clip-path="url(#ped7e68f760)" style="fill: #ffffff; stroke: #ffffff; stroke-linejoin: miter"/>
    </g>
    <g clip-path="url(#ped7e68f760)">
     <!-- 2.0 -->
     <g transform="translate(213.448437 358.37392) scale(0.1 -0.1)">
      <use xlink:href="#DejaVuSans-32"/>
      <use xlink:href="#DejaVuSans-2e" x="63.623047"/>
      <use xlink:href="#DejaVuSans-30" x="95.410156"/>
     </g>
    </g>
   </g>
   <g id="text_41">
    <g id="patch_43">
     <path d="M 268.78728 363.453608 
L 284.690405 363.453608 
Q 287.690405 363.453608 287.690405 360.453608 
L 287.690405 350.775483 
Q 287.690405 347.775483 284.690405 347.775483 
L 268.78728 347.775483 
Q 265.78728 347.775483 265.78728 350.775483 
L 265.78728 360.453608 
Q 265.78728 363.453608 268.78728 363.453608 
z
" clip-path="url(#ped7e68f760)" style="fill: #ffffff; stroke: #ffffff; stroke-linejoin: miter"/>
    </g>
    <g clip-path="url(#ped7e68f760)">
     <!-- 3.0 -->
     <g transform="translate(268.78728 358.37392) scale(0.1 -0.1)">
      <use xlink:href="#DejaVuSans-33"/>
      <use xlink:href="#DejaVuSans-2e" x="63.623047"/>
      <use xlink:href="#DejaVuSans-30" x="95.410156"/>
     </g>
    </g>
   </g>
   <g id="text_42">
    <g id="patch_44">
     <path d="M 331.962002 332.416251 
L 343.243543 321.207495 
Q 345.371717 319.09305 343.257273 316.964876 
L 336.435988 310.099297 
Q 334.321544 307.971123 332.19337 310.085567 
L 320.911829 321.294324 
Q 318.783655 323.408768 320.898099 325.536942 
L 327.719384 332.402521 
Q 329.833828 334.530695 331.962002 332.416251 
z
" clip-path="url(#ped7e68f760)" style="fill: #ffffff; stroke: #ffffff; stroke-linejoin: miter"/>
    </g>
    <g clip-path="url(#ped7e68f760)">
     <!-- 3.0 -->
     <g transform="translate(328.381764 328.812764) rotate(-44.814577) scale(0.1 -0.1)">
      <use xlink:href="#DejaVuSans-33"/>
      <use xlink:href="#DejaVuSans-2e" x="63.623047"/>
      <use xlink:href="#DejaVuSans-30" x="95.410156"/>
     </g>
    </g>
   </g>
   <g id="text_43">
    <g id="patch_45">
     <path d="M 324.126123 363.453608 
L 340.029248 363.453608 
Q 343.029248 363.453608 343.029248 360.453608 
L 343.029248 350.775483 
Q 343.029248 347.775483 340.029248 347.775483 
L 324.126123 347.775483 
Q 321.126123 347.775483 321.126123 350.775483 
L 321.126123 360.453608 
Q 321.126123 363.453608 324.126123 363.453608 
z
" clip-path="url(#ped7e68f760)" style="fill: #ffffff; stroke: #ffffff; stroke-linejoin: miter"/>
    </g>
    <g clip-path="url(#ped7e68f760)">
     <!-- 4.0 -->
     <g transform="translate(324.126123 358.37392) scale(0.1 -0.1)">
      <use xlink:href="#DejaVuSans-34"/>
      <use xlink:href="#DejaVuSans-2e" x="63.623047"/>
      <use xlink:href="#DejaVuSans-30" x="95.410156"/>
     </g>
    </g>
   </g>
   <g id="text_44">
    <g id="patch_46">
     <path d="M 324.126123 88.544517 
L 340.029248 88.544517 
Q 343.029248 88.544517 343.029248 85.544517 
L 343.029248 75.866392 
Q 343.029248 72.866392 340.029248 72.866392 
L 324.126123 72.866392 
Q 321.126123 72.866392 321.126123 75.866392 
L 321.126123 85.544517 
Q 321.126123 88.544517 324.126123 88.544517 
z
" clip-path="url(#ped7e68f760)" style="fill: #ffffff; stroke: #ffffff; stroke-linejoin: miter"/>
    </g>
    <g clip-path="url(#ped7e68f760)">
     <!-- 3.0 -->
     <g transform="translate(324.126123 83.46483) scale(0.1 -0.1)">
      <use xlink:href="#DejaVuSans-33"/>
      <use xlink:href="#DejaVuSans-2e" x="63.623047"/>
      <use xlink:href="#DejaVuSans-30" x="95.410156"/>
     </g>
    </g>
   </g>
   <g id="text_45">
    <g id="patch_47">
     <path d="M 351.908045 107.117528 
L 351.908045 123.020653 
Q 351.908045 126.020653 354.908045 126.020653 
L 364.58617 126.020653 
Q 367.58617 126.020653 367.58617 123.020653 
L 367.58617 107.117528 
Q 367.58617 104.117528 364.58617 104.117528 
L 354.908045 104.117528 
Q 351.908045 104.117528 351.908045 107.117528 
z
" clip-path="url(#ped7e68f760)" style="fill: #ffffff; stroke: #ffffff; stroke-linejoin: miter"/>
    </g>
    <g clip-path="url(#ped7e68f760)">
     <!-- 2.0 -->
     <g transform="translate(356.987732 107.117528) rotate(-270) scale(0.1 -0.1)">
      <use xlink:href="#DejaVuSans-32"/>
      <use xlink:href="#DejaVuSans-2e" x="63.623047"/>
      <use xlink:href="#DejaVuSans-30" x="95.410156"/>
     </g>
    </g>
   </g>
   <g id="text_46">
    <g id="patch_48">
     <path d="M 367.58617 260.475199 
L 367.58617 244.572074 
Q 367.58617 241.572074 364.58617 241.572074 
L 354.908045 241.572074 
Q 351.908045 241.572074 351.908045 244.572074 
L 351.908045 260.475199 
Q 351.908045 263.475199 354.908045 263.475199 
L 364.58617 263.475199 
Q 367.58617 263.475199 367.58617 260.475199 
z
" clip-path="url(#ped7e68f760)" style="fill: #ffffff; stroke: #ffffff; stroke-linejoin: miter"/>
    </g>
    <g clip-path="url(#ped7e68f760)">
     <!-- 1.0 -->
     <g transform="translate(362.506482 260.475199) rotate(-90) scale(0.1 -0.1)">
      <use xlink:href="#DejaVuSans-31"/>
      <use xlink:href="#DejaVuSans-2e" x="63.623047"/>
      <use xlink:href="#DejaVuSans-30" x="95.410156"/>
     </g>
    </g>
   </g>
   <g id="text_47">
    <g id="patch_49">
     <path d="M 351.908045 313.299347 
L 351.908045 329.202472 
Q 351.908045 332.202472 354.908045 332.202472 
L 364.58617 332.202472 
Q 367.58617 332.202472 367.58617 329.202472 
L 367.58617 313.299347 
Q 367.58617 310.299347 364.58617 310.299347 
L 354.908045 310.299347 
Q 351.908045 310.299347 351.908045 313.299347 
z
" clip-path="url(#ped7e68f760)" style="fill: #ffffff; stroke: #ffffff; stroke-linejoin: miter"/>
    </g>
    <g clip-path="url(#ped7e68f760)">
     <!-- 3.0 -->
     <g transform="translate(356.987732 313.299347) rotate(-270) scale(0.1 -0.1)">
      <use xlink:href="#DejaVuSans-33"/>
      <use xlink:href="#DejaVuSans-2e" x="63.623047"/>
      <use xlink:href="#DejaVuSans-30" x="95.410156"/>
     </g>
    </g>
   </g>
   <g id="text_48">
    <g id="patch_50">
     <path d="M 351.908045 175.844801 
L 351.908045 191.747926 
Q 351.908045 194.747926 354.908045 194.747926 
L 364.58617 194.747926 
Q 367.58617 194.747926 367.58617 191.747926 
L 367.58617 175.844801 
Q 367.58617 172.844801 364.58617 172.844801 
L 354.908045 172.844801 
Q 351.908045 172.844801 351.908045 175.844801 
z
" clip-path="url(#ped7e68f760)" style="fill: #ffffff; stroke: #ffffff; stroke-linejoin: miter"/>
    </g>
    <g clip-path="url(#ped7e68f760)">
     <!-- 3.0 -->
     <g transform="translate(356.987732 175.844801) rotate(-270) scale(0.1 -0.1)">
      <use xlink:href="#DejaVuSans-33"/>
      <use xlink:href="#DejaVuSans-2e" x="63.623047"/>
      <use xlink:href="#DejaVuSans-30" x="95.410156"/>
     </g>
    </g>
   </g>
   <g id="LineCollection_1">
    <path d="M 138.391736 218.16 
L 138.391736 286.887273 
" clip-path="url(#ped7e68f760)" style="fill: none; stroke: #000000; stroke-opacity: 0.7"/>
    <path d="M 138.391736 218.16 
L 193.730579 218.16 
" clip-path="url(#ped7e68f760)" style="fill: none; stroke: #000000; stroke-opacity: 0.7"/>
    <path d="M 138.391736 218.16 
L 193.730579 149.432727 
" clip-path="url(#ped7e68f760)" style="fill: none; stroke: #000000; stroke-opacity: 0.7"/>
    <path d="M 138.391736 218.16 
L 83.052893 218.16 
" clip-path="url(#ped7e68f760)" style="fill: none; stroke: #000000; stroke-opacity: 0.7"/>
    <path d="M 138.391736 286.887273 
L 193.730579 286.887273 
" clip-path="url(#ped7e68f760)" style="fill: none; stroke: #000000; stroke-opacity: 0.7"/>
    <path d="M 138.391736 286.887273 
L 83.052893 218.16 
" clip-path="url(#ped7e68f760)" style="fill: none; stroke: #000000; stroke-opacity: 0.7"/>
    <path d="M 138.391736 286.887273 
L 138.391736 355.614545 
" clip-path="url(#ped7e68f760)" style="fill: none; stroke: #000000; stroke-opacity: 0.7"/>
    <path d="M 138.391736 286.887273 
L 193.730579 355.614545 
" clip-path="url(#ped7e68f760)" style="fill: none; stroke: #000000; stroke-opacity: 0.7"/>
    <path d="M 193.730579 218.16 
L 249.069421 218.16 
" clip-path="url(#ped7e68f760)" style="fill: none; stroke: #000000; stroke-opacity: 0.7"/>
    <path d="M 193.730579 286.887273 
L 249.069421 218.16 
" clip-path="url(#ped7e68f760)" style="fill: none; stroke: #000000; stroke-opacity: 0.7"/>
    <path d="M 193.730579 286.887273 
L 249.069421 286.887273 
" clip-path="url(#ped7e68f760)" style="fill: none; stroke: #000000; stroke-opacity: 0.7"/>
    <path d="M 193.730579 286.887273 
L 193.730579 355.614545 
" clip-path="url(#ped7e68f760)" style="fill: none; stroke: #000000; stroke-opacity: 0.7"/>
    <path d="M 193.730579 149.432727 
L 249.069421 218.16 
" clip-path="url(#ped7e68f760)" style="fill: none; stroke: #000000; stroke-opacity: 0.7"/>
    <path d="M 193.730579 149.432727 
L 249.069421 149.432727 
" clip-path="url(#ped7e68f760)" style="fill: none; stroke: #000000; stroke-opacity: 0.7"/>
    <path d="M 249.069421 218.16 
L 249.069421 149.432727 
" clip-path="url(#ped7e68f760)" style="fill: none; stroke: #000000; stroke-opacity: 0.7"/>
    <path d="M 249.069421 218.16 
L 249.069421 286.887273 
" clip-path="url(#ped7e68f760)" style="fill: none; stroke: #000000; stroke-opacity: 0.7"/>
    <path d="M 249.069421 218.16 
L 304.408264 149.432727 
" clip-path="url(#ped7e68f760)" style="fill: none; stroke: #000000; stroke-opacity: 0.7"/>
    <path d="M 249.069421 218.16 
L 304.408264 218.16 
" clip-path="url(#ped7e68f760)" style="fill: none; stroke: #000000; stroke-opacity: 0.7"/>
    <path d="M 249.069421 286.887273 
L 304.408264 218.16 
" clip-path="url(#ped7e68f760)" style="fill: none; stroke: #000000; stroke-opacity: 0.7"/>
    <path d="M 249.069421 286.887273 
L 304.408264 286.887273 
" clip-path="url(#ped7e68f760)" style="fill: none; stroke: #000000; stroke-opacity: 0.7"/>
    <path d="M 249.069421 286.887273 
L 304.408264 355.614545 
" clip-path="url(#ped7e68f760)" style="fill: none; stroke: #000000; stroke-opacity: 0.7"/>
    <path d="M 249.069421 80.705455 
L 249.069421 149.432727 
" clip-path="url(#ped7e68f760)" style="fill: none; stroke: #000000; stroke-opacity: 0.7"/>
    <path d="M 249.069421 149.432727 
L 304.408264 149.432727 
" clip-path="url(#ped7e68f760)" style="fill: none; stroke: #000000; stroke-opacity: 0.7"/>
    <path d="M 249.069421 149.432727 
L 193.730579 80.705455 
" clip-path="url(#ped7e68f760)" style="fill: none; stroke: #000000; stroke-opacity: 0.7"/>
    <path d="M 249.069421 149.432727 
L 304.408264 80.705455 
" clip-path="url(#ped7e68f760)" style="fill: none; stroke: #000000; stroke-opacity: 0.7"/>
    <path d="M 304.408264 149.432727 
L 304.408264 218.16 
" clip-path="url(#ped7e68f760)" style="fill: none; stroke: #000000; stroke-opacity: 0.7"/>
    <path d="M 304.408264 149.432727 
L 359.747107 218.16 
" clip-path="url(#ped7e68f760)" style="fill: none; stroke: #000000; stroke-opacity: 0.7"/>
    <path d="M 304.408264 218.16 
L 304.408264 286.887273 
" clip-path="url(#ped7e68f760)" style="fill: none; stroke: #000000; stroke-opacity: 0.7"/>
    <path d="M 304.408264 286.887273 
L 304.408264 355.614545 
" clip-path="url(#ped7e68f760)" style="fill: none; stroke: #000000; stroke-opacity: 0.7"/>
    <path d="M 304.408264 286.887273 
L 359.747107 218.16 
" clip-path="url(#ped7e68f760)" style="fill: none; stroke: #000000; stroke-opacity: 0.7"/>
    <path d="M 83.052893 80.705455 
L 83.052893 149.432727 
" clip-path="url(#ped7e68f760)" style="fill: none; stroke: #000000; stroke-opacity: 0.7"/>
    <path d="M 83.052893 80.705455 
L 138.391736 149.432727 
" clip-path="url(#ped7e68f760)" style="fill: none; stroke: #000000; stroke-opacity: 0.7"/>
    <path d="M 83.052893 80.705455 
L 138.391736 80.705455 
" clip-path="url(#ped7e68f760)" style="fill: none; stroke: #000000; stroke-opacity: 0.7"/>
    <path d="M 83.052893 149.432727 
L 83.052893 218.16 
" clip-path="url(#ped7e68f760)" style="fill: none; stroke: #000000; stroke-opacity: 0.7"/>
    <path d="M 138.391736 149.432727 
L 83.052893 218.16 
" clip-path="url(#ped7e68f760)" style="fill: none; stroke: #000000; stroke-opacity: 0.7"/>
    <path d="M 138.391736 149.432727 
L 193.730579 80.705455 
" clip-path="url(#ped7e68f760)" style="fill: none; stroke: #000000; stroke-opacity: 0.7"/>
    <path d="M 138.391736 80.705455 
L 193.730579 80.705455 
" clip-path="url(#ped7e68f760)" style="fill: none; stroke: #000000; stroke-opacity: 0.7"/>
    <path d="M 83.052893 218.16 
L 83.052893 286.887273 
" clip-path="url(#ped7e68f760)" style="fill: none; stroke: #000000; stroke-opacity: 0.7"/>
    <path d="M 83.052893 286.887273 
L 83.052893 355.614545 
" clip-path="url(#ped7e68f760)" style="fill: none; stroke: #000000; stroke-opacity: 0.7"/>
    <path d="M 193.730579 355.614545 
L 249.069421 355.614545 
" clip-path="url(#ped7e68f760)" style="fill: none; stroke: #000000; stroke-opacity: 0.7"/>
    <path d="M 249.069421 355.614545 
L 304.408264 355.614545 
" clip-path="url(#ped7e68f760)" style="fill: none; stroke: #000000; stroke-opacity: 0.7"/>
    <path d="M 304.408264 355.614545 
L 359.747107 286.887273 
" clip-path="url(#ped7e68f760)" style="fill: none; stroke: #000000; stroke-opacity: 0.7"/>
    <path d="M 304.408264 355.614545 
L 359.747107 355.614545 
" clip-path="url(#ped7e68f760)" style="fill: none; stroke: #000000; stroke-opacity: 0.7"/>
    <path d="M 304.408264 80.705455 
L 359.747107 80.705455 
" clip-path="url(#ped7e68f760)" style="fill: none; stroke: #000000; stroke-opacity: 0.7"/>
    <path d="M 359.747107 80.705455 
L 359.747107 149.432727 
" clip-path="url(#ped7e68f760)" style="fill: none; stroke: #000000; stroke-opacity: 0.7"/>
    <path d="M 359.747107 286.887273 
L 359.747107 218.16 
" clip-path="url(#ped7e68f760)" style="fill: none; stroke: #000000; stroke-opacity: 0.7"/>
    <path d="M 359.747107 286.887273 
L 359.747107 355.614545 
" clip-path="url(#ped7e68f760)" style="fill: none; stroke: #000000; stroke-opacity: 0.7"/>
    <path d="M 359.747107 149.432727 
L 359.747107 218.16 
" clip-path="url(#ped7e68f760)" style="fill: none; stroke: #000000; stroke-opacity: 0.7"/>
   </g>
   <g id="matplotlib.axis_1">
    <g id="xtick_1"/>
    <g id="xtick_2"/>
    <g id="xtick_3"/>
    <g id="xtick_4"/>
    <g id="xtick_5"/>
    <g id="xtick_6"/>
   </g>
   <g id="matplotlib.axis_2">
    <g id="ytick_1"/>
    <g id="ytick_2"/>
    <g id="ytick_3"/>
    <g id="ytick_4"/>
    <g id="ytick_5"/>
   </g>
   <g id="PathCollection_1">
    <defs>
     <path id="mdb33ab3f87" d="M 0 14.142136 
C 3.750538 14.142136 7.347969 12.652031 10 10 
C 12.652031 7.347969 14.142136 3.750538 14.142136 0 
C 14.142136 -3.750538 12.652031 -7.347969 10 -10 
C 7.347969 -12.652031 3.750538 -14.142136 0 -14.142136 
C -3.750538 -14.142136 -7.347969 -12.652031 -10 -10 
C -12.652031 -7.347969 -14.142136 -3.750538 -14.142136 0 
C -14.142136 3.750538 -12.652031 7.347969 -10 10 
C -7.347969 12.652031 -3.750538 14.142136 0 14.142136 
z
" style="stroke: #1f78b4; stroke-opacity: 0.7"/>
    </defs>
    <g clip-path="url(#ped7e68f760)">
     <use xlink:href="#mdb33ab3f87" x="138.391736" y="218.16" style="fill: #1f78b4; fill-opacity: 0.7; stroke: #1f78b4; stroke-opacity: 0.7"/>
     <use xlink:href="#mdb33ab3f87" x="138.391736" y="286.887273" style="fill: #1f78b4; fill-opacity: 0.7; stroke: #1f78b4; stroke-opacity: 0.7"/>
     <use xlink:href="#mdb33ab3f87" x="193.730579" y="218.16" style="fill: #1f78b4; fill-opacity: 0.7; stroke: #1f78b4; stroke-opacity: 0.7"/>
     <use xlink:href="#mdb33ab3f87" x="193.730579" y="286.887273" style="fill: #1f78b4; fill-opacity: 0.7; stroke: #1f78b4; stroke-opacity: 0.7"/>
     <use xlink:href="#mdb33ab3f87" x="193.730579" y="149.432727" style="fill: #1f78b4; fill-opacity: 0.7; stroke: #1f78b4; stroke-opacity: 0.7"/>
     <use xlink:href="#mdb33ab3f87" x="249.069421" y="218.16" style="fill: #1f78b4; fill-opacity: 0.7; stroke: #1f78b4; stroke-opacity: 0.7"/>
     <use xlink:href="#mdb33ab3f87" x="249.069421" y="286.887273" style="fill: #1f78b4; fill-opacity: 0.7; stroke: #1f78b4; stroke-opacity: 0.7"/>
     <use xlink:href="#mdb33ab3f87" x="249.069421" y="80.705455" style="fill: #1f78b4; fill-opacity: 0.7; stroke: #1f78b4; stroke-opacity: 0.7"/>
     <use xlink:href="#mdb33ab3f87" x="249.069421" y="149.432727" style="fill: #1f78b4; fill-opacity: 0.7; stroke: #1f78b4; stroke-opacity: 0.7"/>
     <use xlink:href="#mdb33ab3f87" x="304.408264" y="149.432727" style="fill: #1f78b4; fill-opacity: 0.7; stroke: #1f78b4; stroke-opacity: 0.7"/>
     <use xlink:href="#mdb33ab3f87" x="304.408264" y="218.16" style="fill: #1f78b4; fill-opacity: 0.7; stroke: #1f78b4; stroke-opacity: 0.7"/>
     <use xlink:href="#mdb33ab3f87" x="304.408264" y="286.887273" style="fill: #1f78b4; fill-opacity: 0.7; stroke: #1f78b4; stroke-opacity: 0.7"/>
     <use xlink:href="#mdb33ab3f87" x="83.052893" y="80.705455" style="fill: #1f78b4; fill-opacity: 0.7; stroke: #1f78b4; stroke-opacity: 0.7"/>
     <use xlink:href="#mdb33ab3f87" x="83.052893" y="149.432727" style="fill: #1f78b4; fill-opacity: 0.7; stroke: #1f78b4; stroke-opacity: 0.7"/>
     <use xlink:href="#mdb33ab3f87" x="138.391736" y="149.432727" style="fill: #1f78b4; fill-opacity: 0.7; stroke: #1f78b4; stroke-opacity: 0.7"/>
     <use xlink:href="#mdb33ab3f87" x="138.391736" y="80.705455" style="fill: #1f78b4; fill-opacity: 0.7; stroke: #1f78b4; stroke-opacity: 0.7"/>
     <use xlink:href="#mdb33ab3f87" x="83.052893" y="218.16" style="fill: #1f78b4; fill-opacity: 0.7; stroke: #1f78b4; stroke-opacity: 0.7"/>
     <use xlink:href="#mdb33ab3f87" x="83.052893" y="286.887273" style="fill: #1f78b4; fill-opacity: 0.7; stroke: #1f78b4; stroke-opacity: 0.7"/>
     <use xlink:href="#mdb33ab3f87" x="83.052893" y="355.614545" style="fill: #1f78b4; fill-opacity: 0.7; stroke: #1f78b4; stroke-opacity: 0.7"/>
     <use xlink:href="#mdb33ab3f87" x="193.730579" y="80.705455" style="fill: #1f78b4; fill-opacity: 0.7; stroke: #1f78b4; stroke-opacity: 0.7"/>
     <use xlink:href="#mdb33ab3f87" x="138.391736" y="355.614545" style="fill: #1f78b4; fill-opacity: 0.7; stroke: #1f78b4; stroke-opacity: 0.7"/>
     <use xlink:href="#mdb33ab3f87" x="193.730579" y="355.614545" style="fill: #1f78b4; fill-opacity: 0.7; stroke: #1f78b4; stroke-opacity: 0.7"/>
     <use xlink:href="#mdb33ab3f87" x="249.069421" y="355.614545" style="fill: #1f78b4; fill-opacity: 0.7; stroke: #1f78b4; stroke-opacity: 0.7"/>
     <use xlink:href="#mdb33ab3f87" x="304.408264" y="355.614545" style="fill: #1f78b4; fill-opacity: 0.7; stroke: #1f78b4; stroke-opacity: 0.7"/>
     <use xlink:href="#mdb33ab3f87" x="304.408264" y="80.705455" style="fill: #1f78b4; fill-opacity: 0.7; stroke: #1f78b4; stroke-opacity: 0.7"/>
     <use xlink:href="#mdb33ab3f87" x="359.747107" y="80.705455" style="fill: #1f78b4; fill-opacity: 0.7; stroke: #1f78b4; stroke-opacity: 0.7"/>
     <use xlink:href="#mdb33ab3f87" x="359.747107" y="286.887273" style="fill: #1f78b4; fill-opacity: 0.7; stroke: #1f78b4; stroke-opacity: 0.7"/>
     <use xlink:href="#mdb33ab3f87" x="359.747107" y="355.614545" style="fill: #1f78b4; fill-opacity: 0.7; stroke: #1f78b4; stroke-opacity: 0.7"/>
     <use xlink:href="#mdb33ab3f87" x="359.747107" y="149.432727" style="fill: #1f78b4; fill-opacity: 0.7; stroke: #1f78b4; stroke-opacity: 0.7"/>
     <use xlink:href="#mdb33ab3f87" x="359.747107" y="218.16" style="fill: #1f78b4; fill-opacity: 0.7; stroke: #1f78b4; stroke-opacity: 0.7"/>
    </g>
   </g>
   <g id="patch_51">
    <path d="M 54 384.48 
L 54 51.84 
" style="fill: none; stroke: #000000; stroke-width: 0.8; stroke-linejoin: miter; stroke-linecap: square"/>
   </g>
   <g id="patch_52">
    <path d="M 388.8 384.48 
L 388.8 51.84 
" style="fill: none; stroke: #000000; stroke-width: 0.8; stroke-linejoin: miter; stroke-linecap: square"/>
   </g>
   <g id="patch_53">
    <path d="M 54 384.48 
L 388.8 384.48 
" style="fill: none; stroke: #000000; stroke-width: 0.8; stroke-linejoin: miter; stroke-linecap: square"/>
   </g>
   <g id="patch_54">
    <path d="M 54 51.84 
L 388.8 51.84 
" style="fill: none; stroke: #000000; stroke-width: 0.8; stroke-linejoin: miter; stroke-linecap: square"/>
   </g>
   <g id="text_49">
    <g clip-path="url(#ped7e68f760)">
     <!-- A -->
     <g style="opacity: 0.7" transform="translate(134.287361 221.47125) scale(0.12 -0.12)">
      <defs>
       <path id="DejaVuSans-41" d="M 2188 4044 
L 1331 1722 
L 3047 1722 
L 2188 4044 
z
M 1831 4666 
L 2547 4666 
L 4325 0 
L 3669 0 
L 3244 1197 
L 1141 1197 
L 716 0 
L 50 0 
L 1831 4666 
z
" transform="scale(0.015625)"/>
      </defs>
      <use xlink:href="#DejaVuSans-41"/>
     </g>
    </g>
   </g>
   <g id="text_50">
    <g clip-path="url(#ped7e68f760)">
     <!-- B -->
     <g style="opacity: 0.7" transform="translate(134.275173 290.198523) scale(0.12 -0.12)">
      <defs>
       <path id="DejaVuSans-42" d="M 1259 2228 
L 1259 519 
L 2272 519 
Q 2781 519 3026 730 
Q 3272 941 3272 1375 
Q 3272 1813 3026 2020 
Q 2781 2228 2272 2228 
L 1259 2228 
z
M 1259 4147 
L 1259 2741 
L 2194 2741 
Q 2656 2741 2882 2914 
Q 3109 3088 3109 3444 
Q 3109 3797 2882 3972 
Q 2656 4147 2194 4147 
L 1259 4147 
z
M 628 4666 
L 2241 4666 
Q 2963 4666 3353 4366 
Q 3744 4066 3744 3513 
Q 3744 3084 3544 2831 
Q 3344 2578 2956 2516 
Q 3422 2416 3680 2098 
Q 3938 1781 3938 1306 
Q 3938 681 3513 340 
Q 3088 0 2303 0 
L 628 0 
L 628 4666 
z
" transform="scale(0.015625)"/>
      </defs>
      <use xlink:href="#DejaVuSans-42"/>
     </g>
    </g>
   </g>
   <g id="text_51">
    <g clip-path="url(#ped7e68f760)">
     <!-- D -->
     <g style="opacity: 0.7" transform="translate(189.110579 221.47125) scale(0.12 -0.12)">
      <defs>
       <path id="DejaVuSans-44" d="M 1259 4147 
L 1259 519 
L 2022 519 
Q 2988 519 3436 956 
Q 3884 1394 3884 2338 
Q 3884 3275 3436 3711 
Q 2988 4147 2022 4147 
L 1259 4147 
z
M 628 4666 
L 1925 4666 
Q 3281 4666 3915 4102 
Q 4550 3538 4550 2338 
Q 4550 1131 3912 565 
Q 3275 0 1925 0 
L 628 0 
L 628 4666 
z
" transform="scale(0.015625)"/>
      </defs>
      <use xlink:href="#DejaVuSans-44"/>
     </g>
    </g>
   </g>
   <g id="text_52">
    <g clip-path="url(#ped7e68f760)">
     <!-- E -->
     <g style="opacity: 0.7" transform="translate(189.939329 290.198523) scale(0.12 -0.12)">
      <defs>
       <path id="DejaVuSans-45" d="M 628 4666 
L 3578 4666 
L 3578 4134 
L 1259 4134 
L 1259 2753 
L 3481 2753 
L 3481 2222 
L 1259 2222 
L 1259 531 
L 3634 531 
L 3634 0 
L 628 0 
L 628 4666 
z
" transform="scale(0.015625)"/>
      </defs>
      <use xlink:href="#DejaVuSans-45"/>
     </g>
    </g>
   </g>
   <g id="text_53">
    <g clip-path="url(#ped7e68f760)">
     <!-- C -->
     <g style="opacity: 0.7" transform="translate(189.540891 152.743977) scale(0.12 -0.12)">
      <defs>
       <path id="DejaVuSans-43" d="M 4122 4306 
L 4122 3641 
Q 3803 3938 3442 4084 
Q 3081 4231 2675 4231 
Q 1875 4231 1450 3742 
Q 1025 3253 1025 2328 
Q 1025 1406 1450 917 
Q 1875 428 2675 428 
Q 3081 428 3442 575 
Q 3803 722 4122 1019 
L 4122 359 
Q 3791 134 3420 21 
Q 3050 -91 2638 -91 
Q 1578 -91 968 557 
Q 359 1206 359 2328 
Q 359 3453 968 4101 
Q 1578 4750 2638 4750 
Q 3056 4750 3426 4639 
Q 3797 4528 4122 4306 
z
" transform="scale(0.015625)"/>
      </defs>
      <use xlink:href="#DejaVuSans-43"/>
     </g>
    </g>
   </g>
   <g id="text_54">
    <g clip-path="url(#ped7e68f760)">
     <!-- H -->
     <g style="opacity: 0.7" transform="translate(244.557234 221.47125) scale(0.12 -0.12)">
      <defs>
       <path id="DejaVuSans-48" d="M 628 4666 
L 1259 4666 
L 1259 2753 
L 3553 2753 
L 3553 4666 
L 4184 4666 
L 4184 0 
L 3553 0 
L 3553 2222 
L 1259 2222 
L 1259 0 
L 628 0 
L 628 4666 
z
" transform="scale(0.015625)"/>
      </defs>
      <use xlink:href="#DejaVuSans-48"/>
     </g>
    </g>
   </g>
   <g id="text_55">
    <g clip-path="url(#ped7e68f760)">
     <!-- I -->
     <g style="opacity: 0.7" transform="translate(247.299421 290.198523) scale(0.12 -0.12)">
      <defs>
       <path id="DejaVuSans-49" d="M 628 4666 
L 1259 4666 
L 1259 0 
L 628 0 
L 628 4666 
z
" transform="scale(0.015625)"/>
      </defs>
      <use xlink:href="#DejaVuSans-49"/>
     </g>
    </g>
   </g>
   <g id="text_56">
    <g clip-path="url(#ped7e68f760)">
     <!-- F -->
     <g style="opacity: 0.7" transform="translate(245.618484 84.016705) scale(0.12 -0.12)">
      <defs>
       <path id="DejaVuSans-46" d="M 628 4666 
L 3309 4666 
L 3309 4134 
L 1259 4134 
L 1259 2759 
L 3109 2759 
L 3109 2228 
L 1259 2228 
L 1259 0 
L 628 0 
L 628 4666 
z
" transform="scale(0.015625)"/>
      </defs>
      <use xlink:href="#DejaVuSans-46"/>
     </g>
    </g>
   </g>
   <g id="text_57">
    <g clip-path="url(#ped7e68f760)">
     <!-- G -->
     <g style="opacity: 0.7" transform="translate(244.420359 152.743977) scale(0.12 -0.12)">
      <defs>
       <path id="DejaVuSans-47" d="M 3809 666 
L 3809 1919 
L 2778 1919 
L 2778 2438 
L 4434 2438 
L 4434 434 
Q 4069 175 3628 42 
Q 3188 -91 2688 -91 
Q 1594 -91 976 548 
Q 359 1188 359 2328 
Q 359 3472 976 4111 
Q 1594 4750 2688 4750 
Q 3144 4750 3555 4637 
Q 3966 4525 4313 4306 
L 4313 3634 
Q 3963 3931 3569 4081 
Q 3175 4231 2741 4231 
Q 1884 4231 1454 3753 
Q 1025 3275 1025 2328 
Q 1025 1384 1454 906 
Q 1884 428 2741 428 
Q 3075 428 3337 486 
Q 3600 544 3809 666 
z
" transform="scale(0.015625)"/>
      </defs>
      <use xlink:href="#DejaVuSans-47"/>
     </g>
    </g>
   </g>
   <g id="text_58">
    <g clip-path="url(#ped7e68f760)">
     <!-- J -->
     <g style="opacity: 0.7" transform="translate(302.638264 152.743977) scale(0.12 -0.12)">
      <defs>
       <path id="DejaVuSans-4a" d="M 628 4666 
L 1259 4666 
L 1259 325 
Q 1259 -519 939 -900 
Q 619 -1281 -91 -1281 
L -331 -1281 
L -331 -750 
L -134 -750 
Q 284 -750 456 -515 
Q 628 -281 628 325 
L 628 4666 
z
" transform="scale(0.015625)"/>
      </defs>
      <use xlink:href="#DejaVuSans-4a"/>
     </g>
    </g>
   </g>
   <g id="text_59">
    <g clip-path="url(#ped7e68f760)">
     <!-- K -->
     <g style="opacity: 0.7" transform="translate(300.473577 221.47125) scale(0.12 -0.12)">
      <defs>
       <path id="DejaVuSans-4b" d="M 628 4666 
L 1259 4666 
L 1259 2694 
L 3353 4666 
L 4166 4666 
L 1850 2491 
L 4331 0 
L 3500 0 
L 1259 2247 
L 1259 0 
L 628 0 
L 628 4666 
z
" transform="scale(0.015625)"/>
      </defs>
      <use xlink:href="#DejaVuSans-4b"/>
     </g>
    </g>
   </g>
   <g id="text_60">
    <g clip-path="url(#ped7e68f760)">
     <!-- L -->
     <g style="opacity: 0.7" transform="translate(301.065139 290.198523) scale(0.12 -0.12)">
      <defs>
       <path id="DejaVuSans-4c" d="M 628 4666 
L 1259 4666 
L 1259 531 
L 3531 531 
L 3531 0 
L 628 0 
L 628 4666 
z
" transform="scale(0.015625)"/>
      </defs>
      <use xlink:href="#DejaVuSans-4c"/>
     </g>
    </g>
   </g>
   <g id="text_61">
    <g clip-path="url(#ped7e68f760)">
     <!-- a -->
     <g style="opacity: 0.7" transform="translate(79.376018 84.016705) scale(0.12 -0.12)">
      <defs>
       <path id="DejaVuSans-61" d="M 2194 1759 
Q 1497 1759 1228 1600 
Q 959 1441 959 1056 
Q 959 750 1161 570 
Q 1363 391 1709 391 
Q 2188 391 2477 730 
Q 2766 1069 2766 1631 
L 2766 1759 
L 2194 1759 
z
M 3341 1997 
L 3341 0 
L 2766 0 
L 2766 531 
Q 2569 213 2275 61 
Q 1981 -91 1556 -91 
Q 1019 -91 701 211 
Q 384 513 384 1019 
Q 384 1609 779 1909 
Q 1175 2209 1959 2209 
L 2766 2209 
L 2766 2266 
Q 2766 2663 2505 2880 
Q 2244 3097 1772 3097 
Q 1472 3097 1187 3025 
Q 903 2953 641 2809 
L 641 3341 
Q 956 3463 1253 3523 
Q 1550 3584 1831 3584 
Q 2591 3584 2966 3190 
Q 3341 2797 3341 1997 
z
" transform="scale(0.015625)"/>
      </defs>
      <use xlink:href="#DejaVuSans-61"/>
     </g>
    </g>
   </g>
   <g id="text_62">
    <g clip-path="url(#ped7e68f760)">
     <!-- b -->
     <g style="opacity: 0.7" transform="translate(79.24383 152.743977) scale(0.12 -0.12)">
      <defs>
       <path id="DejaVuSans-62" d="M 3116 1747 
Q 3116 2381 2855 2742 
Q 2594 3103 2138 3103 
Q 1681 3103 1420 2742 
Q 1159 2381 1159 1747 
Q 1159 1113 1420 752 
Q 1681 391 2138 391 
Q 2594 391 2855 752 
Q 3116 1113 3116 1747 
z
M 1159 2969 
Q 1341 3281 1617 3432 
Q 1894 3584 2278 3584 
Q 2916 3584 3314 3078 
Q 3713 2572 3713 1747 
Q 3713 922 3314 415 
Q 2916 -91 2278 -91 
Q 1894 -91 1617 61 
Q 1341 213 1159 525 
L 1159 0 
L 581 0 
L 581 4863 
L 1159 4863 
L 1159 2969 
z
" transform="scale(0.015625)"/>
      </defs>
      <use xlink:href="#DejaVuSans-62"/>
     </g>
    </g>
   </g>
   <g id="text_63">
    <g clip-path="url(#ped7e68f760)">
     <!-- g -->
     <g style="opacity: 0.7" transform="translate(134.582673 152.743977) scale(0.12 -0.12)">
      <defs>
       <path id="DejaVuSans-67" d="M 2906 1791 
Q 2906 2416 2648 2759 
Q 2391 3103 1925 3103 
Q 1463 3103 1205 2759 
Q 947 2416 947 1791 
Q 947 1169 1205 825 
Q 1463 481 1925 481 
Q 2391 481 2648 825 
Q 2906 1169 2906 1791 
z
M 3481 434 
Q 3481 -459 3084 -895 
Q 2688 -1331 1869 -1331 
Q 1566 -1331 1297 -1286 
Q 1028 -1241 775 -1147 
L 775 -588 
Q 1028 -725 1275 -790 
Q 1522 -856 1778 -856 
Q 2344 -856 2625 -561 
Q 2906 -266 2906 331 
L 2906 616 
Q 2728 306 2450 153 
Q 2172 0 1784 0 
Q 1141 0 747 490 
Q 353 981 353 1791 
Q 353 2603 747 3093 
Q 1141 3584 1784 3584 
Q 2172 3584 2450 3431 
Q 2728 3278 2906 2969 
L 2906 3500 
L 3481 3500 
L 3481 434 
z
" transform="scale(0.015625)"/>
      </defs>
      <use xlink:href="#DejaVuSans-67"/>
     </g>
    </g>
   </g>
   <g id="text_64">
    <g clip-path="url(#ped7e68f760)">
     <!-- f -->
     <g style="opacity: 0.7" transform="translate(136.279548 84.016705) scale(0.12 -0.12)">
      <defs>
       <path id="DejaVuSans-66" d="M 2375 4863 
L 2375 4384 
L 1825 4384 
Q 1516 4384 1395 4259 
Q 1275 4134 1275 3809 
L 1275 3500 
L 2222 3500 
L 2222 3053 
L 1275 3053 
L 1275 0 
L 697 0 
L 697 3053 
L 147 3053 
L 147 3500 
L 697 3500 
L 697 3744 
Q 697 4328 969 4595 
Q 1241 4863 1831 4863 
L 2375 4863 
z
" transform="scale(0.015625)"/>
      </defs>
      <use xlink:href="#DejaVuSans-66"/>
     </g>
    </g>
   </g>
   <g id="text_65">
    <g clip-path="url(#ped7e68f760)">
     <!-- c -->
     <g style="opacity: 0.7" transform="translate(79.75383 221.47125) scale(0.12 -0.12)">
      <defs>
       <path id="DejaVuSans-63" d="M 3122 3366 
L 3122 2828 
Q 2878 2963 2633 3030 
Q 2388 3097 2138 3097 
Q 1578 3097 1268 2742 
Q 959 2388 959 1747 
Q 959 1106 1268 751 
Q 1578 397 2138 397 
Q 2388 397 2633 464 
Q 2878 531 3122 666 
L 3122 134 
Q 2881 22 2623 -34 
Q 2366 -91 2075 -91 
Q 1284 -91 818 406 
Q 353 903 353 1747 
Q 353 2603 823 3093 
Q 1294 3584 2113 3584 
Q 2378 3584 2631 3529 
Q 2884 3475 3122 3366 
z
" transform="scale(0.015625)"/>
      </defs>
      <use xlink:href="#DejaVuSans-63"/>
     </g>
    </g>
   </g>
   <g id="text_66">
    <g clip-path="url(#ped7e68f760)">
     <!-- d -->
     <g style="opacity: 0.7" transform="translate(79.24383 290.198523) scale(0.12 -0.12)">
      <defs>
       <path id="DejaVuSans-64" d="M 2906 2969 
L 2906 4863 
L 3481 4863 
L 3481 0 
L 2906 0 
L 2906 525 
Q 2725 213 2448 61 
Q 2172 -91 1784 -91 
Q 1150 -91 751 415 
Q 353 922 353 1747 
Q 353 2572 751 3078 
Q 1150 3584 1784 3584 
Q 2172 3584 2448 3432 
Q 2725 3281 2906 2969 
z
M 947 1747 
Q 947 1113 1208 752 
Q 1469 391 1925 391 
Q 2381 391 2643 752 
Q 2906 1113 2906 1747 
Q 2906 2381 2643 2742 
Q 2381 3103 1925 3103 
Q 1469 3103 1208 2742 
Q 947 2381 947 1747 
z
" transform="scale(0.015625)"/>
      </defs>
      <use xlink:href="#DejaVuSans-64"/>
     </g>
    </g>
   </g>
   <g id="text_67">
    <g clip-path="url(#ped7e68f760)">
     <!-- e -->
     <g style="opacity: 0.7" transform="translate(79.361018 358.925795) scale(0.12 -0.12)">
      <defs>
       <path id="DejaVuSans-65" d="M 3597 1894 
L 3597 1613 
L 953 1613 
Q 991 1019 1311 708 
Q 1631 397 2203 397 
Q 2534 397 2845 478 
Q 3156 559 3463 722 
L 3463 178 
Q 3153 47 2828 -22 
Q 2503 -91 2169 -91 
Q 1331 -91 842 396 
Q 353 884 353 1716 
Q 353 2575 817 3079 
Q 1281 3584 2069 3584 
Q 2775 3584 3186 3129 
Q 3597 2675 3597 1894 
z
M 3022 2063 
Q 3016 2534 2758 2815 
Q 2500 3097 2075 3097 
Q 1594 3097 1305 2825 
Q 1016 2553 972 2059 
L 3022 2063 
z
" transform="scale(0.015625)"/>
      </defs>
      <use xlink:href="#DejaVuSans-65"/>
     </g>
    </g>
   </g>
   <g id="text_68">
    <g clip-path="url(#ped7e68f760)">
     <!-- i -->
     <g style="opacity: 0.7" transform="translate(192.063704 84.016705) scale(0.12 -0.12)">
      <defs>
       <path id="DejaVuSans-69" d="M 603 3500 
L 1178 3500 
L 1178 0 
L 603 0 
L 603 3500 
z
M 603 4863 
L 1178 4863 
L 1178 4134 
L 603 4134 
L 603 4863 
z
" transform="scale(0.015625)"/>
      </defs>
      <use xlink:href="#DejaVuSans-69"/>
     </g>
    </g>
   </g>
   <g id="text_69">
    <g clip-path="url(#ped7e68f760)">
     <!-- h -->
     <g style="opacity: 0.7" transform="translate(134.589236 358.925795) scale(0.12 -0.12)">
      <defs>
       <path id="DejaVuSans-68" d="M 3513 2113 
L 3513 0 
L 2938 0 
L 2938 2094 
Q 2938 2591 2744 2837 
Q 2550 3084 2163 3084 
Q 1697 3084 1428 2787 
Q 1159 2491 1159 1978 
L 1159 0 
L 581 0 
L 581 4863 
L 1159 4863 
L 1159 2956 
Q 1366 3272 1645 3428 
Q 1925 3584 2291 3584 
Q 2894 3584 3203 3211 
Q 3513 2838 3513 2113 
z
" transform="scale(0.015625)"/>
      </defs>
      <use xlink:href="#DejaVuSans-68"/>
     </g>
    </g>
   </g>
   <g id="text_70">
    <g clip-path="url(#ped7e68f760)">
     <!-- j -->
     <g style="opacity: 0.7" transform="translate(192.063704 358.925795) scale(0.12 -0.12)">
      <defs>
       <path id="DejaVuSans-6a" d="M 603 3500 
L 1178 3500 
L 1178 -63 
Q 1178 -731 923 -1031 
Q 669 -1331 103 -1331 
L -116 -1331 
L -116 -844 
L 38 -844 
Q 366 -844 484 -692 
Q 603 -541 603 -63 
L 603 3500 
z
M 603 4863 
L 1178 4863 
L 1178 4134 
L 603 4134 
L 603 4863 
z
" transform="scale(0.015625)"/>
      </defs>
      <use xlink:href="#DejaVuSans-6a"/>
     </g>
    </g>
   </g>
   <g id="text_71">
    <g clip-path="url(#ped7e68f760)">
     <!-- k -->
     <g style="opacity: 0.7" transform="translate(245.595046 358.925795) scale(0.12 -0.12)">
      <defs>
       <path id="DejaVuSans-6b" d="M 581 4863 
L 1159 4863 
L 1159 1991 
L 2875 3500 
L 3609 3500 
L 1753 1863 
L 3688 0 
L 2938 0 
L 1159 1709 
L 1159 0 
L 581 0 
L 581 4863 
z
" transform="scale(0.015625)"/>
      </defs>
      <use xlink:href="#DejaVuSans-6b"/>
     </g>
    </g>
   </g>
   <g id="text_72">
    <g clip-path="url(#ped7e68f760)">
     <!-- m -->
     <g style="opacity: 0.7" transform="translate(298.563889 358.925795) scale(0.12 -0.12)">
      <defs>
       <path id="DejaVuSans-6d" d="M 3328 2828 
Q 3544 3216 3844 3400 
Q 4144 3584 4550 3584 
Q 5097 3584 5394 3201 
Q 5691 2819 5691 2113 
L 5691 0 
L 5113 0 
L 5113 2094 
Q 5113 2597 4934 2840 
Q 4756 3084 4391 3084 
Q 3944 3084 3684 2787 
Q 3425 2491 3425 1978 
L 3425 0 
L 2847 0 
L 2847 2094 
Q 2847 2600 2669 2842 
Q 2491 3084 2119 3084 
Q 1678 3084 1418 2786 
Q 1159 2488 1159 1978 
L 1159 0 
L 581 0 
L 581 3500 
L 1159 3500 
L 1159 2956 
Q 1356 3278 1631 3431 
Q 1906 3584 2284 3584 
Q 2666 3584 2933 3390 
Q 3200 3197 3328 2828 
z
" transform="scale(0.015625)"/>
      </defs>
      <use xlink:href="#DejaVuSans-6d"/>
     </g>
    </g>
   </g>
   <g id="text_73">
    <g clip-path="url(#ped7e68f760)">
     <!-- l -->
     <g style="opacity: 0.7" transform="translate(302.741389 84.016705) scale(0.12 -0.12)">
      <defs>
       <path id="DejaVuSans-6c" d="M 603 4863 
L 1178 4863 
L 1178 0 
L 603 0 
L 603 4863 
z
" transform="scale(0.015625)"/>
      </defs>
      <use xlink:href="#DejaVuSans-6c"/>
     </g>
    </g>
   </g>
   <g id="text_74">
    <g clip-path="url(#ped7e68f760)">
     <!-- n -->
     <g style="opacity: 0.7" transform="translate(355.944607 84.016705) scale(0.12 -0.12)">
      <defs>
       <path id="DejaVuSans-6e" d="M 3513 2113 
L 3513 0 
L 2938 0 
L 2938 2094 
Q 2938 2591 2744 2837 
Q 2550 3084 2163 3084 
Q 1697 3084 1428 2787 
Q 1159 2491 1159 1978 
L 1159 0 
L 581 0 
L 581 3500 
L 1159 3500 
L 1159 2956 
Q 1366 3272 1645 3428 
Q 1925 3584 2291 3584 
Q 2894 3584 3203 3211 
Q 3513 2838 3513 2113 
z
" transform="scale(0.015625)"/>
      </defs>
      <use xlink:href="#DejaVuSans-6e"/>
     </g>
    </g>
   </g>
   <g id="text_75">
    <g clip-path="url(#ped7e68f760)">
     <!-- q -->
     <g style="opacity: 0.7" transform="translate(355.938045 290.198523) scale(0.12 -0.12)">
      <defs>
       <path id="DejaVuSans-71" d="M 947 1747 
Q 947 1113 1208 752 
Q 1469 391 1925 391 
Q 2381 391 2643 752 
Q 2906 1113 2906 1747 
Q 2906 2381 2643 2742 
Q 2381 3103 1925 3103 
Q 1469 3103 1208 2742 
Q 947 2381 947 1747 
z
M 2906 525 
Q 2725 213 2448 61 
Q 2172 -91 1784 -91 
Q 1150 -91 751 415 
Q 353 922 353 1747 
Q 353 2572 751 3078 
Q 1150 3584 1784 3584 
Q 2172 3584 2448 3432 
Q 2725 3281 2906 2969 
L 2906 3500 
L 3481 3500 
L 3481 -1331 
L 2906 -1331 
L 2906 525 
z
" transform="scale(0.015625)"/>
      </defs>
      <use xlink:href="#DejaVuSans-71"/>
     </g>
    </g>
   </g>
   <g id="text_76">
    <g clip-path="url(#ped7e68f760)">
     <!-- r -->
     <g style="opacity: 0.7" transform="translate(357.280545 358.925795) scale(0.12 -0.12)">
      <defs>
       <path id="DejaVuSans-72" d="M 2631 2963 
Q 2534 3019 2420 3045 
Q 2306 3072 2169 3072 
Q 1681 3072 1420 2755 
Q 1159 2438 1159 1844 
L 1159 0 
L 581 0 
L 581 3500 
L 1159 3500 
L 1159 2956 
Q 1341 3275 1631 3429 
Q 1922 3584 2338 3584 
Q 2397 3584 2469 3576 
Q 2541 3569 2628 3553 
L 2631 2963 
z
" transform="scale(0.015625)"/>
      </defs>
      <use xlink:href="#DejaVuSans-72"/>
     </g>
    </g>
   </g>
   <g id="text_77">
    <g clip-path="url(#ped7e68f760)">
     <!-- o -->
     <g style="opacity: 0.7" transform="translate(356.075857 152.743977) scale(0.12 -0.12)">
      <defs>
       <path id="DejaVuSans-6f" d="M 1959 3097 
Q 1497 3097 1228 2736 
Q 959 2375 959 1747 
Q 959 1119 1226 758 
Q 1494 397 1959 397 
Q 2419 397 2687 759 
Q 2956 1122 2956 1747 
Q 2956 2369 2687 2733 
Q 2419 3097 1959 3097 
z
M 1959 3584 
Q 2709 3584 3137 3096 
Q 3566 2609 3566 1747 
Q 3566 888 3137 398 
Q 2709 -91 1959 -91 
Q 1206 -91 779 398 
Q 353 888 353 1747 
Q 353 2609 779 3096 
Q 1206 3584 1959 3584 
z
" transform="scale(0.015625)"/>
      </defs>
      <use xlink:href="#DejaVuSans-6f"/>
     </g>
    </g>
   </g>
   <g id="text_78">
    <g clip-path="url(#ped7e68f760)">
     <!-- p -->
     <g style="opacity: 0.7" transform="translate(355.938045 221.47125) scale(0.12 -0.12)">
      <defs>
       <path id="DejaVuSans-70" d="M 1159 525 
L 1159 -1331 
L 581 -1331 
L 581 3500 
L 1159 3500 
L 1159 2969 
Q 1341 3281 1617 3432 
Q 1894 3584 2278 3584 
Q 2916 3584 3314 3078 
Q 3713 2572 3713 1747 
Q 3713 922 3314 415 
Q 2916 -91 2278 -91 
Q 1894 -91 1617 61 
Q 1341 213 1159 525 
z
M 3116 1747 
Q 3116 2381 2855 2742 
Q 2594 3103 2138 3103 
Q 1681 3103 1420 2742 
Q 1159 2381 1159 1747 
Q 1159 1113 1420 752 
Q 1681 391 2138 391 
Q 2594 391 2855 752 
Q 3116 1113 3116 1747 
z
" transform="scale(0.015625)"/>
      </defs>
      <use xlink:href="#DejaVuSans-70"/>
     </g>
    </g>
   </g>
   <g id="text_79">
    <!-- Original Graph[DATASET002] -->
    <g transform="translate(134.7525 45.84) scale(0.12 -0.12)">
     <defs>
      <path id="DejaVuSans-4f" d="M 2522 4238 
Q 1834 4238 1429 3725 
Q 1025 3213 1025 2328 
Q 1025 1447 1429 934 
Q 1834 422 2522 422 
Q 3209 422 3611 934 
Q 4013 1447 4013 2328 
Q 4013 3213 3611 3725 
Q 3209 4238 2522 4238 
z
M 2522 4750 
Q 3503 4750 4090 4092 
Q 4678 3434 4678 2328 
Q 4678 1225 4090 567 
Q 3503 -91 2522 -91 
Q 1538 -91 948 565 
Q 359 1222 359 2328 
Q 359 3434 948 4092 
Q 1538 4750 2522 4750 
z
" transform="scale(0.015625)"/>
      <path id="DejaVuSans-20" transform="scale(0.015625)"/>
      <path id="DejaVuSans-5b" d="M 550 4863 
L 1875 4863 
L 1875 4416 
L 1125 4416 
L 1125 -397 
L 1875 -397 
L 1875 -844 
L 550 -844 
L 550 4863 
z
" transform="scale(0.015625)"/>
      <path id="DejaVuSans-54" d="M -19 4666 
L 3928 4666 
L 3928 4134 
L 2272 4134 
L 2272 0 
L 1638 0 
L 1638 4134 
L -19 4134 
L -19 4666 
z
" transform="scale(0.015625)"/>
      <path id="DejaVuSans-53" d="M 3425 4513 
L 3425 3897 
Q 3066 4069 2747 4153 
Q 2428 4238 2131 4238 
Q 1616 4238 1336 4038 
Q 1056 3838 1056 3469 
Q 1056 3159 1242 3001 
Q 1428 2844 1947 2747 
L 2328 2669 
Q 3034 2534 3370 2195 
Q 3706 1856 3706 1288 
Q 3706 609 3251 259 
Q 2797 -91 1919 -91 
Q 1588 -91 1214 -16 
Q 841 59 441 206 
L 441 856 
Q 825 641 1194 531 
Q 1563 422 1919 422 
Q 2459 422 2753 634 
Q 3047 847 3047 1241 
Q 3047 1584 2836 1778 
Q 2625 1972 2144 2069 
L 1759 2144 
Q 1053 2284 737 2584 
Q 422 2884 422 3419 
Q 422 4038 858 4394 
Q 1294 4750 2059 4750 
Q 2388 4750 2728 4690 
Q 3069 4631 3425 4513 
z
" transform="scale(0.015625)"/>
      <path id="DejaVuSans-5d" d="M 1947 4863 
L 1947 -844 
L 622 -844 
L 622 -397 
L 1369 -397 
L 1369 4416 
L 622 4416 
L 622 4863 
L 1947 4863 
z
" transform="scale(0.015625)"/>
     </defs>
     <use xlink:href="#DejaVuSans-4f"/>
     <use xlink:href="#DejaVuSans-72" x="78.710938"/>
     <use xlink:href="#DejaVuSans-69" x="119.824219"/>
     <use xlink:href="#DejaVuSans-67" x="147.607422"/>
     <use xlink:href="#DejaVuSans-69" x="211.083984"/>
     <use xlink:href="#DejaVuSans-6e" x="238.867188"/>
     <use xlink:href="#DejaVuSans-61" x="302.246094"/>
     <use xlink:href="#DejaVuSans-6c" x="363.525391"/>
     <use xlink:href="#DejaVuSans-20" x="391.308594"/>
     <use xlink:href="#DejaVuSans-47" x="423.095703"/>
     <use xlink:href="#DejaVuSans-72" x="500.585938"/>
     <use xlink:href="#DejaVuSans-61" x="541.699219"/>
     <use xlink:href="#DejaVuSans-70" x="602.978516"/>
     <use xlink:href="#DejaVuSans-68" x="666.455078"/>
     <use xlink:href="#DejaVuSans-5b" x="729.833984"/>
     <use xlink:href="#DejaVuSans-44" x="768.847656"/>
     <use xlink:href="#DejaVuSans-41" x="844.099609"/>
     <use xlink:href="#DejaVuSans-54" x="904.757812"/>
     <use xlink:href="#DejaVuSans-41" x="958.091797"/>
     <use xlink:href="#DejaVuSans-53" x="1026.5"/>
     <use xlink:href="#DejaVuSans-45" x="1089.976562"/>
     <use xlink:href="#DejaVuSans-54" x="1153.160156"/>
     <use xlink:href="#DejaVuSans-30" x="1214.244141"/>
     <use xlink:href="#DejaVuSans-30" x="1277.867188"/>
     <use xlink:href="#DejaVuSans-32" x="1341.490234"/>
     <use xlink:href="#DejaVuSans-5d" x="1405.113281"/>
    </g>
   </g>
  </g>
 </g>
 <defs>
  <clipPath id="ped7e68f760">
   <rect x="54" y="51.84" width="334.8" height="332.64"/>
  </clipPath>
 </defs>
</svg>
