<?xml version="1.0" encoding="UTF-8" standalone="no"?>
<!DOCTYPE svg PUBLIC "-//W3C//DTD SVG 1.1//EN"
 "http://www.w3.org/Graphics/SVG/1.1/DTD/svg11.dtd">
<!-- Generated by graphviz version 2.43.0 (0)
 -->
<!-- Title: %3 Pages: 1 -->
<svg width="228pt" height="249pt"
 viewBox="0.00 0.00 227.74 249.38" xmlns="http://www.w3.org/2000/svg" xmlns:xlink="http://www.w3.org/1999/xlink">
<g id="graph0" class="graph" transform="scale(1 1) rotate(0) translate(4 245.38)">
<title>%3</title>
<polygon fill="white" stroke="transparent" points="-4,4 -4,-245.38 223.74,-245.38 223.74,4 -4,4"/>
<!-- (A,B) 1.0 -->
<g id="node1" class="node">
<title>(A,B) 1.0</title>
<ellipse fill="none" stroke="black" cx="110.35" cy="-190.04" rx="51.19" ry="51.19"/>
<text text-anchor="middle" x="110.35" y="-186.34" font-family="Times,serif" font-size="14.00">(A,B) 1.0</text>
</g>
<!-- (A,C) 2.0 -->
<g id="node2" class="node">
<title>(A,C) 2.0</title>
<ellipse fill="none" stroke="black" cx="51.35" cy="-51.35" rx="51.19" ry="51.19"/>
<text text-anchor="middle" x="51.35" y="-47.65" font-family="Times,serif" font-size="14.00">(A,C) 2.0</text>
</g>
<!-- (A,B) 1.0&#45;&gt;(A,C) 2.0 -->
<g id="edge1" class="edge">
<title>(A,B) 1.0&#45;&gt;(A,C) 2.0</title>
<path fill="none" stroke="black" d="M90.21,-142.38C85.46,-131.38 80.35,-119.55 75.45,-108.19"/>
<polygon fill="black" stroke="black" points="78.57,-106.59 71.39,-98.79 72.14,-109.36 78.57,-106.59"/>
</g>
<!-- (A,c) 3.0 -->
<g id="node3" class="node">
<title>(A,c) 3.0</title>
<ellipse fill="none" stroke="black" cx="170.35" cy="-51.35" rx="49.29" ry="49.29"/>
<text text-anchor="middle" x="170.35" y="-47.65" font-family="Times,serif" font-size="14.00">(A,c) 3.0</text>
</g>
<!-- (A,B) 1.0&#45;&gt;(A,c) 3.0 -->
<g id="edge2" class="edge">
<title>(A,B) 1.0&#45;&gt;(A,c) 3.0</title>
<path fill="none" stroke="black" d="M130.66,-142.76C135.76,-131.15 141.27,-118.58 146.52,-106.62"/>
<polygon fill="black" stroke="black" points="149.85,-107.75 150.66,-97.19 143.44,-104.94 149.85,-107.75"/>
</g>
</g>
</svg>
