<?xml version="1.0" encoding="UTF-8" standalone="no"?>
<!DOCTYPE svg PUBLIC "-//W3C//DTD SVG 1.1//EN"
 "http://www.w3.org/Graphics/SVG/1.1/DTD/svg11.dtd">
<!-- Generated by graphviz version 2.43.0 (0)
 -->
<!-- Title: %3 Pages: 1 -->
<svg width="224pt" height="248pt"
 viewBox="0.00 0.00 223.79 248.08" xmlns="http://www.w3.org/2000/svg" xmlns:xlink="http://www.w3.org/1999/xlink">
<g id="graph0" class="graph" transform="scale(1 1) rotate(0) translate(4 244.08)">
<title>%3</title>
<polygon fill="white" stroke="transparent" points="-4,4 -4,-244.08 219.79,-244.08 219.79,4 -4,4"/>
<!-- (B,A) 1.0 -->
<g id="node1" class="node">
<title>(B,A) 1.0</title>
<ellipse fill="none" stroke="black" cx="108.7" cy="-188.74" rx="51.19" ry="51.19"/>
<text text-anchor="middle" x="108.7" y="-185.04" font-family="Times,serif" font-size="14.00">(B,A) 1.0</text>
</g>
<!-- (B,h) 3.0 -->
<g id="node2" class="node">
<title>(B,h) 3.0</title>
<ellipse fill="none" stroke="black" cx="50.7" cy="-50.7" rx="50.89" ry="50.89"/>
<text text-anchor="middle" x="50.7" y="-47" font-family="Times,serif" font-size="14.00">(B,h) 3.0</text>
</g>
<!-- (B,A) 1.0&#45;&gt;(B,h) 3.0 -->
<g id="edge1" class="edge">
<title>(B,A) 1.0&#45;&gt;(B,h) 3.0</title>
<path fill="none" stroke="black" d="M88.9,-141.3C84.23,-130.35 79.21,-118.58 74.39,-107.28"/>
<polygon fill="black" stroke="black" points="77.55,-105.75 70.4,-97.92 71.11,-108.49 77.55,-105.75"/>
</g>
<!-- (B,j) 1.0 -->
<g id="node3" class="node">
<title>(B,j) 1.0</title>
<ellipse fill="none" stroke="black" cx="167.7" cy="-50.7" rx="48.19" ry="48.19"/>
<text text-anchor="middle" x="167.7" y="-47" font-family="Times,serif" font-size="14.00">(B,j) 1.0</text>
</g>
<!-- (B,A) 1.0&#45;&gt;(B,j) 1.0 -->
<g id="edge2" class="edge">
<title>(B,A) 1.0&#45;&gt;(B,j) 1.0</title>
<path fill="none" stroke="black" d="M128.83,-141.3C133.95,-129.52 139.47,-116.77 144.71,-104.69"/>
<polygon fill="black" stroke="black" points="148.07,-105.74 148.84,-95.17 141.65,-102.96 148.07,-105.74"/>
</g>
</g>
</svg>
