<?xml version="1.0" encoding="UTF-8" standalone="no"?>
<!DOCTYPE svg PUBLIC "-//W3C//DTD SVG 1.1//EN"
 "http://www.w3.org/Graphics/SVG/1.1/DTD/svg11.dtd">
<!-- Generated by graphviz version 2.43.0 (0)
 -->
<!-- Title: %3 Pages: 1 -->
<svg width="356pt" height="391pt"
 viewBox="0.00 0.00 355.94 390.67" xmlns="http://www.w3.org/2000/svg" xmlns:xlink="http://www.w3.org/1999/xlink">
<g id="graph0" class="graph" transform="scale(1 1) rotate(0) translate(4 386.67)">
<title>%3</title>
<polygon fill="white" stroke="transparent" points="-4,4 -4,-386.67 351.94,-386.67 351.94,4 -4,4"/>
<!-- (H,I) 1.0 -->
<g id="node1" class="node">
<title>(H,I) 1.0</title>
<ellipse fill="none" stroke="black" cx="231.65" cy="-333.28" rx="49.29" ry="49.29"/>
<text text-anchor="middle" x="231.65" y="-329.58" font-family="Times,serif" font-size="14.00">(H,I) 1.0</text>
</g>
<!-- (H,G) 2.0 -->
<g id="node2" class="node">
<title>(H,G) 2.0</title>
<ellipse fill="none" stroke="black" cx="169.65" cy="-194.59" rx="53.09" ry="53.09"/>
<text text-anchor="middle" x="169.65" y="-190.89" font-family="Times,serif" font-size="14.00">(H,G) 2.0</text>
</g>
<!-- (H,I) 1.0&#45;&gt;(H,G) 2.0 -->
<g id="edge1" class="edge">
<title>(H,I) 1.0&#45;&gt;(H,G) 2.0</title>
<path fill="none" stroke="black" d="M211.52,-287.9C206.44,-276.7 200.91,-264.52 195.6,-252.8"/>
<polygon fill="black" stroke="black" points="198.7,-251.18 191.39,-243.52 192.33,-254.07 198.7,-251.18"/>
</g>
<!-- (H,D) 2.0 -->
<g id="node3" class="node">
<title>(H,D) 2.0</title>
<ellipse fill="none" stroke="black" cx="294.65" cy="-194.59" rx="53.09" ry="53.09"/>
<text text-anchor="middle" x="294.65" y="-190.89" font-family="Times,serif" font-size="14.00">(H,D) 2.0</text>
</g>
<!-- (H,I) 1.0&#45;&gt;(H,D) 2.0 -->
<g id="edge2" class="edge">
<title>(H,I) 1.0&#45;&gt;(H,D) 2.0</title>
<path fill="none" stroke="black" d="M252.1,-287.9C257.26,-276.7 262.87,-264.52 268.28,-252.8"/>
<polygon fill="black" stroke="black" points="271.55,-254.06 272.55,-243.52 265.19,-251.13 271.55,-254.06"/>
</g>
<!-- (H,C) 4.0 -->
<g id="node4" class="node">
<title>(H,C) 4.0</title>
<ellipse fill="none" stroke="black" cx="52.65" cy="-52.65" rx="52.79" ry="52.79"/>
<text text-anchor="middle" x="52.65" y="-48.95" font-family="Times,serif" font-size="14.00">(H,C) 4.0</text>
</g>
<!-- (H,G) 2.0&#45;&gt;(H,C) 4.0 -->
<g id="edge3" class="edge">
<title>(H,G) 2.0&#45;&gt;(H,C) 4.0</title>
<path fill="none" stroke="black" d="M135.8,-153.11C122.35,-137.02 106.76,-118.37 92.75,-101.61"/>
<polygon fill="black" stroke="black" points="95.11,-98.97 86.01,-93.55 89.74,-103.46 95.11,-98.97"/>
</g>
<!-- (H,J) 2.0 -->
<g id="node5" class="node">
<title>(H,J) 2.0</title>
<ellipse fill="none" stroke="black" cx="172.65" cy="-52.65" rx="49.29" ry="49.29"/>
<text text-anchor="middle" x="172.65" y="-48.95" font-family="Times,serif" font-size="14.00">(H,J) 2.0</text>
</g>
<!-- (H,G) 2.0&#45;&gt;(H,J) 2.0 -->
<g id="edge4" class="edge">
<title>(H,G) 2.0&#45;&gt;(H,J) 2.0</title>
<path fill="none" stroke="black" d="M170.77,-141.08C170.97,-131.74 171.18,-121.95 171.38,-112.45"/>
<polygon fill="black" stroke="black" points="174.89,-112.36 171.6,-102.29 167.89,-112.21 174.89,-112.36"/>
</g>
<!-- (H,K) 3.0 -->
<g id="node6" class="node">
<title>(H,K) 3.0</title>
<ellipse fill="none" stroke="black" cx="294.65" cy="-52.65" rx="52.79" ry="52.79"/>
<text text-anchor="middle" x="294.65" y="-48.95" font-family="Times,serif" font-size="14.00">(H,K) 3.0</text>
</g>
<!-- (H,D) 2.0&#45;&gt;(H,K) 3.0 -->
<g id="edge5" class="edge">
<title>(H,D) 2.0&#45;&gt;(H,K) 3.0</title>
<path fill="none" stroke="black" d="M294.65,-141.08C294.65,-132.81 294.65,-124.19 294.65,-115.73"/>
<polygon fill="black" stroke="black" points="298.15,-115.52 294.65,-105.52 291.15,-115.52 298.15,-115.52"/>
</g>
</g>
</svg>
