<?xml version="1.0" encoding="UTF-8" standalone="no"?>
<!DOCTYPE svg PUBLIC "-//W3C//DTD SVG 1.1//EN"
 "http://www.w3.org/Graphics/SVG/1.1/DTD/svg11.dtd">
<!-- Generated by graphviz version 2.43.0 (0)
 -->
<!-- Title: %3 Pages: 1 -->
<svg width="219pt" height="372pt"
 viewBox="0.00 0.00 219.49 372.47" xmlns="http://www.w3.org/2000/svg" xmlns:xlink="http://www.w3.org/1999/xlink">
<g id="graph0" class="graph" transform="scale(1 1) rotate(0) translate(4 368.47)">
<title>%3</title>
<polygon fill="white" stroke="transparent" points="-4,4 -4,-368.47 215.49,-368.47 215.49,4 -4,4"/>
<!-- (I,E) 2.0 -->
<g id="node1" class="node">
<title>(I,E) 2.0</title>
<ellipse fill="none" stroke="black" cx="107.05" cy="-316.38" rx="48.19" ry="48.19"/>
<text text-anchor="middle" x="107.05" y="-312.68" font-family="Times,serif" font-size="14.00">(I,E) 2.0</text>
</g>
<!-- (I,K) 3.0 -->
<g id="node2" class="node">
<title>(I,K) 3.0</title>
<ellipse fill="none" stroke="black" cx="50.05" cy="-184.19" rx="48.19" ry="48.19"/>
<text text-anchor="middle" x="50.05" y="-180.49" font-family="Times,serif" font-size="14.00">(I,K) 3.0</text>
</g>
<!-- (I,E) 2.0&#45;&gt;(I,K) 3.0 -->
<g id="edge1" class="edge">
<title>(I,E) 2.0&#45;&gt;(I,K) 3.0</title>
<path fill="none" stroke="black" d="M88.07,-272.03C83.31,-261.16 78.15,-249.38 73.22,-238.11"/>
<polygon fill="black" stroke="black" points="76.35,-236.55 69.14,-228.79 69.94,-239.36 76.35,-236.55"/>
</g>
<!-- (I,L) 2.0 -->
<g id="node3" class="node">
<title>(I,L) 2.0</title>
<ellipse fill="none" stroke="black" cx="164.05" cy="-184.19" rx="47.39" ry="47.39"/>
<text text-anchor="middle" x="164.05" y="-180.49" font-family="Times,serif" font-size="14.00">(I,L) 2.0</text>
</g>
<!-- (I,E) 2.0&#45;&gt;(I,L) 2.0 -->
<g id="edge2" class="edge">
<title>(I,E) 2.0&#45;&gt;(I,L) 2.0</title>
<path fill="none" stroke="black" d="M126.03,-272.03C130.88,-260.93 136.16,-248.88 141.19,-237.39"/>
<polygon fill="black" stroke="black" points="144.54,-238.47 145.34,-227.91 138.13,-235.66 144.54,-238.47"/>
</g>
<!-- (I,m) 3.0 -->
<g id="node4" class="node">
<title>(I,m) 3.0</title>
<ellipse fill="none" stroke="black" cx="50.05" cy="-50.05" rx="50.09" ry="50.09"/>
<text text-anchor="middle" x="50.05" y="-46.35" font-family="Times,serif" font-size="14.00">(I,m) 3.0</text>
</g>
<!-- (I,K) 3.0&#45;&gt;(I,m) 3.0 -->
<g id="edge3" class="edge">
<title>(I,K) 3.0&#45;&gt;(I,m) 3.0</title>
<path fill="none" stroke="black" d="M50.05,-135.85C50.05,-127.64 50.05,-119.01 50.05,-110.52"/>
<polygon fill="black" stroke="black" points="53.55,-110.28 50.05,-100.28 46.55,-110.28 53.55,-110.28"/>
</g>
</g>
</svg>
