<?xml version="1.0" encoding="UTF-8" standalone="no"?>
<!DOCTYPE svg PUBLIC "-//W3C//DTD SVG 1.1//EN"
 "http://www.w3.org/Graphics/SVG/1.1/DTD/svg11.dtd">
<!-- Generated by graphviz version 2.43.0 (0)
 -->
<!-- Title: %3 Pages: 1 -->
<svg width="216pt" height="236pt"
 viewBox="0.00 0.00 215.89 236.38" xmlns="http://www.w3.org/2000/svg" xmlns:xlink="http://www.w3.org/1999/xlink">
<g id="graph0" class="graph" transform="scale(1 1) rotate(0) translate(4 232.38)">
<title>%3</title>
<polygon fill="white" stroke="transparent" points="-4,4 -4,-232.38 211.89,-232.38 211.89,4 -4,4"/>
<!-- (J,G) 1.0 -->
<g id="node1" class="node">
<title>(J,G) 1.0</title>
<ellipse fill="none" stroke="black" cx="104.1" cy="-180.29" rx="48.19" ry="48.19"/>
<text text-anchor="middle" x="104.1" y="-176.59" font-family="Times,serif" font-size="14.00">(J,G) 1.0</text>
</g>
<!-- (J,K) 2.0 -->
<g id="node2" class="node">
<title>(J,K) 2.0</title>
<ellipse fill="none" stroke="black" cx="48.1" cy="-48.1" rx="48.19" ry="48.19"/>
<text text-anchor="middle" x="48.1" y="-44.4" font-family="Times,serif" font-size="14.00">(J,K) 2.0</text>
</g>
<!-- (J,G) 1.0&#45;&gt;(J,K) 2.0 -->
<g id="edge1" class="edge">
<title>(J,G) 1.0&#45;&gt;(J,K) 2.0</title>
<path fill="none" stroke="black" d="M85.45,-135.94C80.78,-125.07 75.71,-113.29 70.86,-102.02"/>
<polygon fill="black" stroke="black" points="74.02,-100.51 66.85,-92.7 67.59,-103.27 74.02,-100.51"/>
</g>
<!-- (J,p) 1.0 -->
<g id="node3" class="node">
<title>(J,p) 1.0</title>
<ellipse fill="none" stroke="black" cx="161.1" cy="-48.1" rx="46.59" ry="46.59"/>
<text text-anchor="middle" x="161.1" y="-44.4" font-family="Times,serif" font-size="14.00">(J,p) 1.0</text>
</g>
<!-- (J,G) 1.0&#45;&gt;(J,p) 1.0 -->
<g id="edge2" class="edge">
<title>(J,G) 1.0&#45;&gt;(J,p) 1.0</title>
<path fill="none" stroke="black" d="M123.08,-135.94C128.03,-124.61 133.43,-112.3 138.55,-100.6"/>
<polygon fill="black" stroke="black" points="141.78,-101.94 142.59,-91.37 135.37,-99.13 141.78,-101.94"/>
</g>
</g>
</svg>
