<?xml version="1.0" encoding="UTF-8" standalone="no"?>
<!DOCTYPE svg PUBLIC "-//W3C//DTD SVG 1.1//EN"
 "http://www.w3.org/Graphics/SVG/1.1/DTD/svg11.dtd">
<!-- Generated by graphviz version 2.43.0 (0)
 -->
<!-- Title: %3 Pages: 1 -->
<svg width="236pt" height="392pt"
 viewBox="0.00 0.00 236.29 391.97" xmlns="http://www.w3.org/2000/svg" xmlns:xlink="http://www.w3.org/1999/xlink">
<g id="graph0" class="graph" transform="scale(1 1) rotate(0) translate(4 387.97)">
<title>%3</title>
<polygon fill="white" stroke="transparent" points="-4,4 -4,-387.97 232.29,-387.97 232.29,4 -4,4"/>
<!-- (m,k) 3.0 -->
<g id="node1" class="node">
<title>(m,k) 3.0</title>
<ellipse fill="none" stroke="black" cx="113.65" cy="-331.98" rx="51.99" ry="51.99"/>
<text text-anchor="middle" x="113.65" y="-328.28" font-family="Times,serif" font-size="14.00">(m,k) 3.0</text>
</g>
<!-- (m,L) 4.0 -->
<g id="node2" class="node">
<title>(m,L) 4.0</title>
<ellipse fill="none" stroke="black" cx="52.65" cy="-191.34" rx="52.79" ry="52.79"/>
<text text-anchor="middle" x="52.65" y="-187.64" font-family="Times,serif" font-size="14.00">(m,L) 4.0</text>
</g>
<!-- (m,k) 3.0&#45;&gt;(m,L) 4.0 -->
<g id="edge1" class="edge">
<title>(m,k) 3.0&#45;&gt;(m,L) 4.0</title>
<path fill="none" stroke="black" d="M92.99,-284.04C88.03,-272.76 82.68,-260.59 77.54,-248.92"/>
<polygon fill="black" stroke="black" points="80.71,-247.44 73.48,-239.7 74.31,-250.26 80.71,-247.44"/>
</g>
<!-- (m,q) 3.0 -->
<g id="node3" class="node">
<title>(m,q) 3.0</title>
<ellipse fill="none" stroke="black" cx="175.65" cy="-191.34" rx="52.79" ry="52.79"/>
<text text-anchor="middle" x="175.65" y="-187.64" font-family="Times,serif" font-size="14.00">(m,q) 3.0</text>
</g>
<!-- (m,k) 3.0&#45;&gt;(m,q) 3.0 -->
<g id="edge2" class="edge">
<title>(m,k) 3.0&#45;&gt;(m,q) 3.0</title>
<path fill="none" stroke="black" d="M134.64,-284.04C139.68,-272.76 145.12,-260.59 150.34,-248.92"/>
<polygon fill="black" stroke="black" points="153.58,-250.25 154.47,-239.7 147.19,-247.4 153.58,-250.25"/>
</g>
<!-- (m,r) 4.0 -->
<g id="node4" class="node">
<title>(m,r) 4.0</title>
<ellipse fill="none" stroke="black" cx="52.65" cy="-51.35" rx="51.19" ry="51.19"/>
<text text-anchor="middle" x="52.65" y="-47.65" font-family="Times,serif" font-size="14.00">(m,r) 4.0</text>
</g>
<!-- (m,L) 4.0&#45;&gt;(m,r) 4.0 -->
<g id="edge3" class="edge">
<title>(m,L) 4.0&#45;&gt;(m,r) 4.0</title>
<path fill="none" stroke="black" d="M52.65,-138.56C52.65,-130.3 52.65,-121.68 52.65,-113.23"/>
<polygon fill="black" stroke="black" points="56.15,-113.04 52.65,-103.04 49.15,-113.04 56.15,-113.04"/>
</g>
</g>
</svg>
