<?xml version="1.0" encoding="UTF-8" standalone="no"?>
<!DOCTYPE svg PUBLIC "-//W3C//DTD SVG 1.1//EN"
 "http://www.w3.org/Graphics/SVG/1.1/DTD/svg11.dtd">
<!-- Generated by graphviz version 2.43.0 (0)
 -->
<!-- Title: %3 Pages: 1 -->
<svg width="224pt" height="244pt"
 viewBox="0.00 0.00 224.44 244.18" xmlns="http://www.w3.org/2000/svg" xmlns:xlink="http://www.w3.org/1999/xlink">
<g id="graph0" class="graph" transform="scale(1 1) rotate(0) translate(4 240.18)">
<title>%3</title>
<polygon fill="white" stroke="transparent" points="-4,4 -4,-240.18 220.44,-240.18 220.44,4 -4,4"/>
<!-- (p,q) 1.0 -->
<g id="node1" class="node">
<title>(p,q) 1.0</title>
<ellipse fill="none" stroke="black" cx="108.05" cy="-186.14" rx="50.09" ry="50.09"/>
<text text-anchor="middle" x="108.05" y="-182.44" font-family="Times,serif" font-size="14.00">(p,q) 1.0</text>
</g>
<!-- (p,L) 6.0 -->
<g id="node2" class="node">
<title>(p,L) 6.0</title>
<ellipse fill="none" stroke="black" cx="50.05" cy="-50.05" rx="50.09" ry="50.09"/>
<text text-anchor="middle" x="50.05" y="-46.35" font-family="Times,serif" font-size="14.00">(p,L) 6.0</text>
</g>
<!-- (p,q) 1.0&#45;&gt;(p,L) 6.0 -->
<g id="edge1" class="edge">
<title>(p,q) 1.0&#45;&gt;(p,L) 6.0</title>
<path fill="none" stroke="black" d="M88.41,-139.74C83.69,-128.82 78.59,-117.04 73.7,-105.74"/>
<polygon fill="black" stroke="black" points="76.84,-104.18 69.66,-96.4 70.42,-106.96 76.84,-104.18"/>
</g>
<!-- (p,o) 3.0 -->
<g id="node3" class="node">
<title>(p,o) 3.0</title>
<ellipse fill="none" stroke="black" cx="167.05" cy="-50.05" rx="49.29" ry="49.29"/>
<text text-anchor="middle" x="167.05" y="-46.35" font-family="Times,serif" font-size="14.00">(p,o) 3.0</text>
</g>
<!-- (p,q) 1.0&#45;&gt;(p,o) 3.0 -->
<g id="edge2" class="edge">
<title>(p,q) 1.0&#45;&gt;(p,o) 3.0</title>
<path fill="none" stroke="black" d="M127.86,-140.11C132.82,-128.83 138.2,-116.6 143.33,-104.93"/>
<polygon fill="black" stroke="black" points="146.56,-106.28 147.39,-95.72 140.16,-103.47 146.56,-106.28"/>
</g>
</g>
</svg>
