<?xml version="1.0" encoding="UTF-8" standalone="no"?>
<!DOCTYPE svg PUBLIC "-//W3C//DTD SVG 1.1//EN"
 "http://www.w3.org/Graphics/SVG/1.1/DTD/svg11.dtd">
<!-- Generated by graphviz version 2.43.0 (0)
 -->
<!-- Title: %3 Pages: 1 -->
<svg width="238pt" height="257pt"
 viewBox="0.00 0.00 237.94 257.18" xmlns="http://www.w3.org/2000/svg" xmlns:xlink="http://www.w3.org/1999/xlink">
<g id="graph0" class="graph" transform="scale(1 1) rotate(0) translate(4 253.18)">
<title>%3</title>
<polygon fill="white" stroke="transparent" points="-4,4 -4,-253.18 233.94,-253.18 233.94,4 -4,4"/>
<!-- (H,D) 2.0 -->
<g id="node1" class="node">
<title>(H,D) 2.0</title>
<ellipse fill="none" stroke="black" cx="114.65" cy="-195.89" rx="53.09" ry="53.09"/>
<text text-anchor="middle" x="114.65" y="-192.19" font-family="Times,serif" font-size="14.00">(H,D) 2.0</text>
</g>
<!-- (H,C) 4.0 -->
<g id="node2" class="node">
<title>(H,C) 4.0</title>
<ellipse fill="none" stroke="black" cx="52.65" cy="-53.3" rx="52.79" ry="52.79"/>
<text text-anchor="middle" x="52.65" y="-49.6" font-family="Times,serif" font-size="14.00">(H,C) 4.0</text>
</g>
<!-- (H,D) 2.0&#45;&gt;(H,C) 4.0 -->
<g id="edge1" class="edge">
<title>(H,D) 2.0&#45;&gt;(H,C) 4.0</title>
<path fill="none" stroke="black" d="M93.48,-146.9C88.44,-135.47 83.02,-123.17 77.82,-111.38"/>
<polygon fill="black" stroke="black" points="80.95,-109.81 73.71,-102.07 74.55,-112.63 80.95,-109.81"/>
</g>
<!-- (H,G) 2.0 -->
<g id="node3" class="node">
<title>(H,G) 2.0</title>
<ellipse fill="none" stroke="black" cx="176.65" cy="-53.3" rx="53.09" ry="53.09"/>
<text text-anchor="middle" x="176.65" y="-49.6" font-family="Times,serif" font-size="14.00">(H,G) 2.0</text>
</g>
<!-- (H,D) 2.0&#45;&gt;(H,G) 2.0 -->
<g id="edge2" class="edge">
<title>(H,D) 2.0&#45;&gt;(H,G) 2.0</title>
<path fill="none" stroke="black" d="M135.81,-146.9C140.79,-135.6 146.15,-123.44 151.3,-111.77"/>
<polygon fill="black" stroke="black" points="154.53,-113.11 155.37,-102.55 148.13,-110.28 154.53,-113.11"/>
</g>
</g>
</svg>
