<?xml version="1.0" encoding="UTF-8" standalone="no"?>
<!DOCTYPE svg PUBLIC "-//W3C//DTD SVG 1.1//EN"
 "http://www.w3.org/Graphics/SVG/1.1/DTD/svg11.dtd">
<!-- Generated by graphviz version 2.43.0 (0)
 -->
<!-- Title: %3 Pages: 1 -->
<svg width="598pt" height="533pt"
 viewBox="0.00 0.00 598.04 533.26" xmlns="http://www.w3.org/2000/svg" xmlns:xlink="http://www.w3.org/1999/xlink">
<g id="graph0" class="graph" transform="scale(1 1) rotate(0) translate(4 529.26)">
<title>%3</title>
<polygon fill="white" stroke="transparent" points="-4,4 -4,-529.26 594.04,-529.26 594.04,4 -4,4"/>
<!-- (A,B) 1.0 -->
<g id="node1" class="node">
<title>(A,B) 1.0</title>
<ellipse fill="none" stroke="black" cx="358.65" cy="-473.92" rx="51.19" ry="51.19"/>
<text text-anchor="middle" x="358.65" y="-470.22" font-family="Times,serif" font-size="14.00">(A,B) 1.0</text>
</g>
<!-- (A,C) 2.0 -->
<g id="node2" class="node">
<title>(A,C) 2.0</title>
<ellipse fill="none" stroke="black" cx="296.65" cy="-335.23" rx="51.19" ry="51.19"/>
<text text-anchor="middle" x="296.65" y="-331.53" font-family="Times,serif" font-size="14.00">(A,C) 2.0</text>
</g>
<!-- (A,B) 1.0&#45;&gt;(A,C) 2.0 -->
<g id="edge1" class="edge">
<title>(A,B) 1.0&#45;&gt;(A,C) 2.0</title>
<path fill="none" stroke="black" d="M337.65,-426.64C332.55,-415.4 327.05,-403.26 321.78,-391.64"/>
<polygon fill="black" stroke="black" points="324.93,-390.12 317.61,-382.46 318.56,-393.01 324.93,-390.12"/>
</g>
<!-- (H,I) 1.0 -->
<g id="node3" class="node">
<title>(H,I) 1.0</title>
<ellipse fill="none" stroke="black" cx="420.65" cy="-335.23" rx="49.29" ry="49.29"/>
<text text-anchor="middle" x="420.65" y="-331.53" font-family="Times,serif" font-size="14.00">(H,I) 1.0</text>
</g>
<!-- (A,B) 1.0&#45;&gt;(H,I) 1.0 -->
<g id="edge2" class="edge">
<title>(A,B) 1.0&#45;&gt;(H,I) 1.0</title>
<path fill="none" stroke="black" d="M379.64,-426.64C385.01,-414.79 390.84,-401.95 396.36,-389.77"/>
<polygon fill="black" stroke="black" points="399.57,-391.16 400.52,-380.61 393.2,-388.27 399.57,-391.16"/>
</g>
<!-- (H,D) 2.0 -->
<g id="node4" class="node">
<title>(H,D) 2.0</title>
<ellipse fill="none" stroke="black" cx="171.65" cy="-194.59" rx="53.09" ry="53.09"/>
<text text-anchor="middle" x="171.65" y="-190.89" font-family="Times,serif" font-size="14.00">(H,D) 2.0</text>
</g>
<!-- (A,C) 2.0&#45;&gt;(H,D) 2.0 -->
<g id="edge3" class="edge">
<title>(A,C) 2.0&#45;&gt;(H,D) 2.0</title>
<path fill="none" stroke="black" d="M262.49,-296.34C247.57,-279.8 229.92,-260.22 214.16,-242.74"/>
<polygon fill="black" stroke="black" points="216.36,-239.96 207.07,-234.87 211.17,-244.65 216.36,-239.96"/>
</g>
<!-- (H,G) 2.0 -->
<g id="node5" class="node">
<title>(H,G) 2.0</title>
<ellipse fill="none" stroke="black" cx="296.65" cy="-194.59" rx="53.09" ry="53.09"/>
<text text-anchor="middle" x="296.65" y="-190.89" font-family="Times,serif" font-size="14.00">(H,G) 2.0</text>
</g>
<!-- (A,C) 2.0&#45;&gt;(H,G) 2.0 -->
<g id="edge4" class="edge">
<title>(A,C) 2.0&#45;&gt;(H,G) 2.0</title>
<path fill="none" stroke="black" d="M296.65,-283.78C296.65,-275.53 296.65,-266.88 296.65,-258.37"/>
<polygon fill="black" stroke="black" points="300.15,-258.09 296.65,-248.09 293.15,-258.09 300.15,-258.09"/>
</g>
<!-- (H,C) 4.0 -->
<g id="node6" class="node">
<title>(H,C) 4.0</title>
<ellipse fill="none" stroke="black" cx="420.65" cy="-194.59" rx="52.79" ry="52.79"/>
<text text-anchor="middle" x="420.65" y="-190.89" font-family="Times,serif" font-size="14.00">(H,C) 4.0</text>
</g>
<!-- (H,I) 1.0&#45;&gt;(H,C) 4.0 -->
<g id="edge5" class="edge">
<title>(H,I) 1.0&#45;&gt;(H,C) 4.0</title>
<path fill="none" stroke="black" d="M420.65,-285.74C420.65,-276.68 420.65,-267.09 420.65,-257.69"/>
<polygon fill="black" stroke="black" points="424.15,-257.59 420.65,-247.59 417.15,-257.59 424.15,-257.59"/>
</g>
<!-- (H,J) 2.0 -->
<g id="node7" class="node">
<title>(H,J) 2.0</title>
<ellipse fill="none" stroke="black" cx="540.65" cy="-194.59" rx="49.29" ry="49.29"/>
<text text-anchor="middle" x="540.65" y="-190.89" font-family="Times,serif" font-size="14.00">(H,J) 2.0</text>
</g>
<!-- (H,I) 1.0&#45;&gt;(H,J) 2.0 -->
<g id="edge6" class="edge">
<title>(H,I) 1.0&#45;&gt;(H,J) 2.0</title>
<path fill="none" stroke="black" d="M452.49,-297.44C467.68,-279.89 485.98,-258.74 501.96,-240.28"/>
<polygon fill="black" stroke="black" points="504.76,-242.4 508.65,-232.55 499.46,-237.82 504.76,-242.4"/>
</g>
<!-- (H,K) 3.0 -->
<g id="node8" class="node">
<title>(H,K) 3.0</title>
<ellipse fill="none" stroke="black" cx="52.65" cy="-52.65" rx="52.79" ry="52.79"/>
<text text-anchor="middle" x="52.65" y="-48.95" font-family="Times,serif" font-size="14.00">(H,K) 3.0</text>
</g>
<!-- (H,D) 2.0&#45;&gt;(H,K) 3.0 -->
<g id="edge7" class="edge">
<title>(H,D) 2.0&#45;&gt;(H,K) 3.0</title>
<path fill="none" stroke="black" d="M137.54,-153.48C123.61,-137.1 107.38,-118.01 92.87,-100.95"/>
<polygon fill="black" stroke="black" points="95.48,-98.62 86.34,-93.27 90.15,-103.15 95.48,-98.62"/>
</g>
<!-- (D,A) 3.0 -->
<g id="node9" class="node">
<title>(D,A) 3.0</title>
<ellipse fill="none" stroke="black" cx="174.65" cy="-52.65" rx="51.19" ry="51.19"/>
<text text-anchor="middle" x="174.65" y="-48.95" font-family="Times,serif" font-size="14.00">(D,A) 3.0</text>
</g>
<!-- (H,D) 2.0&#45;&gt;(D,A) 3.0 -->
<g id="edge8" class="edge">
<title>(H,D) 2.0&#45;&gt;(D,A) 3.0</title>
<path fill="none" stroke="black" d="M172.77,-141.08C172.96,-132.29 173.16,-123.11 173.35,-114.13"/>
<polygon fill="black" stroke="black" points="176.85,-114.2 173.56,-104.13 169.85,-114.05 176.85,-114.2"/>
</g>
<!-- (A,c) 3.0 -->
<g id="node10" class="node">
<title>(A,c) 3.0</title>
<ellipse fill="none" stroke="black" cx="296.65" cy="-52.65" rx="49.29" ry="49.29"/>
<text text-anchor="middle" x="296.65" y="-48.95" font-family="Times,serif" font-size="14.00">(A,c) 3.0</text>
</g>
<!-- (H,G) 2.0&#45;&gt;(A,c) 3.0 -->
<g id="edge9" class="edge">
<title>(H,G) 2.0&#45;&gt;(A,c) 3.0</title>
<path fill="none" stroke="black" d="M296.65,-141.08C296.65,-131.74 296.65,-121.95 296.65,-112.45"/>
<polygon fill="black" stroke="black" points="300.15,-112.29 296.65,-102.29 293.15,-112.29 300.15,-112.29"/>
</g>
</g>
</svg>
