<?xml version="1.0" encoding="UTF-8" standalone="no"?>
<!DOCTYPE svg PUBLIC "-//W3C//DTD SVG 1.1//EN"
 "http://www.w3.org/Graphics/SVG/1.1/DTD/svg11.dtd">
<!-- Generated by graphviz version 2.43.0 (0)
 -->
<!-- Title: %3 Pages: 1 -->
<svg width="685pt" height="527pt"
 viewBox="0.00 0.00 685.04 526.76" xmlns="http://www.w3.org/2000/svg" xmlns:xlink="http://www.w3.org/1999/xlink">
<g id="graph0" class="graph" transform="scale(1 1) rotate(0) translate(4 522.76)">
<title>%3</title>
<polygon fill="white" stroke="transparent" points="-4,4 -4,-522.76 681.04,-522.76 681.04,4 -4,4"/>
<!-- (B,A) 1.0 -->
<g id="node1" class="node">
<title>(B,A) 1.0</title>
<ellipse fill="none" stroke="black" cx="382.4" cy="-467.42" rx="51.19" ry="51.19"/>
<text text-anchor="middle" x="382.4" y="-463.72" font-family="Times,serif" font-size="14.00">(B,A) 1.0</text>
</g>
<!-- (E,I) 2.0 -->
<g id="node2" class="node">
<title>(E,I) 2.0</title>
<ellipse fill="none" stroke="black" cx="325.4" cy="-331.98" rx="48.19" ry="48.19"/>
<text text-anchor="middle" x="325.4" y="-328.28" font-family="Times,serif" font-size="14.00">(E,I) 2.0</text>
</g>
<!-- (B,A) 1.0&#45;&gt;(E,I) 2.0 -->
<g id="edge1" class="edge">
<title>(B,A) 1.0&#45;&gt;(E,I) 2.0</title>
<path fill="none" stroke="black" d="M362.46,-419.75C357.79,-408.83 352.79,-397.11 348.02,-385.94"/>
<polygon fill="black" stroke="black" points="351.22,-384.53 344.08,-376.71 344.79,-387.28 351.22,-384.53"/>
</g>
<!-- (B,j) 1.0 -->
<g id="node3" class="node">
<title>(B,j) 1.0</title>
<ellipse fill="none" stroke="black" cx="504.4" cy="-331.98" rx="48.19" ry="48.19"/>
<text text-anchor="middle" x="504.4" y="-328.28" font-family="Times,serif" font-size="14.00">(B,j) 1.0</text>
</g>
<!-- (B,A) 1.0&#45;&gt;(B,j) 1.0 -->
<g id="edge2" class="edge">
<title>(B,A) 1.0&#45;&gt;(B,j) 1.0</title>
<path fill="none" stroke="black" d="M416.7,-428.89C431.86,-412.31 449.76,-392.74 465.42,-375.61"/>
<polygon fill="black" stroke="black" points="468.27,-377.68 472.44,-367.93 463.11,-372.95 468.27,-377.68"/>
</g>
<!-- (H,J) 2.0 -->
<g id="node4" class="node">
<title>(H,J) 2.0</title>
<ellipse fill="none" stroke="black" cx="169.4" cy="-195.24" rx="49.29" ry="49.29"/>
<text text-anchor="middle" x="169.4" y="-191.54" font-family="Times,serif" font-size="14.00">(H,J) 2.0</text>
</g>
<!-- (E,I) 2.0&#45;&gt;(H,J) 2.0 -->
<g id="edge3" class="edge">
<title>(E,I) 2.0&#45;&gt;(H,J) 2.0</title>
<path fill="none" stroke="black" d="M289.21,-299.73C266.89,-280.45 238.09,-255.57 214.32,-235.04"/>
<polygon fill="black" stroke="black" points="216.32,-232.14 206.46,-228.25 211.74,-237.44 216.32,-232.14"/>
</g>
<!-- (E,j) 2.0 -->
<g id="node5" class="node">
<title>(E,j) 2.0</title>
<ellipse fill="none" stroke="black" cx="325.4" cy="-195.24" rx="48.19" ry="48.19"/>
<text text-anchor="middle" x="325.4" y="-191.54" font-family="Times,serif" font-size="14.00">(E,j) 2.0</text>
</g>
<!-- (E,I) 2.0&#45;&gt;(E,j) 2.0 -->
<g id="edge4" class="edge">
<title>(E,I) 2.0&#45;&gt;(E,j) 2.0</title>
<path fill="none" stroke="black" d="M325.4,-283.85C325.4,-274.16 325.4,-263.86 325.4,-253.85"/>
<polygon fill="black" stroke="black" points="328.9,-253.56 325.4,-243.56 321.9,-253.56 328.9,-253.56"/>
</g>
<!-- (H,I) 1.0 -->
<g id="node6" class="node">
<title>(H,I) 1.0</title>
<ellipse fill="none" stroke="black" cx="504.4" cy="-195.24" rx="49.29" ry="49.29"/>
<text text-anchor="middle" x="504.4" y="-191.54" font-family="Times,serif" font-size="14.00">(H,I) 1.0</text>
</g>
<!-- (B,j) 1.0&#45;&gt;(H,I) 1.0 -->
<g id="edge5" class="edge">
<title>(B,j) 1.0&#45;&gt;(H,I) 1.0</title>
<path fill="none" stroke="black" d="M504.4,-283.85C504.4,-274.6 504.4,-264.79 504.4,-255.2"/>
<polygon fill="black" stroke="black" points="507.9,-254.93 504.4,-244.93 500.9,-254.93 507.9,-254.93"/>
</g>
<!-- (H,C) 4.0 -->
<g id="node7" class="node">
<title>(H,C) 4.0</title>
<ellipse fill="none" stroke="black" cx="624.4" cy="-195.24" rx="52.79" ry="52.79"/>
<text text-anchor="middle" x="624.4" y="-191.54" font-family="Times,serif" font-size="14.00">(H,C) 4.0</text>
</g>
<!-- (B,j) 1.0&#45;&gt;(H,C) 4.0 -->
<g id="edge6" class="edge">
<title>(B,j) 1.0&#45;&gt;(H,C) 4.0</title>
<path fill="none" stroke="black" d="M535.92,-295.58C550.26,-279.48 567.41,-260.22 582.78,-242.96"/>
<polygon fill="black" stroke="black" points="585.66,-244.99 589.7,-235.19 580.44,-240.33 585.66,-244.99"/>
</g>
<!-- (c,A) 3.0 -->
<g id="node8" class="node">
<title>(c,A) 3.0</title>
<ellipse fill="none" stroke="black" cx="49.4" cy="-53.3" rx="49.29" ry="49.29"/>
<text text-anchor="middle" x="49.4" y="-49.6" font-family="Times,serif" font-size="14.00">(c,A) 3.0</text>
</g>
<!-- (H,J) 2.0&#45;&gt;(c,A) 3.0 -->
<g id="edge7" class="edge">
<title>(H,J) 2.0&#45;&gt;(c,A) 3.0</title>
<path fill="none" stroke="black" d="M137.55,-157.1C122.36,-139.39 104.06,-118.05 88.08,-99.41"/>
<polygon fill="black" stroke="black" points="90.55,-96.92 81.39,-91.6 85.24,-101.47 90.55,-96.92"/>
</g>
<!-- (H,K) 3.0 -->
<g id="node9" class="node">
<title>(H,K) 3.0</title>
<ellipse fill="none" stroke="black" cx="169.4" cy="-53.3" rx="52.79" ry="52.79"/>
<text text-anchor="middle" x="169.4" y="-49.6" font-family="Times,serif" font-size="14.00">(H,K) 3.0</text>
</g>
<!-- (H,J) 2.0&#45;&gt;(H,K) 3.0 -->
<g id="edge8" class="edge">
<title>(H,J) 2.0&#45;&gt;(H,K) 3.0</title>
<path fill="none" stroke="black" d="M169.4,-145.68C169.4,-136.19 169.4,-126.12 169.4,-116.26"/>
<polygon fill="black" stroke="black" points="172.9,-116.1 169.4,-106.1 165.9,-116.1 172.9,-116.1"/>
</g>
<!-- (H,G) 2.0 -->
<g id="node10" class="node">
<title>(H,G) 2.0</title>
<ellipse fill="none" stroke="black" cx="293.4" cy="-53.3" rx="53.09" ry="53.09"/>
<text text-anchor="middle" x="293.4" y="-49.6" font-family="Times,serif" font-size="14.00">(H,G) 2.0</text>
</g>
<!-- (E,j) 2.0&#45;&gt;(H,G) 2.0 -->
<g id="edge9" class="edge">
<title>(E,j) 2.0&#45;&gt;(H,G) 2.0</title>
<path fill="none" stroke="black" d="M314.83,-148.03C312.46,-137.66 309.91,-126.51 307.42,-115.64"/>
<polygon fill="black" stroke="black" points="310.81,-114.74 305.17,-105.77 303.98,-116.3 310.81,-114.74"/>
</g>
<!-- (B,h) 3.0 -->
<g id="node11" class="node">
<title>(B,h) 3.0</title>
<ellipse fill="none" stroke="black" cx="415.4" cy="-53.3" rx="50.89" ry="50.89"/>
<text text-anchor="middle" x="415.4" y="-49.6" font-family="Times,serif" font-size="14.00">(B,h) 3.0</text>
</g>
<!-- (E,j) 2.0&#45;&gt;(B,h) 3.0 -->
<g id="edge10" class="edge">
<title>(E,j) 2.0&#45;&gt;(B,h) 3.0</title>
<path fill="none" stroke="black" d="M351.19,-154.13C361,-138.87 372.32,-121.27 382.7,-105.14"/>
<polygon fill="black" stroke="black" points="385.88,-106.66 388.35,-96.35 379.99,-102.87 385.88,-106.66"/>
</g>
<!-- (H,D) 2.0 -->
<g id="node12" class="node">
<title>(H,D) 2.0</title>
<ellipse fill="none" stroke="black" cx="537.4" cy="-53.3" rx="53.09" ry="53.09"/>
<text text-anchor="middle" x="537.4" y="-49.6" font-family="Times,serif" font-size="14.00">(H,D) 2.0</text>
</g>
<!-- (H,I) 1.0&#45;&gt;(H,D) 2.0 -->
<g id="edge11" class="edge">
<title>(H,I) 1.0&#45;&gt;(H,D) 2.0</title>
<path fill="none" stroke="black" d="M515.57,-146.86C517.95,-136.76 520.49,-125.97 522.98,-115.44"/>
<polygon fill="black" stroke="black" points="526.44,-116 525.33,-105.46 519.63,-114.39 526.44,-116"/>
</g>
</g>
</svg>
