<?xml version="1.0" encoding="UTF-8" standalone="no"?>
<!DOCTYPE svg PUBLIC "-//W3C//DTD SVG 1.1//EN"
 "http://www.w3.org/Graphics/SVG/1.1/DTD/svg11.dtd">
<!-- Generated by graphviz version 2.43.0 (0)
 -->
<!-- Title: %3 Pages: 1 -->
<svg width="473pt" height="533pt"
 viewBox="0.00 0.00 472.94 533.26" xmlns="http://www.w3.org/2000/svg" xmlns:xlink="http://www.w3.org/1999/xlink">
<g id="graph0" class="graph" transform="scale(1 1) rotate(0) translate(4 529.26)">
<title>%3</title>
<polygon fill="white" stroke="transparent" points="-4,4 -4,-529.26 468.94,-529.26 468.94,4 -4,4"/>
<!-- (H,I) 1.0 -->
<g id="node1" class="node">
<title>(H,I) 1.0</title>
<ellipse fill="none" stroke="black" cx="232.3" cy="-475.87" rx="49.29" ry="49.29"/>
<text text-anchor="middle" x="232.3" y="-472.17" font-family="Times,serif" font-size="14.00">(H,I) 1.0</text>
</g>
<!-- (E,I) 2.0 -->
<g id="node2" class="node">
<title>(E,I) 2.0</title>
<ellipse fill="none" stroke="black" cx="172.3" cy="-337.18" rx="48.19" ry="48.19"/>
<text text-anchor="middle" x="172.3" y="-333.48" font-family="Times,serif" font-size="14.00">(E,I) 2.0</text>
</g>
<!-- (H,I) 1.0&#45;&gt;(E,I) 2.0 -->
<g id="edge1" class="edge">
<title>(H,I) 1.0&#45;&gt;(E,I) 2.0</title>
<path fill="none" stroke="black" d="M212.65,-430.11C207.15,-417.58 201.12,-403.84 195.44,-390.9"/>
<polygon fill="black" stroke="black" points="198.6,-389.39 191.37,-381.64 192.19,-392.2 198.6,-389.39"/>
</g>
<!-- (H,G) 2.0 -->
<g id="node3" class="node">
<title>(H,G) 2.0</title>
<ellipse fill="none" stroke="black" cx="292.3" cy="-337.18" rx="53.09" ry="53.09"/>
<text text-anchor="middle" x="292.3" y="-333.48" font-family="Times,serif" font-size="14.00">(H,G) 2.0</text>
</g>
<!-- (H,I) 1.0&#45;&gt;(H,G) 2.0 -->
<g id="edge2" class="edge">
<title>(H,I) 1.0&#45;&gt;(H,G) 2.0</title>
<path fill="none" stroke="black" d="M251.94,-430.11C256.75,-419.16 261.96,-407.29 266.99,-395.83"/>
<polygon fill="black" stroke="black" points="270.34,-396.9 271.16,-386.33 263.93,-394.08 270.34,-396.9"/>
</g>
<!-- (E,j) 2.0 -->
<g id="node4" class="node">
<title>(E,j) 2.0</title>
<ellipse fill="none" stroke="black" cx="53.3" cy="-195.24" rx="48.19" ry="48.19"/>
<text text-anchor="middle" x="53.3" y="-191.54" font-family="Times,serif" font-size="14.00">(E,j) 2.0</text>
</g>
<!-- (E,I) 2.0&#45;&gt;(E,j) 2.0 -->
<g id="edge3" class="edge">
<title>(E,I) 2.0&#45;&gt;(E,j) 2.0</title>
<path fill="none" stroke="black" d="M141.34,-299.77C125.85,-281.55 106.97,-259.35 90.67,-240.19"/>
<polygon fill="black" stroke="black" points="93.24,-237.81 84.1,-232.46 87.91,-242.34 93.24,-237.81"/>
</g>
<!-- (H,C) 4.0 -->
<g id="node5" class="node">
<title>(H,C) 4.0</title>
<ellipse fill="none" stroke="black" cx="172.3" cy="-195.24" rx="52.79" ry="52.79"/>
<text text-anchor="middle" x="172.3" y="-191.54" font-family="Times,serif" font-size="14.00">(H,C) 4.0</text>
</g>
<!-- (E,I) 2.0&#45;&gt;(H,C) 4.0 -->
<g id="edge4" class="edge">
<title>(E,I) 2.0&#45;&gt;(H,C) 4.0</title>
<path fill="none" stroke="black" d="M172.3,-288.8C172.3,-278.93 172.3,-268.38 172.3,-258.08"/>
<polygon fill="black" stroke="black" points="175.8,-257.88 172.3,-247.88 168.8,-257.88 175.8,-257.88"/>
</g>
<!-- (H,J) 2.0 -->
<g id="node6" class="node">
<title>(H,J) 2.0</title>
<ellipse fill="none" stroke="black" cx="292.3" cy="-195.24" rx="49.29" ry="49.29"/>
<text text-anchor="middle" x="292.3" y="-191.54" font-family="Times,serif" font-size="14.00">(H,J) 2.0</text>
</g>
<!-- (H,G) 2.0&#45;&gt;(H,J) 2.0 -->
<g id="edge5" class="edge">
<title>(H,G) 2.0&#45;&gt;(H,J) 2.0</title>
<path fill="none" stroke="black" d="M292.3,-283.67C292.3,-274.33 292.3,-264.54 292.3,-255.04"/>
<polygon fill="black" stroke="black" points="295.8,-254.88 292.3,-244.88 288.8,-254.88 295.8,-254.88"/>
</g>
<!-- (H,K) 3.0 -->
<g id="node7" class="node">
<title>(H,K) 3.0</title>
<ellipse fill="none" stroke="black" cx="412.3" cy="-195.24" rx="52.79" ry="52.79"/>
<text text-anchor="middle" x="412.3" y="-191.54" font-family="Times,serif" font-size="14.00">(H,K) 3.0</text>
</g>
<!-- (H,G) 2.0&#45;&gt;(H,K) 3.0 -->
<g id="edge6" class="edge">
<title>(H,G) 2.0&#45;&gt;(H,K) 3.0</title>
<path fill="none" stroke="black" d="M326.68,-296.08C340.74,-279.69 357.1,-260.61 371.73,-243.54"/>
<polygon fill="black" stroke="black" points="374.47,-245.73 378.32,-235.86 369.15,-241.17 374.47,-245.73"/>
</g>
<!-- (H,D) 2.0 -->
<g id="node8" class="node">
<title>(H,D) 2.0</title>
<ellipse fill="none" stroke="black" cx="53.3" cy="-53.3" rx="53.09" ry="53.09"/>
<text text-anchor="middle" x="53.3" y="-49.6" font-family="Times,serif" font-size="14.00">(H,D) 2.0</text>
</g>
<!-- (E,j) 2.0&#45;&gt;(H,D) 2.0 -->
<g id="edge7" class="edge">
<title>(E,j) 2.0&#45;&gt;(H,D) 2.0</title>
<path fill="none" stroke="black" d="M53.3,-146.86C53.3,-137.32 53.3,-127.16 53.3,-117.2"/>
<polygon fill="black" stroke="black" points="56.8,-116.91 53.3,-106.91 49.8,-116.91 56.8,-116.91"/>
</g>
</g>
</svg>
