<?xml version="1.0" encoding="UTF-8" standalone="no"?>
<!DOCTYPE svg PUBLIC "-//W3C//DTD SVG 1.1//EN"
 "http://www.w3.org/Graphics/SVG/1.1/DTD/svg11.dtd">
<!-- Generated by graphviz version 2.43.0 (0)
 -->
<!-- Title: %3 Pages: 1 -->
<svg width="595pt" height="529pt"
 viewBox="0.00 0.00 595.04 529.36" xmlns="http://www.w3.org/2000/svg" xmlns:xlink="http://www.w3.org/1999/xlink">
<g id="graph0" class="graph" transform="scale(1 1) rotate(0) translate(4 525.36)">
<title>%3</title>
<polygon fill="white" stroke="transparent" points="-4,4 -4,-525.36 591.04,-525.36 591.04,4 -4,4"/>
<!-- (B,A) 1.0 -->
<g id="node1" class="node">
<title>(B,A) 1.0</title>
<ellipse fill="none" stroke="black" cx="357.65" cy="-470.02" rx="51.19" ry="51.19"/>
<text text-anchor="middle" x="357.65" y="-466.32" font-family="Times,serif" font-size="14.00">(B,A) 1.0</text>
</g>
<!-- (B,j) 1.0 -->
<g id="node2" class="node">
<title>(B,j) 1.0</title>
<ellipse fill="none" stroke="black" cx="298.65" cy="-333.28" rx="48.19" ry="48.19"/>
<text text-anchor="middle" x="298.65" y="-329.58" font-family="Times,serif" font-size="14.00">(B,j) 1.0</text>
</g>
<!-- (B,A) 1.0&#45;&gt;(B,j) 1.0 -->
<g id="edge1" class="edge">
<title>(B,A) 1.0&#45;&gt;(B,j) 1.0</title>
<path fill="none" stroke="black" d="M337.34,-422.65C332.29,-411.11 326.84,-398.67 321.67,-386.86"/>
<polygon fill="black" stroke="black" points="324.81,-385.31 317.6,-377.56 318.4,-388.12 324.81,-385.31"/>
</g>
<!-- (H,I) 1.0 -->
<g id="node3" class="node">
<title>(H,I) 1.0</title>
<ellipse fill="none" stroke="black" cx="417.65" cy="-333.28" rx="49.29" ry="49.29"/>
<text text-anchor="middle" x="417.65" y="-329.58" font-family="Times,serif" font-size="14.00">(H,I) 1.0</text>
</g>
<!-- (B,A) 1.0&#45;&gt;(H,I) 1.0 -->
<g id="edge2" class="edge">
<title>(B,A) 1.0&#45;&gt;(H,I) 1.0</title>
<path fill="none" stroke="black" d="M378.29,-422.65C383.22,-411.59 388.52,-399.68 393.58,-388.31"/>
<polygon fill="black" stroke="black" points="396.9,-389.47 397.77,-378.91 390.5,-386.62 396.9,-389.47"/>
</g>
<!-- (E,j) 2.0 -->
<g id="node4" class="node">
<title>(E,j) 2.0</title>
<ellipse fill="none" stroke="black" cx="176.65" cy="-195.24" rx="48.19" ry="48.19"/>
<text text-anchor="middle" x="176.65" y="-191.54" font-family="Times,serif" font-size="14.00">(E,j) 2.0</text>
</g>
<!-- (B,j) 1.0&#45;&gt;(E,j) 2.0 -->
<g id="edge3" class="edge">
<title>(B,j) 1.0&#45;&gt;(E,j) 2.0</title>
<path fill="none" stroke="black" d="M266.91,-296.89C251.22,-279.39 232.14,-258.12 215.57,-239.65"/>
<polygon fill="black" stroke="black" points="217.93,-237.03 208.65,-231.92 212.72,-241.7 217.93,-237.03"/>
</g>
<!-- (E,I) 2.0 -->
<g id="node5" class="node">
<title>(E,I) 2.0</title>
<ellipse fill="none" stroke="black" cx="298.65" cy="-195.24" rx="48.19" ry="48.19"/>
<text text-anchor="middle" x="298.65" y="-191.54" font-family="Times,serif" font-size="14.00">(E,I) 2.0</text>
</g>
<!-- (B,j) 1.0&#45;&gt;(E,I) 2.0 -->
<g id="edge4" class="edge">
<title>(B,j) 1.0&#45;&gt;(E,I) 2.0</title>
<path fill="none" stroke="black" d="M298.65,-285.08C298.65,-274.95 298.65,-264.14 298.65,-253.67"/>
<polygon fill="black" stroke="black" points="302.15,-253.35 298.65,-243.35 295.15,-253.35 302.15,-253.35"/>
</g>
<!-- (H,C) 4.0 -->
<g id="node6" class="node">
<title>(H,C) 4.0</title>
<ellipse fill="none" stroke="black" cx="417.65" cy="-195.24" rx="52.79" ry="52.79"/>
<text text-anchor="middle" x="417.65" y="-191.54" font-family="Times,serif" font-size="14.00">(H,C) 4.0</text>
</g>
<!-- (H,I) 1.0&#45;&gt;(H,C) 4.0 -->
<g id="edge5" class="edge">
<title>(H,I) 1.0&#45;&gt;(H,C) 4.0</title>
<path fill="none" stroke="black" d="M417.65,-283.55C417.65,-275.42 417.65,-266.89 417.65,-258.47"/>
<polygon fill="black" stroke="black" points="421.15,-258.31 417.65,-248.31 414.15,-258.31 421.15,-258.31"/>
</g>
<!-- (H,J) 2.0 -->
<g id="node7" class="node">
<title>(H,J) 2.0</title>
<ellipse fill="none" stroke="black" cx="537.65" cy="-195.24" rx="49.29" ry="49.29"/>
<text text-anchor="middle" x="537.65" y="-191.54" font-family="Times,serif" font-size="14.00">(H,J) 2.0</text>
</g>
<!-- (H,I) 1.0&#45;&gt;(H,J) 2.0 -->
<g id="edge6" class="edge">
<title>(H,I) 1.0&#45;&gt;(H,J) 2.0</title>
<path fill="none" stroke="black" d="M450.12,-295.46C464.93,-278.68 482.59,-258.65 498.16,-241"/>
<polygon fill="black" stroke="black" points="501.16,-242.89 505.15,-233.08 495.91,-238.26 501.16,-242.89"/>
</g>
<!-- (H,K) 3.0 -->
<g id="node8" class="node">
<title>(H,K) 3.0</title>
<ellipse fill="none" stroke="black" cx="52.65" cy="-53.3" rx="52.79" ry="52.79"/>
<text text-anchor="middle" x="52.65" y="-49.6" font-family="Times,serif" font-size="14.00">(H,K) 3.0</text>
</g>
<!-- (E,j) 2.0&#45;&gt;(H,K) 3.0 -->
<g id="edge7" class="edge">
<title>(E,j) 2.0&#45;&gt;(H,K) 3.0</title>
<path fill="none" stroke="black" d="M145.03,-158.56C129.59,-141.13 110.8,-119.93 94.21,-101.2"/>
<polygon fill="black" stroke="black" points="96.5,-98.51 87.25,-93.35 91.26,-103.16 96.5,-98.51"/>
</g>
<!-- (H,G) 2.0 -->
<g id="node9" class="node">
<title>(H,G) 2.0</title>
<ellipse fill="none" stroke="black" cx="176.65" cy="-53.3" rx="53.09" ry="53.09"/>
<text text-anchor="middle" x="176.65" y="-49.6" font-family="Times,serif" font-size="14.00">(H,G) 2.0</text>
</g>
<!-- (E,j) 2.0&#45;&gt;(H,G) 2.0 -->
<g id="edge8" class="edge">
<title>(E,j) 2.0&#45;&gt;(H,G) 2.0</title>
<path fill="none" stroke="black" d="M176.65,-146.86C176.65,-137.32 176.65,-127.16 176.65,-117.2"/>
<polygon fill="black" stroke="black" points="180.15,-116.91 176.65,-106.91 173.15,-116.91 180.15,-116.91"/>
</g>
<!-- (B,h) 3.0 -->
<g id="node10" class="node">
<title>(B,h) 3.0</title>
<ellipse fill="none" stroke="black" cx="298.65" cy="-53.3" rx="50.89" ry="50.89"/>
<text text-anchor="middle" x="298.65" y="-49.6" font-family="Times,serif" font-size="14.00">(B,h) 3.0</text>
</g>
<!-- (E,I) 2.0&#45;&gt;(B,h) 3.0 -->
<g id="edge9" class="edge">
<title>(E,I) 2.0&#45;&gt;(B,h) 3.0</title>
<path fill="none" stroke="black" d="M298.65,-146.86C298.65,-136.4 298.65,-125.19 298.65,-114.31"/>
<polygon fill="black" stroke="black" points="302.15,-114.01 298.65,-104.01 295.15,-114.01 302.15,-114.01"/>
</g>
<!-- (H,D) 2.0 -->
<g id="node11" class="node">
<title>(H,D) 2.0</title>
<ellipse fill="none" stroke="black" cx="420.65" cy="-53.3" rx="53.09" ry="53.09"/>
<text text-anchor="middle" x="420.65" y="-49.6" font-family="Times,serif" font-size="14.00">(H,D) 2.0</text>
</g>
<!-- (E,I) 2.0&#45;&gt;(H,D) 2.0 -->
<g id="edge10" class="edge">
<title>(E,I) 2.0&#45;&gt;(H,D) 2.0</title>
<path fill="none" stroke="black" d="M330.06,-158.2C345.01,-141.05 363.09,-120.31 379.15,-101.89"/>
<polygon fill="black" stroke="black" points="381.96,-103.99 385.9,-94.15 376.69,-99.39 381.96,-103.99"/>
</g>
</g>
</svg>
