<?xml version="1.0" encoding="UTF-8" standalone="no"?>
<!DOCTYPE svg PUBLIC "-//W3C//DTD SVG 1.1//EN"
 "http://www.w3.org/Graphics/SVG/1.1/DTD/svg11.dtd">
<!-- Generated by graphviz version 2.43.0 (0)
 -->
<!-- Title: %3 Pages: 1 -->
<svg width="594pt" height="531pt"
 viewBox="0.00 0.00 593.64 530.66" xmlns="http://www.w3.org/2000/svg" xmlns:xlink="http://www.w3.org/1999/xlink">
<g id="graph0" class="graph" transform="scale(1 1) rotate(0) translate(4 526.66)">
<title>%3</title>
<polygon fill="white" stroke="transparent" points="-4,4 -4,-526.66 589.64,-526.66 589.64,4 -4,4"/>
<!-- (G,J) 1.0 -->
<g id="node1" class="node">
<title>(G,J) 1.0</title>
<ellipse fill="none" stroke="black" cx="353" cy="-474.57" rx="48.19" ry="48.19"/>
<text text-anchor="middle" x="353" y="-470.87" font-family="Times,serif" font-size="14.00">(G,J) 1.0</text>
</g>
<!-- (H,I) 1.0 -->
<g id="node2" class="node">
<title>(H,I) 1.0</title>
<ellipse fill="none" stroke="black" cx="293" cy="-337.18" rx="49.29" ry="49.29"/>
<text text-anchor="middle" x="293" y="-333.48" font-family="Times,serif" font-size="14.00">(H,I) 1.0</text>
</g>
<!-- (G,J) 1.0&#45;&gt;(H,I) 1.0 -->
<g id="edge1" class="edge">
<title>(G,J) 1.0&#45;&gt;(H,I) 1.0</title>
<path fill="none" stroke="black" d="M333.85,-430.36C328.49,-418.27 322.6,-404.98 317,-392.34"/>
<polygon fill="black" stroke="black" points="320.04,-390.56 312.79,-382.84 313.64,-393.4 320.04,-390.56"/>
</g>
<!-- (H,G) 2.0 -->
<g id="node3" class="node">
<title>(H,G) 2.0</title>
<ellipse fill="none" stroke="black" cx="414" cy="-337.18" rx="53.09" ry="53.09"/>
<text text-anchor="middle" x="414" y="-333.48" font-family="Times,serif" font-size="14.00">(H,G) 2.0</text>
</g>
<!-- (G,J) 1.0&#45;&gt;(H,G) 2.0 -->
<g id="edge2" class="edge">
<title>(G,J) 1.0&#45;&gt;(H,G) 2.0</title>
<path fill="none" stroke="black" d="M372.46,-430.36C377.47,-419.24 382.94,-407.11 388.21,-395.41"/>
<polygon fill="black" stroke="black" points="391.47,-396.7 392.39,-386.14 385.09,-393.82 391.47,-396.7"/>
</g>
<!-- (H,D) 2.0 -->
<g id="node4" class="node">
<title>(H,D) 2.0</title>
<ellipse fill="none" stroke="black" cx="173" cy="-194.59" rx="53.09" ry="53.09"/>
<text text-anchor="middle" x="173" y="-190.89" font-family="Times,serif" font-size="14.00">(H,D) 2.0</text>
</g>
<!-- (H,I) 1.0&#45;&gt;(H,D) 2.0 -->
<g id="edge3" class="edge">
<title>(H,I) 1.0&#45;&gt;(H,D) 2.0</title>
<path fill="none" stroke="black" d="M261.15,-298.87C246.82,-282.08 229.72,-262.04 214.41,-244.11"/>
<polygon fill="black" stroke="black" points="216.67,-241.36 207.52,-236.03 211.35,-245.91 216.67,-241.36"/>
</g>
<!-- (G,i) 4.0 -->
<g id="node5" class="node">
<title>(G,i) 4.0</title>
<ellipse fill="none" stroke="black" cx="295" cy="-194.59" rx="48.19" ry="48.19"/>
<text text-anchor="middle" x="295" y="-190.89" font-family="Times,serif" font-size="14.00">(G,i) 4.0</text>
</g>
<!-- (H,I) 1.0&#45;&gt;(G,i) 4.0 -->
<g id="edge4" class="edge">
<title>(H,I) 1.0&#45;&gt;(G,i) 4.0</title>
<path fill="none" stroke="black" d="M293.69,-287.4C293.85,-276.35 294.01,-264.51 294.18,-253.14"/>
<polygon fill="black" stroke="black" points="297.68,-252.9 294.32,-242.85 290.68,-252.8 297.68,-252.9"/>
</g>
<!-- (H,J) 2.0 -->
<g id="node6" class="node">
<title>(H,J) 2.0</title>
<ellipse fill="none" stroke="black" cx="413" cy="-194.59" rx="49.29" ry="49.29"/>
<text text-anchor="middle" x="413" y="-190.89" font-family="Times,serif" font-size="14.00">(H,J) 2.0</text>
</g>
<!-- (H,G) 2.0&#45;&gt;(H,J) 2.0 -->
<g id="edge5" class="edge">
<title>(H,G) 2.0&#45;&gt;(H,J) 2.0</title>
<path fill="none" stroke="black" d="M413.62,-283.83C413.55,-274.21 413.48,-264.11 413.41,-254.32"/>
<polygon fill="black" stroke="black" points="416.91,-254.23 413.34,-244.26 409.91,-254.28 416.91,-254.23"/>
</g>
<!-- (H,K) 3.0 -->
<g id="node7" class="node">
<title>(H,K) 3.0</title>
<ellipse fill="none" stroke="black" cx="533" cy="-194.59" rx="52.79" ry="52.79"/>
<text text-anchor="middle" x="533" y="-190.89" font-family="Times,serif" font-size="14.00">(H,K) 3.0</text>
</g>
<!-- (H,G) 2.0&#45;&gt;(H,K) 3.0 -->
<g id="edge6" class="edge">
<title>(H,G) 2.0&#45;&gt;(H,K) 3.0</title>
<path fill="none" stroke="black" d="M448.1,-295.89C462.03,-279.42 478.26,-260.25 492.77,-243.11"/>
<polygon fill="black" stroke="black" points="495.51,-245.29 499.3,-235.39 490.17,-240.76 495.51,-245.29"/>
</g>
<!-- (G,C) 3.0 -->
<g id="node8" class="node">
<title>(G,C) 3.0</title>
<ellipse fill="none" stroke="black" cx="52" cy="-52.65" rx="51.99" ry="51.99"/>
<text text-anchor="middle" x="52" y="-48.95" font-family="Times,serif" font-size="14.00">(G,C) 3.0</text>
</g>
<!-- (H,D) 2.0&#45;&gt;(G,C) 3.0 -->
<g id="edge7" class="edge">
<title>(H,D) 2.0&#45;&gt;(G,C) 3.0</title>
<path fill="none" stroke="black" d="M138.32,-153.48C124.03,-136.96 107.37,-117.69 92.52,-100.51"/>
<polygon fill="black" stroke="black" points="95.03,-98.06 85.84,-92.79 89.73,-102.64 95.03,-98.06"/>
</g>
<!-- (G,F) 3.0 -->
<g id="node9" class="node">
<title>(G,F) 3.0</title>
<ellipse fill="none" stroke="black" cx="173" cy="-52.65" rx="51.19" ry="51.19"/>
<text text-anchor="middle" x="173" y="-48.95" font-family="Times,serif" font-size="14.00">(G,F) 3.0</text>
</g>
<!-- (H,D) 2.0&#45;&gt;(G,F) 3.0 -->
<g id="edge8" class="edge">
<title>(H,D) 2.0&#45;&gt;(G,F) 3.0</title>
<path fill="none" stroke="black" d="M173,-141.08C173,-132.29 173,-123.11 173,-114.13"/>
<polygon fill="black" stroke="black" points="176.5,-114.13 173,-104.13 169.5,-114.13 176.5,-114.13"/>
</g>
<!-- (H,C) 4.0 -->
<g id="node10" class="node">
<title>(H,C) 4.0</title>
<ellipse fill="none" stroke="black" cx="295" cy="-52.65" rx="52.79" ry="52.79"/>
<text text-anchor="middle" x="295" y="-48.95" font-family="Times,serif" font-size="14.00">(H,C) 4.0</text>
</g>
<!-- (G,i) 4.0&#45;&gt;(H,C) 4.0 -->
<g id="edge9" class="edge">
<title>(G,i) 4.0&#45;&gt;(H,C) 4.0</title>
<path fill="none" stroke="black" d="M295,-146.21C295,-136.34 295,-125.79 295,-115.49"/>
<polygon fill="black" stroke="black" points="298.5,-115.29 295,-105.29 291.5,-115.29 298.5,-115.29"/>
</g>
<!-- (G,l) 4.0 -->
<g id="node11" class="node">
<title>(G,l) 4.0</title>
<ellipse fill="none" stroke="black" cx="414" cy="-52.65" rx="48.19" ry="48.19"/>
<text text-anchor="middle" x="414" y="-48.95" font-family="Times,serif" font-size="14.00">(G,l) 4.0</text>
</g>
<!-- (G,i) 4.0&#45;&gt;(G,l) 4.0 -->
<g id="edge10" class="edge">
<title>(G,i) 4.0&#45;&gt;(G,l) 4.0</title>
<path fill="none" stroke="black" d="M325.95,-157.18C341.45,-138.96 360.32,-116.76 376.62,-97.6"/>
<polygon fill="black" stroke="black" points="379.38,-99.75 383.2,-89.87 374.05,-95.22 379.38,-99.75"/>
</g>
</g>
</svg>
