<?xml version="1.0" encoding="UTF-8" standalone="no"?>
<!DOCTYPE svg PUBLIC "-//W3C//DTD SVG 1.1//EN"
 "http://www.w3.org/Graphics/SVG/1.1/DTD/svg11.dtd">
<!-- Generated by graphviz version 2.43.0 (0)
 -->
<!-- Title: %3 Pages: 1 -->
<svg width="596pt" height="524pt"
 viewBox="0.00 0.00 596.04 524.16" xmlns="http://www.w3.org/2000/svg" xmlns:xlink="http://www.w3.org/1999/xlink">
<g id="graph0" class="graph" transform="scale(1 1) rotate(0) translate(4 520.16)">
<title>%3</title>
<polygon fill="white" stroke="transparent" points="-4,4 -4,-520.16 592.04,-520.16 592.04,4 -4,4"/>
<!-- (H,I) 1.0 -->
<g id="node1" class="node">
<title>(H,I) 1.0</title>
<ellipse fill="none" stroke="black" cx="356.65" cy="-466.77" rx="49.29" ry="49.29"/>
<text text-anchor="middle" x="356.65" y="-463.07" font-family="Times,serif" font-size="14.00">(H,I) 1.0</text>
</g>
<!-- (E,I) 2.0 -->
<g id="node2" class="node">
<title>(E,I) 2.0</title>
<ellipse fill="none" stroke="black" cx="294.65" cy="-333.28" rx="48.19" ry="48.19"/>
<text text-anchor="middle" x="294.65" y="-329.58" font-family="Times,serif" font-size="14.00">(E,I) 2.0</text>
</g>
<!-- (H,I) 1.0&#45;&gt;(E,I) 2.0 -->
<g id="edge1" class="edge">
<title>(H,I) 1.0&#45;&gt;(E,I) 2.0</title>
<path fill="none" stroke="black" d="M335.83,-421.62C330.5,-410.31 324.72,-398.05 319.22,-386.39"/>
<polygon fill="black" stroke="black" points="322.31,-384.75 314.88,-377.2 315.98,-387.73 322.31,-384.75"/>
</g>
<!-- (j,B) 1.0 -->
<g id="node3" class="node">
<title>(j,B) 1.0</title>
<ellipse fill="none" stroke="black" cx="418.65" cy="-333.28" rx="48.19" ry="48.19"/>
<text text-anchor="middle" x="418.65" y="-329.58" font-family="Times,serif" font-size="14.00">(j,B) 1.0</text>
</g>
<!-- (H,I) 1.0&#45;&gt;(j,B) 1.0 -->
<g id="edge2" class="edge">
<title>(H,I) 1.0&#45;&gt;(j,B) 1.0</title>
<path fill="none" stroke="black" d="M377.46,-421.62C382.79,-410.31 388.57,-398.05 394.07,-386.39"/>
<polygon fill="black" stroke="black" points="397.31,-387.73 398.41,-377.2 390.98,-384.75 397.31,-387.73"/>
</g>
<!-- (E,j) 2.0 -->
<g id="node4" class="node">
<title>(E,j) 2.0</title>
<ellipse fill="none" stroke="black" cx="175.65" cy="-195.89" rx="48.19" ry="48.19"/>
<text text-anchor="middle" x="175.65" y="-192.19" font-family="Times,serif" font-size="14.00">(E,j) 2.0</text>
</g>
<!-- (E,I) 2.0&#45;&gt;(E,j) 2.0 -->
<g id="edge3" class="edge">
<title>(E,I) 2.0&#45;&gt;(E,j) 2.0</title>
<path fill="none" stroke="black" d="M263.38,-296.7C248.2,-279.43 229.82,-258.52 213.81,-240.31"/>
<polygon fill="black" stroke="black" points="216.35,-237.89 207.12,-232.69 211.09,-242.51 216.35,-237.89"/>
</g>
<!-- (H,D) 2.0 -->
<g id="node5" class="node">
<title>(H,D) 2.0</title>
<ellipse fill="none" stroke="black" cx="294.65" cy="-195.89" rx="53.09" ry="53.09"/>
<text text-anchor="middle" x="294.65" y="-192.19" font-family="Times,serif" font-size="14.00">(H,D) 2.0</text>
</g>
<!-- (E,I) 2.0&#45;&gt;(H,D) 2.0 -->
<g id="edge4" class="edge">
<title>(E,I) 2.0&#45;&gt;(H,D) 2.0</title>
<path fill="none" stroke="black" d="M294.65,-284.92C294.65,-276.79 294.65,-268.23 294.65,-259.77"/>
<polygon fill="black" stroke="black" points="298.15,-259.53 294.65,-249.53 291.15,-259.53 298.15,-259.53"/>
</g>
<!-- (H,C) 4.0 -->
<g id="node6" class="node">
<title>(H,C) 4.0</title>
<ellipse fill="none" stroke="black" cx="418.65" cy="-195.89" rx="52.79" ry="52.79"/>
<text text-anchor="middle" x="418.65" y="-192.19" font-family="Times,serif" font-size="14.00">(H,C) 4.0</text>
</g>
<!-- (j,B) 1.0&#45;&gt;(H,C) 4.0 -->
<g id="edge5" class="edge">
<title>(j,B) 1.0&#45;&gt;(H,C) 4.0</title>
<path fill="none" stroke="black" d="M418.65,-284.92C418.65,-276.48 418.65,-267.58 418.65,-258.8"/>
<polygon fill="black" stroke="black" points="422.15,-258.6 418.65,-248.6 415.15,-258.6 422.15,-258.6"/>
</g>
<!-- (H,J) 2.0 -->
<g id="node7" class="node">
<title>(H,J) 2.0</title>
<ellipse fill="none" stroke="black" cx="538.65" cy="-195.89" rx="49.29" ry="49.29"/>
<text text-anchor="middle" x="538.65" y="-192.19" font-family="Times,serif" font-size="14.00">(H,J) 2.0</text>
</g>
<!-- (j,B) 1.0&#45;&gt;(H,J) 2.0 -->
<g id="edge6" class="edge">
<title>(j,B) 1.0&#45;&gt;(H,J) 2.0</title>
<path fill="none" stroke="black" d="M450.17,-296.7C465.24,-279.7 483.43,-259.18 499.39,-241.18"/>
<polygon fill="black" stroke="black" points="502.06,-243.44 506.07,-233.64 496.82,-238.8 502.06,-243.44"/>
</g>
<!-- (H,K) 3.0 -->
<g id="node8" class="node">
<title>(H,K) 3.0</title>
<ellipse fill="none" stroke="black" cx="52.65" cy="-53.3" rx="52.79" ry="52.79"/>
<text text-anchor="middle" x="52.65" y="-49.6" font-family="Times,serif" font-size="14.00">(H,K) 3.0</text>
</g>
<!-- (E,j) 2.0&#45;&gt;(H,K) 3.0 -->
<g id="edge7" class="edge">
<title>(E,j) 2.0&#45;&gt;(H,K) 3.0</title>
<path fill="none" stroke="black" d="M144.29,-159.05C128.9,-141.46 110.17,-120.04 93.66,-101.17"/>
<polygon fill="black" stroke="black" points="96.19,-98.75 86.97,-93.53 90.92,-103.36 96.19,-98.75"/>
</g>
<!-- (H,G) 2.0 -->
<g id="node9" class="node">
<title>(H,G) 2.0</title>
<ellipse fill="none" stroke="black" cx="176.65" cy="-53.3" rx="53.09" ry="53.09"/>
<text text-anchor="middle" x="176.65" y="-49.6" font-family="Times,serif" font-size="14.00">(H,G) 2.0</text>
</g>
<!-- (E,j) 2.0&#45;&gt;(H,G) 2.0 -->
<g id="edge8" class="edge">
<title>(E,j) 2.0&#45;&gt;(H,G) 2.0</title>
<path fill="none" stroke="black" d="M175.98,-147.68C176.05,-137.87 176.13,-127.38 176.2,-117.11"/>
<polygon fill="black" stroke="black" points="179.7,-116.97 176.27,-106.94 172.7,-116.92 179.7,-116.97"/>
</g>
<!-- (j,k) 2.0 -->
<g id="node10" class="node">
<title>(j,k) 2.0</title>
<ellipse fill="none" stroke="black" cx="294.65" cy="-53.3" rx="46.29" ry="46.29"/>
<text text-anchor="middle" x="294.65" y="-49.6" font-family="Times,serif" font-size="14.00">(j,k) 2.0</text>
</g>
<!-- (H,D) 2.0&#45;&gt;(j,k) 2.0 -->
<g id="edge9" class="edge">
<title>(H,D) 2.0&#45;&gt;(j,k) 2.0</title>
<path fill="none" stroke="black" d="M294.65,-142.54C294.65,-131.89 294.65,-120.65 294.65,-109.89"/>
<polygon fill="black" stroke="black" points="298.15,-109.76 294.65,-99.76 291.15,-109.76 298.15,-109.76"/>
</g>
</g>
</svg>
