<?xml version="1.0" encoding="UTF-8" standalone="no"?>
<!DOCTYPE svg PUBLIC "-//W3C//DTD SVG 1.1//EN"
 "http://www.w3.org/Graphics/SVG/1.1/DTD/svg11.dtd">
<!-- Generated by graphviz version 2.43.0 (0)
 -->
<!-- Title: %3 Pages: 1 -->
<svg width="603pt" height="524pt"
 viewBox="0.00 0.00 602.64 524.16" xmlns="http://www.w3.org/2000/svg" xmlns:xlink="http://www.w3.org/1999/xlink">
<g id="graph0" class="graph" transform="scale(1 1) rotate(0) translate(4 520.16)">
<title>%3</title>
<polygon fill="white" stroke="transparent" points="-4,4 -4,-520.16 598.64,-520.16 598.64,4 -4,4"/>
<!-- (H,I) 1.0 -->
<g id="node1" class="node">
<title>(H,I) 1.0</title>
<ellipse fill="none" stroke="black" cx="358" cy="-466.77" rx="49.29" ry="49.29"/>
<text text-anchor="middle" x="358" y="-463.07" font-family="Times,serif" font-size="14.00">(H,I) 1.0</text>
</g>
<!-- (E,I) 2.0 -->
<g id="node2" class="node">
<title>(E,I) 2.0</title>
<ellipse fill="none" stroke="black" cx="299" cy="-333.28" rx="48.19" ry="48.19"/>
<text text-anchor="middle" x="299" y="-329.58" font-family="Times,serif" font-size="14.00">(E,I) 2.0</text>
</g>
<!-- (H,I) 1.0&#45;&gt;(E,I) 2.0 -->
<g id="edge1" class="edge">
<title>(H,I) 1.0&#45;&gt;(E,I) 2.0</title>
<path fill="none" stroke="black" d="M338.02,-421.25C333.06,-410.19 327.69,-398.23 322.58,-386.83"/>
<polygon fill="black" stroke="black" points="325.64,-385.1 318.35,-377.41 319.25,-387.97 325.64,-385.1"/>
</g>
<!-- (j,B) 1.0 -->
<g id="node3" class="node">
<title>(j,B) 1.0</title>
<ellipse fill="none" stroke="black" cx="418" cy="-333.28" rx="48.19" ry="48.19"/>
<text text-anchor="middle" x="418" y="-329.58" font-family="Times,serif" font-size="14.00">(j,B) 1.0</text>
</g>
<!-- (H,I) 1.0&#45;&gt;(j,B) 1.0 -->
<g id="edge2" class="edge">
<title>(H,I) 1.0&#45;&gt;(j,B) 1.0</title>
<path fill="none" stroke="black" d="M378.14,-421.62C383.25,-410.43 388.78,-398.31 394.05,-386.76"/>
<polygon fill="black" stroke="black" points="397.24,-388.19 398.21,-377.64 390.87,-385.29 397.24,-388.19"/>
</g>
<!-- (H,J) 2.0 -->
<g id="node4" class="node">
<title>(H,J) 2.0</title>
<ellipse fill="none" stroke="black" cx="175" cy="-195.89" rx="49.29" ry="49.29"/>
<text text-anchor="middle" x="175" y="-192.19" font-family="Times,serif" font-size="14.00">(H,J) 2.0</text>
</g>
<!-- (E,I) 2.0&#45;&gt;(H,J) 2.0 -->
<g id="edge3" class="edge">
<title>(E,I) 2.0&#45;&gt;(H,J) 2.0</title>
<path fill="none" stroke="black" d="M266.74,-297.06C250.92,-279.78 231.71,-258.81 214.96,-240.52"/>
<polygon fill="black" stroke="black" points="217.29,-237.88 207.95,-232.87 212.13,-242.61 217.29,-237.88"/>
</g>
<!-- (E,j) 2.0 -->
<g id="node5" class="node">
<title>(E,j) 2.0</title>
<ellipse fill="none" stroke="black" cx="299" cy="-195.89" rx="48.19" ry="48.19"/>
<text text-anchor="middle" x="299" y="-192.19" font-family="Times,serif" font-size="14.00">(E,j) 2.0</text>
</g>
<!-- (E,I) 2.0&#45;&gt;(E,j) 2.0 -->
<g id="edge4" class="edge">
<title>(E,I) 2.0&#45;&gt;(E,j) 2.0</title>
<path fill="none" stroke="black" d="M299,-284.92C299,-274.97 299,-264.37 299,-254.11"/>
<polygon fill="black" stroke="black" points="302.5,-253.98 299,-243.98 295.5,-253.98 302.5,-253.98"/>
</g>
<!-- (H,D) 2.0 -->
<g id="node6" class="node">
<title>(H,D) 2.0</title>
<ellipse fill="none" stroke="black" cx="418" cy="-195.89" rx="53.09" ry="53.09"/>
<text text-anchor="middle" x="418" y="-192.19" font-family="Times,serif" font-size="14.00">(H,D) 2.0</text>
</g>
<!-- (j,B) 1.0&#45;&gt;(H,D) 2.0 -->
<g id="edge5" class="edge">
<title>(j,B) 1.0&#45;&gt;(H,D) 2.0</title>
<path fill="none" stroke="black" d="M418,-284.92C418,-276.79 418,-268.23 418,-259.77"/>
<polygon fill="black" stroke="black" points="421.5,-259.53 418,-249.53 414.5,-259.53 421.5,-259.53"/>
</g>
<!-- (H,C) 4.0 -->
<g id="node7" class="node">
<title>(H,C) 4.0</title>
<ellipse fill="none" stroke="black" cx="542" cy="-195.89" rx="52.79" ry="52.79"/>
<text text-anchor="middle" x="542" y="-192.19" font-family="Times,serif" font-size="14.00">(H,C) 4.0</text>
</g>
<!-- (j,B) 1.0&#45;&gt;(H,C) 4.0 -->
<g id="edge6" class="edge">
<title>(j,B) 1.0&#45;&gt;(H,C) 4.0</title>
<path fill="none" stroke="black" d="M450.25,-297.06C465.45,-280.47 483.76,-260.47 500.02,-242.71"/>
<polygon fill="black" stroke="black" points="502.68,-245 506.85,-235.26 497.52,-240.27 502.68,-245"/>
</g>
<!-- (k,m) 3.0 -->
<g id="node8" class="node">
<title>(k,m) 3.0</title>
<ellipse fill="none" stroke="black" cx="52" cy="-53.3" rx="51.99" ry="51.99"/>
<text text-anchor="middle" x="52" y="-49.6" font-family="Times,serif" font-size="14.00">(k,m) 3.0</text>
</g>
<!-- (H,J) 2.0&#45;&gt;(k,m) 3.0 -->
<g id="edge7" class="edge">
<title>(H,J) 2.0&#45;&gt;(k,m) 3.0</title>
<path fill="none" stroke="black" d="M142.68,-157.95C127.36,-140.44 108.89,-119.33 92.63,-100.74"/>
<polygon fill="black" stroke="black" points="95.03,-98.17 85.81,-92.95 89.76,-102.78 95.03,-98.17"/>
</g>
<!-- (H,K) 3.0 -->
<g id="node9" class="node">
<title>(H,K) 3.0</title>
<ellipse fill="none" stroke="black" cx="175" cy="-53.3" rx="52.79" ry="52.79"/>
<text text-anchor="middle" x="175" y="-49.6" font-family="Times,serif" font-size="14.00">(H,K) 3.0</text>
</g>
<!-- (H,J) 2.0&#45;&gt;(H,K) 3.0 -->
<g id="edge8" class="edge">
<title>(H,J) 2.0&#45;&gt;(H,K) 3.0</title>
<path fill="none" stroke="black" d="M175,-146.11C175,-136.57 175,-126.45 175,-116.55"/>
<polygon fill="black" stroke="black" points="178.5,-116.34 175,-106.34 171.5,-116.34 178.5,-116.34"/>
</g>
<!-- (H,G) 2.0 -->
<g id="node10" class="node">
<title>(H,G) 2.0</title>
<ellipse fill="none" stroke="black" cx="299" cy="-53.3" rx="53.09" ry="53.09"/>
<text text-anchor="middle" x="299" y="-49.6" font-family="Times,serif" font-size="14.00">(H,G) 2.0</text>
</g>
<!-- (E,j) 2.0&#45;&gt;(H,G) 2.0 -->
<g id="edge9" class="edge">
<title>(E,j) 2.0&#45;&gt;(H,G) 2.0</title>
<path fill="none" stroke="black" d="M299,-147.68C299,-137.87 299,-127.38 299,-117.11"/>
<polygon fill="black" stroke="black" points="302.5,-116.94 299,-106.94 295.5,-116.94 302.5,-116.94"/>
</g>
<!-- (j,k) 2.0 -->
<g id="node11" class="node">
<title>(j,k) 2.0</title>
<ellipse fill="none" stroke="black" cx="416" cy="-53.3" rx="46.29" ry="46.29"/>
<text text-anchor="middle" x="416" y="-49.6" font-family="Times,serif" font-size="14.00">(j,k) 2.0</text>
</g>
<!-- (E,j) 2.0&#45;&gt;(j,k) 2.0 -->
<g id="edge10" class="edge">
<title>(E,j) 2.0&#45;&gt;(j,k) 2.0</title>
<path fill="none" stroke="black" d="M329.43,-158.31C345.02,-139.58 364.1,-116.66 380.37,-97.1"/>
<polygon fill="black" stroke="black" points="383.22,-99.16 386.92,-89.23 377.84,-94.68 383.22,-99.16"/>
</g>
</g>
</svg>
