<?xml version="1.0" encoding="UTF-8" standalone="no"?>
<!DOCTYPE svg PUBLIC "-//W3C//DTD SVG 1.1//EN"
 "http://www.w3.org/Graphics/SVG/1.1/DTD/svg11.dtd">
<!-- Generated by graphviz version 2.43.0 (0)
 -->
<!-- Title: %3 Pages: 1 -->
<svg width="671pt" height="523pt"
 viewBox="0.00 0.00 671.44 522.86" xmlns="http://www.w3.org/2000/svg" xmlns:xlink="http://www.w3.org/1999/xlink">
<g id="graph0" class="graph" transform="scale(1 1) rotate(0) translate(4 518.86)">
<title>%3</title>
<polygon fill="white" stroke="transparent" points="-4,4 -4,-518.86 667.44,-518.86 667.44,4 -4,4"/>
<!-- (G,J) 1.0 -->
<g id="node1" class="node">
<title>(G,J) 1.0</title>
<ellipse fill="none" stroke="black" cx="415.65" cy="-466.77" rx="48.19" ry="48.19"/>
<text text-anchor="middle" x="415.65" y="-463.07" font-family="Times,serif" font-size="14.00">(G,J) 1.0</text>
</g>
<!-- (H,I) 1.0 -->
<g id="node2" class="node">
<title>(H,I) 1.0</title>
<ellipse fill="none" stroke="black" cx="356.65" cy="-333.28" rx="49.29" ry="49.29"/>
<text text-anchor="middle" x="356.65" y="-329.58" font-family="Times,serif" font-size="14.00">(H,I) 1.0</text>
</g>
<!-- (G,J) 1.0&#45;&gt;(H,I) 1.0 -->
<g id="edge1" class="edge">
<title>(G,J) 1.0&#45;&gt;(H,I) 1.0</title>
<path fill="none" stroke="black" d="M396.33,-422.71C391.34,-411.6 385.91,-399.51 380.72,-387.93"/>
<polygon fill="black" stroke="black" points="383.9,-386.47 376.61,-378.78 377.52,-389.34 383.9,-386.47"/>
</g>
<!-- (H,J) 2.0 -->
<g id="node3" class="node">
<title>(H,J) 2.0</title>
<ellipse fill="none" stroke="black" cx="503.65" cy="-333.28" rx="49.29" ry="49.29"/>
<text text-anchor="middle" x="503.65" y="-329.58" font-family="Times,serif" font-size="14.00">(H,J) 2.0</text>
</g>
<!-- (G,J) 1.0&#45;&gt;(H,J) 2.0 -->
<g id="edge2" class="edge">
<title>(G,J) 1.0&#45;&gt;(H,J) 2.0</title>
<path fill="none" stroke="black" d="M442.05,-426.32C451.02,-412.91 461.16,-397.76 470.59,-383.67"/>
<polygon fill="black" stroke="black" points="473.69,-385.33 476.35,-375.07 467.88,-381.43 473.69,-385.33"/>
</g>
<!-- (H,G) 2.0 -->
<g id="node4" class="node">
<title>(H,G) 2.0</title>
<ellipse fill="none" stroke="black" cx="175.65" cy="-194.59" rx="53.09" ry="53.09"/>
<text text-anchor="middle" x="175.65" y="-190.89" font-family="Times,serif" font-size="14.00">(H,G) 2.0</text>
</g>
<!-- (H,I) 1.0&#45;&gt;(H,G) 2.0 -->
<g id="edge3" class="edge">
<title>(H,I) 1.0&#45;&gt;(H,G) 2.0</title>
<path fill="none" stroke="black" d="M317.37,-302.62C290.69,-282.46 255.14,-255.62 226.32,-233.86"/>
<polygon fill="black" stroke="black" points="228.09,-230.81 218,-227.57 223.87,-236.39 228.09,-230.81"/>
</g>
<!-- (H,D) 2.0 -->
<g id="node5" class="node">
<title>(H,D) 2.0</title>
<ellipse fill="none" stroke="black" cx="356.65" cy="-194.59" rx="53.09" ry="53.09"/>
<text text-anchor="middle" x="356.65" y="-190.89" font-family="Times,serif" font-size="14.00">(H,D) 2.0</text>
</g>
<!-- (H,I) 1.0&#45;&gt;(H,D) 2.0 -->
<g id="edge4" class="edge">
<title>(H,I) 1.0&#45;&gt;(H,D) 2.0</title>
<path fill="none" stroke="black" d="M356.65,-283.7C356.65,-275.52 356.65,-266.92 356.65,-258.44"/>
<polygon fill="black" stroke="black" points="360.15,-258.18 356.65,-248.18 353.15,-258.18 360.15,-258.18"/>
</g>
<!-- (G,l) 4.0 -->
<g id="node6" class="node">
<title>(G,l) 4.0</title>
<ellipse fill="none" stroke="black" cx="503.65" cy="-194.59" rx="48.19" ry="48.19"/>
<text text-anchor="middle" x="503.65" y="-190.89" font-family="Times,serif" font-size="14.00">(G,l) 4.0</text>
</g>
<!-- (H,J) 2.0&#45;&gt;(G,l) 4.0 -->
<g id="edge5" class="edge">
<title>(H,J) 2.0&#45;&gt;(G,l) 4.0</title>
<path fill="none" stroke="black" d="M503.65,-283.7C503.65,-273.8 503.65,-263.3 503.65,-253.12"/>
<polygon fill="black" stroke="black" points="507.15,-253.09 503.65,-243.09 500.15,-253.09 507.15,-253.09"/>
</g>
<!-- (l,n) 3.0 -->
<g id="node7" class="node">
<title>(l,n) 3.0</title>
<ellipse fill="none" stroke="black" cx="616.65" cy="-194.59" rx="46.59" ry="46.59"/>
<text text-anchor="middle" x="616.65" y="-190.89" font-family="Times,serif" font-size="14.00">(l,n) 3.0</text>
</g>
<!-- (H,J) 2.0&#45;&gt;(l,n) 3.0 -->
<g id="edge6" class="edge">
<title>(H,J) 2.0&#45;&gt;(l,n) 3.0</title>
<path fill="none" stroke="black" d="M534.82,-294.56C548.98,-277.43 565.82,-257.06 580.53,-239.27"/>
<polygon fill="black" stroke="black" points="583.45,-241.23 587.13,-231.29 578.06,-236.77 583.45,-241.23"/>
</g>
<!-- (H,K) 3.0 -->
<g id="node8" class="node">
<title>(H,K) 3.0</title>
<ellipse fill="none" stroke="black" cx="52.65" cy="-52.65" rx="52.79" ry="52.79"/>
<text text-anchor="middle" x="52.65" y="-48.95" font-family="Times,serif" font-size="14.00">(H,K) 3.0</text>
</g>
<!-- (H,G) 2.0&#45;&gt;(H,K) 3.0 -->
<g id="edge7" class="edge">
<title>(H,G) 2.0&#45;&gt;(H,K) 3.0</title>
<path fill="none" stroke="black" d="M140.73,-153.86C126.19,-137.32 109.2,-117.99 94.05,-100.75"/>
<polygon fill="black" stroke="black" points="96.46,-98.19 87.22,-92.99 91.2,-102.81 96.46,-98.19"/>
</g>
<!-- (G,C) 3.0 -->
<g id="node9" class="node">
<title>(G,C) 3.0</title>
<ellipse fill="none" stroke="black" cx="175.65" cy="-52.65" rx="51.99" ry="51.99"/>
<text text-anchor="middle" x="175.65" y="-48.95" font-family="Times,serif" font-size="14.00">(G,C) 3.0</text>
</g>
<!-- (H,G) 2.0&#45;&gt;(G,C) 3.0 -->
<g id="edge8" class="edge">
<title>(H,G) 2.0&#45;&gt;(G,C) 3.0</title>
<path fill="none" stroke="black" d="M175.65,-141.08C175.65,-132.61 175.65,-123.77 175.65,-115.11"/>
<polygon fill="black" stroke="black" points="179.15,-115.05 175.65,-105.05 172.15,-115.05 179.15,-115.05"/>
</g>
<!-- (G,F) 3.0 -->
<g id="node10" class="node">
<title>(G,F) 3.0</title>
<ellipse fill="none" stroke="black" cx="296.65" cy="-52.65" rx="51.19" ry="51.19"/>
<text text-anchor="middle" x="296.65" y="-48.95" font-family="Times,serif" font-size="14.00">(G,F) 3.0</text>
</g>
<!-- (H,D) 2.0&#45;&gt;(G,F) 3.0 -->
<g id="edge9" class="edge">
<title>(H,D) 2.0&#45;&gt;(G,F) 3.0</title>
<path fill="none" stroke="black" d="M336,-145.43C331.02,-133.82 325.67,-121.33 320.56,-109.41"/>
<polygon fill="black" stroke="black" points="323.68,-107.82 316.52,-100 317.25,-110.57 323.68,-107.82"/>
</g>
<!-- (G,i) 4.0 -->
<g id="node11" class="node">
<title>(G,i) 4.0</title>
<ellipse fill="none" stroke="black" cx="413.65" cy="-52.65" rx="48.19" ry="48.19"/>
<text text-anchor="middle" x="413.65" y="-48.95" font-family="Times,serif" font-size="14.00">(G,i) 4.0</text>
</g>
<!-- (H,D) 2.0&#45;&gt;(G,i) 4.0 -->
<g id="edge10" class="edge">
<title>(H,D) 2.0&#45;&gt;(G,i) 4.0</title>
<path fill="none" stroke="black" d="M376.42,-145.03C381.44,-132.7 386.87,-119.39 391.98,-106.85"/>
<polygon fill="black" stroke="black" points="395.28,-108.01 395.81,-97.43 388.8,-105.37 395.28,-108.01"/>
</g>
<!-- (H,C) 4.0 -->
<g id="node12" class="node">
<title>(H,C) 4.0</title>
<ellipse fill="none" stroke="black" cx="532.65" cy="-52.65" rx="52.79" ry="52.79"/>
<text text-anchor="middle" x="532.65" y="-48.95" font-family="Times,serif" font-size="14.00">(H,C) 4.0</text>
</g>
<!-- (G,l) 4.0&#45;&gt;(H,C) 4.0 -->
<g id="edge11" class="edge">
<title>(G,l) 4.0&#45;&gt;(H,C) 4.0</title>
<path fill="none" stroke="black" d="M513.22,-147.38C515.39,-136.89 517.73,-125.6 520.01,-114.61"/>
<polygon fill="black" stroke="black" points="523.48,-115.14 522.08,-104.63 516.62,-113.72 523.48,-115.14"/>
</g>
</g>
</svg>
