<?xml version="1.0" encoding="UTF-8" standalone="no"?>
<!DOCTYPE svg PUBLIC "-//W3C//DTD SVG 1.1//EN"
 "http://www.w3.org/Graphics/SVG/1.1/DTD/svg11.dtd">
<!-- Generated by graphviz version 2.43.0 (0)
 -->
<!-- Title: %3 Pages: 1 -->
<svg width="826pt" height="533pt"
 viewBox="0.00 0.00 825.99 533.26" xmlns="http://www.w3.org/2000/svg" xmlns:xlink="http://www.w3.org/1999/xlink">
<g id="graph0" class="graph" transform="scale(1 1) rotate(0) translate(4 529.26)">
<title>%3</title>
<polygon fill="white" stroke="transparent" points="-4,4 -4,-529.26 821.99,-529.26 821.99,4 -4,4"/>
<!-- (H,I) 1.0 -->
<g id="node1" class="node">
<title>(H,I) 1.0</title>
<ellipse fill="none" stroke="black" cx="434.65" cy="-475.87" rx="49.29" ry="49.29"/>
<text text-anchor="middle" x="434.65" y="-472.17" font-family="Times,serif" font-size="14.00">(H,I) 1.0</text>
</g>
<!-- (H,D) 2.0 -->
<g id="node2" class="node">
<title>(H,D) 2.0</title>
<ellipse fill="none" stroke="black" cx="372.65" cy="-337.18" rx="53.09" ry="53.09"/>
<text text-anchor="middle" x="372.65" y="-333.48" font-family="Times,serif" font-size="14.00">(H,D) 2.0</text>
</g>
<!-- (H,I) 1.0&#45;&gt;(H,D) 2.0 -->
<g id="edge1" class="edge">
<title>(H,I) 1.0&#45;&gt;(H,D) 2.0</title>
<path fill="none" stroke="black" d="M414.52,-430.49C409.44,-419.29 403.91,-407.12 398.6,-395.39"/>
<polygon fill="black" stroke="black" points="401.7,-393.77 394.39,-386.11 395.33,-396.66 401.7,-393.77"/>
</g>
<!-- (H,J) 2.0 -->
<g id="node3" class="node">
<title>(H,J) 2.0</title>
<ellipse fill="none" stroke="black" cx="549.65" cy="-337.18" rx="49.29" ry="49.29"/>
<text text-anchor="middle" x="549.65" y="-333.48" font-family="Times,serif" font-size="14.00">(H,J) 2.0</text>
</g>
<!-- (H,I) 1.0&#45;&gt;(H,J) 2.0 -->
<g id="edge2" class="edge">
<title>(H,I) 1.0&#45;&gt;(H,J) 2.0</title>
<path fill="none" stroke="black" d="M466.07,-437.52C480.14,-420.79 496.86,-400.92 511.63,-383.37"/>
<polygon fill="black" stroke="black" points="514.5,-385.39 518.26,-375.48 509.14,-380.88 514.5,-385.39"/>
</g>
<!-- (I,E) 2.0 -->
<g id="node4" class="node">
<title>(I,E) 2.0</title>
<ellipse fill="none" stroke="black" cx="171.65" cy="-194.59" rx="48.19" ry="48.19"/>
<text text-anchor="middle" x="171.65" y="-190.89" font-family="Times,serif" font-size="14.00">(I,E) 2.0</text>
</g>
<!-- (H,D) 2.0&#45;&gt;(I,E) 2.0 -->
<g id="edge3" class="edge">
<title>(H,D) 2.0&#45;&gt;(I,E) 2.0</title>
<path fill="none" stroke="black" d="M329.03,-305.67C296.57,-282.96 252.29,-252 218.97,-228.69"/>
<polygon fill="black" stroke="black" points="220.95,-225.8 210.75,-222.94 216.94,-231.54 220.95,-225.8"/>
</g>
<!-- (H,G) 2.0 -->
<g id="node5" class="node">
<title>(H,G) 2.0</title>
<ellipse fill="none" stroke="black" cx="372.65" cy="-194.59" rx="53.09" ry="53.09"/>
<text text-anchor="middle" x="372.65" y="-190.89" font-family="Times,serif" font-size="14.00">(H,G) 2.0</text>
</g>
<!-- (H,D) 2.0&#45;&gt;(H,G) 2.0 -->
<g id="edge4" class="edge">
<title>(H,D) 2.0&#45;&gt;(H,G) 2.0</title>
<path fill="none" stroke="black" d="M372.65,-283.83C372.65,-275.41 372.65,-266.62 372.65,-258"/>
<polygon fill="black" stroke="black" points="376.15,-257.98 372.65,-247.98 369.15,-257.98 376.15,-257.98"/>
</g>
<!-- (m,q) 3.0 -->
<g id="node6" class="node">
<title>(m,q) 3.0</title>
<ellipse fill="none" stroke="black" cx="549.65" cy="-194.59" rx="52.79" ry="52.79"/>
<text text-anchor="middle" x="549.65" y="-190.89" font-family="Times,serif" font-size="14.00">(m,q) 3.0</text>
</g>
<!-- (H,J) 2.0&#45;&gt;(m,q) 3.0 -->
<g id="edge5" class="edge">
<title>(H,J) 2.0&#45;&gt;(m,q) 3.0</title>
<path fill="none" stroke="black" d="M549.65,-287.4C549.65,-277.86 549.65,-267.74 549.65,-257.84"/>
<polygon fill="black" stroke="black" points="553.15,-257.63 549.65,-247.63 546.15,-257.63 553.15,-257.63"/>
</g>
<!-- (m,k) 3.0 -->
<g id="node7" class="node">
<title>(m,k) 3.0</title>
<ellipse fill="none" stroke="black" cx="733.65" cy="-194.59" rx="51.99" ry="51.99"/>
<text text-anchor="middle" x="733.65" y="-190.89" font-family="Times,serif" font-size="14.00">(m,k) 3.0</text>
</g>
<!-- (H,J) 2.0&#45;&gt;(m,k) 3.0 -->
<g id="edge6" class="edge">
<title>(H,J) 2.0&#45;&gt;(m,k) 3.0</title>
<path fill="none" stroke="black" d="M588.67,-306.36C616.63,-284.99 654.5,-256.06 684.52,-233.12"/>
<polygon fill="black" stroke="black" points="686.95,-235.67 692.77,-226.82 682.7,-230.11 686.95,-235.67"/>
</g>
<!-- (H,K) 3.0 -->
<g id="node8" class="node">
<title>(H,K) 3.0</title>
<ellipse fill="none" stroke="black" cx="52.65" cy="-52.65" rx="52.79" ry="52.79"/>
<text text-anchor="middle" x="52.65" y="-48.95" font-family="Times,serif" font-size="14.00">(H,K) 3.0</text>
</g>
<!-- (I,E) 2.0&#45;&gt;(H,K) 3.0 -->
<g id="edge7" class="edge">
<title>(I,E) 2.0&#45;&gt;(H,K) 3.0</title>
<path fill="none" stroke="black" d="M140.69,-157.18C126.11,-140.04 108.53,-119.36 92.92,-101.01"/>
<polygon fill="black" stroke="black" points="95.52,-98.66 86.37,-93.31 90.18,-103.19 95.52,-98.66"/>
</g>
<!-- (I,K) 3.0 -->
<g id="node9" class="node">
<title>(I,K) 3.0</title>
<ellipse fill="none" stroke="black" cx="171.65" cy="-52.65" rx="48.19" ry="48.19"/>
<text text-anchor="middle" x="171.65" y="-48.95" font-family="Times,serif" font-size="14.00">(I,K) 3.0</text>
</g>
<!-- (I,E) 2.0&#45;&gt;(I,K) 3.0 -->
<g id="edge8" class="edge">
<title>(I,E) 2.0&#45;&gt;(I,K) 3.0</title>
<path fill="none" stroke="black" d="M171.65,-146.21C171.65,-134.92 171.65,-122.76 171.65,-111.08"/>
<polygon fill="black" stroke="black" points="175.15,-110.97 171.65,-100.97 168.15,-110.97 175.15,-110.97"/>
</g>
<!-- (I,L) 2.0 -->
<g id="node10" class="node">
<title>(I,L) 2.0</title>
<ellipse fill="none" stroke="black" cx="285.65" cy="-52.65" rx="47.39" ry="47.39"/>
<text text-anchor="middle" x="285.65" y="-48.95" font-family="Times,serif" font-size="14.00">(I,L) 2.0</text>
</g>
<!-- (H,G) 2.0&#45;&gt;(I,L) 2.0 -->
<g id="edge9" class="edge">
<title>(H,G) 2.0&#45;&gt;(I,L) 2.0</title>
<path fill="none" stroke="black" d="M344.88,-148.92C335.65,-134.08 325.33,-117.48 315.92,-102.34"/>
<polygon fill="black" stroke="black" points="318.75,-100.27 310.5,-93.63 312.81,-103.97 318.75,-100.27"/>
</g>
<!-- (I,m) 3.0 -->
<g id="node11" class="node">
<title>(I,m) 3.0</title>
<ellipse fill="none" stroke="black" cx="400.65" cy="-52.65" rx="50.09" ry="50.09"/>
<text text-anchor="middle" x="400.65" y="-48.95" font-family="Times,serif" font-size="14.00">(I,m) 3.0</text>
</g>
<!-- (H,G) 2.0&#45;&gt;(I,m) 3.0 -->
<g id="edge10" class="edge">
<title>(H,G) 2.0&#45;&gt;(I,m) 3.0</title>
<path fill="none" stroke="black" d="M382.91,-142.27C384.88,-132.44 386.95,-122.08 388.96,-112.05"/>
<polygon fill="black" stroke="black" points="392.41,-112.65 390.94,-102.16 385.54,-111.28 392.41,-112.65"/>
</g>
<!-- (m,L) 4.0 -->
<g id="node12" class="node">
<title>(m,L) 4.0</title>
<ellipse fill="none" stroke="black" cx="521.65" cy="-52.65" rx="52.79" ry="52.79"/>
<text text-anchor="middle" x="521.65" y="-48.95" font-family="Times,serif" font-size="14.00">(m,L) 4.0</text>
</g>
<!-- (m,q) 3.0&#45;&gt;(m,L) 4.0 -->
<g id="edge11" class="edge">
<title>(m,q) 3.0&#45;&gt;(m,L) 4.0</title>
<path fill="none" stroke="black" d="M539.46,-142.67C537.64,-133.6 535.74,-124.07 533.87,-114.75"/>
<polygon fill="black" stroke="black" points="537.27,-113.88 531.87,-104.76 530.4,-115.25 537.27,-113.88"/>
</g>
<!-- (H,C) 4.0 -->
<g id="node13" class="node">
<title>(H,C) 4.0</title>
<ellipse fill="none" stroke="black" cx="644.65" cy="-52.65" rx="52.79" ry="52.79"/>
<text text-anchor="middle" x="644.65" y="-48.95" font-family="Times,serif" font-size="14.00">(H,C) 4.0</text>
</g>
<!-- (m,q) 3.0&#45;&gt;(H,C) 4.0 -->
<g id="edge12" class="edge">
<title>(m,q) 3.0&#45;&gt;(H,C) 4.0</title>
<path fill="none" stroke="black" d="M578.92,-150.46C588.59,-136.23 599.43,-120.25 609.49,-105.44"/>
<polygon fill="black" stroke="black" points="612.58,-107.11 615.3,-96.87 606.79,-103.18 612.58,-107.11"/>
</g>
<!-- (m,r) 4.0 -->
<g id="node14" class="node">
<title>(m,r) 4.0</title>
<ellipse fill="none" stroke="black" cx="766.65" cy="-52.65" rx="51.19" ry="51.19"/>
<text text-anchor="middle" x="766.65" y="-48.95" font-family="Times,serif" font-size="14.00">(m,r) 4.0</text>
</g>
<!-- (m,k) 3.0&#45;&gt;(m,r) 4.0 -->
<g id="edge13" class="edge">
<title>(m,k) 3.0&#45;&gt;(m,r) 4.0</title>
<path fill="none" stroke="black" d="M745.37,-143.85C747.76,-133.73 750.29,-122.99 752.75,-112.59"/>
<polygon fill="black" stroke="black" points="756.18,-113.28 755.07,-102.75 749.36,-111.68 756.18,-113.28"/>
</g>
</g>
</svg>
