<?xml version="1.0" encoding="UTF-8" standalone="no"?>
<!DOCTYPE svg PUBLIC "-//W3C//DTD SVG 1.1//EN"
 "http://www.w3.org/Graphics/SVG/1.1/DTD/svg11.dtd">
<!-- Generated by graphviz version 2.43.0 (0)
 -->
<!-- Title: %3 Pages: 1 -->
<svg width="823pt" height="524pt"
 viewBox="0.00 0.00 823.04 524.16" xmlns="http://www.w3.org/2000/svg" xmlns:xlink="http://www.w3.org/1999/xlink">
<g id="graph0" class="graph" transform="scale(1 1) rotate(0) translate(4 520.16)">
<title>%3</title>
<polygon fill="white" stroke="transparent" points="-4,4 -4,-520.16 819.04,-520.16 819.04,4 -4,4"/>
<!-- (H,I) 1.0 -->
<g id="node1" class="node">
<title>(H,I) 1.0</title>
<ellipse fill="none" stroke="black" cx="407.65" cy="-466.77" rx="49.29" ry="49.29"/>
<text text-anchor="middle" x="407.65" y="-463.07" font-family="Times,serif" font-size="14.00">(H,I) 1.0</text>
</g>
<!-- (J,G) 1.0 -->
<g id="node2" class="node">
<title>(J,G) 1.0</title>
<ellipse fill="none" stroke="black" cx="345.65" cy="-333.28" rx="48.19" ry="48.19"/>
<text text-anchor="middle" x="345.65" y="-329.58" font-family="Times,serif" font-size="14.00">(J,G) 1.0</text>
</g>
<!-- (H,I) 1.0&#45;&gt;(J,G) 1.0 -->
<g id="edge1" class="edge">
<title>(H,I) 1.0&#45;&gt;(J,G) 1.0</title>
<path fill="none" stroke="black" d="M386.83,-421.62C381.5,-410.31 375.72,-398.05 370.22,-386.39"/>
<polygon fill="black" stroke="black" points="373.31,-384.75 365.88,-377.2 366.98,-387.73 373.31,-384.75"/>
</g>
<!-- (J,p) 1.0 -->
<g id="node3" class="node">
<title>(J,p) 1.0</title>
<ellipse fill="none" stroke="black" cx="556.65" cy="-333.28" rx="46.59" ry="46.59"/>
<text text-anchor="middle" x="556.65" y="-329.58" font-family="Times,serif" font-size="14.00">(J,p) 1.0</text>
</g>
<!-- (H,I) 1.0&#45;&gt;(J,p) 1.0 -->
<g id="edge2" class="edge">
<title>(H,I) 1.0&#45;&gt;(J,p) 1.0</title>
<path fill="none" stroke="black" d="M444.48,-433.26C465.68,-414.56 492.4,-390.97 514.44,-371.52"/>
<polygon fill="black" stroke="black" points="516.85,-374.07 522.03,-364.83 512.21,-368.82 516.85,-374.07"/>
</g>
<!-- (H,J) 2.0 -->
<g id="node4" class="node">
<title>(H,J) 2.0</title>
<ellipse fill="none" stroke="black" cx="172.65" cy="-195.89" rx="49.29" ry="49.29"/>
<text text-anchor="middle" x="172.65" y="-192.19" font-family="Times,serif" font-size="14.00">(H,J) 2.0</text>
</g>
<!-- (J,G) 1.0&#45;&gt;(H,J) 2.0 -->
<g id="edge3" class="edge">
<title>(J,G) 1.0&#45;&gt;(H,J) 2.0</title>
<path fill="none" stroke="black" d="M308.11,-302.9C282.06,-282.51 247.18,-255.21 219.33,-233.42"/>
<polygon fill="black" stroke="black" points="221.34,-230.55 211.31,-227.14 217.03,-236.06 221.34,-230.55"/>
</g>
<!-- (J,K) 2.0 -->
<g id="node5" class="node">
<title>(J,K) 2.0</title>
<ellipse fill="none" stroke="black" cx="345.65" cy="-195.89" rx="48.19" ry="48.19"/>
<text text-anchor="middle" x="345.65" y="-192.19" font-family="Times,serif" font-size="14.00">(J,K) 2.0</text>
</g>
<!-- (J,G) 1.0&#45;&gt;(J,K) 2.0 -->
<g id="edge4" class="edge">
<title>(J,G) 1.0&#45;&gt;(J,K) 2.0</title>
<path fill="none" stroke="black" d="M345.65,-284.92C345.65,-274.97 345.65,-264.37 345.65,-254.11"/>
<polygon fill="black" stroke="black" points="349.15,-253.98 345.65,-243.98 342.15,-253.98 349.15,-253.98"/>
</g>
<!-- (p,q) 1.0 -->
<g id="node6" class="node">
<title>(p,q) 1.0</title>
<ellipse fill="none" stroke="black" cx="556.65" cy="-195.89" rx="50.09" ry="50.09"/>
<text text-anchor="middle" x="556.65" y="-192.19" font-family="Times,serif" font-size="14.00">(p,q) 1.0</text>
</g>
<!-- (J,p) 1.0&#45;&gt;(p,q) 1.0 -->
<g id="edge5" class="edge">
<title>(J,p) 1.0&#45;&gt;(p,q) 1.0</title>
<path fill="none" stroke="black" d="M556.65,-286.44C556.65,-276.87 556.65,-266.66 556.65,-256.67"/>
<polygon fill="black" stroke="black" points="560.15,-256.39 556.65,-246.39 553.15,-256.39 560.15,-256.39"/>
</g>
<!-- (H,D) 2.0 -->
<g id="node7" class="node">
<title>(H,D) 2.0</title>
<ellipse fill="none" stroke="black" cx="735.65" cy="-195.89" rx="53.09" ry="53.09"/>
<text text-anchor="middle" x="735.65" y="-192.19" font-family="Times,serif" font-size="14.00">(H,D) 2.0</text>
</g>
<!-- (J,p) 1.0&#45;&gt;(H,D) 2.0 -->
<g id="edge6" class="edge">
<title>(J,p) 1.0&#45;&gt;(H,D) 2.0</title>
<path fill="none" stroke="black" d="M593.73,-304.22C620.32,-284.12 656.43,-256.81 685.57,-234.77"/>
<polygon fill="black" stroke="black" points="687.72,-237.52 693.59,-228.7 683.5,-231.94 687.72,-237.52"/>
</g>
<!-- (H,C) 4.0 -->
<g id="node8" class="node">
<title>(H,C) 4.0</title>
<ellipse fill="none" stroke="black" cx="52.65" cy="-53.3" rx="52.79" ry="52.79"/>
<text text-anchor="middle" x="52.65" y="-49.6" font-family="Times,serif" font-size="14.00">(H,C) 4.0</text>
</g>
<!-- (H,J) 2.0&#45;&gt;(H,C) 4.0 -->
<g id="edge7" class="edge">
<title>(H,J) 2.0&#45;&gt;(H,C) 4.0</title>
<path fill="none" stroke="black" d="M140.8,-157.58C126.22,-140.5 108.77,-120.05 93.26,-101.88"/>
<polygon fill="black" stroke="black" points="95.9,-99.58 86.74,-94.24 90.57,-104.12 95.9,-99.58"/>
</g>
<!-- (o,n) 2.0 -->
<g id="node9" class="node">
<title>(o,n) 2.0</title>
<ellipse fill="none" stroke="black" cx="172.65" cy="-53.3" rx="49.29" ry="49.29"/>
<text text-anchor="middle" x="172.65" y="-49.6" font-family="Times,serif" font-size="14.00">(o,n) 2.0</text>
</g>
<!-- (H,J) 2.0&#45;&gt;(o,n) 2.0 -->
<g id="edge8" class="edge">
<title>(H,J) 2.0&#45;&gt;(o,n) 2.0</title>
<path fill="none" stroke="black" d="M172.65,-146.11C172.65,-135.53 172.65,-124.23 172.65,-113.31"/>
<polygon fill="black" stroke="black" points="176.15,-112.99 172.65,-102.99 169.15,-112.99 176.15,-112.99"/>
</g>
<!-- (n,l) 3.0 -->
<g id="node10" class="node">
<title>(n,l) 3.0</title>
<ellipse fill="none" stroke="black" cx="286.65" cy="-53.3" rx="46.59" ry="46.59"/>
<text text-anchor="middle" x="286.65" y="-49.6" font-family="Times,serif" font-size="14.00">(n,l) 3.0</text>
</g>
<!-- (J,K) 2.0&#45;&gt;(n,l) 3.0 -->
<g id="edge9" class="edge">
<title>(J,K) 2.0&#45;&gt;(n,l) 3.0</title>
<path fill="none" stroke="black" d="M327.3,-151.17C321.36,-137.02 314.72,-121.19 308.55,-106.49"/>
<polygon fill="black" stroke="black" points="311.67,-104.88 304.57,-97.02 305.22,-107.59 311.67,-104.88"/>
</g>
<!-- (H,K) 3.0 -->
<g id="node11" class="node">
<title>(H,K) 3.0</title>
<ellipse fill="none" stroke="black" cx="403.65" cy="-53.3" rx="52.79" ry="52.79"/>
<text text-anchor="middle" x="403.65" y="-49.6" font-family="Times,serif" font-size="14.00">(H,K) 3.0</text>
</g>
<!-- (J,K) 2.0&#45;&gt;(H,K) 3.0 -->
<g id="edge10" class="edge">
<title>(J,K) 2.0&#45;&gt;(H,K) 3.0</title>
<path fill="none" stroke="black" d="M363.68,-151.17C368.82,-138.72 374.49,-124.96 379.91,-111.82"/>
<polygon fill="black" stroke="black" points="383.23,-112.96 383.81,-102.38 376.76,-110.29 383.23,-112.96"/>
</g>
<!-- (H,G) 2.0 -->
<g id="node12" class="node">
<title>(H,G) 2.0</title>
<ellipse fill="none" stroke="black" cx="527.65" cy="-53.3" rx="53.09" ry="53.09"/>
<text text-anchor="middle" x="527.65" y="-49.6" font-family="Times,serif" font-size="14.00">(H,G) 2.0</text>
</g>
<!-- (p,q) 1.0&#45;&gt;(H,G) 2.0 -->
<g id="edge11" class="edge">
<title>(p,q) 1.0&#45;&gt;(H,G) 2.0</title>
<path fill="none" stroke="black" d="M546.67,-146.5C544.6,-136.51 542.41,-125.86 540.27,-115.48"/>
<polygon fill="black" stroke="black" points="543.69,-114.73 538.24,-105.65 536.83,-116.15 543.69,-114.73"/>
</g>
<!-- (p,L) 6.0 -->
<g id="node13" class="node">
<title>(p,L) 6.0</title>
<ellipse fill="none" stroke="black" cx="648.65" cy="-53.3" rx="50.09" ry="50.09"/>
<text text-anchor="middle" x="648.65" y="-49.6" font-family="Times,serif" font-size="14.00">(p,L) 6.0</text>
</g>
<!-- (p,q) 1.0&#45;&gt;(p,L) 6.0 -->
<g id="edge12" class="edge">
<title>(p,q) 1.0&#45;&gt;(p,L) 6.0</title>
<path fill="none" stroke="black" d="M583.75,-153.46C593.77,-138.16 605.23,-120.64 615.71,-104.62"/>
<polygon fill="black" stroke="black" points="618.87,-106.19 621.42,-95.91 613.01,-102.36 618.87,-106.19"/>
</g>
<!-- (p,o) 3.0 -->
<g id="node14" class="node">
<title>(p,o) 3.0</title>
<ellipse fill="none" stroke="black" cx="765.65" cy="-53.3" rx="49.29" ry="49.29"/>
<text text-anchor="middle" x="765.65" y="-49.6" font-family="Times,serif" font-size="14.00">(p,o) 3.0</text>
</g>
<!-- (H,D) 2.0&#45;&gt;(p,o) 3.0 -->
<g id="edge13" class="edge">
<title>(H,D) 2.0&#45;&gt;(p,o) 3.0</title>
<path fill="none" stroke="black" d="M746.65,-143.33C748.83,-133.12 751.13,-122.33 753.35,-111.93"/>
<polygon fill="black" stroke="black" points="756.78,-112.62 755.44,-102.11 749.93,-111.16 756.78,-112.62"/>
</g>
</g>
</svg>
