<?xml version="1.0" encoding="UTF-8" standalone="no"?>
<!DOCTYPE svg PUBLIC "-//W3C//DTD SVG 1.1//EN"
 "http://www.w3.org/Graphics/SVG/1.1/DTD/svg11.dtd">
<!-- Generated by graphviz version 2.43.0 (0)
 -->
<!-- Title: %3 Pages: 1 -->
<svg width="713pt" height="528pt"
 viewBox="0.00 0.00 713.04 528.06" xmlns="http://www.w3.org/2000/svg" xmlns:xlink="http://www.w3.org/1999/xlink">
<g id="graph0" class="graph" transform="scale(1 1) rotate(0) translate(4 524.06)">
<title>%3</title>
<polygon fill="white" stroke="transparent" points="-4,4 -4,-524.06 709.04,-524.06 709.04,4 -4,4"/>
<!-- (H,I) 1.0 -->
<g id="node1" class="node">
<title>(H,I) 1.0</title>
<ellipse fill="none" stroke="black" cx="467.4" cy="-470.67" rx="49.29" ry="49.29"/>
<text text-anchor="middle" x="467.4" y="-466.97" font-family="Times,serif" font-size="14.00">(H,I) 1.0</text>
</g>
<!-- (J,G) 1.0 -->
<g id="node2" class="node">
<title>(J,G) 1.0</title>
<ellipse fill="none" stroke="black" cx="347.4" cy="-335.23" rx="48.19" ry="48.19"/>
<text text-anchor="middle" x="347.4" y="-331.53" font-family="Times,serif" font-size="14.00">(J,G) 1.0</text>
</g>
<!-- (H,I) 1.0&#45;&gt;(J,G) 1.0 -->
<g id="edge1" class="edge">
<title>(H,I) 1.0&#45;&gt;(J,G) 1.0</title>
<path fill="none" stroke="black" d="M434.61,-433.2C419.68,-416.61 401.91,-396.84 386.31,-379.5"/>
<polygon fill="black" stroke="black" points="388.61,-376.82 379.32,-371.72 383.4,-381.5 388.61,-376.82"/>
</g>
<!-- (p,q) 1.0 -->
<g id="node3" class="node">
<title>(p,q) 1.0</title>
<ellipse fill="none" stroke="black" cx="528.4" cy="-335.23" rx="50.09" ry="50.09"/>
<text text-anchor="middle" x="528.4" y="-331.53" font-family="Times,serif" font-size="14.00">(p,q) 1.0</text>
</g>
<!-- (H,I) 1.0&#45;&gt;(p,q) 1.0 -->
<g id="edge2" class="edge">
<title>(H,I) 1.0&#45;&gt;(p,q) 1.0</title>
<path fill="none" stroke="black" d="M487.71,-425.23C492.85,-413.99 498.43,-401.79 503.76,-390.13"/>
<polygon fill="black" stroke="black" points="506.99,-391.47 507.96,-380.92 500.62,-388.56 506.99,-391.47"/>
</g>
<!-- (H,J) 2.0 -->
<g id="node4" class="node">
<title>(H,J) 2.0</title>
<ellipse fill="none" stroke="black" cx="169.4" cy="-195.89" rx="49.29" ry="49.29"/>
<text text-anchor="middle" x="169.4" y="-192.19" font-family="Times,serif" font-size="14.00">(H,J) 2.0</text>
</g>
<!-- (J,G) 1.0&#45;&gt;(H,J) 2.0 -->
<g id="edge3" class="edge">
<title>(J,G) 1.0&#45;&gt;(H,J) 2.0</title>
<path fill="none" stroke="black" d="M309.65,-305.1C282.41,-284.08 245.45,-255.57 216.32,-233.09"/>
<polygon fill="black" stroke="black" points="218.38,-230.26 208.32,-226.92 214.1,-235.8 218.38,-230.26"/>
</g>
<!-- (J,p) 1.0 -->
<g id="node5" class="node">
<title>(J,p) 1.0</title>
<ellipse fill="none" stroke="black" cx="347.4" cy="-195.89" rx="46.59" ry="46.59"/>
<text text-anchor="middle" x="347.4" y="-192.19" font-family="Times,serif" font-size="14.00">(J,p) 1.0</text>
</g>
<!-- (J,G) 1.0&#45;&gt;(J,p) 1.0 -->
<g id="edge4" class="edge">
<title>(J,G) 1.0&#45;&gt;(J,p) 1.0</title>
<path fill="none" stroke="black" d="M347.4,-286.96C347.4,-276.03 347.4,-264.3 347.4,-253.03"/>
<polygon fill="black" stroke="black" points="350.9,-252.85 347.4,-242.85 343.9,-252.85 350.9,-252.85"/>
</g>
<!-- (H,D) 2.0 -->
<g id="node6" class="node">
<title>(H,D) 2.0</title>
<ellipse fill="none" stroke="black" cx="528.4" cy="-195.89" rx="53.09" ry="53.09"/>
<text text-anchor="middle" x="528.4" y="-192.19" font-family="Times,serif" font-size="14.00">(H,D) 2.0</text>
</g>
<!-- (p,q) 1.0&#45;&gt;(H,D) 2.0 -->
<g id="edge5" class="edge">
<title>(p,q) 1.0&#45;&gt;(H,D) 2.0</title>
<path fill="none" stroke="black" d="M528.4,-285.03C528.4,-276.82 528.4,-268.21 528.4,-259.72"/>
<polygon fill="black" stroke="black" points="531.9,-259.45 528.4,-249.45 524.9,-259.45 531.9,-259.45"/>
</g>
<!-- (H,C) 4.0 -->
<g id="node7" class="node">
<title>(H,C) 4.0</title>
<ellipse fill="none" stroke="black" cx="652.4" cy="-195.89" rx="52.79" ry="52.79"/>
<text text-anchor="middle" x="652.4" y="-192.19" font-family="Times,serif" font-size="14.00">(H,C) 4.0</text>
</g>
<!-- (p,q) 1.0&#45;&gt;(H,C) 4.0 -->
<g id="edge6" class="edge">
<title>(p,q) 1.0&#45;&gt;(H,C) 4.0</title>
<path fill="none" stroke="black" d="M561.63,-297.42C576.69,-280.74 594.67,-260.82 610.63,-243.14"/>
<polygon fill="black" stroke="black" points="613.24,-245.48 617.34,-235.71 608.04,-240.79 613.24,-245.48"/>
</g>
<!-- (o,n) 2.0 -->
<g id="node8" class="node">
<title>(o,n) 2.0</title>
<ellipse fill="none" stroke="black" cx="49.4" cy="-53.3" rx="49.29" ry="49.29"/>
<text text-anchor="middle" x="49.4" y="-49.6" font-family="Times,serif" font-size="14.00">(o,n) 2.0</text>
</g>
<!-- (H,J) 2.0&#45;&gt;(o,n) 2.0 -->
<g id="edge7" class="edge">
<title>(H,J) 2.0&#45;&gt;(o,n) 2.0</title>
<path fill="none" stroke="black" d="M137.55,-157.58C122.17,-139.56 103.6,-117.8 87.48,-98.92"/>
<polygon fill="black" stroke="black" points="90.13,-96.62 80.97,-91.29 84.8,-101.17 90.13,-96.62"/>
</g>
<!-- (H,K) 3.0 -->
<g id="node9" class="node">
<title>(H,K) 3.0</title>
<ellipse fill="none" stroke="black" cx="169.4" cy="-53.3" rx="52.79" ry="52.79"/>
<text text-anchor="middle" x="169.4" y="-49.6" font-family="Times,serif" font-size="14.00">(H,K) 3.0</text>
</g>
<!-- (H,J) 2.0&#45;&gt;(H,K) 3.0 -->
<g id="edge8" class="edge">
<title>(H,J) 2.0&#45;&gt;(H,K) 3.0</title>
<path fill="none" stroke="black" d="M169.4,-146.11C169.4,-136.57 169.4,-126.45 169.4,-116.55"/>
<polygon fill="black" stroke="black" points="172.9,-116.34 169.4,-106.34 165.9,-116.34 172.9,-116.34"/>
</g>
<!-- (J,K) 2.0 -->
<g id="node10" class="node">
<title>(J,K) 2.0</title>
<ellipse fill="none" stroke="black" cx="288.4" cy="-53.3" rx="48.19" ry="48.19"/>
<text text-anchor="middle" x="288.4" y="-49.6" font-family="Times,serif" font-size="14.00">(J,K) 2.0</text>
</g>
<!-- (J,p) 1.0&#45;&gt;(J,K) 2.0 -->
<g id="edge9" class="edge">
<title>(J,p) 1.0&#45;&gt;(J,K) 2.0</title>
<path fill="none" stroke="black" d="M329.53,-152.32C323.64,-138.27 317,-122.45 310.8,-107.69"/>
<polygon fill="black" stroke="black" points="313.91,-106.04 306.81,-98.17 307.45,-108.75 313.91,-106.04"/>
</g>
<!-- (H,G) 2.0 -->
<g id="node11" class="node">
<title>(H,G) 2.0</title>
<ellipse fill="none" stroke="black" cx="407.4" cy="-53.3" rx="53.09" ry="53.09"/>
<text text-anchor="middle" x="407.4" y="-49.6" font-family="Times,serif" font-size="14.00">(H,G) 2.0</text>
</g>
<!-- (J,p) 1.0&#45;&gt;(H,G) 2.0 -->
<g id="edge10" class="edge">
<title>(J,p) 1.0&#45;&gt;(H,G) 2.0</title>
<path fill="none" stroke="black" d="M365.56,-152.32C371,-139.58 377.05,-125.4 382.83,-111.86"/>
<polygon fill="black" stroke="black" points="386.07,-113.19 386.77,-102.62 379.63,-110.45 386.07,-113.19"/>
</g>
<!-- (p,L) 6.0 -->
<g id="node12" class="node">
<title>(p,L) 6.0</title>
<ellipse fill="none" stroke="black" cx="528.4" cy="-53.3" rx="50.09" ry="50.09"/>
<text text-anchor="middle" x="528.4" y="-49.6" font-family="Times,serif" font-size="14.00">(p,L) 6.0</text>
</g>
<!-- (H,D) 2.0&#45;&gt;(p,L) 6.0 -->
<g id="edge11" class="edge">
<title>(H,D) 2.0&#45;&gt;(p,L) 6.0</title>
<path fill="none" stroke="black" d="M528.4,-142.54C528.4,-133.13 528.4,-123.27 528.4,-113.69"/>
<polygon fill="black" stroke="black" points="531.9,-113.43 528.4,-103.43 524.9,-113.43 531.9,-113.43"/>
</g>
<!-- (p,o) 3.0 -->
<g id="node13" class="node">
<title>(p,o) 3.0</title>
<ellipse fill="none" stroke="black" cx="645.4" cy="-53.3" rx="49.29" ry="49.29"/>
<text text-anchor="middle" x="645.4" y="-49.6" font-family="Times,serif" font-size="14.00">(p,o) 3.0</text>
</g>
<!-- (H,D) 2.0&#45;&gt;(p,o) 3.0 -->
<g id="edge12" class="edge">
<title>(H,D) 2.0&#45;&gt;(p,o) 3.0</title>
<path fill="none" stroke="black" d="M562.24,-154.22C576.4,-137.2 592.92,-117.35 607.49,-99.84"/>
<polygon fill="black" stroke="black" points="610.33,-101.9 614.03,-91.98 604.95,-97.43 610.33,-101.9"/>
</g>
</g>
</svg>
