<?xml version="1.0" encoding="UTF-8" standalone="no"?>
<!DOCTYPE svg PUBLIC "-//W3C//DTD SVG 1.1//EN"
 "http://www.w3.org/Graphics/SVG/1.1/DTD/svg11.dtd">
<!-- Generated by graphviz version 2.43.0 (0)
 -->
<!-- Title: %3 Pages: 1 -->
<svg width="675pt" height="528pt"
 viewBox="0.00 0.00 675.04 528.06" xmlns="http://www.w3.org/2000/svg" xmlns:xlink="http://www.w3.org/1999/xlink">
<g id="graph0" class="graph" transform="scale(1 1) rotate(0) translate(4 524.06)">
<title>%3</title>
<polygon fill="white" stroke="transparent" points="-4,4 -4,-524.06 671.04,-524.06 671.04,4 -4,4"/>
<!-- (H,I) 1.0 -->
<g id="node1" class="node">
<title>(H,I) 1.0</title>
<ellipse fill="none" stroke="black" cx="379.65" cy="-470.67" rx="49.29" ry="49.29"/>
<text text-anchor="middle" x="379.65" y="-466.97" font-family="Times,serif" font-size="14.00">(H,I) 1.0</text>
</g>
<!-- (J,G) 1.0 -->
<g id="node2" class="node">
<title>(J,G) 1.0</title>
<ellipse fill="none" stroke="black" cx="321.65" cy="-335.23" rx="48.19" ry="48.19"/>
<text text-anchor="middle" x="321.65" y="-331.53" font-family="Times,serif" font-size="14.00">(J,G) 1.0</text>
</g>
<!-- (H,I) 1.0&#45;&gt;(J,G) 1.0 -->
<g id="edge1" class="edge">
<title>(H,I) 1.0&#45;&gt;(J,G) 1.0</title>
<path fill="none" stroke="black" d="M360.17,-424.86C355.19,-413.39 349.78,-400.95 344.63,-389.11"/>
<polygon fill="black" stroke="black" points="347.77,-387.56 340.58,-379.78 341.35,-390.35 347.77,-387.56"/>
</g>
<!-- (p,q) 1.0 -->
<g id="node3" class="node">
<title>(p,q) 1.0</title>
<ellipse fill="none" stroke="black" cx="500.65" cy="-335.23" rx="50.09" ry="50.09"/>
<text text-anchor="middle" x="500.65" y="-331.53" font-family="Times,serif" font-size="14.00">(p,q) 1.0</text>
</g>
<!-- (H,I) 1.0&#45;&gt;(p,q) 1.0 -->
<g id="edge2" class="edge">
<title>(H,I) 1.0&#45;&gt;(p,q) 1.0</title>
<path fill="none" stroke="black" d="M412.39,-433.56C427.2,-417.22 444.84,-397.77 460.45,-380.56"/>
<polygon fill="black" stroke="black" points="463.33,-382.59 467.45,-372.83 458.14,-377.89 463.33,-382.59"/>
</g>
<!-- (H,G) 2.0 -->
<g id="node4" class="node">
<title>(H,G) 2.0</title>
<ellipse fill="none" stroke="black" cx="171.65" cy="-195.89" rx="53.09" ry="53.09"/>
<text text-anchor="middle" x="171.65" y="-192.19" font-family="Times,serif" font-size="14.00">(H,G) 2.0</text>
</g>
<!-- (J,G) 1.0&#45;&gt;(H,G) 2.0 -->
<g id="edge3" class="edge">
<title>(J,G) 1.0&#45;&gt;(H,G) 2.0</title>
<path fill="none" stroke="black" d="M286.48,-302.03C266.11,-283.37 240.21,-259.66 218.17,-239.48"/>
<polygon fill="black" stroke="black" points="220.29,-236.68 210.55,-232.51 215.56,-241.84 220.29,-236.68"/>
</g>
<!-- (J,p) 1.0 -->
<g id="node5" class="node">
<title>(J,p) 1.0</title>
<ellipse fill="none" stroke="black" cx="321.65" cy="-195.89" rx="46.59" ry="46.59"/>
<text text-anchor="middle" x="321.65" y="-192.19" font-family="Times,serif" font-size="14.00">(J,p) 1.0</text>
</g>
<!-- (J,G) 1.0&#45;&gt;(J,p) 1.0 -->
<g id="edge4" class="edge">
<title>(J,G) 1.0&#45;&gt;(J,p) 1.0</title>
<path fill="none" stroke="black" d="M321.65,-286.96C321.65,-276.03 321.65,-264.3 321.65,-253.03"/>
<polygon fill="black" stroke="black" points="325.15,-252.85 321.65,-242.85 318.15,-252.85 325.15,-252.85"/>
</g>
<!-- (p,o) 3.0 -->
<g id="node6" class="node">
<title>(p,o) 3.0</title>
<ellipse fill="none" stroke="black" cx="500.65" cy="-195.89" rx="49.29" ry="49.29"/>
<text text-anchor="middle" x="500.65" y="-192.19" font-family="Times,serif" font-size="14.00">(p,o) 3.0</text>
</g>
<!-- (p,q) 1.0&#45;&gt;(p,o) 3.0 -->
<g id="edge5" class="edge">
<title>(p,q) 1.0&#45;&gt;(p,o) 3.0</title>
<path fill="none" stroke="black" d="M500.65,-285.03C500.65,-275.55 500.65,-265.53 500.65,-255.77"/>
<polygon fill="black" stroke="black" points="504.15,-255.74 500.65,-245.74 497.15,-255.74 504.15,-255.74"/>
</g>
<!-- (H,J) 2.0 -->
<g id="node7" class="node">
<title>(H,J) 2.0</title>
<ellipse fill="none" stroke="black" cx="617.65" cy="-195.89" rx="49.29" ry="49.29"/>
<text text-anchor="middle" x="617.65" y="-192.19" font-family="Times,serif" font-size="14.00">(H,J) 2.0</text>
</g>
<!-- (p,q) 1.0&#45;&gt;(H,J) 2.0 -->
<g id="edge6" class="edge">
<title>(p,q) 1.0&#45;&gt;(H,J) 2.0</title>
<path fill="none" stroke="black" d="M532.62,-296.7C546.93,-279.89 563.94,-259.93 578.96,-242.29"/>
<polygon fill="black" stroke="black" points="581.89,-244.25 585.71,-234.37 576.56,-239.71 581.89,-244.25"/>
</g>
<!-- (H,K) 3.0 -->
<g id="node8" class="node">
<title>(H,K) 3.0</title>
<ellipse fill="none" stroke="black" cx="52.65" cy="-53.3" rx="52.79" ry="52.79"/>
<text text-anchor="middle" x="52.65" y="-49.6" font-family="Times,serif" font-size="14.00">(H,K) 3.0</text>
</g>
<!-- (H,G) 2.0&#45;&gt;(H,K) 3.0 -->
<g id="edge7" class="edge">
<title>(H,G) 2.0&#45;&gt;(H,K) 3.0</title>
<path fill="none" stroke="black" d="M137.54,-154.6C123.61,-138.13 107.38,-118.96 92.87,-101.82"/>
<polygon fill="black" stroke="black" points="95.47,-99.47 86.34,-94.1 90.13,-104 95.47,-99.47"/>
</g>
<!-- (J,K) 2.0 -->
<g id="node9" class="node">
<title>(J,K) 2.0</title>
<ellipse fill="none" stroke="black" cx="171.65" cy="-53.3" rx="48.19" ry="48.19"/>
<text text-anchor="middle" x="171.65" y="-49.6" font-family="Times,serif" font-size="14.00">(J,K) 2.0</text>
</g>
<!-- (H,G) 2.0&#45;&gt;(J,K) 2.0 -->
<g id="edge8" class="edge">
<title>(H,G) 2.0&#45;&gt;(J,K) 2.0</title>
<path fill="none" stroke="black" d="M171.65,-142.54C171.65,-132.46 171.65,-121.87 171.65,-111.65"/>
<polygon fill="black" stroke="black" points="175.15,-111.59 171.65,-101.59 168.15,-111.59 175.15,-111.59"/>
</g>
<!-- (H,D) 2.0 -->
<g id="node10" class="node">
<title>(H,D) 2.0</title>
<ellipse fill="none" stroke="black" cx="290.65" cy="-53.3" rx="53.09" ry="53.09"/>
<text text-anchor="middle" x="290.65" y="-49.6" font-family="Times,serif" font-size="14.00">(H,D) 2.0</text>
</g>
<!-- (J,p) 1.0&#45;&gt;(H,D) 2.0 -->
<g id="edge9" class="edge">
<title>(J,p) 1.0&#45;&gt;(H,D) 2.0</title>
<path fill="none" stroke="black" d="M311.75,-150.02C309.34,-139.08 306.72,-127.19 304.17,-115.63"/>
<polygon fill="black" stroke="black" points="307.53,-114.6 301.95,-105.59 300.69,-116.11 307.53,-114.6"/>
</g>
<!-- (p,L) 6.0 -->
<g id="node11" class="node">
<title>(p,L) 6.0</title>
<ellipse fill="none" stroke="black" cx="411.65" cy="-53.3" rx="50.09" ry="50.09"/>
<text text-anchor="middle" x="411.65" y="-49.6" font-family="Times,serif" font-size="14.00">(p,L) 6.0</text>
</g>
<!-- (J,p) 1.0&#45;&gt;(p,L) 6.0 -->
<g id="edge10" class="edge">
<title>(J,p) 1.0&#45;&gt;(p,L) 6.0</title>
<path fill="none" stroke="black" d="M346.48,-156.1C356.67,-140.18 368.6,-121.54 379.45,-104.59"/>
<polygon fill="black" stroke="black" points="382.56,-106.22 385,-95.91 376.67,-102.45 382.56,-106.22"/>
</g>
<!-- (H,C) 4.0 -->
<g id="node12" class="node">
<title>(H,C) 4.0</title>
<ellipse fill="none" stroke="black" cx="532.65" cy="-53.3" rx="52.79" ry="52.79"/>
<text text-anchor="middle" x="532.65" y="-49.6" font-family="Times,serif" font-size="14.00">(H,C) 4.0</text>
</g>
<!-- (p,o) 3.0&#45;&gt;(H,C) 4.0 -->
<g id="edge11" class="edge">
<title>(p,o) 3.0&#45;&gt;(H,C) 4.0</title>
<path fill="none" stroke="black" d="M511.48,-147.29C513.87,-136.8 516.43,-125.55 518.91,-114.63"/>
<polygon fill="black" stroke="black" points="522.36,-115.26 521.17,-104.73 515.53,-113.7 522.36,-115.26"/>
</g>
</g>
</svg>
