<?xml version="1.0" encoding="UTF-8" standalone="no"?>
<!DOCTYPE svg PUBLIC "-//W3C//DTD SVG 1.1//EN"
 "http://www.w3.org/Graphics/SVG/1.1/DTD/svg11.dtd">
<!-- Generated by graphviz version 2.43.0 (0)
 -->
<!-- Title: %3 Pages: 1 -->
<svg width="832pt" height="528pt"
 viewBox="0.00 0.00 832.29 528.06" xmlns="http://www.w3.org/2000/svg" xmlns:xlink="http://www.w3.org/1999/xlink">
<g id="graph0" class="graph" transform="scale(1 1) rotate(0) translate(4 524.06)">
<title>%3</title>
<polygon fill="white" stroke="transparent" points="-4,4 -4,-524.06 828.29,-524.06 828.29,4 -4,4"/>
<!-- (H,I) 1.0 -->
<g id="node1" class="node">
<title>(H,I) 1.0</title>
<ellipse fill="none" stroke="black" cx="473.65" cy="-470.67" rx="49.29" ry="49.29"/>
<text text-anchor="middle" x="473.65" y="-466.97" font-family="Times,serif" font-size="14.00">(H,I) 1.0</text>
</g>
<!-- (J,G) 1.0 -->
<g id="node2" class="node">
<title>(J,G) 1.0</title>
<ellipse fill="none" stroke="black" cx="353.65" cy="-335.23" rx="48.19" ry="48.19"/>
<text text-anchor="middle" x="353.65" y="-331.53" font-family="Times,serif" font-size="14.00">(J,G) 1.0</text>
</g>
<!-- (H,I) 1.0&#45;&gt;(J,G) 1.0 -->
<g id="edge1" class="edge">
<title>(H,I) 1.0&#45;&gt;(J,G) 1.0</title>
<path fill="none" stroke="black" d="M440.85,-433.2C425.93,-416.61 408.16,-396.84 392.56,-379.5"/>
<polygon fill="black" stroke="black" points="394.86,-376.82 385.57,-371.72 389.65,-381.5 394.86,-376.82"/>
</g>
<!-- (p,q) 1.0 -->
<g id="node3" class="node">
<title>(p,q) 1.0</title>
<ellipse fill="none" stroke="black" cx="563.65" cy="-335.23" rx="50.09" ry="50.09"/>
<text text-anchor="middle" x="563.65" y="-331.53" font-family="Times,serif" font-size="14.00">(p,q) 1.0</text>
</g>
<!-- (H,I) 1.0&#45;&gt;(p,q) 1.0 -->
<g id="edge2" class="edge">
<title>(H,I) 1.0&#45;&gt;(p,q) 1.0</title>
<path fill="none" stroke="black" d="M500.89,-429.27C510.15,-415.55 520.6,-400.05 530.27,-385.71"/>
<polygon fill="black" stroke="black" points="533.18,-387.66 535.87,-377.41 527.38,-383.74 533.18,-387.66"/>
</g>
<!-- (H,J) 2.0 -->
<g id="node4" class="node">
<title>(H,J) 2.0</title>
<ellipse fill="none" stroke="black" cx="175.65" cy="-195.89" rx="49.29" ry="49.29"/>
<text text-anchor="middle" x="175.65" y="-192.19" font-family="Times,serif" font-size="14.00">(H,J) 2.0</text>
</g>
<!-- (J,G) 1.0&#45;&gt;(H,J) 2.0 -->
<g id="edge3" class="edge">
<title>(J,G) 1.0&#45;&gt;(H,J) 2.0</title>
<path fill="none" stroke="black" d="M315.9,-305.1C288.66,-284.08 251.7,-255.57 222.57,-233.09"/>
<polygon fill="black" stroke="black" points="224.63,-230.26 214.57,-226.92 220.35,-235.8 224.63,-230.26"/>
</g>
<!-- (J,p) 1.0 -->
<g id="node5" class="node">
<title>(J,p) 1.0</title>
<ellipse fill="none" stroke="black" cx="353.65" cy="-195.89" rx="46.59" ry="46.59"/>
<text text-anchor="middle" x="353.65" y="-192.19" font-family="Times,serif" font-size="14.00">(J,p) 1.0</text>
</g>
<!-- (J,G) 1.0&#45;&gt;(J,p) 1.0 -->
<g id="edge4" class="edge">
<title>(J,G) 1.0&#45;&gt;(J,p) 1.0</title>
<path fill="none" stroke="black" d="M353.65,-286.96C353.65,-276.03 353.65,-264.3 353.65,-253.03"/>
<polygon fill="black" stroke="black" points="357.15,-252.85 353.65,-242.85 350.15,-252.85 357.15,-252.85"/>
</g>
<!-- (H,D) 2.0 -->
<g id="node6" class="node">
<title>(H,D) 2.0</title>
<ellipse fill="none" stroke="black" cx="563.65" cy="-195.89" rx="53.09" ry="53.09"/>
<text text-anchor="middle" x="563.65" y="-192.19" font-family="Times,serif" font-size="14.00">(H,D) 2.0</text>
</g>
<!-- (p,q) 1.0&#45;&gt;(H,D) 2.0 -->
<g id="edge5" class="edge">
<title>(p,q) 1.0&#45;&gt;(H,D) 2.0</title>
<path fill="none" stroke="black" d="M563.65,-285.03C563.65,-276.82 563.65,-268.21 563.65,-259.72"/>
<polygon fill="black" stroke="black" points="567.15,-259.45 563.65,-249.45 560.15,-259.45 567.15,-259.45"/>
</g>
<!-- (q,r) 3.0 -->
<g id="node7" class="node">
<title>(q,r) 3.0</title>
<ellipse fill="none" stroke="black" cx="741.65" cy="-195.89" rx="48.19" ry="48.19"/>
<text text-anchor="middle" x="741.65" y="-192.19" font-family="Times,serif" font-size="14.00">(q,r) 3.0</text>
</g>
<!-- (p,q) 1.0&#45;&gt;(q,r) 3.0 -->
<g id="edge6" class="edge">
<title>(p,q) 1.0&#45;&gt;(q,r) 3.0</title>
<path fill="none" stroke="black" d="M603.15,-303.75C630.46,-282.67 666.9,-254.56 695.54,-232.46"/>
<polygon fill="black" stroke="black" points="698,-234.98 703.78,-226.1 693.72,-229.44 698,-234.98"/>
</g>
<!-- (q,m) 3.0 -->
<g id="node8" class="node">
<title>(q,m) 3.0</title>
<ellipse fill="none" stroke="black" cx="52.65" cy="-53.3" rx="52.79" ry="52.79"/>
<text text-anchor="middle" x="52.65" y="-49.6" font-family="Times,serif" font-size="14.00">(q,m) 3.0</text>
</g>
<!-- (H,J) 2.0&#45;&gt;(q,m) 3.0 -->
<g id="edge7" class="edge">
<title>(H,J) 2.0&#45;&gt;(q,m) 3.0</title>
<path fill="none" stroke="black" d="M143.33,-157.95C128.13,-140.58 109.84,-119.67 93.68,-101.2"/>
<polygon fill="black" stroke="black" points="96.12,-98.67 86.9,-93.45 90.85,-103.28 96.12,-98.67"/>
</g>
<!-- (H,K) 3.0 -->
<g id="node9" class="node">
<title>(H,K) 3.0</title>
<ellipse fill="none" stroke="black" cx="175.65" cy="-53.3" rx="52.79" ry="52.79"/>
<text text-anchor="middle" x="175.65" y="-49.6" font-family="Times,serif" font-size="14.00">(H,K) 3.0</text>
</g>
<!-- (H,J) 2.0&#45;&gt;(H,K) 3.0 -->
<g id="edge8" class="edge">
<title>(H,J) 2.0&#45;&gt;(H,K) 3.0</title>
<path fill="none" stroke="black" d="M175.65,-146.11C175.65,-136.57 175.65,-126.45 175.65,-116.55"/>
<polygon fill="black" stroke="black" points="179.15,-116.34 175.65,-106.34 172.15,-116.34 179.15,-116.34"/>
</g>
<!-- (J,K) 2.0 -->
<g id="node10" class="node">
<title>(J,K) 2.0</title>
<ellipse fill="none" stroke="black" cx="294.65" cy="-53.3" rx="48.19" ry="48.19"/>
<text text-anchor="middle" x="294.65" y="-49.6" font-family="Times,serif" font-size="14.00">(J,K) 2.0</text>
</g>
<!-- (J,p) 1.0&#45;&gt;(J,K) 2.0 -->
<g id="edge9" class="edge">
<title>(J,p) 1.0&#45;&gt;(J,K) 2.0</title>
<path fill="none" stroke="black" d="M335.78,-152.32C329.88,-138.27 323.25,-122.45 317.05,-107.69"/>
<polygon fill="black" stroke="black" points="320.16,-106.04 313.06,-98.17 313.7,-108.75 320.16,-106.04"/>
</g>
<!-- (H,G) 2.0 -->
<g id="node11" class="node">
<title>(H,G) 2.0</title>
<ellipse fill="none" stroke="black" cx="413.65" cy="-53.3" rx="53.09" ry="53.09"/>
<text text-anchor="middle" x="413.65" y="-49.6" font-family="Times,serif" font-size="14.00">(H,G) 2.0</text>
</g>
<!-- (J,p) 1.0&#45;&gt;(H,G) 2.0 -->
<g id="edge10" class="edge">
<title>(J,p) 1.0&#45;&gt;(H,G) 2.0</title>
<path fill="none" stroke="black" d="M371.81,-152.32C377.25,-139.58 383.3,-125.4 389.08,-111.86"/>
<polygon fill="black" stroke="black" points="392.31,-113.19 393.02,-102.62 385.88,-110.45 392.31,-113.19"/>
</g>
<!-- (p,L) 6.0 -->
<g id="node12" class="node">
<title>(p,L) 6.0</title>
<ellipse fill="none" stroke="black" cx="534.65" cy="-53.3" rx="50.09" ry="50.09"/>
<text text-anchor="middle" x="534.65" y="-49.6" font-family="Times,serif" font-size="14.00">(p,L) 6.0</text>
</g>
<!-- (H,D) 2.0&#45;&gt;(p,L) 6.0 -->
<g id="edge11" class="edge">
<title>(H,D) 2.0&#45;&gt;(p,L) 6.0</title>
<path fill="none" stroke="black" d="M553.01,-143.33C550.95,-133.34 548.78,-122.8 546.67,-112.61"/>
<polygon fill="black" stroke="black" points="550.05,-111.66 544.6,-102.57 543.2,-113.07 550.05,-111.66"/>
</g>
<!-- (p,o) 3.0 -->
<g id="node13" class="node">
<title>(p,o) 3.0</title>
<ellipse fill="none" stroke="black" cx="651.65" cy="-53.3" rx="49.29" ry="49.29"/>
<text text-anchor="middle" x="651.65" y="-49.6" font-family="Times,serif" font-size="14.00">(p,o) 3.0</text>
</g>
<!-- (H,D) 2.0&#45;&gt;(p,o) 3.0 -->
<g id="edge12" class="edge">
<title>(H,D) 2.0&#45;&gt;(p,o) 3.0</title>
<path fill="none" stroke="black" d="M591.49,-150.4C600.67,-135.74 610.93,-119.34 620.35,-104.3"/>
<polygon fill="black" stroke="black" points="623.44,-105.96 625.78,-95.62 617.51,-102.24 623.44,-105.96"/>
</g>
<!-- (H,C) 4.0 -->
<g id="node14" class="node">
<title>(H,C) 4.0</title>
<ellipse fill="none" stroke="black" cx="771.65" cy="-53.3" rx="52.79" ry="52.79"/>
<text text-anchor="middle" x="771.65" y="-49.6" font-family="Times,serif" font-size="14.00">(H,C) 4.0</text>
</g>
<!-- (q,r) 3.0&#45;&gt;(H,C) 4.0 -->
<g id="edge13" class="edge">
<title>(q,r) 3.0&#45;&gt;(H,C) 4.0</title>
<path fill="none" stroke="black" d="M751.55,-148.46C753.85,-137.7 756.33,-126.09 758.73,-114.82"/>
<polygon fill="black" stroke="black" points="762.15,-115.54 760.82,-105.03 755.31,-114.08 762.15,-115.54"/>
</g>
</g>
</svg>
