<?xml version="1.0" encoding="UTF-8" standalone="no"?>
<!DOCTYPE svg PUBLIC "-//W3C//DTD SVG 1.1//EN"
 "http://www.w3.org/Graphics/SVG/1.1/DTD/svg11.dtd">
<!-- Generated by graphviz version 2.43.0 (0)
 -->
<!-- Title: %3 Pages: 1 -->
<svg width="951pt" height="524pt"
 viewBox="0.00 0.00 950.74 524.16" xmlns="http://www.w3.org/2000/svg" xmlns:xlink="http://www.w3.org/1999/xlink">
<g id="graph0" class="graph" transform="scale(1 1) rotate(0) translate(4 520.16)">
<title>%3</title>
<polygon fill="white" stroke="transparent" points="-4,4 -4,-520.16 946.74,-520.16 946.74,4 -4,4"/>
<!-- (H,I) 1.0 -->
<g id="node1" class="node">
<title>(H,I) 1.0</title>
<ellipse fill="none" stroke="black" cx="478.65" cy="-466.77" rx="49.29" ry="49.29"/>
<text text-anchor="middle" x="478.65" y="-463.07" font-family="Times,serif" font-size="14.00">(H,I) 1.0</text>
</g>
<!-- (J,G) 1.0 -->
<g id="node2" class="node">
<title>(J,G) 1.0</title>
<ellipse fill="none" stroke="black" cx="356.65" cy="-333.28" rx="48.19" ry="48.19"/>
<text text-anchor="middle" x="356.65" y="-329.58" font-family="Times,serif" font-size="14.00">(J,G) 1.0</text>
</g>
<!-- (H,I) 1.0&#45;&gt;(J,G) 1.0 -->
<g id="edge1" class="edge">
<title>(H,I) 1.0&#45;&gt;(J,G) 1.0</title>
<path fill="none" stroke="black" d="M445.31,-429.84C430.14,-413.48 412.07,-394.01 396.21,-376.92"/>
<polygon fill="black" stroke="black" points="398.47,-374.21 389.1,-369.26 393.33,-378.97 398.47,-374.21"/>
</g>
<!-- (J,p) 1.0 -->
<g id="node3" class="node">
<title>(J,p) 1.0</title>
<ellipse fill="none" stroke="black" cx="599.65" cy="-333.28" rx="46.59" ry="46.59"/>
<text text-anchor="middle" x="599.65" y="-329.58" font-family="Times,serif" font-size="14.00">(J,p) 1.0</text>
</g>
<!-- (H,I) 1.0&#45;&gt;(J,p) 1.0 -->
<g id="edge2" class="edge">
<title>(H,I) 1.0&#45;&gt;(J,p) 1.0</title>
<path fill="none" stroke="black" d="M511.71,-429.84C527,-413.22 545.26,-393.38 561.16,-376.09"/>
<polygon fill="black" stroke="black" points="564.09,-378.08 568.29,-368.35 558.94,-373.34 564.09,-378.08"/>
</g>
<!-- (H,J) 2.0 -->
<g id="node4" class="node">
<title>(H,J) 2.0</title>
<ellipse fill="none" stroke="black" cx="175.65" cy="-195.89" rx="49.29" ry="49.29"/>
<text text-anchor="middle" x="175.65" y="-192.19" font-family="Times,serif" font-size="14.00">(H,J) 2.0</text>
</g>
<!-- (J,G) 1.0&#45;&gt;(H,J) 2.0 -->
<g id="edge3" class="edge">
<title>(J,G) 1.0&#45;&gt;(H,J) 2.0</title>
<path fill="none" stroke="black" d="M318.26,-303.56C290.47,-282.77 252.73,-254.55 223.05,-232.35"/>
<polygon fill="black" stroke="black" points="225.02,-229.45 214.91,-226.26 220.82,-235.05 225.02,-229.45"/>
</g>
<!-- (J,K) 2.0 -->
<g id="node5" class="node">
<title>(J,K) 2.0</title>
<ellipse fill="none" stroke="black" cx="356.65" cy="-195.89" rx="48.19" ry="48.19"/>
<text text-anchor="middle" x="356.65" y="-192.19" font-family="Times,serif" font-size="14.00">(J,K) 2.0</text>
</g>
<!-- (J,G) 1.0&#45;&gt;(J,K) 2.0 -->
<g id="edge4" class="edge">
<title>(J,G) 1.0&#45;&gt;(J,K) 2.0</title>
<path fill="none" stroke="black" d="M356.65,-284.92C356.65,-274.97 356.65,-264.37 356.65,-254.11"/>
<polygon fill="black" stroke="black" points="360.15,-253.98 356.65,-243.98 353.15,-253.98 360.15,-253.98"/>
</g>
<!-- (p,q) 1.0 -->
<g id="node6" class="node">
<title>(p,q) 1.0</title>
<ellipse fill="none" stroke="black" cx="599.65" cy="-195.89" rx="50.09" ry="50.09"/>
<text text-anchor="middle" x="599.65" y="-192.19" font-family="Times,serif" font-size="14.00">(p,q) 1.0</text>
</g>
<!-- (J,p) 1.0&#45;&gt;(p,q) 1.0 -->
<g id="edge5" class="edge">
<title>(J,p) 1.0&#45;&gt;(p,q) 1.0</title>
<path fill="none" stroke="black" d="M599.65,-286.44C599.65,-276.87 599.65,-266.66 599.65,-256.67"/>
<polygon fill="black" stroke="black" points="603.15,-256.39 599.65,-246.39 596.15,-256.39 603.15,-256.39"/>
</g>
<!-- (H,D) 2.0 -->
<g id="node7" class="node">
<title>(H,D) 2.0</title>
<ellipse fill="none" stroke="black" cx="779.65" cy="-195.89" rx="53.09" ry="53.09"/>
<text text-anchor="middle" x="779.65" y="-192.19" font-family="Times,serif" font-size="14.00">(H,D) 2.0</text>
</g>
<!-- (J,p) 1.0&#45;&gt;(H,D) 2.0 -->
<g id="edge6" class="edge">
<title>(J,p) 1.0&#45;&gt;(H,D) 2.0</title>
<path fill="none" stroke="black" d="M636.94,-304.22C663.67,-284.12 699.98,-256.81 729.29,-234.77"/>
<polygon fill="black" stroke="black" points="731.46,-237.51 737.35,-228.7 727.26,-231.91 731.46,-237.51"/>
</g>
<!-- (H,C) 4.0 -->
<g id="node8" class="node">
<title>(H,C) 4.0</title>
<ellipse fill="none" stroke="black" cx="52.65" cy="-53.3" rx="52.79" ry="52.79"/>
<text text-anchor="middle" x="52.65" y="-49.6" font-family="Times,serif" font-size="14.00">(H,C) 4.0</text>
</g>
<!-- (H,J) 2.0&#45;&gt;(H,C) 4.0 -->
<g id="edge7" class="edge">
<title>(H,J) 2.0&#45;&gt;(H,C) 4.0</title>
<path fill="none" stroke="black" d="M143.33,-157.95C128.13,-140.58 109.84,-119.67 93.68,-101.2"/>
<polygon fill="black" stroke="black" points="96.12,-98.67 86.9,-93.45 90.85,-103.28 96.12,-98.67"/>
</g>
<!-- (q,m) 3.0 -->
<g id="node9" class="node">
<title>(q,m) 3.0</title>
<ellipse fill="none" stroke="black" cx="175.65" cy="-53.3" rx="52.79" ry="52.79"/>
<text text-anchor="middle" x="175.65" y="-49.6" font-family="Times,serif" font-size="14.00">(q,m) 3.0</text>
</g>
<!-- (H,J) 2.0&#45;&gt;(q,m) 3.0 -->
<g id="edge8" class="edge">
<title>(H,J) 2.0&#45;&gt;(q,m) 3.0</title>
<path fill="none" stroke="black" d="M175.65,-146.11C175.65,-136.57 175.65,-126.45 175.65,-116.55"/>
<polygon fill="black" stroke="black" points="179.15,-116.34 175.65,-106.34 172.15,-116.34 179.15,-116.34"/>
</g>
<!-- (r,m) 4.0 -->
<g id="node10" class="node">
<title>(r,m) 4.0</title>
<ellipse fill="none" stroke="black" cx="296.65" cy="-53.3" rx="50.09" ry="50.09"/>
<text text-anchor="middle" x="296.65" y="-49.6" font-family="Times,serif" font-size="14.00">(r,m) 4.0</text>
</g>
<!-- (J,K) 2.0&#45;&gt;(r,m) 4.0 -->
<g id="edge9" class="edge">
<title>(J,K) 2.0&#45;&gt;(r,m) 4.0</title>
<path fill="none" stroke="black" d="M337.99,-151.17C332.34,-137.94 326.07,-123.24 320.15,-109.37"/>
<polygon fill="black" stroke="black" points="323.26,-107.75 316.12,-99.93 316.83,-110.5 323.26,-107.75"/>
</g>
<!-- (H,K) 3.0 -->
<g id="node11" class="node">
<title>(H,K) 3.0</title>
<ellipse fill="none" stroke="black" cx="417.65" cy="-53.3" rx="52.79" ry="52.79"/>
<text text-anchor="middle" x="417.65" y="-49.6" font-family="Times,serif" font-size="14.00">(H,K) 3.0</text>
</g>
<!-- (J,K) 2.0&#45;&gt;(H,K) 3.0 -->
<g id="edge10" class="edge">
<title>(J,K) 2.0&#45;&gt;(H,K) 3.0</title>
<path fill="none" stroke="black" d="M375.45,-151.56C380.91,-138.96 386.97,-125.01 392.74,-111.69"/>
<polygon fill="black" stroke="black" points="396.12,-112.7 396.89,-102.13 389.7,-109.91 396.12,-112.7"/>
</g>
<!-- (H,G) 2.0 -->
<g id="node12" class="node">
<title>(H,G) 2.0</title>
<ellipse fill="none" stroke="black" cx="541.65" cy="-53.3" rx="53.09" ry="53.09"/>
<text text-anchor="middle" x="541.65" y="-49.6" font-family="Times,serif" font-size="14.00">(H,G) 2.0</text>
</g>
<!-- (p,q) 1.0&#45;&gt;(H,G) 2.0 -->
<g id="edge11" class="edge">
<title>(p,q) 1.0&#45;&gt;(H,G) 2.0</title>
<path fill="none" stroke="black" d="M580.81,-149.24C575.96,-137.48 570.68,-124.67 565.61,-112.38"/>
<polygon fill="black" stroke="black" points="568.83,-111.01 561.78,-103.1 562.36,-113.68 568.83,-111.01"/>
</g>
<!-- (p,L) 6.0 -->
<g id="node13" class="node">
<title>(p,L) 6.0</title>
<ellipse fill="none" stroke="black" cx="662.65" cy="-53.3" rx="50.09" ry="50.09"/>
<text text-anchor="middle" x="662.65" y="-49.6" font-family="Times,serif" font-size="14.00">(p,L) 6.0</text>
</g>
<!-- (p,q) 1.0&#45;&gt;(p,L) 6.0 -->
<g id="edge12" class="edge">
<title>(p,q) 1.0&#45;&gt;(p,L) 6.0</title>
<path fill="none" stroke="black" d="M619.75,-150.02C625.66,-136.83 632.19,-122.26 638.33,-108.55"/>
<polygon fill="black" stroke="black" points="641.62,-109.78 642.51,-99.22 635.23,-106.92 641.62,-109.78"/>
</g>
<!-- (p,o) 3.0 -->
<g id="node14" class="node">
<title>(p,o) 3.0</title>
<ellipse fill="none" stroke="black" cx="779.65" cy="-53.3" rx="49.29" ry="49.29"/>
<text text-anchor="middle" x="779.65" y="-49.6" font-family="Times,serif" font-size="14.00">(p,o) 3.0</text>
</g>
<!-- (H,D) 2.0&#45;&gt;(p,o) 3.0 -->
<g id="edge13" class="edge">
<title>(H,D) 2.0&#45;&gt;(p,o) 3.0</title>
<path fill="none" stroke="black" d="M779.65,-142.54C779.65,-132.92 779.65,-122.82 779.65,-113.03"/>
<polygon fill="black" stroke="black" points="783.15,-112.97 779.65,-102.97 776.15,-112.97 783.15,-112.97"/>
</g>
<!-- (q,r) 3.0 -->
<g id="node15" class="node">
<title>(q,r) 3.0</title>
<ellipse fill="none" stroke="black" cx="894.65" cy="-53.3" rx="48.19" ry="48.19"/>
<text text-anchor="middle" x="894.65" y="-49.6" font-family="Times,serif" font-size="14.00">(q,r) 3.0</text>
</g>
<!-- (H,D) 2.0&#45;&gt;(q,r) 3.0 -->
<g id="edge14" class="edge">
<title>(H,D) 2.0&#45;&gt;(q,r) 3.0</title>
<path fill="none" stroke="black" d="M812.91,-154.22C827.06,-136.92 843.61,-116.69 858.1,-98.97"/>
<polygon fill="black" stroke="black" points="860.97,-100.99 864.6,-91.03 855.56,-96.55 860.97,-100.99"/>
</g>
</g>
</svg>
