<?xml version="1.0" encoding="UTF-8" standalone="no"?>
<!DOCTYPE svg PUBLIC "-//W3C//DTD SVG 1.1//EN"
 "http://www.w3.org/Graphics/SVG/1.1/DTD/svg11.dtd">
<!-- Generated by graphviz version 2.43.0 (0)
 -->
<!-- Title: %3 Pages: 1 -->
<svg width="214pt" height="242pt"
 viewBox="0.00 0.00 213.59 241.58" xmlns="http://www.w3.org/2000/svg" xmlns:xlink="http://www.w3.org/1999/xlink">
<g id="graph0" class="graph" transform="scale(1 1) rotate(0) translate(4 237.58)">
<title>%3</title>
<polygon fill="white" stroke="transparent" points="-4,4 -4,-237.58 209.59,-237.58 209.59,4 -4,4"/>
<!-- (a,b) 1.0 -->
<g id="node1" class="node">
<title>(a,b) 1.0</title>
<ellipse fill="none" stroke="black" cx="100.2" cy="-184.19" rx="49.29" ry="49.29"/>
<text text-anchor="middle" x="100.2" y="-180.49" font-family="Times,serif" font-size="14.00">(a,b) 1.0</text>
</g>
<!-- (f,i) 5.0 -->
<g id="node2" class="node">
<title>(f,i) 5.0</title>
<ellipse fill="none" stroke="black" cx="44.2" cy="-49.4" rx="44.39" ry="44.39"/>
<text text-anchor="middle" x="44.2" y="-45.7" font-family="Times,serif" font-size="14.00">(f,i) 5.0</text>
</g>
<!-- (a,b) 1.0&#45;&gt;(f,i) 5.0 -->
<g id="edge1" class="edge">
<title>(a,b) 1.0&#45;&gt;(f,i) 5.0</title>
<path fill="none" stroke="black" d="M81.24,-138.23C76.03,-125.88 70.35,-112.42 65.04,-99.83"/>
<polygon fill="black" stroke="black" points="68.18,-98.26 61.07,-90.41 61.73,-100.98 68.18,-98.26"/>
</g>
<!-- (g,a) 2.0 -->
<g id="node3" class="node">
<title>(g,a) 2.0</title>
<ellipse fill="none" stroke="black" cx="156.2" cy="-49.4" rx="49.29" ry="49.29"/>
<text text-anchor="middle" x="156.2" y="-45.7" font-family="Times,serif" font-size="14.00">(g,a) 2.0</text>
</g>
<!-- (a,b) 1.0&#45;&gt;(g,a) 2.0 -->
<g id="edge2" class="edge">
<title>(a,b) 1.0&#45;&gt;(g,a) 2.0</title>
<path fill="none" stroke="black" d="M119.16,-138.23C123.72,-127.41 128.64,-115.75 133.35,-104.56"/>
<polygon fill="black" stroke="black" points="136.6,-105.88 137.26,-95.31 130.15,-103.16 136.6,-105.88"/>
</g>
</g>
</svg>
